<?xml version="1.0" encoding="utf-8"?>
<!-- Generator: Adobe Illustrator 20.1.0, SVG Export Plug-In . SVG Version: 6.00 Build 0)  -->
<svg version="1.1" xmlns="http://www.w3.org/2000/svg" xmlns:xlink="http://www.w3.org/1999/xlink" x="0px" y="0px"
	 viewBox="0 0 375 350" enable-background="new 0 0 375 350" xml:space="preserve">
<g id="Layer_2" display="none">
	<rect x="-172.5" y="-300" display="inline" fill="#364CA0" width="720" height="950"/>
</g>
<g id="pitcher_x5F_vw3_x5F_wst">
	<path  d="M243.5,253.2c0,0,17.5,9.7,8.9,48.5c-8.3,37.4-14.4,38.5-14.4,38.5c-12.1,5-29,5.5-48,4.2
		c0,0-52.7-2.4-57.8-5.6c-5.1-3.2-6.9-5.6-6.9-5.6s2.2-36-8.3-59.1l5.9,2.1C176.6,293,243.5,284.9,243.5,253.2z"/>
</g>
<g id="pitcher_x5F_vw3_x5F_logo">
	<path  d="M168.4,305.5l6.8-9.9c0,0,30.7-1.2,41.5-4.9c22-7.5,27.3,5.5,12,20.2s-28.3,12.6-31,15.3l-3.9,9.7
		c0,0-15.7,1.1-16.5,1.3l14-31.2c0,0,13.1-1.8,15.1-2.7l0.2,2.4l-5.5,12.2c0,0,16-4.8,18.2-11.8c2.2-7-0.9-6-4.2-5.3
		c-3.3,0.7-19.6,2.9-23.1,3.2c-3.6,0.2-12,0.6-15.9,1.2L168.4,305.5z"/>
	<path  d="M170.2,320.6c4.7-0.9,3.3,1.8-1.2,3.6c-0.5,1.8-19-2.6-6.2-14c0,0,12.5-8.1,18.6,1.6
		c6.1,9.7-5.8,20.5-15.4,21.7c-7.2-0.8-6-2.2-1.5-4c6.7-2.4,9-4.3,11.2-14.3c1.4-0.5-2.1-8.6-6.6-2.1
		C164.7,319.2,170.2,320.6,170.2,320.6z"/>
</g>
<g id="pitcher_x5F_vw3_x5F_thbi">
	<path  d="M243.5,253.2c0,0,15.7,8,8.8,47.1c0,0,12.7-24.6,14.1-27.9c1.3-3.3,6.6-16,6.6-16s5.4-14.9,6.2-17.3
		c0.9-2.3,2.6-8,2.6-8l3.8-12.5l-1.1-5.5l-5,5.5l-35.3,31.3L243.5,253.2z"/>
</g>
<g id="pitcher_x5F_vw3_x5F_plm">
	<path  d="M279.5,218.6c0,0-0.4,29.8-35.3,31.3c0,0,3.7-26.5-23.9-32.7c0,0-3.7-27.7,7.2-49l5.9-12.3l5.5-9.6l5.9-13.6
		c0,0,12.3,15.4,25.9,28.8c13.6,13.4,24.1,39.6,24.1,39.6L279.5,218.6z"/>
</g>
<g id="pitcher_x5F_vw3_x5F_web">
	<path  d="M287.7,56.3c0,0,0.4,5.4,0,6.4s-1.6,1.6-1.6,1.6l0.9,4.6c0,0,2.1,2.3,1.8,5.6c-0.2,3.3-0.5,4.5-0.5,4.5
		s2,3.8,0.5,10.3l-1.1,2.2c0,0,1.6,5.4-0.9,12.6c0,0,3.7,6.1,0.4,14.9l-0.1,3.2c0,0,2.7,7,0.7,12.2c0,0,2.2,2.6,0,6.9l-0.7,2.8
		l-0.1,11l3.8,5.1c0,0-0.6-6.5,0-14.7c0,0-0.6-6.7-1.1-14.3c-0.5-7.6-1.2-15.8-0.6-24s0.4-11.8,1.7-16.2l2-19.6l0.7-3.2l-2.2-7.6
		l-0.9-0.6v-2.7l-1.5,0.7L287.7,56.3z"/>
	<path  d="M269.9,27.2c0,0,0.2-3.3-2.8-9.1v-1.5l-2.9-2.6c0,0-1.8,3.7-4.7,2.2c-2.8-1.5-3.6-2.9-3.6-2.9
		s-3.3-2.7-3.3-3.4c0-0.7,0-2-2.9-3.2s-5.3-1.8-5.3-1.8l-2.7,2l1.7,3.8l0.7,2.6l-1.8,0.1l-0.6,2v0.7c0,0-7.5-0.4-7.5,2.9
		s1.1,13.1,0.5,15.9c-0.6,2.8,1.5,2.4,1.5,2.4s6.1-6.9,10.3,1.2L246,51.2c0,0-9.4-1.8-10.3,1.6s-0.6,15.2-0.9,19.6
		c-0.2,4.4,0.5,3.6,0.5,3.6s6.4-6,11.5,1.1l-2.7,4.4l0.4,5.4l-1,5.6c0,0-10.4-1.5-12,1.1s-2,25.2-2.1,28.5c0,0-0.5,0.4,1.2,1.3
		c1.7,1,2.6-1.2,2.6-1.2s4-1,8.3,0.4l-0.2,3.3c0,0,1.8,2.6,4.4,7.6c2.6,5,6.4,11.6,6.9,14.6c0.5,2.9,0.9,6.1,0.9,6.1h2.7
		c0,0-3.2,4.8-4,6l20,18.9c0,0,2.1-0.1,3.7-2.1l2.6,4.7c0,0,4-0.6,5.4,0c1.3,0.6,2.3,1.7,2.3,1.7l4.2,9.1l-0.5,2.3
		c0,0-13.4,6.2-12.2,5.4c1.3-0.9,11.3,11.7,4.6,17.9c-0.2,0.1,0.2,0.4,0.3,0.2c2.5-1.9,11.9,7.8,12.3-17.2l0.3-12.4l4.6-53.4
		l2.2-44.7l-2.2-8.1L295.3,64v-4c0,0,1.5-3.4,1.1-4.5c-0.4-1.1-3.4-0.7-3.4-0.7L287.5,38l-10.9-13.6l-8.3-6.6L269.9,27.2z"/>
</g>
<g id="pitcher_x5F_vw3_x5F_indi">
	<path  d="M199.3,15.8c0,0-9.3,8.3-13.2,17.4l-1,9.2c0,0-4.9,21.7-6.9,43.1v10.2l-6.1,31.8l2.2,54.4
		c0,0,2.7,29.1,2.9,31.2s0.2,2.1,0.2,2.1h19.8l5.4-96.3c0,0,4.9-45.3,4.9-60.2l5.1-46L199.3,15.8z"/>
</g>
<g id="pitcher_x5F_vw3_x5F_indo">
	<path  d="M214.9,11.7l-5.4,42.2l-5.1,73.1l-3.4,46l-1.2,43.6l27.9,6.1l13.7-82.8v-14.1l2.1-34.7l0.7-9.8V45.7l-2.4-30.4
		C241.7,15.4,240.6,4.3,214.9,11.7z"/>
</g>
<g id="pitcher_x5F_vw3_x5F_mid">
	<path  d="M164.7,24.9c0,0,12.2-4.4,17.6,4.2c4.3,6.8,1.7,10.8,1.7,10.8l-1.1,8.9c0,0-2,15.8-3.4,22.7l-1.6,19.8v8.6
		l-1.7,8.4c-0.6,1.3-4.4,16.4-4.4,19l0.7,19.1l1.8,46.8l3.8,23l-40.7,6.9c0,0-7.6-26.7-10-46c-2.4-19.3-3.4-27.2-3.4-27.2
		c-1.8-13.6-1.5-26.4-0.4-34.5c1.2-14.9,4.2-30.5,8-46.5l6.1-18.3l6.1-12.1C143.9,38.4,148.1,26.1,164.7,24.9z"/>
</g>
<g id="pitcher_x5F_vw3_x5F_rngo">
	<path  d="M126.8,163.8c0,0,1.7,26.2,4.7,37.5c2.9,11.3,6.4,22.5,6.4,22.5l-14.4,4.7l-14.2-37.1
		c-2.1,2.9-13-47.7-9.1-49.8c1.3-28.6,8.2-71.7,14.7-77.6c0,0,3.7-1.5,6.6-4.2c2.9-2.7,2.2-4.7,2.2-4.7l-4.9-1.1c0,0,9-4.5,13.7-2.3
		c4.7,2.2,3.7,4.7,3.7,4.7l-5.6,16.9c0,0-5.1,28.9-5.6,32.8c-0.5,3.9-2.2,22.5-2.2,22.5l2.2,22.5L126.8,163.8z"/>
</g>
<g id="pitcher_x5F_vw3_x5F_rngi">
	<path  d="M112.6,66.2l-8.8,34.7c0,0-0.7,7.8-2.7,15.4c-2,7.6-5.6,36.2,0,56.3c5.6,20.1,11.3,32.6,11.3,32.6l10.5,27.2
		l-12.4,7.1L98,206.6l-1.7-8.8c0,0-6.4-16.7-7.8-31.3c-1.5-14.7,2.7-35,2.7-35l3.2-21.3c0,0,4.9-19.6,6.4-24.6
		c1.5-5,3.7-19.2,5.9-21.7C108.9,61.4,112.6,66.2,112.6,66.2z"/>
</g>
<g id="pitcher_x5F_vw3_x5F_pnko">
	<path  d="M113.5,331.3c0,0-24-27.7-27.4-32.6s-7.3-10.3-9.8-16.9c-2.4-6.6-4.7-15.9-6.1-25.7c-1.5-9.8-3.2-26-3.2-26
		s-0.2-15.4,1-24c1.2-8.6,6.4-33.9,6.4-33.9S69,206.9,71.4,223c2.4,16.2,6.4,25.5,9.6,33.3c3.2,7.8,6.8,27.9,15.5,41.5
		C105.2,311.5,112.8,326.2,113.5,331.3z"/>
</g>
<g id="pitcher_x5F_vw3_x5F_pnki">
	<path  d="M73.1,167.2c-0.7,2.9-1.7,36.2-1.7,36.2s-0.5,7.6,0,19.6c0.5,12,17.9,62.2,17.9,62.2l21.3,37.2l2.9,8.8
		c0,0,6.6,0.2,8.1-11s-6.4-23.3-6.4-23.3l-9.7-32.1c0,0-0.1-22.3,4.9-25.5c0,0-11.4-29.9-14.1-41.6c-2.7-11.8-9.9-32.8-8.2-45.1
		c1.8-12.2,8.9-52.9,8.9-52.9l3.7-12.7c0,0-5.7,1.4-7.6,1C81.7,85.9,82.4,130.9,73.1,167.2z"/>
</g>
<g id="pitcher_x5F_vw3_x5F_stch">
	<path   stroke-width="1.5" stroke-miterlimit="10" stroke-dasharray="3,1.5" d="M236,160.2
		c5.4,12.9,5.6,80,43.2,61.8c-3.3,14.8-14.6,23.7-34.8,26.2l0,0c-1.7-13-9.4-22.4-20.7-29.7c-1.6-1-0.5-36.8,10.1-55
		C234.4,162.4,235.2,161.3,236,160.2z"/>
	<path   stroke-width="1.5" stroke-miterlimit="10" stroke-dasharray="3,1.5" d="M234.1,166.2
		c0,0-11.1,28.4-7.9,52.4"/>
	<path   stroke-width="1.5" stroke-miterlimit="10" stroke-dasharray="3,1.5" d="M235.7,164
		c0,0,2,75.2,40.4,61.7c0,0-4.6,20.1-31.7,19.8"/>
	<path   stroke-width="1.5" stroke-miterlimit="10" stroke-dasharray="3,1.5" d="M244.5,245.6"/>
	<path   stroke-width="1.5" stroke-miterlimit="10" stroke-dasharray="3,1.5" d="M240.6,265.2
		c0,0,15.2,16.4,7.9,45.8"/>
	<path   stroke-width="1.5" stroke-miterlimit="10" stroke-dasharray="3,1.5" d="M243.5,256.7
		c1.6,0.6,12.8,9.3,9.4,40.1"/>
	<path   stroke-width="1.5" stroke-miterlimit="10" stroke-dasharray="3,1.5" d="M129.6,335.2
		c0,0,22.9,11.6,101.6,6.6c14.4-0.9,0,0,0,0"/>
	<path   stroke-width="1.5" stroke-miterlimit="10" stroke-dasharray="3,1.5" d="M231.2,341.8
		c0,0-73.8,5.1-98.7-5.9"/>
	<path   stroke-width="1.5" stroke-miterlimit="10" stroke-dasharray="3,1.5" d="M122.8,276
		c0,0,33.3,12.6,56.6,9.3"/>
	<path   stroke-width="1.5" stroke-miterlimit="10" stroke-dasharray="3,1.5" d="M219.3,217.6
		c0,0-40.8-10.4-92.6,6.7"/>
	<path   stroke-width="1.5" stroke-miterlimit="10" stroke-dasharray="3,1.5" d="M267.8,23.8
		c0,0-9.6-7.9-18.6-7.9c0,0,5.4,8.8,2.4,23.4l1.3,13.6c0,0,3.8,7.1,0,26.7c0,0-1.3,3.3-1.3,16.4s-0.2,26.7-0.2,26.7
		s-1.2,13,12.6,26.9c13.8,13.9,14.2,14.5,14.2,14.5s2.6,6.1,5,11.8l4.5,7.3"/>
	<path   stroke-width="1.5" stroke-miterlimit="10" stroke-dasharray="3,1.5" d="M293.4,190.7
		c0,0-3.7-8.2-7.3-12.6c-3.7-4.4-4.3-9.6-4.3-9.6s-2.3-7.6-15.1-19.2c-12.8-11.6,0,0,0,0l-9.4-13.1c0,0-3.6-7.4-3.8-14.9
		c-0.2-7.4-0.6-29.3,0-33.6c0.6-4.3,1.5-5.9,2.8-14.7c0,0-0.8-13.9-2.7-23.5l0.2-8.7c0,0,2.4-14.3-1.9-19.6"/>
</g>
<g id="pitcher_x5F_vw3_x5F_wlt">
	<path  d="M215.9,9.2c-4.5,28.1-7,55.7-7.3,82.9l-2.9,43.6c0,0-7.5,66.2-4,80l-0.2,1l-3.8-0.4c0,0,0.3-32.4,2.2-50.9
		c4.8-47.8,7.3-103.8,7.3-103.8c1.3-19,2.8-36.6,5.6-51.2L215.9,9.2z"/>
	<path  d="M171.8,127.3l1.7,15.7c0,0-0.1,24.5,1.8,41.9c2,17.4,2.6,20.6,4,31.3l-3.8,0.4c0,0-3.3-33.7-3.6-43
		s-0.7-32.8-0.7-32.8L171.8,127.3z"/>
	<path  d="M157.6,33.2c0,0-7.3,24.9-9.6,35.6s-3.8,26.9-3.8,26.9s-2.9,24.2-1.5,41.9c1.5,17.6,7.4,46,7.4,46l7.4,36
		l-2.7-0.4c-7.9-33.8-19.2-77.3-13.6-118.2c0,0,1-20.1,3.6-29.6c2.1-8,10.8-39.7,10.8-39.7L157.6,33.2z"/>
	<path  d="M114.8,63.9l-9.6,38.7c-2.7,11.1-4.1,30.2-4.1,30.2c-0.5,8.3-4.6,24.6,8.1,58.6l13.7,37.2l-2.4,1.3
		c0,0-9.3-22.4-17.4-48.7c-8.1-26.5-4.1-56.8,0.2-79.1l9.3-35.9L114.8,63.9z"/>
	<path  d="M97.5,199.4c0,0,4.3,14.4,6.2,20.2c2,5.8,6.8,16.4,6.8,16.4l-1.8,2.4c0,0-6.1-14.1-7.2-19.5
		C100.4,213.5,97,201.2,97.5,199.4z"/>
	<path  d="M126.6,160.8c0,0,5.6,51.2,11.8,60.1l-2.7,1.1c0,0-6.5-24.6-7-32.6c0,0-2.1-17.4-2.1-19.2
		C126.6,168.4,126.6,160.8,126.6,160.8z"/>
</g>
<g id="pitcher_x5F_vw3_x5F_bnd">
	<path  d="M242.4,333.7c-1,2-3.5,4.4-8.2,7c-7.8,4.2-44.6,2.7-67.4,1.8c-36.2-1.3-40.2-10-40.2-10
		c8.9-14.4-1.3-36.7-1.3-36.7l-7.3-21.6c43,17.1,117.1,14.2,121.5-6.1c14.7-34-7.3-46-7.3-46s-12-9.3-60.8-6.9s-62.6,23.3-62.6,23.3
		c-11.9,5.1-3.2,25.7-3.2,25.7s5.3,20.6,13.1,43.6c7.8,23-6.6,23.5-6.6,23.5c6.6,7.3,10.8,4.9,10.8,4.9c6.9,1.5,2.9,2.7,20.6,6.6
		s46.5,4.9,69.3,4.7c22.8-0.2,28.4-7.1,28.4-7.1S243.3,331.8,242.4,333.7z M112.6,247.3C115.3,238,129,235,129,235s13.5-9.6,43.1-13
		c29.6-3.4,53.1,3.2,53.1,3.2c13.5,7.6,7.6,22.3,7.6,22.3l-1,9.2c0,0-3.2,11.9-6.6,13.8c-3.4,2-5.4,1.5-5.4,1.5s-21.7,5.1-46.2,5.9
		s-57.1-11.8-57.1-11.8S109.9,256.6,112.6,247.3z"/>
</g>
<g id="pitcher_x5F_vw3_x5F_lce">
	<path  d="M300.4,44.7c0,0-11-15.7-12.7-17.8s-3.1-3.6-3.1-3.6l-15.3-12.4l-13.1-6.9L253,7.8l1.2,2.8l2.6-0.2
		c0,0,10.7,4.9,16.5,9.7c5.8,4.8,17.2,19.6,20.5,25.8h-3.2c0,0,1.3,5.9,2.2,8.1c0.9,2.2,4,2,4,2s-0.6,2.7-1.2,4.3
		c-0.6,1.6-0.4,6.7-0.4,6.7l3.8-2c0,0-0.5,10,0.2,14c0.7,3.9,2,5.5,2,5.5v8.9h1.5l3.2-4.3c0,0-0.7-15.6-1.8-17.6
		c-1.1-2.1-0.6-4.8,0-8c0.6-3.2-0.2-5.4-0.2-5.4l2.1-5.5l-3.3-4.9l-1.7-0.4L300.4,44.7z"/>
	<path  d="M267.6,16.7c0,0-0.9,1.3,0.9,4.3l0.9,1c0,0,1.5,3.8,1.2,5c0,0-3.1-1.3-3.7-0.7c-0.6,0.6-0.9-1.8-8.2-1.6
		l0.5,2.3l2.3,3.4l1.7,2.7l2.6,4.7l-4.3-1.8l-2.1,3.1l0.9,1.5l2.8,3.7l2.3,7.5l1.8,2.3c0,0-4.4-2.9-6.7-3.4
		c-2.3-0.5-0.1,0.6-0.1,0.6s-3.1,1.2-0.6,3.4l2.3,3.8l2.9,7.8l-3.6-1.3l-0.1,4l1.8,4l2.2,7.7l1.2,2.8c0,0-4-2.6-5.3-2.6
		c-1.2,0-1.3,3.8-1.3,3.8l1.3,4l2.3,7.1l0.9,0.9l1.1,3.3c0,0-2.7-3.1-6.1-4.2s-1.6,4.2-1.6,4.2l1.8,4.3l2.6,6.6l0.9,0.6l2,2.9h-1.6
		c0,0-3.7-1.8-6.1,0c-2.4,1.8-0.6,4.3-0.6,4.3s4.7,1.7,5,2.6s-1.6,1.8-1.6,1.8s1.3,5.9,2.1,6.5c0.7,0.6,2.9,0.6,2.9,0.6
		s-2.9,8.3-1.2,9.2l-17.9-5.9l-16.8-5.6l-3.3,6.9l4.4,2.3c0,0,21.4,6.7,25.1,8.1c3.7,1.3,20.3,6.1,27.8,18c0,0-1.7,1.8-1.2,5
		c0.5,3.2,4.3,5,4.3,5h1.6l2.2,1.6c0,0,3.7,11.5,4.3,12.5c0.6,1,2.6,6.4,1.2,14.1s-2.3,13-2.3,13l-0.4,8.3l0.9,4.2
		c0,0,3.3,0.1,3.3-4c0-4.2,1.1-18,1.1-18s2.2-18.2-0.5-22.7c0,0,3.7-5.6,1.3-14.1l0.8-22.4V143c0,0,5.2-7.7,1-13.6
		c0,0,2.8,0.1,1.7-7.7l0.9,10.3c0,0,7.2,27.3,8,32.8l5.9-0.2c0,0-6.1-32.6-7.8-35.6s-5.6-15.8-5.6-15.8l1-2.2l-2.8-3.9
		c0,0,1.5-4.8-1.5-12.6c0,0,1.2-0.4,1.1-2.9c-0.1-2.6-0.1-3.3-0.1-3.3l-0.4-3.7l1.2,8.6l3.7-4.5l-1.6-14.4l-2.2-4
		c0,0,2.3-5.6,1.5-11.9l3.4-4.3c0,0-0.6-4.4-3.4-6.2c-2.8-1.8-14.6-18.2-14.6-18.2s-8.4-10.9-13.1-13.6l-11.6-7.7l-8-4.2l-2.8,5.4
		C253.7,9.4,261.5,11.8,267.6,16.7z"/>
	<path  d="M280.6,180.7l-4.4,2.4l-18.9-18l-31.1-30.4l-6.9,7.3c0,0,45.7,44.5,48.1,45.7l-3.9,1.7l3.1,7.7
		c0,0,2,0.6,4.4,0c0,0-1.7,4.2,4.2,3.5s7.5-2.8,7.5-2.8s3.5,25,4.8,30.5c1.3,5.5,5.1,22,5.1,22h5l2.2-6.4
		c-3.3-0.9-6.7-17.1-10.5-48.7c0,0,2.4-7,1.8-8.4c-0.6-1.5-2.2-3.9-6.8-3.5L280.6,180.7z"/>
	<path  d="M233.4,122.1l-1.7,3.6c0,0,0.6,5.3,8.1,1.6v-5.2H233.4z"/>
	<path  d="M238.4,73.6c0,0-1.1,1.8-2.6,1.8c0,0-0.9,5,5,5.3c5.9,0.4,5.7-3.6,5.7-3.6S248.1,73.8,238.4,73.6z"/>
	<path  d="M246.6,38.3c0,0-1.8-5-7.6-3.5l-3.1,2.8c0,0,2.2,4.6,6.6,5.9C242.4,43.5,245.9,40.5,246.6,38.3z"/>
	<path  d="M242.1,7.3l1.8,5.5l-2.7,2.8l-0.9-3.3c0,0-4-4.4-14-2.4c-10,2-18.7,4-22.5,5.7c-4.5,0.9-5.1-0.1-2.2-2.8
		c0,0,11.4-13.6,26-7C227.4,5.8,229.9,0.3,242.1,7.3z"/>
	<path  d="M184.7,41.1c0,0-3.1-1.2-5.1,5.1c0,0-1.7,1.1-4.8-0.9s-0.9-4.2-0.9-4.2s4.4-8.2,14.3-6.5c0,0,1.3,1.2,0,3.2
		C186.9,39.8,184.7,41.1,184.7,41.1z"/>
	<path  d="M127.6,65.5l-0.9,3.3l4.4,2.2l2.2-7.2v-2.2C133.3,61.6,129.8,62.9,127.6,65.5z"/>
	<path  d="M144.5,39.2c0,0,2.8-16.9,24.2-13c0,0,1.7-1.2-1.7,4.8C168.2,32,149.1,37.9,144.5,39.2z"/>
	<path  d="M118.1,61.6c0,0-6.7,2.6-7.5,6.8c0,0-2.8,3.1-3.9,3.7c-1.1,0.6-1.7-1.3-1.1-3.7c0.6-2.4,2.4-12.1,14.4-14.1
		l2.9,0.9c0,0,1.8,1.8-1,3.9C119,61.1,118.1,61.6,118.1,61.6z"/>
	<path  d="M98.3,93.1l-0.8,3.7l-1.3,6.2h-3.3v-1.8C92.9,101.1,91.6,95.8,98.3,93.1z"/>
	<path  d="M87.8,154c0,0-0.9,6.8,0,10.8c0.9,4-5.1-0.9-5.1-0.9s-5,2.8-6.1,5.3v2.7c0,0,1.8,5,1.3,16.8
		c-0.6,11.8,0.7,28.7,0.7,28.7s3.9,7.2,6.2,12.5s2.2,2.9,2.2,2.9l5,10.8c0,0,0.2,11.4,0,15.4c-0.2,4,1.7,23.7,1.7,23.7v7.9l1.5-22.2
		l3.2-1.1l1.9,6.8l-1.9,17.6l1.9-3.3c0,0,8.4,16.9,7.7,24.2c0,0,2,3.9,1.1,7.7l2.8,7.2c0,0-0.9,6.4-1.3,8.3h-3.4l-3.2-1.7
		c0,0,2.6-16.5-1.5-15.6c0,0-2.9,0.2-5-0.9c-2.2-1.1-6.4-7.9-6.4-7.9l-1.7-5.9l2.4-4.9c0,0,2-3.4,1.3-6.1c-3.6,3.6-6.6,3.1-7.9-2
		c0,0-4-37.6-7.2-41.4l-5-3.4l-2.9-8.8c0,0-2.6-0.4-1.5-5.5c1.1-5.1,1.3-7.7,1.3-7.7s1.3-0.9,2.6-1.1c0,0-2.8-20.8-2.2-29
		c0.6-8.3-0.7-16.9-0.7-16.9s-0.6-7,3.5-10.1c0,0,7.2-10.3,10.8-10.3C83.9,156.6,83.7,155,87.8,154z"/>
	<path  d="M92.8,89c0,0-1.6,0.2-2.7-2c-1.1-2.2-1.9,0-1.9,0s-0.9,0.6-2.6-0.4c-1.7-0.9-2.8-1.3-2.8-1.3s-3.3,0.9-2,3.7
		l0.4,1.3c0,0-6.2,10.3-11.3,23.1S56.5,146,55.9,146.9l6.1,2.6c0,0,10.9-26.3,13.2-30.3c0,0,0.8,9.2,0.4,18.3c0,0-0.4,2.6-2.8,3.7
		c-2.4,1.1-3.4,1.8-3.4,1.8s-1.5,0.8-0.6,2.1l-0.5,1.2l0.9,6.8l0.4,4.6c0,0-2.9,14.1-3.9,20.3c0,0-2.8,15.8-4.8,18.4s2.2,0.1,3-2.5
		c0,0,1.8-5.5,2.2-8c0.4-2.5,0.1-8.4,4.5-20.9l1.7-5.3l2.3,1.6l0.7-4.4l1.7-8.2l0.3-1.7c0,0,0.9-10.5,2.9-14.9
		c0,0,0.4-11.3,0.8-13.8l-1.8,0.1l-0.6-1.7c0,0-2.4-9.1,4.9-15.4c0,0,0.7-2.7,2-4.5c0,0,0.5-0.2,1,0.6c0,0,2.2-0.1,2.8,0.8
		C89.4,98,93.8,94.6,92.8,89z"/>
</g>
<g id="pitcher_x5F_open_x5F_back">
	
		<image id="glove-view-1" overflow="visible" width="720" height="950" xlink:href="assets/images/9P_pitcher_open_back1.png"  transform="matrix(0.3674 0 0 0.3674 55.2474 2.5)">
	</image>
</g>
</svg>
