<?xml version="1.0" encoding="utf-8"?>
<!-- Generator: Adobe Illustrator 22.1.0, SVG Export Plug-In . SVG Version: 6.00 Build 0)  -->
<svg version="1.1" xmlns="http://www.w3.org/2000/svg" xmlns:xlink="http://www.w3.org/1999/xlink" x="0px" y="0px"
	 viewBox="0 0 375 350" enable-background="new 0 0 375 350" xml:space="preserve">

<g id="pitcher_x5F_vw2_x5F_plm">
	<path  d="M138.4,11.5l-3,16.2c0,0,1.8,27.5,4.8,44.5c2.9,17,2.3,55,2.3,55s2.3,16.5-5.8,26.2
		c-8.2,9.7-23.1,24.9-23.1,24.9s-5.5,8.9-9.3,0S64.8,66.4,60.9,59.2c-3.4-6.1-6.3-12.8-14.7-12c0,0,2.8-1.3,15.6,28.8l19.1,55
		c0,0,19.6,62.4,24.5,67.9c0,0,12.6,74.9,23.7,91.2s51.7,40.9,94.9,38s87.6-15.2,94.3-56.6s6.7-51.6,6.7-51.6s4.7-53.7,4.1-63.4
		c-0.6-9.7,5.3-44.5,5.3-44.5s5.5-34.6,0-49.5c-5.5-14.9-25.9-33.6-40.3,3.4l-4.4-0.5c0,0,10.8-31.7-8.5-41.1s-27.5,7.6-27.5,7.6
		s-4.1,7.3-4.4,13.6l-4.4-1.6c0,0,3.5-25.9-20.1-33.8s-28.6,16.5-28.6,16.5l-0.9,26.2l-5.3-3.1c0,0,0.3-34.8-19-42.2
		s-23.9-3.5-23.9-3.5S138.4,8.9,138.4,11.5z"/>
</g>

<g id="pitcher_x5F_vw2_x5F_bfg">
	
		<path  d="M51.7,140.4l-7.4-34.6h-3.5c0,0-25-49.1,0-53.8c0,0,6.6-8.6,21.9,37.3s20.2,59.7,20.2,59.7l21,54.2
			c0,0,8.8,74.7,25.4,107.7c0,0,3.5,18.9-24.5,25.2l-4.4-5.9l-5.3-20l-24.8-53.5c-9.1-25.7-15.9-53.2-21.3-82L51.7,140.4z"/>
		<path  d="M227.3,9.1c0,0,17.5-1.2,22.8,24.8c0,0,1.8,40.1,0,59.7c-1.8,19.7-8.8,62.9-8.8,62.9l-2.2,3.1
			c0,0,4.9-43.6,5.3-57c0.4-13.4,2.6-49.9,2.2-59C246.2,34.7,247,15.4,227.3,9.1z"/>
		<path  d="M284.3,24.1c0,0,15.3,10.6,7.4,44c0,0,7-4.8,8.8-16.8S294.8,25.6,284.3,24.1z"/>
		<path  d="M321.9,42.1c0,0,17.1,2,21.9,20.8c3.4,13.4,4.8,35,2.2,55.4s-4.4,33.4-4.4,51.5s0.5,13-3.2,29.9
			s-2.9,34.6-2.9,34.6l-8.3-3.5l2.2-37.1c0,0,0.9-40.4,5.3-63.9S349.7,63.8,321.9,42.1z"/>
		<path  d="M137.8,150.9c0,0,5.8-23.8,4.1-51.4c-1.8-27.5-4.1-50.8-4.1-50.8V29.1c0,0-1.5,2.4,0-2.1
			c1.5-4.5-4.4,8.9-5.5,11.4s2,25,2,25l2.8,37.5c0,0,1.9,24.9,1.9,34.8C139,145.5,137.8,150.9,137.8,150.9z"/>
		<path  d="M192.5,149.3c0,0,3.9-25.7,3.7-47.7s-1.5-43.2-1.9-48.1s-2.5-23.6-3.6-27.3s-5.9-20.6-26.3-24
			c0,0,17.3,6.1,20.6,19.5s3.9,21.2,5.5,37.1s2.2,40.1,2,47c-0.2,6.9-2.8,43.6-2.8,43.6S191,150.3,192.5,149.3z"/>
	
</g>

<g id="pitcher_x5F_vw2_x5F_bnd">
	<path  d="M140.5,313.6l7.3,4.7c0,0,0,0,4.1,1.8s21.3,8.9,53.1,10.2s56.9-3.3,56.9-3.3
		s-11.4,1.2-17.5,6.9c-6.1,5.8-19.9,6.6-19.9,6.6s-26.6-6-42.9-5.5c-16.4,0.5-47.9,1.8-54.3,1.8c-6.4,0-10.5-2.9-10.5-2.9
		c9.6-1.8,21-20.4,21-20.4H140.5z M105.7,339.3c0,0,19.3,7.1,42.9,3.7c23.7-3.4,81.8,3.1,81.8,3.1c5-2.1,13.4-1,13.4-1
		c6.1,7.3,11.1,4.3,11.1,4.3s3.2-15.9,22.5-22.7c19.3-6.8,31.5-19.7,31.5-19.7s16.9-23.8,18.1-40.1c1.2-16.2,6.7-24.6,6.7-24.6
		c2.3-27.2-15.8-6.8-15.8-6.8s0,0-0.6,8.9c-0.6,8.9-12.3,36.4-12.3,36.4s-12.6,27.8-39.4,37.5c-26.9,9.7-73.9,3.1-73.9,3.1
		s-27.2-3.4-43.5-16.2s-20.7-30.7-23.4-38s-4.1-15.2-4.1-15.2l-2.6-8.6c0,0-2-13.6-3.2-21.7s0-14.9,0-14.9s-3.5-11.5-11.4-6
		c-7.9,5.5-2.3,23.1-2.3,23.1s4.4,16.5,4.7,32.8c0.3,16.2,10.2,32.8,10.2,32.8s10.5,16.5,9.9,26.2c-0.6,9.7-24.8,16-24.8,16
		C98.1,336.4,105.7,339.3,105.7,339.3z"/>
</g>

<g id="pitcher_x5F_vw2_x5F_web">
	<path  d="M107.5,48.7c0,0,6.4,39,5.8,48.7c0,0,0.9,22.3,3.2,32c2.3,9.7,3.5,19.7-2.6,25.2c-6.1,5.5-9.3-2.1-9.3-2.1
		l-6.4-57.9l-7.9-43.2c0,0-2.9-6.3,2.9-7.6s9.1-1.8,9.1-1.8S108.1,43.5,107.5,48.7z M133.7,17c2.9-4.2,1.8-8.4,1.8-8.4l-7.6-0.3
		l-1.2-2.6h-10.5l-25.1,4.7c0,0-13.1,3.1-22.5,6.8S48.5,27.8,36.8,38s-7,14.4-7,14.4c12.6-9.7,23.4-3.9,23.4-3.9s9.6,11,14,23.6
		C71.5,84.6,104.5,179,104.5,179l2.3,4.5c6.7-1.8,27.7-27,27.7-27c6.7-16.2,2.7-61.8,2.7-61.8l-1.8-18.9c-4.4-17-3.5-47.2-3.5-47.2
		S130.8,21.2,133.7,17z"/>
</g>
<g id="pitcher_x5F_vw2_x5F_wlt">
	
		<path  d="M324.4,229.8c0,0,0.6-23.1,1.8-30.1c1.2-7.1,1.8-21,1.8-21s0.9-28.6,2.9-34.8V136c0,0,6.4-42.7,5.8-52.7
			s-0.9-28.6-14.3-36.4c0,0-7.6-4.5-11.1-3.4s5.6-3.4,12.7,1.3s17.4,7.9,17.6,41.7c0,0-1.2,14.7-1.8,20.7c-0.6,6-3.5,23.8-5.5,37.5
			c-2,13.6-1.8,18.6-1.8,18.6s-1.2,13.4-0.9,23.6c0,0-0.9,14.7-1.2,20.7c-0.3,6-1.8,23.8-1.8,23.8L324.4,229.8z"/>
		<path  d="M284.7,87.8l3.8,2.1c0,0-2.9,24.6-3.8,29.9c-0.9,5.2-2,18.6-3.8,25.9c-1.8,7.3-2.9,21.5-2.9,27.2
			c0,5.8-2.6,10.5-2.6,10.5s-5.8,1.8-3.5-6.6c2.3-8.4,5.9-31.4,8-45.3C282.1,117.6,284.7,87.8,284.7,87.8z"/>
		<path  d="M267.5,21.2c0,0,21.9-0.3,22.5,19.7l-1.5,14.7l5-1.6c0,0,4.1-19.1-5-25.9C279.5,21.2,279.2,21.2,267.5,21.2z"
			/>
		<path  d="M209.7,9.7c0,0,18.4-3.1,28,11.5c0,0,5.8,7.1,4.7,19.4l0.2,33.3c0,0-4.2,68.4-6.9,75.5
			c-2.6,7.1-1.5,12.1,0.3,12.8c1.8,0.8,3.2,0,3.2,0s-1.5,0.8,1.8-23.3s4.4-57.1,4.4-57.1l1.2-39.2c0,0,2-31.1-23.1-33.2
			C223.4,9.4,217.3,6,209.7,9.7z"/>
		<path  d="M136.1,14.7c0,0,3.8-16.8,24.5-12.6s24.5,16.5,24.5,16.5s2.3,4.5,5.5,17.6v14.1c0,0,2.3,28.8,3.2,57.4
			l-2.3,40.6l2.3-1.6c0,0,0.6,5.8-4.4,5.2s-0.6-9.4-0.6-9.4s2-51.1,1.2-58.7s-1.8-36.9-1.8-36.9S187.2,11.3,163.8,5
			S136.1,14.7,136.1,14.7z"/>
		<path  d="M39.7,123.4c0,0-0.9-14.9-7.3-28.3S25.7,60.3,31,52.9c0,0,4.7-2.4,8.8-3.1c0,0,1.5-3.4,4.1-3.1
			c2.6,0.3,7.6,1.8,10.8,10.5c3.2,8.6,8.2,19.6,8.2,19.6s13.1,37.3,16.6,48.5c3.5,11.3,21.6,68.6,26.9,74.4l-2.9,2.6
			c-1.1,0.7-21.3-52.1-22.5-62.1c-1.1-9.2-19-54.9-19-54.9s-14-38.1-19.9-35c-5.8,3.1-4.3-1.3-9.1,4.2s-2.9,17.6-2.9,17.6
			s3.5,21.5,10.5,35.6c0,0,2.6,13.9,2,16.8L39.7,123.4z"/>
		<polygon  points="292.9,65.9 290.1,80.2 287.2,78.1 288.5,67.4 291.7,66.3 		"/>
		<path  d="M339.5,53.8c0,0-0.5-4.4-9.3-4.9l-4.8-3.2c0,0,3.8-2.2,8.4,0.7S339,51,339.5,53.8z"/>
		<path  d="M136.1,28c0,0,0.2,1.3,0.4,3.4c1.1,8.1,3.8,28.9,4.2,37c0.6,10.2,0,19.4,0,19.4c-0.3,0.9,0.8,22.3,0.3,31.4
			l0.7,18.9l-2.8,9.2V96.2c0,0,1.4-26.7,0-33.5c-1.4-6.8-4.3-29.6-4.3-29.6l0.2-3.2C134.8,29.8,136,29.2,136.1,28z"/>
		<polygon  points="65.5,199.2 68.1,228.1 64.2,219.8 62.2,199.2 		"/>
	
</g>
<g id="pitcher_x5F_vw2_x5F_stch">

	<path  stroke-width="1.5" stroke-miterlimit="10" d="M312.3,259.3c0,0-0.1,0.3-0.4,0.9"/>
	<path  stroke-width="1.5" stroke-miterlimit="10" stroke-dasharray="2.0004,2.0004" d="M311.2,262.1
		c-5,12.3-27.4,60.9-66.5,60.6c-44.7-0.3-60.3,2.2-91.7-14.2c0,0-17.9-12.3-25.2-32.7"/>
	<path  stroke-width="1.5" stroke-miterlimit="10" d="M127.6,274.9c-0.1-0.3-0.2-0.6-0.3-1"/>

	<path  stroke-width="1.5" stroke-miterlimit="10" d="M101.3,331.4c0,0,0.3-0.1,1-0.3"/>
	<path  stroke-width="1.5" stroke-miterlimit="10" stroke-dasharray="2.0024,2.0024" d="M104.2,330.6
		c6.6-2.1,22.2-8.1,21.1-18.6c-1.3-12.6-13.8-24-16.8-36.9"/>
	<path  stroke-width="1.5" stroke-miterlimit="10" d="M108.4,274.1c-0.1-0.3-0.1-0.7-0.2-1"/>

	<line  stroke-width="1.5" stroke-miterlimit="10" x1="65.9" y1="55.1" x2="66.7" y2="54.6"/>
	
		<line  stroke-width="1.5" stroke-miterlimit="10" stroke-dasharray="1.6406,1.6406" x1="68.1" y1="53.7" x2="73.1" y2="50.8"/>
	<path  stroke-width="1.5" stroke-miterlimit="10" d="M73.8,50.4l0.9-0.5c0,0,0.1,0.3,0.2,1"/>
	<path  stroke-width="1.5" stroke-miterlimit="10" stroke-dasharray="1.9412,1.9412" d="M75.3,52.8
		c1.6,8.1,6.2,30.6,6.9,32.6c0.1,0.2,0.1,0.4,0.2,0.6"/>
	<path  stroke-width="1.5" stroke-miterlimit="10" d="M82.6,87c0.3,1,0.3,1,0.3,1s0.1,0.3,0.2,1"/>
	<path  stroke-width="1.5" stroke-miterlimit="10" stroke-dasharray="2.0493,2.0493" d="M83.3,90.9
		c1.5,9.3,5.9,37.4,6.2,48l0.8,3.8"/>
	<path  stroke-width="1.5" stroke-miterlimit="10" d="M90.5,143.7l0.2,1h0.6c0,0,0-0.4-0.1-1"/>
	<path  stroke-width="1.5" stroke-miterlimit="10" stroke-dasharray="1.9588,1.9588" d="M91,141.7
		c-0.9-8.7-3.7-33.8-4.4-39.1c-0.8-5.6-7.6-40.3-9.3-48.9"/>
	<path  stroke-width="1.5" stroke-miterlimit="10" d="M77.1,52.8c-0.1-0.6-0.2-1-0.2-1"/>

	<path  stroke-width="1.5" stroke-miterlimit="10" d="M64.1,52.3c0,0,0.3-0.2,0.9-0.5"/>
	<path  stroke-width="1.5" stroke-miterlimit="10" stroke-dasharray="2.0357,2.0357" d="M66.7,50.7
		c4.9-2.9,15.4-8.8,21.1-10.4c7.1-1.9,29.5-7.7,39.5-9.2"/>
	<path  stroke-width="1.5" stroke-miterlimit="10" d="M128.3,31c0.4,0,0.7-0.1,1-0.1"/>

	<path  stroke-width="1.5" stroke-miterlimit="10" d="M87.1,42.9c0,0,0.3-0.1,1-0.3"/>
	<path  stroke-width="1.5" stroke-miterlimit="10" stroke-dasharray="1.9386,1.9386" d="M89.9,42.2
		c7.6-2,28.4-7.4,36.8-8.5"/>
	<polyline  stroke-width="1.5" stroke-miterlimit="10" points="127.7,33.7 128.7,33.7 128.8,34.7 				"/>
	<path  stroke-width="1.5" stroke-miterlimit="10" stroke-dasharray="1.9752,1.9752" d="M128.9,36.6l1.9,47.4
		c0,0-1.3,21.4,1.3,31.5c2.6,10.1,1.7,20.9,2.6,25.4c0.6,3.3,0.1,9.6-0.3,12.9"/>
	<path  stroke-width="1.5" stroke-miterlimit="10" d="M134.2,154.8c-0.1,0.6-0.1,1-0.1,1"/>

	<path  stroke-width="1.5" stroke-miterlimit="10" d="M87.1,51.3c0,0,0.1,0.4,0.2,1"/>
	<path  stroke-width="1.5" stroke-miterlimit="10" stroke-dasharray="1.9899,1.9899" d="M87.7,54.3
		c1,5.2,3,15.9,4.2,21.9c1.6,8.1,4.8,22.8,5.7,29.1c0.9,6.3,4.1,26.6,4.8,39.3c0.5,9.3,5.2,14.4,7.8,16.6"/>
	<path  stroke-width="1.5" stroke-miterlimit="10" d="M110.9,161.8c0.5,0.4,0.8,0.6,0.8,0.6s0.3-0.1,0.9-0.5"/>
	<path  stroke-width="1.5" stroke-miterlimit="10" stroke-dasharray="1.9771,1.9771" d="M114.2,160.8
		c3.6-2.8,9.8-9.8,8.5-24.4c-1.9-20.5-6.4-69.1-6.4-69.1L115,60l-2.1-17.7"/>
	<line  stroke-width="1.5" stroke-miterlimit="10" x1="112.8" y1="41.4" x2="112.7" y2="40.4"/>

</g>
<g id="pitcher_x5F_vw2_x5F_lce">
	
		<path  d="M133.1,18.6c0,0,7.9,0.4,13.6,0c5.7-0.4,4.4,6.3,4.4,6.3s1.8,1.2,2.6,7.9c0.9,6.7,1.8,12.6,1.8,12.6
			s-4.8,5.5-9.2,0c0,0-3.5-14.1-2-17.3c0,0-3.3,2.4-11.2-0.8V18.6z"/>
		<path  d="M201.9,25.6c3.8-1.5,5.3,2.4,5.3,2.4s2.6,2.8,0,5.1c-2.6,2.3-13.1,8.6-13.1,8.6l15.6,7.7c0,0,3.3,6.4-4.6,8.4
			l-19.3-10.1l-14.2,9.8c-0.6-1.9-0.6-5-2-9.8l8.8-6c0,0-9.6-6.2-11.8-8.6s0-10.3,0-10.3c3.9,0.1,7.3,0.8,8.4,4.7l5.2,5.5
			c0,0,1.2,2.5,4.4,2.7S199.3,28.8,201.9,25.6z"/>
		<path  d="M147.2,70.1v19.7c2.5,3.3,5.3,5.3,10.5,0V70.1C154.2,66.5,150.7,66.5,147.2,70.1z"/>
		<path  d="M149.3,113.3h6.1c0,0,4.8,11.8-0.9,21.8c-2.8,3-5,2.2-6.8-0.9L149.3,113.3z"/>
		<path  d="M144.3,156.5c1.4-1.4,7.5-0.8,8.1,1.6c0.5,1.9-11.8,20.8-11.8,20.8l-7.4-4.2
			C134.9,171.1,144.3,156.5,144.3,156.5z"/>
		<path  d="M111,195.7l8.6-5.8c0,0,4.8-1.8,4.4,3.8s-10.5,9.6-10.5,9.6L111,195.7z"/>
		<path  d="M7.8,135.7L0,132.9l13.5-72.7c0,0,0.9-14.8,7.4-12.5c6.6,2.3,6.6,2.3,6.6,2.3l1.8-2.3c0,0,5.7-4,11-2.8
			c5.3,1.2,5.3,1.2,5.3,1.2s-7.9,0.8-13.6,5.5s-5.7,4.7-5.7,4.7l0,0l1.3,7.5L21,66.1L7.8,135.7z"/>
		<path  d="M63.5,174.7c2,11.1,4.5,21.6,9.4,28.6c-0.5,0.6-0.9,2.4-2.1,1.8c-2.4-1.3-6.2-6.1-7.2-4.9
			c-1.6,1.8-0.1,13.7-0.1,13.7s10.5,21.6,11,25.2h2.6l15.8,15.7l2.2-2.4l6.6,3.9c0,0,0,5.9,0,7.5s0,1.6,0,1.6v1.6l-5.3,4.7l2.6,13.4
			l-1.3,3.5c0,0,18,45.6,21.5,48v4.3c0,0-4.3,2.5-8.8,0c-6.3-3.5-27-51.5-26.3-51.5c0,0-3.9-5.1-8.8-5.5c-4.8-0.4-5.3-10.2-5.3-10.2
			l-3.1-2l0.9-13.1l3.6-2.8c0,0,4.3-8.1-26.8-56c-6.1-9.8-2.9-9.3,3.9-3.3l6.1,6.8c0,0-0.4-19.3-1.3-26.3c0,0-8.8-3.5-12.3-9.2
			c-3.5-5.7-2.2-16.7,0-19.8s-11.8-39.3-11.8-39.3h3.5c0,0-9.2-29.1-5.3-28.7c0,0,8.8,22,9.2,28.7c0.4,6.7,2.6,12.2,2.6,12.2
			l1.8-15.3c0,0,3.1-0.4,4.4,4.3c1.3,4.7,12.3,46.8,12.3,46.8L63.5,174.7z"/>
		<path  d="M219,40.4c0,0,0-9.2,2.6-11.2c2.6-2,5.3,4,5.3,4l7.9,14.6c0,0,5.3-5.5,21.9-9.5c0,0,7.4,1.7,2.2,9.5
			l-16.6,6.6l18.5,14.1c0,0,2.1,6.3-3.2,7.5c-5.3,1.2-5.3,1.2-5.3,1.2l-20.2-17.3l-8.3,3.5l-4.8-8.6l6.1-1.8L219,40.4z"/>
		<path  d="M270.3,44.7c0,0,4.4-2.5,6.1,5.3s0,11.8,0,11.8s15.3-8.3,23.2-8.8c7.9-0.6-2.6,11.6-2.6,11.6l-16.2,5.5
			c0,0,10.5,14.5,14.5,14.5l-4.4,7.5c0,0-15.1-9.6-16-13.7l-2.2,2c0,0-4-3.3-2.4-5.9c1.6-2.6,1.6-2.6,1.6-2.6s-7.7-10.6-3.7-23.4
			L270.3,44.7z"/>
		<path  d="M306.6,83.3c0,0-2.8,25.2-2.6,39.3l-1.5,8.3c0,0-4.2,14.3-2.7,31.2c0,0-6.6,22.6-4.4,30.5s-5-3.1-5-3.1
			s-4.7-14,6.7-29.9c0,0-13.4-21.4,4.2-38.9c0,0-10.8-13.2,1.2-36.2C302.5,84.4,305.1,81.7,306.6,83.3z"/>
		<polygon  points="345.6,119.6 342.1,147.1 350,144.4 346.9,128.9 		"/>
		<path  d="M342.1,157.3c0,0,1.1,36.7,3.9,42.2l-2,1.4h-5.7C338.4,201,341,203.9,342.1,157.3z"/>
		<path  d="M270.1,233.8l2,2.2c0,0-2.6,14.9,21.7,39.9l4.8,2.6c0,0,1.8,7.9,16.6,19.8l0.9,1.8l-5,7.3
			c0,0-20.8-17.7-20.4-24c-6-2.2-10.3-6.1-11.6-12.8c-7.2-5.7-12.1-11.7-11-18.3c-4.8-5.8-4.7-11.7-2.2-17.7L270.1,233.8z"/>
		<path  d="M214.7,270.5c0,0,13.1-2.8,23.2,2.8c0,0,18-2.2,28,6.1c0,0,2.8,1.2,5.5,3.3c2.6,2.2,12.5,8.8,12.5,8.8
			l1.3,2.9l2.2,3.3c-0.3,5,3.5,13.9,7.7,23.2l-7.2,3.9c0,0-11-18.3-9-25l0.2-1.8c0,0-14.5-8.1-16.4-12.8c-2-4.7-25-7.9-25-7.9
			l-18.8-2.4l-4.2-0.8C214.7,274.5,213.1,271.7,214.7,270.5z"/>
		<path  d="M299,265c0,0-1.1-4.9,2.8-5.7l2.8,1.6c0,0,6.8,12,20.4,20l-3.3,7.7C321.7,288.6,298.5,274.9,299,265z"/>
		<path  d="M306,237.3c0,0-4.4,3.7-4.4,6.3s0.4,13,25.2,23.6h2.4l1.1-6.7l-2.6-3.1c0,0-10.1-2.9-10.3-3.9
			c-0.2-1,10.1,2.4,14.2-1.2l2.8-7.3l-1.8-1.4c0,0-9.6,5.5-19.7-3.3L306,237.3z"/>
		<path  d="M215.3,288.6c0,0,19.1-4.9,32.2,2.4c0,0,2.4,2.9,0,4.7c0,0,0.4,2-14.5-1.4l-16-1.6
			C217.1,292.7,211.1,291.2,215.3,288.6z"/>
		<path  d="M158.4,276.2c0,0,14.2-2.2,28.9,8.1c0,0,0.4,2.2-2.8,3.5h-2.2c0,0-21.2-5.5-23.9-7.9
			C155.7,277.6,158.4,276.2,158.4,276.2z"/>
		<path  d="M169.8,267l16.4,4.5l4.8-1.7c0,0-0.7-3-4.8-3.8s-12.9-2-12.9-2s-3.7-0.4-7.2,1.2
			C166,265.2,165.7,265.9,169.8,267z"/>
		<path  d="M138,259.7c0,0,0-3.5-1.3-5.7l8.1,4.9h3.1c0,0-3.5-4.7-5.6-5.9s-7.1-4.1-7.1-4.1s-5.5-9-8.5-9.8
			c0,0,6.1,15.3,7.7,19.1C135.8,261.9,138,259.7,138,259.7z"/>
		<path  d="M264.4,309.2c0,0,4.4,20.6,4.2,23c-0.2,2.4,8.8-2.4,8.8-2.4s0.7-5.3,0-7.5c-0.7-2.2-3.5-10.8-3.3-13.2
			c0.2-2.4-3-4.5-3-4.5S266.3,306.5,264.4,309.2z"/>
		<path  d="M244.9,315.1c0,0,1.1,15.1-7.7,15.9h-3.1c0,0,4.6,4.3,17.3,0c0,0,3.5-6.9,3.9-17.3
			C255.4,313.8,253.6,309,244.9,315.1z"/>
		<path  d="M232.8,314c0,0,1.3,1.6,0,4.8c-1.3,3.2-4.4,13.8-9,15.4H214c0,0-3.9-2.9-4.8-3.7c-0.9-0.8,5.9,2.8,10.5-5.5
			c4.6-8.3,4.4-11,4.4-11H232.8z"/>
		<path  d="M199.1,312c0,0,6.4,0.8,9,0c2.6-0.8-5.5,12.9-5.5,12.9l-5.9,6.9c0,0-5.3,1.4-10.5-1s-3.9-3.3-3.9-3.3
			s5.3,1.2,8.3-1.4C193.6,323.6,199.1,312,199.1,312z"/>
		<path  d="M183.8,308.3c0,0-5.7,0.4-6.8,0c-1.1-0.4-13.9,11.8-19.8,12.4c-5.8,0.6-5.4,0-5.4,0s2.8,6.1,12.3,5.7
			c9.4-0.4,19.7-14.3,19.7-14.3V308.3z"/>
		<path  d="M153.3,299.4l7.2,3.5l-1.8,3.5c0,0-24.3,9-32.2,9c0,0-7.8-5.7-7.5-8.1c0.3-2.4,3.3-2.2,3.3-2.2
			S121.1,311.6,153.3,299.4z"/>
		<path  d="M137.2,285.3c0,0,6,3.3,4.3,7.3c0,0-18.6,6.1-25.2,3.7c-6.6-2.3-5.5-3.3-5.5-3.3s-3.3-5.5-1.3-7.7
			c2-2.2,2.8,0,2.8,0S112.8,291,137.2,285.3z"/>
		<path  d="M105.6,261.7c0,0,4.6,4.3,25,4.5l3.1,7.3c0,0-0.4,3-2.6,2.6c-2.2-0.4-6.4-2.4-17.7-2.6s-10.1-3.6-10.1-3.6
			S101,264.8,105.6,261.7z"/>
		<path  d="M115,207.3c0,0-1.3,3.7-21,1.4l-2.2-0.3c0,0-2,3.8-2.2,7.2l3.3,1.6c0,0-0.2,6.5,5.3,8.1
			c5.5,1.6,17.7,5.9,17.7,5.9l1.3,11.6c0,0-12.7-3.1-13.8-5.3c-1.1-2.2-2-4.7-2-4.7l-3.9,0.4l-1.8,7.5c0,0,7.7,7.1,15.5,9.3
			s9.2,2.7,9.2,2.7l4.9,11.5l3.7-3.7l-3.7-5.9c0,0,2.5-0.4,0-5.5c-2.5-5.1-1.4-6.3-1.4-6.3l-2.8,0.4c0,0,0.2-9.6-0.9-11
			c-1.1-1.4,3.7,0.4,3.7,0.4v-1.6l-3-8.4c0,0-13.8-2.8-14.5-2.9c-0.7-0.2,10.7-1.8,10.7-1.8s0.6-3.2,0-6.5
			C116.5,207.8,115,207.3,115,207.3z"/>
		<path  d="M108.4,86.4c-0.4,3.5,3.3,7.1,3.3,7.1l-5.9,2.4l-7.7-5.1v-1l5.5-6.6L108.4,86.4z M106.9,119.2l-3.7,3.5v2.6
			l8.5,3.3h4.2c0,0-3.1-1.6-4.2-6.1L106.9,119.2z M109.5,134.2l-4.6,5.5v4.9l4.6,3.1c0,0,2.4-4.1,5.5-4.5c0,0-1.1-2.8,0-5.7
			L109.5,134.2z M99.2,58.3l5.7,2.4l3.3-2.4l-3.3-4.3h-3.1L99.2,58.3z M25.5,42.5l3.8,5.2c0,0-0.2-4.4,6.6-8.3s7.7-3.1,14,2
			c0,0,2.2,3.6,2.2,6.3l3.7,1.1c0,0,1.8,2.8,3.7,6.7c2,3.9,9.2,22.2,9.2,22.2s7.4-4.3,7.4-8.8c0-4.5-4.6-5.3-4.6-5.3l-5.3,4.7
			l0.7-2.9l5.8-3.1l1-1.4l8.1-12c0,0,4.2,0.8,9,3.5l1.5-2.2l3.7,1.6l-3.1,3.5c0,0-5.4-3.9-9.4-3.5c-4,0.3-2,6.5-2,6.5
			s2.2,2.4,8.1,4.1c0,0,2.4,4.9,2.8,6.3c0,0-3.3,0.8-7-0.2c-3.7-1-0.2,7.7-0.2,7.7l9,1.6l1.8,6.3L94.4,88l-3.9-1.4
			c0,0-5.3,1.8-2,8.3c0,0,9.4,2.4,11.8,4.9l-1.3,1.6l0.4,4.7c0,0-5.5-2.4-7.2-1.6c-1.8,0.8-3.5,6.7,0,7.5c3.5,0.8,9.4,2.6,11.8,5.1
			l-2.8,2l0.4,3.5l-5-1l-3.3,1c0,0-0.7,3.9,0,4.9c0.7,1,0.7,1,0.7,1s6.1,3.1,9.2,3.5l3.1,1.2l-5.9,5.1h-1.5c0,0-6.4,1.4-3.3,6.9
			c0,0,1.1,2.2,8.3,3.1l2.4,4.9l-9.4,2.2c0,0-0.7,5.7,1.8,6.7c2.4,1,7.7-0.8,7.7-0.8l-4.8,9.6l1.8,3.8l1.3,2.5c0,0,7.2-7.7,6.8-14.1
			c-0.4-6.5-0.9-7.7-0.9-7.7s4.6,4.5,6.8,11.2c0,0,4.2,1.4,6.8-3.3c0,0-8.5-13.6-8.3-15.3s1.5-2.4,1.5-2.4l12.7,6.1
			c0,0,3.1-4.5,1.1-6.7c-2-2.2-13.8-9.3-13.8-9.3v-6.4c0,0,5.1,2.2,10.5,2.6l0.2-7.3c0,0-7.5-2.3-10.8-3.5s-2.2-1.8-2.2-1.8
			l-1.3-5.9h-3.3l-8.7-4.5l-0.7-1.7l2.8-4.6l6.5,1.8c0,0,0.4,4.9,8.8,7.9s7.3,2.6,7.3,2.6l1.1-4.5c0,0,1.5-2.7-1.8-3.1
			c-3.3-0.4-8.1-2.4-12.5-5.9l-1.5-7.7c0,0,7.2,4.7,12.2,4.7l2-5.7c0,0,0.4-1.7-2-2.3c-2.4-0.6-9.8-2.4-12-5.3l-0.9-8.4l-2.6,0.6
			c0,0-5.3-3.9-7.4-4.7c0,0-0.7-2.8,1.5-4.1l4.2,1.9c0,0,2.8,9.3,17.5,11.1l1.3-7.7c0,0-14.2-3.1-15.1-6.7s0-6.5,0-6.5
			s7.7,2.4,10.7,3.5l1.5-7.5c0,0-10.3-2.2-14.9-7.5c0,0,10.7-0.1,12.7-1.1s2-6.5,2-6.5s0.2-2.6-5.7-1l-5,1.2c0,0,7.9-7.1,1.1-16.1
			l-1.8-1.2c0,0,6.8-6.5,6.4-18.1c0,0,3.5-0.8-0.4,14.9c0,0-2.7,2.9,2.1,2.9s6.4-2.4,6.4-2.4s4.6-9.8,1.8-15.5l-0.9-1.8h-8.1h-1.8
			h-1.1h-6.4c0,0-1.8,1.6-1.8,3.5s0,2,0,2s0,4.7-1.5,10.8l-0.4,4.9c0.9,1,3.5,6.6,0.9,15.3l-15.1,3.9L85,42c0,0,1.8-2.4,0.4-9.8
			c0,0,10.1-10,5-21.4l-2-2c0,0-3.3,0.4-5.7,1c-2.4,0.6-2.2,2.8-2.2,2.8s4.6,0.6,2,13.4c0,0-1.1-14.3-5.9-13.6
			c-4.8,0.8-6.6,1.8-6.6,1.8l-1.8,2.2c0,0,8.3-1.8,7,13.6l0.9,5.5c0,0,3.1-0.6,4.2-2.2c1.1-1.6,1.1-1.6,1.1-1.6l-2.4,7.3l-6.3-3.7
			l-3.6,3.7c0,0,0.4,2.6,4.8,5.8s-7.9,13-7.9,13s-1.1-13.6-5-14.5c0,0,4.4-13-5.9-18.5c0,0,9-0.2,9,15.5l0.2,3.3
			c0,0,4.4-2.8,4.6-7.5s0.2-12.4-9.4-15.7l-7,3.3l-7.1,4.7c0,0-11.1,8.1-13.1,12L25.5,42.5z"/>
		<path  d="M76.5,77c0,0-0.4,7.5-3.6,8.8l1.8,8.8c0,0,5.3-6.1,6-7.1c0.7-1,0.3-8.8-2-10.6C76.2,75.2,76.5,77,76.5,77z"/>
		<path  d="M80.9,94.7l-1.2,2l-1.2,6.9l2.3,8.8c0,0,2.8-6.5,2.8-7.5c0-1,0-1,0-1s0.4-5.5,0-6.5c-0.4-1-0.4-1-0.4-1
			L80.9,94.7z"/>
		<path  d="M95.3,9.6c0,0,1.3,6.9-2.2,17.1c0,0,1.5,5.1,5,2c3.5-3.1,6.4-10.2,6.8-13.4s0-7.5,0-7.5l-1.2-1.6h-6.9
			C96.8,6.2,95.1,8.4,95.3,9.6z"/>
		<path  d="M59.4,19.6c0,0,6.6-3.5,9-3.3c2.4,0.2,8.5,10.6,5.5,16.9s-4.6,5.7-4.6,5.7S70.5,19.4,59.4,19.6z"/>
	
</g>

<g id="pitcher_x5F_pocket_x5F_view">
	
	<image id="glove-view-2" overflow="visible" width="2395" height="2667"  xlink:href="assets/images/9P_pitcher_pocket_view.png"  transform="matrix(0.146 0 0 0.131 0 0)">
	</image>
</g>
</svg>
