<?xml version="1.0" encoding="utf-8"?>
<!-- Generator: Adobe Illustrator 20.1.0, SVG Export Plug-In . SVG Version: 6.00 Build 0)  -->
<svg version="1.1" id="Layer_1" xmlns="http://www.w3.org/2000/svg" xmlns:xlink="http://www.w3.org/1999/xlink" x="0px" y="0px"
	 viewBox="0 0 375 324.3" enable-background="new 0 0 375 324.3" xml:space="preserve">

<g id="catcher-mitt_x5F_vw2_x5F_plm">
	<path  d="M311.5,49.3c7.8-16.5-134.7-46.7-147.1-30.2v7.2c0,0-1,4.1-4.1,3.1s-5.6-3.4-5.6-3.4s-0.5,15,3.9,20.5
		s6,11.6,6,11.6l9.4,4.6c0,0,0,13,3.4,13.8c3.4,0.7,5.6-0.5,5.6-0.5s3.4,2.4,3.4,3.6s-5.1,3.4-5.1,3.4l1.7,8.9l4.6,1v5.6L184,99
		c0,0-0.5,4.8-2.9,5.3s-4.3-7-4.3-7l-2.9-3.4c0,0-5.1-7.7-6-9.4S129,108.2,129,108.2s-16.9,11.8-20.5,14.5S87,142.3,87,142.3
		l-2.2-0.7c0,0-29-32.4-35.8-34.1s17.6,29.7,17.6,29.7c55.1,71.3,92.8,106.8,169.9,150.5c0,0,10.1,3.9,15,19.1
		C380.2,265,382.1,129.2,311.5,49.3z"/>
</g>
<g id="catcher-mitt_x5F_vw2_x5F_web">
	<path  d="M162.8,63.9l2.7,7.3c0,0-0.8,1.5,2.9,7l1-0.8c0,0,1.5,0.6,1.1,4.1l-3,2.3l-20.1,13c0,0-21.8,14.1-26.4,16.6
		s-27.5,20.5-28.3,21.3s-7.5,7.2-7.5,7.2s-13.4-14.4-21-21.7s-9-11-15.4-11.5l-0.6-1.5c0,0-11.5-1.8-17.1,5.8L20,102.5l-3.3,1
		c0,0-1.4-1.6,0.9-4.8s4.8-6.5,4.8-6.5l1-3.8l8-7.4l6-5.5c0,0,9.9-8.1,9.9-8.5s3.6-2.9,3.6-2.9l6.6-5.8c0,0,2,0.3,5.1-3.9l6.5-5.9
		c0,0,2.5,1.3,4.4-2.3l7.6-6.4c0,0,4.5,0.6,5-3.6l7.5-5.4c0,0,2.1,1.2,5.1-2.8l8.6-5.8c0,0,2.9,2.6,5.3-2.3l8.8-4.6h2l15-5.9
		c5.4-1.1,2.1,0,5.4-1.1s5.1-2.4,8-2.1c0,0-2,15.8,1.6,16.5V26C146.5,31,149.9,43.6,162.8,63.9z"/>
	<path  d="M143.8,8.8"/>
</g>
<g id="catcher-mitt_x5F_vw2_x5F_tgt">
	<path  d="M47.4,107.3c16.4,35.5,94,131.7,184.1,178.3c0,0,12.1,6.3,19.8,21.3c0,0-5.8,5.3-11.1,3.9c0,0,0.5-7.2-5.8-3.4
		c-6.3,3.9-15.9,1-15.9,1s6.3-4.8-4.3-5.8l-2.4,2.9c0,0-10.6-2.2-12.1-3.4l1.7-3.4c0,0-1.2-2.4-4.8-2.9s-4.6,2.4-4.6,2.4
		s-12.1-3.9-11.8-4.6c0.2-0.7,1.7-3.1,1.7-3.1s1.7-3.9-3.6-4.3c0,0-4.1,0-5.1,1.4s-12.8-5.8-12.8-5.8l2.2-3.4c0,0-0.5-4.1-6-4.3
		l-3.1,1.2c0,0-11.6-6-13-7.5c0,0,3.4-1,4.1-2.7c0.7-1.7-1.9-5.6-4.8-6c-2.9-0.5-7.2,1.7-7.2,1.7s-10.4-7.7-11.8-8.9l3.9-2.7
		c0,0,1.4-4.8-4.6-6.8l-5.1,1c0,0-11.6-6.5-12.3-8.7l2.4-3.4c0,0,0.2-3.6-4.3-5.1c-4.6-1.4-3.9-0.2-3.9-0.2s-9.4-7.7-11.6-10.4
		l2.2-2.7c0,0,0.5-3.9-4.1-5.6l-3.4,0.2c0,0-10.4-9.2-11.4-10.6c0,0,1.7-1,2.9-2.7c0,0-0.5-3.6-4.3-6h-3.4l-9.7-10.6l1.7-2.7
		c0,0-0.2-5.6-3.4-6.5c-3.1-1-4.6-1.2-4.6-1.2l-6.5-8.2l1.9-2.7c0,0,1-5.1-3.4-7c-4.3-1.9-4.1,0-4.1,0l-6.3-9.7c0,0,3.6-2.7,2.2-5.6
		c-1.4-2.9-5.6-4.8-5.6-4.8v-3.6c0,0,3.1-1.2,3.9-1.2c0.7,0,3.6-1,3.1-8s-1-4.6-1-4.6l3.1-4.6l11.8-1.2L47.4,107.3z"/>
	<path  d="M311.7,47.7c0.6,14,2.8,27.9,9.6,41.7c25.1,48.6,41.2,100,5.2,153l-14.8,24.4l4.3,5.1c0,0,3.4-0.2,6.8-5.1
		l-1-4.1c0,0,4.6-3.6,5.6-3.9c1-0.2,3.6-4.1,3.6-4.1s5.1-1.4,6.8-3.9c1.7-2.4,17.6-27.5,17.6-27.5
		C368.3,203.6,396.8,104.5,311.7,47.7z"/>
</g>
<g id="catcher-mitt_x5F_vw2_x5F_stch">
	<g>
		<path   stroke-width="2" stroke-miterlimit="10" d="M317.9,63.4c0-1.4,0.1-2.7,0.4-4l0.5,1.7l0.7,2.1"
			/>
	</g>
	<g>
		<g>
			<line   stroke-width="2" stroke-miterlimit="10" x1="320" y1="65.2" x2="321.2" y2="69"/>
			<path   stroke-width="2" stroke-miterlimit="10" stroke-dasharray="7.8968,1.9742" d="M321.7,70.9
				l2.8,9c0,0,15.9,34.1,21.1,47.6s7.8,33.8,8.6,41.6s-3.4,31.2-7.9,43.8s-16.4,35.6-16.4,35.6l-4.4,7.2"/>
			<line   stroke-width="2" stroke-miterlimit="10" x1="325" y1="256.6" x2="322.9" y2="260"/>
		</g>
	</g>
	<g>
		<path   stroke-width="2" stroke-miterlimit="10" d="M322.3,260.6l-2.1,3.4l-1.9-2.6
			c0.7,0,1.8-0.9,3.1-2.4"/>
	</g>
	<g>
		<g>
			<path   stroke-width="2" stroke-miterlimit="10" d="M322.6,257.5c0.7-1,1.4-2.1,2.2-3.3"/>
			<path   stroke-width="2" stroke-miterlimit="10" stroke-dasharray="8.1924,2.0481" d="M325.9,252.4
				c12.2-20.7,32-71.7,23.7-98.5c-3.9-17.2-8.1-30.4-25-66.7c-2.7-6.7-4.9-12.6-6-17.8"/>
			<path   stroke-width="2" stroke-miterlimit="10" d="M318.4,68.4c-0.2-1.4-0.4-2.7-0.4-4"/>
		</g>
	</g>
	<g>
		<path   stroke-width="2" stroke-miterlimit="10" stroke-dasharray="4.0249" d="M44.8,107.8
			c0,0,0.6,1.3,1.8,3.6"/>
	</g>
	<g>
		<g>
			<path   stroke-width="2" stroke-miterlimit="10" d="M47.5,113.1c0.6,1,1.2,2.2,2,3.5"/>
			<path   stroke-width="2" stroke-miterlimit="10" stroke-dasharray="7.9377,1.9844" d="M50.5,118.3
				c3.2,5.3,7.9,12.5,14.5,20.7c14.6,18.4,40,49,40,49s34.5,46.3,104.1,87.3c20,9.9,29.9,17.5,34.8,22.8"/>
			<path   stroke-width="2" stroke-miterlimit="10" d="M244.6,298.8c1.1,1.2,1.8,2.2,2.4,3.2"/>
		</g>
	</g>
	<g>
		<path   stroke-width="2" stroke-miterlimit="10" stroke-dasharray="4.0112" d="M247.5,302.8
			c1.4,2.5,1.1,3.8,1.1,3.8"/>
	</g>
	<g>
		<path   stroke-width="2" stroke-miterlimit="10" stroke-dasharray="3.9584" d="M244.5,306.6
			c0,0,0.1-1.5-1-3.8"/>
	</g>
	<g>
		<g>
			<path   stroke-width="2" stroke-miterlimit="10" d="M242.5,301c-0.6-1-1.4-2-2.5-3.2"/>
			<path   stroke-width="2" stroke-miterlimit="10" stroke-dasharray="7.9288,1.9822" d="M238.6,296.4
				c-1.8-1.6-4.1-3.4-7-5c-13.2-7.7-46.1-26.8-59.9-38c-13.9-11.3-53.5-44.8-64.4-58.6S65,142.6,65,142.6S48,122,44.8,118.1
				c-0.2-0.2-0.3-0.4-0.5-0.7"/>
			<path   stroke-width="2" stroke-miterlimit="10" d="M43.8,116.6c-0.7-1.2-1.1-2.5-1.3-3.8"/>
		</g>
	</g>
	<g>
		<path   stroke-width="2" stroke-miterlimit="10" stroke-dasharray="4.0083" d="M42.3,111.8
			c-0.3-2.2-0.1-4-0.1-4"/>
	</g>
	<g>
		<polyline   stroke-width="2" stroke-miterlimit="10" points="105.6,148.3 102.5,150.9 105.7,153.9
			108.7,151.3 		"/>
	</g>
	<g>
		<g>
			<line   stroke-width="2" stroke-miterlimit="10" x1="110.3" y1="149.9" x2="113.3" y2="147.3"/>

				<line   stroke-width="2" stroke-miterlimit="10" stroke-dasharray="8.4035,2.1009" x1="114.9" y1="145.9" x2="162.1" y2="105.7"/>
			<line   stroke-width="2" stroke-miterlimit="10" x1="162.9" y1="105" x2="165.9" y2="102.4"/>
		</g>
	</g>
	<g>
		<polyline   stroke-width="2" stroke-miterlimit="10" points="166.7,101.7 169.8,99.1 169.1,95.9
			166,98.5 		"/>
	</g>
	<g>
		<g>
			<line   stroke-width="2" stroke-miterlimit="10" x1="164.6" y1="99.7" x2="161.5" y2="102.2"/>

				<line   stroke-width="2" stroke-miterlimit="10" stroke-dasharray="7.5019,1.8755" x1="160.1" y1="103.4" x2="110.1" y2="144.6"/>
			<line   stroke-width="2" stroke-miterlimit="10" x1="109.4" y1="145.2" x2="106.3" y2="147.7"/>
		</g>
	</g>
	<g>
		<path   stroke-width="2" stroke-miterlimit="10" d="M155.8,67.4c1.1-0.7,2.2-1.5,3.3-2.2v3.6
			c0,0-1.2,0.8-3.3,2.2"/>
	</g>
	<g>
		<g>
			<path   stroke-width="2" stroke-miterlimit="10" d="M154.1,72.1c-1,0.7-2.1,1.4-3.3,2.2"/>
			<path   stroke-width="2" stroke-miterlimit="10" stroke-dasharray="8.0727,2.0182" d="M149.1,75.4
				c-16.7,11.2-50,34.1-64.2,47.2"/>
			<path   stroke-width="2" stroke-miterlimit="10" d="M84.1,123.3c-1.1,1-2,1.9-2.8,2.8"/>
		</g>
	</g>
	<g>
		<path   stroke-width="2" stroke-miterlimit="10" d="M80.6,126.9c-1.1,1.3-1.9,2.4-2.3,3.3l-1.7-1.4
			c0.9-0.9,1.9-1.9,2.9-2.8"/>
	</g>
	<g>
		<g>
			<path   stroke-width="2" stroke-miterlimit="10" d="M81.1,124.5c1-0.9,1.9-1.8,2.9-2.7"/>
			<path   stroke-width="2" stroke-miterlimit="10" stroke-dasharray="8.3046,2.0762" d="M85.6,120.4
				c17.2-15.6,38-31,65.3-49.5"/>
			<path   stroke-width="2" stroke-miterlimit="10" d="M151.7,70.2c1.1-0.7,2.2-1.5,3.3-2.2"/>
		</g>
	</g>
	<g>
		<path   stroke-width="2" stroke-miterlimit="10" d="M146.6,46.7l3.2-2.4v4.1c0,0-1.2,0.8-3.2,2.4"/>
	</g>
	<g>
		<g>
			<path   stroke-width="2" stroke-miterlimit="10" d="M145,51.9c-1,0.7-2,1.5-3.2,2.4"/>
			<path   stroke-width="2" stroke-miterlimit="10" stroke-dasharray="7.945,1.9862" d="M140.2,55.4
				c-17.7,12.9-54.8,40.2-70.8,52.9"/>
			<path   stroke-width="2" stroke-miterlimit="10" d="M68.6,109c-1.2,0.9-2.2,1.8-3.1,2.5"/>
		</g>
	</g>
	<g>
		<path   stroke-width="2" stroke-miterlimit="10" d="M64.7,112.1c-1.6,1.4-2.6,2.3-2.9,2.8l-2.2-1.3
			l3.2-2.4"/>
	</g>
	<g>
		<g>
			<line   stroke-width="2" stroke-miterlimit="10" x1="64.5" y1="109.9" x2="67.7" y2="107.5"/>

				<line   stroke-width="2" stroke-miterlimit="10" stroke-dasharray="8.2268,2.0567" x1="69.3" y1="106.2" x2="141.8" y2="50.4"/>
			<line   stroke-width="2" stroke-miterlimit="10" x1="142.6" y1="49.7" x2="145.8" y2="47.3"/>
		</g>
	</g>
	<g>
		<path   stroke-width="2" stroke-miterlimit="10" d="M42.7,100.8c-1.6,1.6-2.4,2.7-2.4,3.1l4.5,0.7
			c0.7-1,1.5-2,2.5-3.1"/>
	</g>
	<g>
		<g>
			<path   stroke-width="2" stroke-miterlimit="10" d="M48.6,100c0.8-0.9,1.8-1.9,2.8-2.9"/>
			<path   stroke-width="2" stroke-miterlimit="10" stroke-dasharray="7.9194,1.9798" d="M52.7,95.7
				C65.7,82.9,88.8,65,107.8,51L130,35.6"/>
			<line   stroke-width="2" stroke-miterlimit="10" x1="130.8" y1="35" x2="134.1" y2="32.7"/>
		</g>
	</g>
	<g>
		<path   stroke-width="2" stroke-miterlimit="10" d="M134.9,32.1l3.3-2.3h-2.1
			c-0.5,0.3-1.1,0.6-1.7,0.9"/>
	</g>
	<g>
		<g>
			<path   stroke-width="2" stroke-miterlimit="10" d="M132.6,31.7c-1.1,0.6-2.2,1.3-3.4,2.1"/>
			<path   stroke-width="2" stroke-miterlimit="10" stroke-dasharray="8.1975,2.0494" d="M127.5,34.9
				c-21.5,13.9-63.9,46.9-80.4,61.8"/>
			<path   stroke-width="2" stroke-miterlimit="10" d="M46.3,97.4c-1.1,1-2.1,1.9-2.9,2.7"/>
		</g>
	</g>
	<g>
		<path   stroke-width="2" stroke-miterlimit="10" stroke-dasharray="3.9442" d="M293.9,40.5
			c-0.4-0.3-1.7-0.9-3.6-1.6"/>
	</g>
	<g>
		<g>
			<path   stroke-width="2" stroke-miterlimit="10" d="M288.3,38.2c-1.1-0.4-2.4-0.8-3.8-1.3"/>
			<path   stroke-width="2" stroke-miterlimit="10" stroke-dasharray="8.0763,2.0191" d="M282.6,36.3
				c-24.5-7.7-82.1-22.2-107.9-19"/>
			<path   stroke-width="2" stroke-miterlimit="10" d="M173.7,17.5c-1.4,0.2-2.7,0.5-3.9,0.8"/>
		</g>
	</g>
	<g>
		<path   stroke-width="2" stroke-miterlimit="10" stroke-dasharray="3.9919" d="M168.8,18.6
			c-1.4,0.5-2.6,1-3.6,1.7"/>
	</g>
	<g>
		<path   stroke-width="2" stroke-miterlimit="10" stroke-dasharray="3.9446" d="M29.5,140.2
			c0.7,1.1,1.4,2.3,2,3.4"/>
	</g>
	<g>
		<g>
			<path   stroke-width="2" stroke-miterlimit="10" d="M32.5,145.4c0.7,1.1,1.4,2.3,2.1,3.4"/>
			<path   stroke-width="2" stroke-miterlimit="10" stroke-dasharray="7.8967,1.9742" d="M35.6,150.5
				C91.2,239,182.4,310.4,238.7,307.9"/>
			<path   stroke-width="2" stroke-miterlimit="10" d="M239.7,307.9c1.3-0.1,2.7-0.2,4-0.4"/>
		</g>
	</g>
	<g>
		<path   stroke-width="2" stroke-miterlimit="10" stroke-dasharray="3.9623" d="M244.7,307.3
			c1.3-0.2,2.6-0.4,3.9-0.7"/>
	</g>
	<g>
		<g>
			<path   stroke-width="2" stroke-miterlimit="10" d="M259.1,301.3c1.1-0.6,2.2-1.3,3.5-2"/>
			<path   stroke-width="2" stroke-miterlimit="10" stroke-dasharray="8.1874,2.0469" d="M264.4,298.3
				c12.4-7,32-18,43.9-24.2"/>
			<path   stroke-width="2" stroke-miterlimit="10" d="M309.2,273.6c1.3-0.7,2.5-1.3,3.6-1.8"/>
		</g>
	</g>
</g>
<g id="catcher-mitt_x5F_vw2_x5F_bnd">
	<g>
		<path  d="M24.2,124.4c-5.5,4,34.9,63.8,33.8,59c19.8,26.9,44.1,52.6,73.9,76.8c0,0,30,23.9,39.6,27.3
			c9.9,5.1,31.2,24.2,78.5,19.3l65-35.3l1.2,1.2l7-5.8l1.2,2.9c0,0-51.2,33-65.2,37.7c-14,4.8-39.9,8.8-59,0s-35-16-36.5-16.7
			l5.6,6.3c0,0-6.3,6-4.3,11.6c0,0-5.8,4.8-7.7-4.3l2.7-8.2l-46.4-39.1c0,0-31.4-32.2-38.4-38.5s-28.8-33.8-36-41.3
			s-23.4-38.7-23.4-38.7l-1.9-9.7C16.8,122.8,20.2,121.3,24.2,124.4z"/>
		<path  d="M165,9.9c0,0-2.4,7.5-1.9,9.2c14.6-13.6,110.8,11.7,109.7,13.3c1,0.4,25.6,3.6,48.8,22.5
			c22.5,16,35.5,51.2,35.5,51.2s10.6,20.1,14.3,47.4c0,0-3.1,32.1-7,46.6s-14.5,32.6-19.8,37.5l11.8-11.1l9.9-22.5l6.8-51.7
			c0,0-2.2-29-7.7-44s-13.8-30.4-13.8-30.4s-20.8-31.4-48.1-42.5C276.2,24.3,228.1,12,228.1,12l-44.5-5.1
			C183.6,6.8,171.8,5.3,165,9.9z"/>
		<path  d="M174.2,64.8c0,0-0.7,4.5,3,11.6V78c0,0-3.5,0.4-3.9-0.2c-0.3-0.6-5.7-6.3-2.9-11.2L174.2,64.8z"/>
		<path  d="M175.4,84.7l1.6,5.6c0,0,4.7,1.9,5.6,1.6c1-0.3-1.1-8.9-1.1-8.9L175.4,84.7z"/>
		<path  d="M177.4,97.5l6.9,0.8c0,0-1.4,5-3.5,5.6C178.8,104.5,177.4,97.5,177.4,97.5z"/>
		<path  d="M156.1,40.1c0,0,1.3,5.3,3.1,6.9l-1.5,1.3c0,0-4.3-5.5-3.6-8.2H156.1z"/>
	</g>
</g>
<g id="catcher-mitt_x5F_vw2_x5F_lce">
	<path  d="M225,253.5c0,0-4.1,0-1.4,2.4c2.7,2.4,25.9,23.9,26.8,25.1c1,1.2,3.2,0.7,3.6-2.7
		C254.4,274.5,227.7,251.7,225,253.5z"/>
	<path  d="M243.6,234.4c0,0-4.8,2.2-4.1,3.6c0.7,1.4,14.5,17.9,14.5,17.9l13.8,14.5c0,0,3.1-0.5,4.1-2.9l-14.5-16.7
		L243.6,234.4z"/>
	<path  d="M268.4,220.1l-4.6,3.9c0,0,5.3,11.4,8,15s9.7,17.9,10.9,19.3c1.2,1.4,4.3-1.7,4.3-1.7l-9.4-19.1L268.4,220.1z"
		/>
	<path  d="M283.7,177.8c0,0-8.9,6.8-7,16.9c1.9,10.1,1.9,4.3,1.9,4.3l6.5-16.4L283.7,177.8z"/>
	<path  d="M289.5,128.3c0,0-0.2,12.1,1.4,16.7s-3.9,1.9-3.9,1.9s-4.3-4.3-1.9-22.5C285.1,124.4,286.3,120.6,289.5,128.3z
		"/>
	<path  d="M286.6,73.7c0,0-9.5,6.1-7,18.6c1.4,7.2,7,1.4,7,1.4s1-9.9,3.6-14.5c2.7-4.6,1-4.6,1-4.6L286.6,73.7z"/>
	<path  d="M284.4,96.2"/>
	<path  d="M254.2,87.2c0,0,7.5,4.1,9.9,4.6s10.6,7.7,10.6,7.7l-2.2,5.1c0,0-12.3-8-14-10.4
		C256.8,91.8,254.2,87.2,254.2,87.2z"/>
	<path  d="M238.7,79.3l3.4,1.7v1.9c0,0-8,3.4-13-1.8c-5.1-5.2-5.1-5.2-5.1-5.2h3.1L238.7,79.3z"/>
	<path  d="M196.2,69.3h8.5l6.8,2.7c0,0-2.7,3.6-10.9,1.7C192.3,71.8,196.2,69.3,196.2,69.3z"/>
	<path  d="M171.6,90.9h2.9c0,0,0,4.6,1.4,6.8l10.1,1.4c0,0,2.9-1.2,0-5.8l-9.4-2.4l-1-6c0,0,3.4-0.3,6.3-2.2
		c2.9-1.9,2.9-1.9,2.9-1.9s1-4.6-2.7-4.8c0,0-6.3,1.7-9.2,1.9c0,0-2.7-1.7-3.4-8.5l5.8-5.6l-7.7-2.7l-1.7,1.7l1.9,6.5
		c0,0,0,3.2-2.7,3.2c0,0,0.3,0.7,3.2,5.5l1.7-0.7l1.4,2.6l1.4,2.7l-4.6,2.2L171.6,90.9z"/>
	<path  d="M149.8,30.4l0.5,7.8c2,0.4,3.7,1.5,6.4,0.4l-1.5-6.5c0,0-0.6-1-2.3-1.7C151.3,29.7,149.8,30.4,149.8,30.4z"/>
	<path  d="M151.3,7.2c0,0,0.5,14,1.7,15.5c1.2,1.4,4.6,7.6,10.1,7.4c0,0,1.7-1.6,1.7-4.8s-1.4-4.3-1.4-4.3
		s-5.3,1.9-7.2-4.6c0,0,2.9-1.9,7.5-1.8c0.4,0,0.9,0.3,1.2,0.1c2.1-1.6,3.9-2.4,3.9-2.4l-4.1-1.7l-8.5-0.2c0,0,11.6-6.2,20.4-5.2
		c0.4,0-0.2,2.1-0.2,2.1s-5.4,5.5,2.3,16c5.1,6.9,5.9-4.5,6-4.6c0,0-3.8-9.2-0.9-11.4h10.4L199,8l-1,13.5c-0.7,1.4,4.3,8.1,7.6,1
		c1-2.3-0.7-4.8,1.7-13.3c0,0,8.5,0.7,12.8,2.4l1.2,15.7c0,0,7,7.2,8.2-2.2l-1.2-12.3h2.4v-1.4l-21.5-4.6c0,0-12.9-1.5-14-1.7
		c-1-0.2-1-3.1-1-3.1l-6.7-2l-2.9,5.1l-2.9-0.5c0,0-6-5.8-22.6,1.2L151.3,7.2z"/>
	<path  d="M243.6,16.4c0,0,1.2,7.6,1.9,13.7s10.4,4.9,9.9,1.3s-3.6-15-3.6-15l-6.3-2.7L243.6,16.4z"/>
	<path  d="M275.2,39.1c1.1,6,8.9,3.7,9,1.7c0.1-2.1-2.2-21.7-15.2-19.1C268.9,21.8,273.1,27.7,275.2,39.1z"/>
	<path  d="M302.4,33.4c0,0-3.7-3.4-8.3-3.3c0,0,2.2,11.4,2.2,16.7c0,0,3.6,8.5,9.5,2.2l-1-12.8
		C303.1,35.6,302.8,34.5,302.4,33.4z"/>
	<path  d="M321.4,45.7c0,0,2.9,2.9,1.2,13.3c0,0,4.1,9.4,8.2,5.1V51.3l-5.8-5.6H321.4z"/>
	<path  d="M350.4,73.7c0,0-4.3-9.3-7.7-8.5c0,0,2.9,10.7-1.9,17.5c-0.7,1.5,0.9,9.2,5.8,8.1
		C346.5,90.7,352,84.6,350.4,73.7z"/>
	<path  d="M360,93.3c0,0,0.2,7.5-2.2,11.4c-2.4,3.9-3.6,5.8-3.6,5.8s0.7,7.4,5.8,5.3c4.6-1.9,5.5-13.8,5.5-13.8
		S362.5,91.5,360,93.3z"/>
	<path  d="M368.5,119.6c4.4,1.8,5.8,13,4.8,13.5c0.7,0.8-2.9,9.9-4.8,11.6c-4.7,4.3-7.9-6.6-4.8-9.2
		C365.5,134,372.8,130.9,368.5,119.6z"/>
	<path  d="M374.3,153.9v11.4c0,0-4.4,7.2-7,9.2c-2.7,1.9-5.6-2.2-2.7-5.8C367.5,165,374.3,153.9,374.3,153.9z"/>
	<path  d="M370.7,177.8c0,0-3,8.8-7.2,12.6c-4.8,4.1-2,9.5-0.8,8c0,0,7.7-2.4,8.6-12.4
		C371.7,180.3,370.7,177.8,370.7,177.8z"/>
	<path  d="M366.9,201.8c0,0-4.5,10.9-10.5,12.3c-6,1.4-3.1,9.7-3.1,9.7s10.7-4.6,13.7-15v-7H366.9z"/>
	<path  d="M357.1,226.2c0,0-9.4,11.8-12.8,8.2l-8.2,9.4c0,0,1.9,4.6,3.6,6.3c0,0-5.6,4.6-9.4,4.6c0,0-5.1,6.5-8.5,8.2
		c0,0,3.9,6.8,4.3,7.5c0.5,0.7,4.6-4.1,4.6-4.1L330,262c0,0,8.7-6,9.4-7c0.7-1,1.7-2.5,1.7-2.5l1.9,1l3.6-5.1c0,0-1-3.8-1.7-5.7
		l7.5-5.3l10.8-5.1c2.6-0.6,6.8-6.1,0-6C357.1,226.3,357.1,226.2,357.1,226.2z"/>
	<path  d="M313.4,270.4c0,0-6-0.7-7.2,1.9c0,0,1.2,10.4,1.2,11.6l6-3.6V270.4z"/>
	<path  d="M294.8,277.1c0,0-3.1-4.8-6.5,1c0,0,1.4,12.6,0,15.5c0,0,4.3,1.4,6.5-2.4c2.2-3.9,1.9-7.2,1.9-7.2L294.8,277.1
		z"/>
	<path  d="M277.4,287.8c0,0,1.4,7.2,1.2,10.6c0,0-2.9,3.4-3.1,5.3s-5.6,4.3-5.6,4.3v-4c0,0,2.9-8,0-13
		C271.5,288.2,273.7,286.8,277.4,287.8z"/>
	<path  d="M251.8,306.1l2.2-3.4l5.1-1.4c0,0,0.5,4.6,0,6.8c-0.5,2.2-7.2,3.9-7.2,3.9h-3.1L251.8,306.1z"/>
	<path  d="M240.7,308.1c0,0-4.3,5.8-7.7,7s-6.9,1.7-10.3,0c-3.5-1.7-3.7-3-3.7-3s8.9-1.6,16.2-5.5L240.7,308.1z"/>
	<path  d="M219.9,306.6c0,0,1.7-3.1-4.6-3.4c0,0-7.5,3.9-12.1,4.8s8.4,3.9,8.4,3.9L219.9,306.6z"/>
	<path  d="M200.5,299.9c0,0-6.5,4.6-8,4.8s-11.6-1.7-13.8-4.8c0,0,13,0.3,15.2-2.1C197.8,293.7,202.7,298.9,200.5,299.9z
		"/>
	<path  d="M94.7,238v3.1c0,0-8.9-5.5-11.1-6.8c-2.9-1.6-1.9,3-1.9,3s22.1,15.9,33,30.1c0,0,2.9,9.9,6.1,14.1
		s8.4,4.7,8.4,4.7v2.9l8.5,4.6c0,0,9.7,16.4,20.3,20.8l7,1.6v-2.8c0,0-15.9-10.4-18.4-18.1c-2.4-7.7-2.4-7.7-2.4-7.7l4.1-0.1
		c0,0-1.9,4.7,6.8,8.8h3.1c0,0,20.8,1.2,23.4-5.8c0,0,2.4-5.2-4.1-3c-6.5,2.3-15.9,3-23.2,2.7l-6.3-4.6l12.3-5.3
		c4.6-3.2-2.7-8.7-5.8-6.1c0,0-9.4,7.4-15.9,2.9c-4.4-3-9.7-7.9-9.7-7.9l14.7-3.9c0,0,1.2-6.6-5.3-6.6c-6.8,1.7-14.7,6.9-21.3,1.3
		c-6.5-5.6-8-7.6-8-7.6s8-1.3,12.3-1.6c3.9-2.5,3.4-9.7-2.2-8.5s-14,3.6-17.9,1.9C97.6,242.6,94.7,238,94.7,238z"/>
	<path  d="M84.2,228.3c0,0,4.3,6.8,8.4,8.5c0,0,9.9-2.4,11.3-4.5c2.8-3.9-3.8-6.6-3.8-6.6L84.2,228.3z"/>
	<path  d="M83.4,207.2c0,0,3.1,1.4,3.9,4.5s-3.1,3.7-3.1,3.7s-5.6,2.7-9.5,1.9s-3.9-0.8-3.9-0.8s-4-4-5.3-4.2
		s0-3.1,0-3.1L83.4,207.2z"/>
	<path  d="M66,188.3c0,0,6.9,1.4,5.2,6.1c-1.8,4.7-2.4,2.7-2.4,2.7s-4.8-1.3-13.8-0.5c-3.8-1.4-7.7-4.8-6.9-7.1L66,188.3
		z"/>
	<path  d="M26.7,159c0,0,5.2,7.6,6.8,9.7s13-1.4,13-1.4s5.2-1,6.8,1.1s2.6,4.5,2.4,6.9c-0.2,2.4-2.1,1.6-2.1,1.6
		s-4.2-2.5-14.8,0.1l3.2,4.9c0,0-2.9,2.1-8.5-1.3s-4.7-3.9-4.7-3.9s-2.1,0.5-4.2-9.5l-2.1-1.9v-5.2c0,0-20.3-22.4-21.4-39.6l3.1-1.3
		c0,0,5.2,15.8,7.9,17.7c0,0,0.8-4.3,2.4-6.1s10-3.5,15,0.2s1.6,7.6,1.6,7.6l-1.9,0.3c0,0-6.6-7.2-13.7,1.3l6.8,10.7
		c0,0,14.3-4.6,19,0s-0.2,7.8-0.2,7.8C37.3,155.3,32.1,156.9,26.7,159z"/>
	<path  d="M13.7,129.8c0,0,3.2-11.9,11.1-4.7c0,0,8.4,1.4,8.1-8.9l-4.4-7.7c0,0-3.1-5.5-4.4-6.1s-6.3,0-6.3,0
		s-6.2,10.6-4,16.8c0,0-1.9,6.8-1.4,9.3C12.7,131.1,13.7,129.8,13.7,129.8z"/>
	<path  d="M25.9,83l-3.4,4v2.4c0,0,6.8-0.8,15.3,12.1c0,0,4.5-1.8,4.3-5.3s0-3.9,0-3.9s3.5-3.5,7.2-5.7
		c3.7-2.3,0-10.5,0-10.5L46.6,66H44l-4,3.2c0,0,2.6,15.3,2.9,17.2c0,0-4.7-8.2-6.2-10.6s-2.5-1-2.5-1L30,77.4l0.6,4.3l-0.6,1
		L25.9,83z"/>
	<path  d="M57.5,58.8c0,0,3.1,14.2,4.3,18.5l-7.6,4c0,0-3.2-16.3-3.2-17.4s0-2.8,0-2.8s0-1.2,4.7-3.8s0.7,0,0.7,0
		L57.5,58.8z"/>
	<path  d="M69.4,48.5c0,0,1.1,12.7,3.5,20.6c0,0-4,3.1-7.9,2.6l-3.2-17.2v-3.3l5.4-3.3L69.4,48.5z"/>
	<path  d="M79.4,39.1l-5.5,3.2c0,0-1.6,11.1,1.8,20.5c0,0,5.2-0.2,7.4-5c0,0-4.7-14.7-2.1-18.7H79.4z"/>
	<path  d="M94.1,31.7c0,0,0.2,11.9,1.3,18c1.1,6.1-7.2,4.5-7.2,4.5c-1.6-7.3-2.6-14-1.9-19.7
		C86.2,34.6,93.7,28.5,94.1,31.7z"/>
	<path  d="M107.8,22.7c0,0-3.4,0.3-3.2,4.8s1.6,16.8,1.6,16.8l-6.4,2.6c0,0-3.1-8.9-2.4-15.1c0.6-6.3,2.7-6.6,2.7-6.6
		l5.8-2.4L107.8,22.7L107.8,22.7z"/>
	<path  d="M122.6,15.1c0,0-3.5,1.9-3.5,7.6s0,14,0,14s-2.9,3.5-7.1,2.4l-0.8-1.9c0,0-0.8-13.4,0-15.5s2.1-4.7,2.1-4.7
		l6.8-2h2.5V15.1z"/>
	<path  d="M125.8,11.3c0,0-7.4,8.2-1.1,21.1c0,0,5.3,1.2,6.9-1.6c0,0-1.8-12.3-1.4-13.6c0.3-1.3,1.3,7.2,5,10
		s8.3-1.4,8.3-1.4c-2.8-4.3-4.4-10.1-5.1-16.8c0,0-4.2,0-6.1,0S125.8,11.3,125.8,11.3z"/>
	<path  d="M157.6,47.3c0,0-1.9,1.8-1,3l1,2h-1.5c0,0,1.7,2.5,2.3,3.5s1.2,2.7,1.2,2.7s1.3,0.3,2.4-0.9c0,0-2.8-6.2-1.1-9
		c0,0-0.1-1.6-1.9-1.2L157.6,47.3L157.6,47.3z"/>
</g>
<g id="catcher-mitt_x5F_pocket_x5F_view">

		<image id="glove-view-2" overflow="visible" enable-background="new" width="776" height="671" xlink:href="https://cdn.jsdelivr.net/gh/phantomodm/nystixCDN@9P/depository/assets/images/9P_catcher_inside_view.png"  transform="matrix(0.4832 0 0 0.4832 0 0)">
	</image>
</g>

</svg>
