<?xml version="1.0" encoding="utf-8"?>
<!-- Generator: Adobe Illustrator 20.1.0, SVG Export Plug-In . SVG Version: 6.00 Build 0)  -->
<svg version="1.1" id="Layer_1" xmlns="http://www.w3.org/2000/svg" xmlns:xlink="http://www.w3.org/1999/xlink" x="0px" y="0px"
	 viewBox="0 0 375 352" enable-background="new 0 0 375 352" xml:space="preserve">

	<g id="catcher-mitt_x5F_vw1_x5F_utoe">
		<path d="M217.2,78.8c0,0-1.7,2.7,4.4,3.9c0,0-7.5,7.3-8.3,11.9c-0.7,4.6,2.9,19.5,6.6,22.9c3.6,3.4,22.1,22.6,22.1,22.6l47.2,30.9
			c0,0,24.1,15.6,30.2,23.6s11.9,23.1,11.2,31.7c-0.7,8.5-8.8,18.8-16.8,23.4c-8,4.6-32.9,13.6-32.9,13.6l-40.9,7.1l-43.3,1.5
			l-30-3.7l-5.1-0.7c0,0-1.5-19.5,27-20.9s55-0.7,69.9-3.7c14.9-2.9,22.4-17.8,22.2-20.9c-0.2-3.2-19.7-28.2-19.7-28.2
			s-63.6-35.6-64.5-37c-1-1.5-29.7-21.7-30.9-34.3s7.8-29.1,12.9-32.4c5.5-3.5,16.3-7.8,16.3-7.8h2.9
			C197.7,82.3,206.5,79.3,217.2,78.8z"/>
	</g>
	<g id="catcher-mitt_x5F_vw1_x5F_thb">
		<path d="M61.4,111.3c0,0-7.8,2.2-9.5,3.9c-1.7,1.7-2.2,2.9-6.8,4.4c0,0-11.2,8.3-13.1,9.7c-1.9,1.4-4.1,5.8-7.3,5.8h-1.5
		l-11.3,11.5c19.5,3.7,39.9,52.8,55.3,73.5c13.1,20.2,23.4,17,29,24.8l49.4,15.3c0,0,5.8-11.9,9.5,0v2.7l11.4,3.4
		c0,0,5.4-12.9,16.1-12.9c10.7,0,7.8-1.7,7.8-1.7s54.9-4.1,63.6-2.4c14.3,2.8,63.6-26.5,17-60.5c-46.5-26.8-49.2-27.4-49.2-27.4
		c-41.2-20.9-59.2-58.2-29.2-75.5l7.8-4.6c-11-0.7-44.6,21.7-53.8,27.8c0.3,1.2-6.6-1.5-6.6-1.5c12.2,12.2-13.6,48.8-38.5,25.1
		c-12.9-12.2-24.8-20-24.8-20C70.8,110.8,65.2,109.5,61.4,111.3z"/>
	<path d="M-323.5-25.6"/>
	</g>
	<g id="catcher-mitt_x5F_vw1_x5F_logo">
		<path d="M41.6,132.4c0,0-6-2.2-1-5.8c5-3.7,7.2-4.1,7.2-4.1c8.5-0.9,9.6,0,9.3,5.4c-1.5,4-10.3,9.4-17.5,10.2s-10.1-0.9-10.1-0.9
			c-0.5-2.5,0.1-3.5,1.5-3.4C35,134.3,38.7,134.3,41.6,132.4z"/>
		<path d="M44.4,130.5c0,0,0.2-3.7,8.8-5.6C54.4,127.8,46.8,130.5,44.4,130.5z"/>
		<path d="M57.2,120.8l9.3-3.7c0,0,17.3,12.7,18,13.4s6.1,6.1,6.1,6.1C99.9,146.8,91,155,76.5,155c0,0-22.2-4.6-27.8-9.5l-11.2,3.4
			l-6.6-6.7l33.2-13.3l7.2,5.6l0.4,1.5l-13.5,5.1c5.4,6.1,30.6,3.7,17.3-5.1C70.3,130.8,57.2,120.8,57.2,120.8z"/>
	</g>
	<g id="catcher-mitt_x5F_vw1_x5F_bnd">
		<path display="inline" d="M240.8,83.9c-10.8-0.2-17.8,4.4-24.4,9.5c0,0-3.2,11.4,2.9,16.3c0,0,9.3,16.8,20.2,23.1
		c11,6.3,8.3,7.1,8.3,7.1s12.4,11.9,22.2,15.1c9.7,3.2,18.5,4.9,18.5,4.9l10.5,4.4c0,0,12.4,4.4,21.9,15.8
		c9.5,11.4,15.6,28.7,15.6,28.7s-1.2,18.3-5.8,25.3c-4.6,7.1-8.5,11-8.5,11l-20.9,12.4l-10.7,4.4l-29.8,7.1l-25.8,4.1
		c0,0-23.9,0.5-36.3,0c-12.4-0.5-47-5.6-47-5.6l-8.8-2.9l-23.6-6.3c0,0-5.1-1.2-11.4-6.1s-13.6-4.9-13.6-4.9s-2.4-4.1-10.7-6.8
		s-26.4-22.4-32.5-34.6s-19.4-46.4-39.7-53.3c0,0,18.3,12.7,19.7,17.5c1.5,4.9-15.1-2.4-15.1-2.4s-11.9-8.6-7.5-22.5
		s12.4-16.6,12.4-16.6l28.5-18.5c0,0,11.4-5.1,18-10.2S81.3,96,81.3,96s21.9-2.2,31.4-2.7s14.6-1.9,21.4,4.1c6.8,6.1,5.8,10,5.8,10
		c10,6.6-4.9,44.1-32.6,28.7c-19.6-16.5-30.6-23.5-30.6-23.5s-7.8-2.7-13.6-2.2s-13.9,6.8-13.9,6.8s-15.8,11.2-18.5,12.2
		s-7.5,5.6-7.5,5.6s-9.3,6.6-10.2,10.5c0,0,16.1,3.9,31.4,33.1s16.6,32.6,20.2,37s13.1,17.3,17.8,20c4.6,2.7,13.6,7.5,13.6,7.5
		l49.7,17c0,0,25.6,5.1,47.2,6.1s25.3,1.7,25.3,1.7l9,1.2c0,0,11.9-1.2,17.8-2.9c5.8-1.7,8.5,0,8.5,0s11.9-1.9,14.6-2.7
		c2.7-0.7,25.8-7.1,25.8-7.1s22.4-6.3,28.2-19.5c10.2-10.7,0.6-37.7-21.2-56c0,0-42.9-23.9-48.9-29.7s-16.5-12.3-16.5-12.3
		s-33.1-29-24.8-46c0,0,5.6-11,19.2-11.7c13.6-0.7,13.6-0.7,13.6-0.7s3.4,0,4.4,0.7C248.9,81.9,240.8,83.9,240.8,83.9z"/>
	<path display="inline" d="M39.2,187.4l1.7-2.4c0,0,4.1,19.7,10.7,24.4c6.6,4.6,14.6,15.3,14.6,15.3l-1.2,3.2c0,0-17-14.4-22.4-25.1
		C37.3,192,39.2,187.4,39.2,187.4z"/>
	</g>
	<g id="catcher-mitt_x5F_vw1_x5F_plm">
		<path d="M256.2,81.3L246,82.8l-15.8,3.7c0,0-21.9,3.9-11.7,22.9s21.9,24.8,21.9,24.8l7.5,5.1c0,0,13.1,0,18.8-3.2l2.2-1.7v-20
			l-1.2-18l-1.5-13.1L256.2,81.3z"/>
	</g>
	<g id="catcher-mitt_x5F_vw1_x5F_web">
		<path d="M268.3,96.5v6.8l2.9,12.2l-1.5,26.3c0,0,3.9,7.1,6.8,7.1s4.9,0,4.9,0s8.3,4.4,11,7.1c2.7,2.7,8,6.6,8,6.6s5.1,0,14.4,9.5
			s15.3,18,15.3,18l7.1,17.3c0,0-0.2,2.9,3.2,2.9s10.5,8,10.5,8s6.8-3.6,7.5-14.4c0.7-10.7,2.5-28,1.2-28l-3.9-12.4l-3.4-9.3
			l-4.9-8.5l-5.1-5.4l-7.5-7.1l-26.5-20c0,0-6.1-4.6-7.8-5.4c-1.7-0.7-3.2-1.5-3.2-1.5s-4.5-1.3-5.6-3.7c-1.7-3.4-3.8-3.9-12.9-8
			c-8.1-3.7-9.8-9.8-10.5-9.5V96.5z"/>
	</g>
	<g id="catcher-mitt_x5F_vw1_x5F_fpad">
		<path d="M146.6,109"/>
		<path d="M194,76.3c0,0,2.6,0,1.5,3.3l1.1,0.7V82c-12.4,1.3-33,14.8-49.9,28c0,0-9.9-3.3-17.7-10.5l-12.5-7.6l-5.4-4.6
			c0,0-7.1-3.7-4.9,1.5c0,0,1.8,2.7,1.1,4.4c-0.7,1.8-1.5,0.7-1.5,0.7s-3.3-7.3,0-10.2c0,0,0.8-0.9,2.7-1.1
			c1.9-0.2,34.2-0.2,34.2-0.2s11.3,0.5,19.8-2.8s20.9-3.3,20.9-3.3H194z"/>
	</g>
	<g id="catcher-mitt_x5F_vw1_x5F_stch">
		<path  stroke-width="1.5" stroke-miterlimit="10" stroke-dasharray="3,1.5" d="M165.1,263.5"/>

		<line  stroke-width="1.5" stroke-miterlimit="10" stroke-dasharray="3,1.5" x1="165.1" y1="262.3" x2="167.6" y2="259.3"/>
	<path  stroke-width="1.5" stroke-miterlimit="10" stroke-dasharray="3,1.5" d="M168.9,257.6l3.2-3.9l20.3-4.7
		l35.3-0.8l26.5-1.1c21.4,0.2,47.5-25.4,23.5-47.9l-61.4-36.9c0,0-17.7-10.6-30-24.7c-6.6-7.5-15.9-17.1-10.5-36"/>
	<path  stroke-width="1.5" stroke-miterlimit="10" stroke-dasharray="3,1.5" d="M176.1,100.8
		c0.4-1.2,0.8-2.5,1.3-3.8"/>
	<path  stroke-width="1.5" stroke-miterlimit="10" stroke-dasharray="3,1.5" d="M184.6,87.8c0,0-1.4,0.5-3.3,2.2"/>
	<path  stroke-width="1.5" stroke-miterlimit="10" stroke-dasharray="3,1.5" d="M179.8,91.4
		c-3.4,3.7-7.3,11.1-7.8,25.2c0,0-0.8,14.9,21.3,30.8c0,0,13.5,14.3,32.9,24.7s35.3,19.5,35.3,19.5s26.6,11.2,21.9,32.3
		s-30.7,22.2-30.7,22.2l-40.9,1.1h-21.9c0,0-15.9-0.3-20.6,6.6c-1.6,2.3-2.8,4.1-3.8,5.6"/>
	<path  stroke-width="1.5" stroke-miterlimit="10" stroke-dasharray="3,1.5" d="M164.9,260.3
		c-1.6,2.3-2.3,3.3-2.3,3.3"/>
	<path  stroke-width="1.5" stroke-miterlimit="10" stroke-dasharray="3,1.5" d="M210.5,93.3c0,0-0.9,1.2-1.3,3.7"/>
	<path  stroke-width="1.5" stroke-miterlimit="10" stroke-dasharray="3,1.5" d="M209,98.9
		c-0.1,5.1,2.2,13.9,13.5,26.6c19.7,22.3,31.1,28,31.1,28s33.1,20.8,43.5,25.8s20.5,20.5,20.5,20.5s13.8,25,6,36.9
		S287.4,259,287.4,259l-33.4,7.1l-11,0.3l-15.2,2.8l-8-2.1c0,0-16.7,1.1-19,0.9s-8.8-1.8-8.8-1.8s-22.6-1.7-33.6-3.5"/>
	<path  stroke-width="1.5" stroke-miterlimit="10" stroke-dasharray="3,1.5" d="M157.3,262.3
		c-1.7-0.3-3.1-0.6-3.9-0.9"/>
	<path  stroke-width="1.5" stroke-miterlimit="10" stroke-dasharray="3,1.5" d="M240.7,89.8v-4l3.2-0.5
		c0,0,0.1,1.5,0.1,4"/>
	<path  stroke-width="1.5" stroke-miterlimit="10" stroke-dasharray="3,1.5" d="M244.2,91.4
		c0.3,8.7,0.8,24.3,1,29.7"/>
	<path  stroke-width="1.5" stroke-miterlimit="10" stroke-dasharray="3,1.5" d="M245.3,122.1c0,0.6,0,0.9,0,0.9
		l-3,0.8l-0.2-4"/>
	<polyline  stroke-width="1.5" stroke-miterlimit="10" stroke-dasharray="3,1.5" points="242,117.9 240.7,93.3
		240.7,90.8 	"/>
	<path  stroke-width="1.5" stroke-miterlimit="10" stroke-dasharray="3,1.5" d="M286.4,110.1c0,0,0.7,1.4,1.6,3.7"
		/>
	<path  stroke-width="1.5" stroke-miterlimit="10" stroke-dasharray="3,1.5" d="M288.6,115.4
		c2.5,6.2,6.1,16.7,6.1,25.2"/>
	<path  stroke-width="1.5" stroke-miterlimit="10" stroke-dasharray="3,1.5" d="M294.8,141.5c0,1.4-0.2,2.7-0.4,4
		l-1.9-0.8c0,0,0-1.6-0.1-4"/>
	<path  stroke-width="1.5" stroke-miterlimit="10" stroke-dasharray="3,1.5" d="M292.1,138.5
		c-0.1-3.1-0.4-6.8-0.7-9.8"/>
	<path  stroke-width="1.5" stroke-miterlimit="10" stroke-dasharray="3,1.5" d="M291.4,127.6
		c-0.2-2-0.5-3.4-0.8-3.9"/>
	<path  stroke-width="1.5" stroke-miterlimit="10" stroke-dasharray="3,1.5" d="M307,123c0.6,1.1,1.3,2.3,1.9,3.5"
		/>
	<path  stroke-width="1.5" stroke-miterlimit="10" stroke-dasharray="3,1.5" d="M309.7,128.4
		c3.9,9.2,6.6,21.7,7.1,29.3"/>
	<path  stroke-width="1.5" stroke-miterlimit="10" stroke-dasharray="3,1.5" d="M316.8,158.8c0.1,1.6,0,3-0.2,4
		l2.1,2.1c0,0-0.1-1.5-0.4-4"/>
	<path  stroke-width="1.5" stroke-miterlimit="10" stroke-dasharray="3,1.5" d="M318,158.8
		c-1-8.8-2.8-24.4-4.6-28.7C311,124,307,118,307,118l-5.6-6.8"/>

		<line  stroke-width="1.5" stroke-miterlimit="10" stroke-dasharray="3,1.5" x1="300.7" y1="110.3" x2="298.1" y2="107.3"/>
	<path  stroke-width="1.5" stroke-miterlimit="10" stroke-dasharray="3,1.5" d="M330.7,134c0.5,1.3,1,2.5,1.4,3.8"
		/>
	<path  stroke-width="1.5" stroke-miterlimit="10" stroke-dasharray="3,1.5" d="M332.8,139.8
		c6.9,20.4,6.7,36.2,5.8,59.5l0.8,1.2"/>
	<path  stroke-width="1.5" stroke-miterlimit="10" stroke-dasharray="3,1.5" d="M340,201.4l2.2,3.3
		c-0.1-1.3-0.2-2.6-0.2-4"/>
	<path  stroke-width="1.5" stroke-miterlimit="10" stroke-dasharray="3,1.5" d="M341.9,198.5
		c-0.5-17.4,0.7-41.9-7.1-60"/>
	<path  stroke-width="1.5" stroke-miterlimit="10" stroke-dasharray="3,1.5" d="M334.4,137.5
		c-0.6-1.2-1.2-2.4-1.8-3.6"/>
	<path  stroke-width="1.5" stroke-miterlimit="10" stroke-dasharray="3,1.5" d="M141.9,110c0.4,1.3,0.7,2.6,0.8,3.9
		"/>
	<path  stroke-width="1.5" stroke-miterlimit="10" stroke-dasharray="3,1.5" d="M142.7,116
		c-0.1,14.1-14.8,28.9-29.7,23.2c-23-12.7-27.9-26.7-47.1-28.2"/>
	<path  stroke-width="1.5" stroke-miterlimit="10" stroke-dasharray="3,1.5" d="M64.9,110.9c-1.3-0.1-2.6-0.1-4,0"
		/>
	<path  stroke-width="1.5" stroke-miterlimit="10" stroke-dasharray="3,1.5" d="M16.2,146.5c0,0,1.3,0.6,3.5,2"/>
	<path  stroke-width="1.5" stroke-miterlimit="10" stroke-dasharray="3,1.5" d="M21.3,149.6
		c6.7,4.9,18.9,16.3,29,39.9c12.4,29,31.2,46.1,41,51.6"/>
	<path  stroke-width="1.5" stroke-miterlimit="10" stroke-dasharray="3,1.5" d="M92.2,241.6
		c1.5,0.8,2.8,1.2,3.7,1.4"/>
	<path  stroke-width="1.5" stroke-miterlimit="10" stroke-dasharray="3,1.5" d="M174.1,87.3l-11.4,6.3l-19.1,11
		l3,0.7c0,0,4.5-4.1,16.1-10.2L174.1,87.3z"/>
	</g>
	<g id="catcher-mitt_x5F_vw1_x5F_lce">
		<path d="M8.3,147.4c0,0-4.4,3.2-4.4,10S0,154,0,154s6.3-15.6,15.8-23.6c0,0-2.4-3.4,4.4-8s6.6-2.9,6.6-2.9s7.5-5.6,13.9-6.8
			c0,0,11-11.2,11.9-13.4c1-2.2,2.2,1.5,2.2,1.5l-5.1,8.8l-4.7,2.8l4.9,4.1l-2.9,2.4l-3.4,1.7c0,0-10,7.1-11.7,8.5
			c-1.7,1.4-3.9,3.5-3.9,3.5l-2.2,1.9c0,0-3.2-1.5-3.7-7.3c0,0-4.6,3.4-7.8,8S8.3,147.4,8.3,147.4z"/>
		<path d="M134.7,225.8l12.9,1.2v9c0,0-9.5,0.7-12.9-1.5V225.8z"/>
		<path d="M110.3,223.3c0,0-0.7,5.5,0,7.9s12.9,2.1,12.9,2.1v-10H110.3z"/>
		<path d="M95.2,247.3c0,0-17.3-1.2-21.2-4.6l-3.4,2.3c0,0,3.7,6.5,16.8,8.2s19-1.2,19-1.2l8-0.5c0,0,11.4,11,13.1,11
			c1.7,0,5.4,0,5.4,0h3.4c0,0,5.6-2.4,7.3-2.9s1.9,0.7,1.9,0.7s0.5,0.7-1.2,4.6s7.3,3.2,7.3,3.2s3.6-6.8,3.1-10.2
			c-0.5-3.4-6.3-2.4-6.3-2.4s20-2.2,26.3-1.7s12.7,0.2,12.7,0.2c7.6-0.4,7.5-2.5,1.7-5.8c0,0-40.9,0.2-45.8,1.2c0,0-4.9-2.2-7.3-4.1
			c-2.4-1.9-4.1-2.4-4.1-2.4s-5.8-3.7-11.4-2.2s-6.3-0.3-6.3-0.3s-3.2-1.6-7.8,0S95.2,247.3,95.2,247.3z"/>
		<path d="M255,195.4c0,0-6.3-4.9-13.9-2.7c0,0-7.3-4.6-16.6-8.8s-31.1-13.4-31.1-13.4l-4.4,7.4c0,0,39.4,16.6,42.6,20.2
			c3.2,3.7,6.8,10,6.8,10s7.1,0.7,10.5,0s4.1-2.2,4.1-2.2c12,9.8,26.7,24.5,41.9,40.2l6.8-6.6l-38.5-37.2l1-2.2l-5.4-6.6
			C258.8,193.5,257.9,193.5,255,195.4z"/>
		<path d="M272,253.8c0,0-27-3.8-33.8-3.5c-6.8,0.2-20.9,0-20.9,0v7.3c0,0,40.2-1.7,48.5,0l-0.5,2.7l8.5,4.9l6.1-5.1v2.4
			c0,0,3.9,1,7.3-2.4s3.4-3.4,3.4-3.4s22.6-2.2,31.4-4.4s23.1-5.4,25.8-8.5v-7.4c0,0-18.5,6.7-22.2,6.9l-4.9-8l-6.5,2.2
			c0,0,1.6,6.1,2.6,7.1s-26.2,3.2-26.2,3.2l-8.1-1.5c0,0-1.7,0.7-1.9,2.2C280.3,249.8,272,253.8,272,253.8z"/>
		<path d="M171.9,261.5c0,0-4.4,7.1-5.6,7.8c-1.2,0.7-1.2,0.7-1.2,0.7s7.1,2.7,9.7,0c2.7-2.7,4.1-8.5,4.1-8.5H171.9z"/>
		<path d="M202.1,265.1c0,0-1-5.6-7.3-2.2l-4.9,8.3l1.7,2.7h5.8L202.1,265.1z"/>
		<path d="M227.7,266.3c0,0-2.2-8-7.3-1.2s-5.4,8.5-6.8,8.8l8.5,1.9L227.7,266.3z"/>
		<path d="M254.2,265.1h-8.9l-5.5,9.2c0,0,6.2,0.9,9-0.4C253.1,271.8,254.2,265.1,254.2,265.1z"/>
		<path d="M269.3,263.6c0,0-0.7,4.7-4.4,4.4l2.2,1.8l9-1.8l6.3-9.6l-11.9,2.9L269.3,263.6z"/>
		<path d="M293.7,256.5c0,0-0.6,3-3.1,5.8l3.1,1.8c0,0-0.2-1.5,6.3-2.7c0,0,1.7-6.6,2.7-7.7C303.7,252.6,293.7,256.5,293.7,256.5z"
			/>
		<path d="M345.8,208.3h6.3c0,0,1.9,3.2,1.9,6.6c0,3.4-21.7,8.3-21.7,8.3s5.1,4.4,6.3,5c1.2,0.6-4.4,6.9-4.4,6.9l-13.1-9.3l-4.1-1.2
			c0,0-1.2-8.4,0-8.5C321.7,215.6,348.8,212.3,345.8,208.3z"/>
		<path d="M333.1,194.8l2.3,8c0,0-12.2,4.9-18.7,5.6l-5-6.8l2.2-2.9L333.1,194.8z"/>
		<path d="M327,180.1c1.6,1.4-14,13.6-21.2,15.8c-7.4-1.4-9.1-5.1-6.8-10.5l13.7-12.7l2.6-2.2l4.4,3.2h2.2
			C321.9,173.8,327.8,176.9,327,180.1z"/>
		<path d="M302.7,158.3c0,0-16.2,21-20.3,22.2c-7.4,2.1-9.7-4.3-8.8-4.4c0,0,18-17.8,19.7-20s3.2-4.1,3.2-4.1S305,155.4,302.7,158.3
			z"/>
		<path d="M274.9,138.9c0,0-6.6,10.2-8,12.9v1.5l4,1.7l-16.4,8.3l3.7,7.3l16.8-8c0,0,4.4-3.7,7.5-3.7V156l-4.9-2.9l-1.9-1.2
			c0,0,6.1-7.3,6.8-9.7L274.9,138.9z"/>
		<path d="M224,126.5h-6.8c0,0-7.9-3.7-10.5,2.9c-3.2,8-2.9,11.4,9.3,14.1c3.4,0.7-1-7.3-1-7.3l11.3,24.6l10.2-1.5l-10-22.4
			C228.2,133.5,227.5,130,224,126.5z"/>
		<path d="M264.7,147.9c-1.6-2.5-22.5,1.9-25.6,3.9c-3.3,2.2-10.5-0.5-6.6-5.8c3.9-5.4,9.5-13.1,9.5-13.1l6,3.9c0,0,2.1-4.1,2.1-5.6
			s6.6-1.5,8.3,0l-1,7.8l7.3,7.8L264.7,147.9L264.7,147.9z"/>
		<path d="M318,111.4l-4.4-4.1c0,0-2.4-0.5-2.9,2.1s1.9,6,1.9,6s-2.4,6.3-3.9,6.8s9.7,13.1,11,14.1c0,0-0.5,15.6,1.2,24.6
			s0,1.2,0,1.2l7.5,4.2l2.2-2.5c0,0-2.7-13.7-1.7-20.6c1-6.9-0.5-6.4-0.5-6.4l2.2-3.2c0,0,2.2-4.5,0-8.1s-4.1-8.7-9-9.9
			C316.8,114.3,318,111.4,318,111.4z"/>
		<path d="M204.3,119c6.7-3.2,14.2-3.8,22.7-1c2.3,0.3,1-1.9-2.2-5.4c-5.8-4-13.7-2.8-22.2,0C198.5,115.8,199.4,117.8,204.3,119z"/>
		<path d="M256.4,110.3c0,0,12.1-12.2,25-0.7c12.9,11.6,1.9,13.4,1.9,13.4l-4.6-4.1c0,0-2.7-8-12.8-5c0,0-2.2-0.4-4.4-1.3
			C259.3,111.7,256.4,110.3,256.4,110.3z"/>
		<path d="M260.2,95.8c0,0,15.3-3,13,8.2c0,0,3.8,3.3,8.6,1.9c0,0,2.4-11.8-13.4-17.8c0,0-8.4-1.3-12.1,2.9
			c-3.7,4.3-2.7,2.9-2.7,2.9L260.2,95.8z"/>
		<path d="M262.3,87.8l-1.7-0.9c0,0-1.7,0.7-2.6,0s-5.1-1.6-5.1-1.6s2.3-4.5,13.4-3.3c0,0,6.7,2.7,7.4,7.7L262.3,87.8z"/>
		<path d="M234.4,81.3l1-1.9c0,0,7.3-0.6,15.6,0c8.3,0.6,8.3,0.6,8.3,0.6v-2l-2.8-1.7l-25.9-0.7c0,0-5.6-1.6-9.7-0.7l-4,4.7l0.6,1.7
			l3.4,0.7h5.7l7.3,0.7L234.4,81.3z"/>
		<path d="M211.2,83.3c0,0,11.1-2.6,16.9,1.2c0,0,3,4.3,0,5.4s-3.5,0-3.5,0s-1.5-4.6-10-3.5l0.1,0.9c0,0,7.2,1.5,8.3,4.6
			s-4.7,4-4.7,4s1.8-6.2-11.9-2.8l-4.9,1.5l-2.4-1.6c0,0,1.5-1.1,1.5-3.2s8.8-1.9,8.8-1.9s-1.9-0.7-2.6-2L211.2,83.3z"/>
		<path d="M218.1,107.8c0,0-2.8-7.4-15.8-2.4c0,0-2.5,1.1-4.9-0.2c0,0,1.3-2.3,0-3.3s9.3-7.2,21.7,0.6c0,0,2.9,3,2.3,5.4
			C220.7,109.3,218.1,107.8,218.1,107.8z"/>
		<path d="M37.9,179.8l2.8,5c0,0-1.1,0.9-1.4,2.7c-0.3,1.8-2.7-1.9-2.7-1.9v-4.4L37.9,179.8z"/>
		<path d="M43.8,191.6l2.4,4.4v1.5c0,0-5-0.5-3.8,4.4c0,0,0.5,2.2-1.8,0s-1-6.9-1-6.9L43.8,191.6z"/>
		<path d="M53.2,209.1c0,0-3.5,1.6-4.6,4.6s2.9,4.4,2.9,4.4l3-0.6c0,0,1.6-2.3,2.1-2.7L53.2,209.1z"/>
		<polygon points="66.2,226.8 71.1,231.1 68.1,233.3 64.7,229.9 64.7,227.3 		"/>
		<path d="M81.8,239.4l6.8,2.7l-2.7,1.3c0,0-2.7-0.6-4.1-2C80.4,240.1,81.8,239.4,81.8,239.4z"/>
		<path d="M352.5,189c0,0,7.7,1.2,9.7,4.3v8.3c0,0-1.3,3.9-4.3,4.9l-0.6-2.3c0,0,5.5-3.8-2.4-5.2l-4-4.1L352.5,189z"/>
		<path d="M351.9,176.9c-1.4,1.6-1.6,3.2,0.7,4.9l2.4,1.5c0,0,7.7,2.8,5.2,7.9l1.9,1.5c0,0,3.2-7.3,0-12.9c0,0,0.1-6.2-1.8-9.1
			s-1.9-2.9-1.9-2.9s1.7-1.7-1.3-6.6s-2.2-3.3-2.2-3.3s-0.6-3.9-2.1-6s-4.5-6.1-4.5-6.1l-3-3.3c0,0-1.5-5-8-6.9h-0.7l0.7,1.2
			l5.7,4.6h-2.4l0.5,1.4l6.6,4.6l-3.5-0.9c-1,0.4-2.3,2.1,1,3.3c2.5,0.9,6.8,6,6.8,6l-3.9-1c0,0-3.2,0.1,0,3.4s7.2,3.5,8.6,7.3
			c0,0-3.4-0.9-5.7-1.4c-4.1-0.9-2.1,3.5-0.8,4.2c0,0,9.6,4.6,9.3,8.6l-7.1-1L351.9,176.9z"/>
	</g>
	<g id="catcher-mitt_x5F_side_x5F_view">

			<image id="glove-view-3" overflow="visible" enable-background="new" width="770" height="419" xlink:href="https://cdn.jsdelivr.net/gh/phantomodm/nystixCDN@9P/depository/assets/images/9P_catcher_side_view.png"  transform="matrix(0.487 0 0 0.487 0 73.95)">
		</image>
	</g>

<g id="cm_block_font">
	<text transform="matrix(0.795 0.1536 -0.1897 0.9818 85.5222 187.9216)" font-family="'CooperBlack'" font-size="19.9433px">Personalization</text>
</g>
<g id="cm_script_font">
	<text transform="matrix(0.7236 0.1398 -0.1897 0.9818 84.6375 192.4998)" font-family="'ScriptMTBold'" font-size="25.4409px">Personalization</text>

		<text transform="matrix(0.7236 0.1398 -0.1897 0.9818 84.6375 192.4998)" fill="none" stroke="#000000" stroke-miterlimit="10" font-family="'ScriptMTBold'" font-size="25.4409px">Personalization</text>
	<g>
		<path stroke="#000000" stroke-miterlimit="10" d="M0,0"/>
	</g>
</g>
</svg>
