<?xml version="1.0" encoding="utf-8"?>
<!-- Generator: Adobe Illustrator 23.0.0, SVG Export Plug-In . SVG Version: 6.00 Build 0)  -->
<svg version="1.1" id="Layer_1" xmlns="http://www.w3.org/2000/svg" xmlns:xlink="http://www.w3.org/1999/xlink" x="0px" y="0px"
	 viewBox="0 0 309.9 350" enable-background="new 0 0 309.9 350" xml:space="preserve">
<g id="catcher-fastback_x5F_vw1_x5F_utoe">
	<g>
		<path d="M92.9,50c-5.3,3.1-22.1,21.1-26.4,29.1l0.9,6.3C67.5,85.4,91,51.5,92.9,50z"/>
		<path d="M52.3,117.6c0,0-38.5,89.5,66.6,90.9l84.1,76.1c0,0,61.8-50.7,73.2-70.1c11.4-19.4,15.1-36.2,12.8-43.6
			s-17.3-35.6-40.4-36.5s-59.9,3.4-97.5,24.2c0,0-39.3,19.4-65.3,9.4C60,158.1,52.3,117.6,52.3,117.6z"/>
	</g>
</g>
<g id="catcher-fastback_x5F_vw1_x5F_thb">
	<path d="M52.9,121.1c-1.7,12.4-23.4,73.8,51.6,81.2c25.3,0,61-16.4,71.8-23.4c29.9-17.9,96.3-10,63.5,39.3c0,0-62.9,49.6-36.8,63.5
		l0.6,4.8c0,0-63.8,28.8-67.5,32.5S99,351.2,41.2,336.2c0,0-27.1-11.1-28.8-14.5c0,0-1.4-9.4-1.7-11.4s-6.6-25.6-6.6-25.6
		s0.3-12-2.9-19.1c-3.1-7.1,0.9-45,11.4-67.2S52.9,121.1,52.9,121.1z"/>
</g>
<g id="catcher-fastback_x5F_vw1_x5F_logo">
	<g>
		<path d="M18.1,223.9l29.4,12.2c11.2,3.5,26.8,37-18.6,31.1c0,0-2.3,6.7-2.3,9.4c0,0-5.4,0-11.1-4L26.1,241l10.5,3.8l-4.5,13.6
			c0,0,5.4,1.6,9.1-0.7c3.9-2.5,6.4-10.1-1.5-13.4L13.5,233C14,229.5,15.8,225.9,18.1,223.9z"/>
		<path d="M12.4,235.6c0,0-4.4,1.6-5.6,5.9c-1.2,4.3,2.3,12,4.3,12s2.9-0.6,2.9-0.6s-1.4,7.4-6,7.4c0,0-2.4,2.3,0.4,3.5
			c2.9,1.3,10-0.4,12.8-9.7C24.1,244.9,19.7,233.9,12.4,235.6z"/>
	</g>
</g>

<g id="catcher-fastback_x5F_vw1_x5F_wlt">
	<path d="M3.1,235.4c0,0-2,34.4,3.5,41.2c0,0,0,1.3,0,3.2c0.1,2.4,0.3,5.6,1,8.5c1.2,5.1,5.9,22.6,5.9,22.6l2.6,13.3h-2.6l-3-14.2
		l-5.8-25.2c0,0,0.1-7.4-2-14.7S0.9,239.2,3.1,235.4z"/>
</g>
<g id="catcher-fastback_x5F_vw1_x5F_web">
	<path d="M133.8,149.6c0,0,15.3,7.2,21.2-8.2c0,0,0.3-2.6,9.7-4.7c9.4-2,14.9-8.1,14.9-8.1s4.6-4.1,13.9-10.6c9.2-6.5,27,3.6,27,3.6
		l33.2,2.9c0,0,5.1,0,6.8-0.6c1.7-0.6,20.9-5.9,20.9-5.9s-1.1-3.4,2.9-8.4L277.8,91l-5.4-12l-21.2-25.9l-29.2-29.5L199.8,2.8
		c0,0-5.5-4.5-16.5-1.3s-6.6-1.2-6.6-1.2l-8.8,11.5l-27.6,20.1c0,0-23.8,3.4-32.9,14.1l-13,7.3c0,0,3.7,24.8,10,40.2
		c6.4,15.3,14.1,28.3,14.1,28.3S129,134.1,133.8,149.6z"/>
</g>
<g id="catcher-fastback_x5F_vw1_x5F_bnd">
	<g>
		<path d="M12.4,320.3c0,0,15,10.5,28.8,13.9c13.9,3.4,40.2,6.2,48.1,4.9l22-0.9c0,0-7.1,2.4-21.4,4.1c-14.3,1.7-37.3,0-53.5-4.5
			l-13.4-6.2c0,0-5.9-5.3-9.6-5.6C13.5,326.1,11.5,322.9,12.4,320.3z"/>
		<path d="M9.3,207.1c0,0-0.6,5.7,5.1,8.5c5.7,2.8,17.6,4.8,17.6,4.8s6.8,2,7.4-6.7c0.6-8.7,0-20.1-2.3-23.5l-24.5,7.1L9.3,207.1z"
			/>
		<path d="M77.6,73.2c0,0-2.8,11.6-3.2,14.1c0,0-9.6,9.6-10.5,30.8s6.3,28.4,6.3,28.4s15.4,27.1,42.9,20.7l31.4-11.8
			c0,0,2.8,0,5.3-2.4c2.6-2.4,11.3-6,11.3-6s34.4-15.6,37.4-16.9c3-1.3,22.4-10,22.4-10s10.7-7.3,30.3,4.7l22.9,14.1l5.8,3.8
			l8.8,8.5c0,0,2.6,10.7,3,18.6c0.4,7.9,1.9,10.7-2.8,25.6c-4.7,15-4.7,11.3-4.7,11.3s0.2,5.3-6.6,10.7c0,0-4.9,12-12.8,16.2
			c-7.9,4.3-3.2,9.6-16.1,17.9l-8.9,7.3l-4.7,5.1l-7.9,7.9c0,0-4.3,6.2-9.6,7.7l-8.5,4.9c0,0-5.8,6.2-11.3,6.6l-8.8,4.7
			c0,0-6,3.4-8.1,4.1c0,0-2.1,1.1-4.7-2.6c0,0,17.5-3.8,29.1-15.8l28-29.1c0,0,28.1-22.6,43.6-47.9s11.3-70.5-57.9-67.7l-28.4,9
			l-18.6,9.4l-10,4.7l-12.8,4.9c0,0-8.5,1.5-14.3,4.1l-15.2,3.8c0,0-10.5,1.1-13,1.1s-7.7,0.8-7.7,0.8l-4.9,1.7
			c0,0-26.7-5.1-37.2-40S75.9,73,77.6,73.2z"/>
		<path d="M167.9,11.8l-27.6,20.1c0,0-23.1,3.4-32.9,14.1l-13,7.3l-3.8-0.8c0,0,9.2-10.7,22-12.9l10.7-4.7c0,0,5.3-5.1,10.5-2.4
			l15.8-12.2c0,0,2.6-6,21.6-13.7L167.9,11.8z"/>
	</g>
</g>
<g id="catcher-fastback_x5F_vw1_x5F_plm">
	<path d="M94.4,53.2c0,0-6.4-7-16.8,20S58.3,106.8,65,134.1s31.6,38.2,47.9,34.7l7.3-6.4c3-4.7,4.8-13.5,13.7-10.5
		c0,0,0-7.1-4.7-14.5c-4.7-7.5-9.4-15.4-13.5-19s-18.8-11.8-19-29.7c0,0-0.6-15.8,0.4-19.4L94.4,53.2z"/>
</g>
<g id="catcher-fastback_x5F_vw1_x5F_stch">
	<g>
		<path fill="none"  stroke-miterlimit="10" stroke-dasharray="8,2" d="M177.9,4.3c0,0-1.7,8.8,20.8,39.9
			s30.2,41.2,30.2,41.2L250,118h3.7v-5c0,0-44.1-59.8-50.7-68.7s-18.5-25.1-22.8-40.2L177.9,4.3L177.9,4.3z"/>
		<polygon fill="none"  stroke-miterlimit="10" stroke-dasharray="8,2" points="140.6,33.1 162.5,70.4 185.6,115 
			188.8,111.3 162,64.7 143.8,31.9 		"/>
		<polygon fill="none"  stroke-miterlimit="10" stroke-dasharray="8,2" points="107.3,49.3 126.9,89.7 149.1,134.7 
			151.7,133.3 109.5,47.3 		"/>
		<path fill="none"  stroke-miterlimit="10" stroke-dasharray="8,2" d="M72.5,96.1c0,0-1.2,21.9,13.7,37.8
			s21.1,22.6,21.1,22.6l2.3-2.1c0,0-35.2-31-34.8-47"/>
		<path fill="none"  stroke-miterlimit="10" stroke-dasharray="8,2" d="M235.9,220.5c0,0,28.6-24.9-12.7-45.5
			s0,0,0,0s-18.8-7.5-50,10.2s-55.9,21.1-55.9,21.1s-52.7,7.6-67.5-33.2"/>
		<path fill="none"  stroke-miterlimit="10" stroke-dasharray="8,2" d="M46,145.9c0,0-10.3,50.3,43.3,62.3
			c0,0,31.8,6.5,65.6-11.1c0,0,44.6-22.8,48.6-20.3c4,2.6,0,0,0,0c-1.4-5.9,86.3,7.6,2.9,67.6"/>
		<path fill="none"  stroke-miterlimit="10" stroke-dasharray="8,2" d="M8.7,279.8c0,0,29.3,8.1,37,15.3
			c7.7,7.2,12.4,9.3,12.5,13.4"/>
	</g>
</g>
<g id="catcher-fastback_x5F_vw1_x5F_blt">
	<path d="M22.1,298.1c0,0,8.7,5.8,8,11.5c0,0,0.9,2.1,4.1,2.1c0,0,0.4-2.1-2.4-8.5c9.1,6,12,25.6,4.6,29.3c0,0-2.9,2.4,0,3
		s17-19.2-3.8-35.5c0,0-1.7-0.9-3,0.4C29.7,300.4,23.5,296.6,22.1,298.1z"/>
</g>
<g id="catcher-fastback_x5F_vw1_x5F_lce">
	<g>
		<path d="M12.2,310.9l-4.7-2.6c-0.6-1.5-2.8-9.8-2.8-9.8s-3.6-13.9,0-13.7c3.6,0.2,4.7,3.6,4.7,3.6
			C7.5,294.6,10.2,303.1,12.2,310.9z"/>
		<path d="M83.2,61.2c0,0-11.8,10.2-13.1,17.9l7.5-5.8L83.2,61.2"/>
		<path d="M18.6,293.8c0,0-5.6,16.2,0,25c5.6,8.8,6.6,7.3,6.6,7.3c-1.3,11.3,10.3,11.3,10.3,6.4l2.6-0.9c0,0,3.7-7.2,0-18.8
			c-1.2-3.8-2.8-6-2.8-6l-1.7,0.2c0,0,0.9,3,0.9,4.7c0,0-3.4,0.6-4.7-4.7C29.7,307.1,22.4,295.3,18.6,293.8z"/>
		<path d="M39.7,306.2c0,0,7.9,15.6,2.6,26.3c0,0,23.5,4.3,32.3,5.1s22.6,0.2,35.5,1.3c12.8,1.1,20.3-4.9,20.3-4.9
			c4.1-3.4,2.2-6.5-3.6-9.2c0,0-6.4-1.5-8.8-1.3c0,0,4.3-10.5-1.3-12.6c0,0-30.3,7.7-48.9,0C67.7,310.9,44.4,304.3,39.7,306.2z"/>
		<path d="M52.3,120c0,0-14,43.9-13.1,52.4s-2,17.9-2,17.9v6.8c0,0-20.5,6.8-33.6-3.1c-0.3-0.7,37.4-94.2,49.6-108.8
			c0,0,4.6-4.3,7.4,0C60.6,85.2,51.4,115.4,52.3,120z"/>
		<path d="M129.3,296.4c0,0,2.8,1.3,7.9-1.3l2.6,1.6c0,0-2.6,4.8-7.2,10.8c0,0-2,2.1-2-1.6c0,0-4.5,3.7-10.5,0L129.3,296.4z"/>
		<path d="M152.8,283.5c0,0-6.6,6.2-7.9,6.6c0,0,8.5,0,12.8-3.3l3-3.3l-3.4-1.3C157.3,282.3,155.8,284,152.8,283.5z"/>
		<path d="M134,322.4c0,0-3.8-1.5-7.3,2.4c-3.4,3.8,0,0,0,0s4.7,5.3,10.5,3.4c5.8-1.9,8.8-2.4,9.2-4.1s0-4.7,1.1-6.4
			c0,0,3,6,9.6,1.1c6.6-4.9,4.7-6.2,4.7-6.2s-4.7,10,4.5,0c0,0,6-5,11.3-6.8l1.1-2c0,0,1.5-0.4,2.8-4.5c0,0-2.4,2.6-5.1-3l8.8-7.9
			c0,0,0,8.5,6.8,9c0,0,8.3-3.2,6.8-6.2c0,0-2.6,2.4-5.1-2.8c0,0-1.5-2.6-5.1-2.3c0,0,13-11.7,15.6-13.8c0,0-3.4,9.2,8.3,12.8
			c0,0,6.6-3,6.4-6.6c0,0-4.7,2.6-6.4-6.2c0,0-2.4-5.1-5.3-2.6c0,0,7.7-7.3,4.9-18.8c0,0,32.1-29.3,38.2-31.2c0,0,0.9,2.4,4.1,1.3
			c3.2-1.1,7.3-1.3,7.3-1.3s5.1,9.8,14.3,5.8c0,0,4.1-4.5,3.8-9.8c0,0-5.6,6.2-11.5-1.5l5.6-7.7l0.4-2.4c0,0,12.6,5.8,15.2-1.1
			c2.6-6.8,1.7-7.9,0-9.4c0,0-3.4,6.2-6.8,1.7c0,0,13.5-11.3,21.2-25.9c7.7-14.5,6.2-17.3,6.2-17.3s-7.7-0.2-9.8-2.6
			c-2.1-2.4-3,13.7-7.9,17.9c-4.9,4.3-8.1,3.6-11.8,1.7s-7.9,3-8.3,5.6s5.1,4.9,9.4,5.6c0,0-6.4,6.4-16,14.7c0,0-2.1-1.1-4.7,0.2
			c-2.6,1.3-6.4,3.8-6.4,3.8s-2.1,2.4,0.9,4.3l-2.4,6.2l-19.9,14.4c0,0-25,21.4-30.8,27.1l2.6,2.8c0,0-9.2,9.6-16.7,14.5
			c-7.5,4.9-27.4,23.1-27.4,23.1s-3.6-4.3-7.9-0.2c-4.3,4.1-6.8,10.1-6.8,10.1l-6.2,10.4C139.7,312,135.9,324.1,134,322.4z"/>
		<path d="M225.4,259.2l-5.6-1.7c0,0-4.4-0.2-2.3,4.5c2.1,4.7,4.2,11.5,13.6,10.7l4.3-4.9c0,0,1.1-1.9,0-3.4
			C235.5,264.3,226.5,265,225.4,259.2z"/>
		<path d="M240.6,245.5l-6.2-1.1c0,0-3.2,0.4-2.1,3.6c1.1,3.2,2.6,11.8,11.8,11.1l4.9-4.5c0,0,0.9-1.9,0-4.5
			C248.9,250.2,243.2,254.9,240.6,245.5z"/>
		<path d="M257.7,228.2c0,0-9.4-2.8-9.8,2.6c-0.4,5.3,8.3,12.8,14.3,11.3c0,0,6-5.3,4.1-9C266.2,233.1,258.8,235,257.7,228.2z"/>
		<path d="M289.3,143.6c-0.9-1.9-2-3.6-2-3.6l-1.2,1.3c0,0,3.6-13-1.5-19s-6.8-10.5-6.8-10.5c-4.3-4.7-14.3,3.8-14.3,3.8l-0.9,9
			c-3.6-3.6-9,0-9,0c-2.4,8.8-8.5,13.7-8.5,13.7l-2.1-0.2l-45.7,45.1c-0.4-1.1-3.2-0.9-3.2-0.9c-15.2,4.9-11.8,9.2-11.8,9.2
			c-10.5,2.8-7.5,11.8-7.5,11.8l-4.3-0.2c0,0-8.5,1.5-5.1,3.6s9.8,1.9,9.8,1.9l-9,3c-17.1,5.8-41.1,21.8-41.1,21.8l2.2,1.5l4.9,3.2
			c0,0,2.8-0.9,11.1-6.6c8.3-5.8,37.2-16.7,37.2-16.7v2.6h12.2l2.4-7.5c15.2-5.3,9.8-17.7,9.8-17.7s38.9-38.9,46.4-44.2
			c7.5-5.3,12.4-17.3,12.4-17.3c0.4,2.1-2.1,7.1-4.7,11.1c-2.6,4.1-2.4,12.6-2.4,12.6c2.4,0.6,8.5,5.3,8.5,5.3l3-2.6h8.3
			c14.5-4.3,15-9.4,15-9.4S290.2,145.5,289.3,143.6z M272.4,146.2l1.7-7.1c3,1.3,5.8,3.8,5.8,3.8L272.4,146.2z"/>
		<path d="M281.2,100.2c0,0,1.9-6.2-18.2,1.7c0,0-12.6,1.9-6-10.5c0,0,8.8-6,17.7-6.2c0,0-2.1-6.2-17.9,0c0,0-15,4.5-9.8-7.1
			c0,0,7.7-7.9,18.2-6.8c0,0-3.8-4.1-19.2,2.8c0,0-13.5,0.9-6.6-8.8c0,0,11.3-7.1,18.4-4.9c0,0-6.7-4.3-20.3,1.1
			c0,0-11.8,1.5-4.9-6.2c0,0,8.3-5.8,15.2-4.3c0,0-7.3-3.6-19.7,2.1c-7.1-0.9-7.1-3.7-4.3-7.3c0,0,9.4-4.3,16.7-2.6
			c0,0-6.6-4-16.7-0.4c0,0-11.3,5.1-6.4-5.6c0,0,9-4.7,14.1-3.4c0,0-7.8-1.5-15.3,1.1c-7.5,2.6-5-5.1-5-5.1s6.4-4.1,11.1-3.6
			c0,0-6.4-2.6-12.4,0.9c-7.3,1-8.8-0.3-4.9-3.8c0,0,4.7-3.2,9.8-3.2c0,0-6.6,0.4-12.2,1.3c-3.5-0.7-4.3-1.9-2.1-3.6
			c0,0,3.2-3.4,9.2-3.2c0,0-12-0.4-12.6,0c-0.6,0.4-3.8-0.6-2.1-2.4s3-2.1,3-2.1h-4.5c0,0-5.1-1.9-2.6-4.7s12.2-3.2,15.6-1.7
			c3.4,1.5,6.4,6,6.4,6l2.4,3c0,0,2.4,2.4,3.2,4.1l5.1,4.5c0,0,4.9,3.6,6.2,6c0,0,7.3,5.6,8.5,8.5c0,0,8.5,7.9,7.7,9.2l7.7,7.5
			c0,0,7.7,6.6,8.3,8.7c0,0,10,9.3,9.4,12.1c0,0,8.3,8.2,7.9,12.9C279.3,86.1,289.1,98.7,281.2,100.2z"/>
		<path d="M149.1,8.5c0,0,12,33.9,12.3,37.1c0.3,3.1-8.5,14.5,4,18.8c0,0,7.1,5.4,11.4,4.8c0,0,8.2,33.2,10.6,41.7
			c0,0,4.6,1.9,12.5-2.6l-12.8-47c0,0,0.4,3.1,3.1,3.1c2.6,0,0-11.2,0-11.2s-2.5-2.2-7.6-5c0,0-1.8-4.8-11.3-6.5
			c0,0-12.6-34.5-13.8-37.3L149.1,8.5z"/>
		<path d="M117.8,104.3c0,0,7.7-0.9,11.1,1.7c3.4,2.6,2,7.4,2,7.4l-8.5,4.8l-2.9-1.2c0,0-2.3,0.6-5.7,6c-3.4,5.4-12.8,1.2-12.8,1.2
			s-6.3-4-5.4-7.4c0.9-3.4,6.5-3.7,6.5-3.7S112.4,104.3,117.8,104.3z"/>
		<path d="M107.8,90.3c0,0-12.8-4-19.4,1.7c-6.5,5.7-7.1,3.7-7.1,3.7s-2.3-4.1,3.7-12.4c6-8.3,10-11.5,26.8-5.5c0,0,10,6.1,6.3,7.6
			C114.4,86.9,107.8,90.3,107.8,90.3z"/>
		<path d="M109.5,62.4c0,0-4,6.8-8,8.2c0,0-1.7-5.7-8.8-2c-7.1,3.7-13.7,6-13.7,6S80.9,52.1,99.9,55C99.9,55,107.3,57.6,109.5,62.4z
			"/>
		<path d="M143,29.9c0,0-3.6-1.8-6.4,0.4h-2.9c0,0-1.1-5.2,9.3-9.2c0,0,1.8-0.6,7.6,1.2C150.6,22.2,145.7,28,143,29.9z"/>
		<path d="M123.3,34.8c0,0-1.3-2.9-4.4-1.2c-3.1,1.7-9.2,2.1-6.3,5.9L115,39L123.3,34.8z"/>
		<path d="M66.8,66.7l2.6,1.2c0,0-1.7,13.5-1.9,15.5c-0.2,2.1-9.7,14.3-8.8,19.1c0,0-5.1-0.7-1.6-9s5.4-21.4,5.4-21.4L66.8,66.7z"/>
		<path d="M54.2,121.7c0,0-0.5-9.2,10.5-11.3c0,0,1.6-1.8,2.4-6.2s0-6.5,0-6.5S46.1,105.3,54.2,121.7z"/>
		<path d="M55.5,143.9c0,0-0.9-12.5,9.9-14.8c0,0,2.6-6,0-10.3c-2.6-4.3-19.4,10.6-13.4,27.4C52,146.2,54.1,145.6,55.5,143.9z"/>
		<path d="M66.5,164.4c0,0,1.6-10.1,9.4-9.2c0,0,3-0.8,1.6-5.6c-1.4-4.8-5.3-3.4-5.3-3.4s-11.1-2.6-12.8,16.2
			C59.4,162.4,63.5,171.2,66.5,164.4z"/>
		<path d="M74.8,176.4c0,0-1.7-15.9,12-17.4c0,0,8.6,1.5,6.8,8c0,0-8.5-3.2-10.4,11.1C83,178.1,80.5,183.2,74.8,176.4z"/>
		<path d="M109,176.4c0,0-5-7.3-13.5-0.3s-1.8,12.2-1.8,12.2s-1.6,1.2,9.2,4.8l23.6,19.7l7.1-9.7l-21.3-18.5
			C112.5,184.6,115.8,179.7,109,176.4z"/>
		<path d="M135.5,151.8c-9.6-1.2-15.2,2.5-9.1,6.8l-9.1,6.8"/>
		<path d="M117.2,165.5l4.3,14.4c0,0,0.9,2.1,6.8,3c0,0,3.7-6.8,6.3-13.7c2.6-6.8,4.7-11.7,11.2-13.8c1.6-0.6,7.6-4.5,7.6-4.5
			s-5.4,7.5-4.2,19.5c0,0,6.3,6.7,10.3-0.9c0,0,4.4-23.4,7.9-25c0,0,2.4,14.8,9,19.2c6.5,4.4,10.8-2.7,10.8-2.7l3.1-6.8
			c0,0,0.5-20.3,4.4-22c0,0,5.2-5-4.4-3.6c-9.6,1.4-9.3,6.3-9.3,6.3l-1.7,7.9l-4.6-16.8c0,0-8,2.4-9.7,5l2.6,11.9l-12.5,3.5
			l-4.6-4.8c0,0-2.9-3.1-7.1,0c-4.3,3.1-5.1,4.6-5.1,4.6s7.6,2.9,7.7,6.2l-10.3-0.3"/>
		<path d="M195.9,116.5c0,0,7.1,9.7,9.4,33c0,0,7.7,8,13.7-2.3c0,0-0.3-28,3.1-29.2l2.8,0.7c0,0-4.5-8.8-14.5-0.7l-2.1-7.7
			C208.3,110.3,199.4,110,195.9,116.5z"/>
		<path d="M93.8,49.3h4.4c0,0,6.9-4.4,9.3-3.3l4.4-3.8c0,0-7.5-0.4-10.8,1.7C97.8,46,93.8,49.3,93.8,49.3z"/>
	</g>
</g>
<g id="catcher-fastback_x5F_vw1_x5F_fastback_x5F_side">
	
		<image overflow="visible" enable-background="new" width="725" height="819" xlink:href="./assets/images/nine-positions/overlay_images/9P_catcher_fastback_side.png"  transform="matrix(0.4274 0 0 0.4274 0 0)">
	</image>
</g>
</svg>
