<?xml version="1.0" encoding="utf-8"?>
<!-- Generator: Adobe Illustrator 19.2.1, SVG Export Plug-In . SVG Version: 6.00 Build 0)  -->
<svg version="1.1" id="Layer_1" xmlns="http://www.w3.org/2000/svg" xmlns:xlink="http://www.w3.org/1999/xlink" x="0px" y="0px"
	 viewBox="0 0 366 350" enable-background="new 0 0 366 350" xml:space="preserve">
<g id="catcher-fastback_x5F_vw3_x5F_utoe">
	<path d="M356.2,133.3c0,0-3.9,21.9-11.1,24.4s-13.4,9.8-21.9,21.1c0,0-28.3,31.1-55.6,24.4s-37.3-6.2-65.1-49.9
		c0,0-13.6-35.3-14.9-53.3c-1.3-17,1-39.2,1.5-39.6C174.7,37.5,151,39,136.3,52.2c-5.7-8.8-38.1-3.1-44.5,21.1
		c0,0-34.7-1.5-52.8,23.9c0,0-8.5,32.2-11.6,48.4s-5,41.2-2.4,56.4s3.3,17.8,3.3,17.8l5.9,24.7c0,0,7.2,24.7,6.4,28.6
		s-24.7-26.3-27-35.3S4.1,203.1,8,187.9c0,0,4.1-35.3,6.7-45.8l0.8-10.6c0,0,6.9-36.3,27.3-53.8c0,0,9-21.1,36.5-32.4
		s30.1-13.1,46.1-16.7s18-7.5,28.3-7.7C164,20.6,180.5,9.6,192.3,8c11.8-1.5,28.3,6.7,28.1,12.4s-4.9,16.7-9.5,26.5
		s-10,22.4-4.9,46.8c0,0,2.8,6.4,3.9,18.8c0,0,11.8,25,19.6,32.2c7.7,7.2,11.1,18.3,35.3,27.8c28.3,10.3,41.8-1.3,56.2-10.3
		c0.1-2.6,17.9-20,19.7-25C342.3,132.2,350.3,130.2,356.2,133.3z"/>
</g>
<g id="catcher-fastback_x5F_vw3_x5F_thb">
	<path d="M136.4,52.8c0,0-1.3-16.5-21.9-10.8l-1.3,7.7c0,0-20.8,66.7-19,109.6s13.1,78,13.1,78s17.2,48.6,20.3,57.4
		s12.1,40.4,12.1,40.4l1.8,7.7c0,0,44.3,0.3,47.9,0c3.6-0.3,11.1,0.1,11.1,0.1l28.6-39.7c18.3-20.8,38.5-39.5,53-57.9
		c0,0,8.5-10.3,15.4-18L332,190l18.5-28.6c0,0-1-5.1-5.9-3.3s-14.7,18-34.2,30.6c-19.6,12.6-34,17.2-65.9,5.4
		c-30.1-11.2-48.1-61-48.1-61c0-0.1-9-36.8-8-59.2c0.6-12.9,1.7-21.1,4.1-29.3C199.2,23.2,151.1,19.8,136.4,52.8z"/>
</g>
<g id="catcher-fastback_x5F_vw3_x5F_logo">
	<path d="M172.4,241.9l-7.7,10l17,1.3l22.9,1.4c0,0,18.6-2.6,0,12.3c0,0-4.4,3.6-12.1,4.6l7.7-13.4l-1.3-1.9h-13.4l-20.8,34.1
		l0.5,1.5h16.2l5.4-10.8c0,0,25-5.1,32.2-11.1c7.2-5.9,19.8-19.3,2.6-24.7L172.4,241.9z"/>
	<path d="M168.8,262.3c-2.4,9.6-8.2,18-18.2,19.7c0,0-5,4.4,2.1,3.4c7.7-1,16.1-6.9,16.1-6.9s9.1-8.4,5.7-18.4
		c-1-4.6-14.1-9.3-21.3-0.7c-0.6,1-9.1,14.1,7.2,14.2c5.3-1.2,3.2-3.2,1.2-3.3c0,0-6.3-3.4,3.1-11.7
		C164.7,258.9,168.7,257.2,168.8,262.3z"/>
</g>
<g id="catcher-fastback_x5F_vw3_x5F_mid">
	<path d="M142.6,344.3c0,0-28.3,5.1-38.6,0l-4.6-11.8l-12.6-30.6c-17.8-23.2-31.4-78-27.8-90.1c0,0-3.1-44.3-1.8-65.4
		s3.6-38.6,8-59.4s4.4-20.8,4.4-20.8s18-9.3,21.9,4.6c0,0,6.7-26.5,22.9-29.1l-0.3,4.1c0,0-13.6,35.5-17.5,74.4s-1.5,43-1.5,43
		s1.3,36.3,8,58.7s21.9,63.6,21.9,63.6l8,23.9l8.2,31.4L142.6,344.3z"/>
</g>
<g id="catcher-fastback_x5F_vw3_x5F_bfg">
	<path d="M69.7,66.4c0,0-22.9,10.6-30.6,32.4S26.2,151,26.2,151s-4.4,33.5-2.3,45.8s4.6,21.4,4.6,21.4l9.8,42.5c0,0,3.9,9,2.1,13.9
		s3.6,11.3,3.6,11.3l17.5,11.3l5.9,2.3l9.5,16.5c0,0,3.1,7.2,5.9,12.6s19.6,14.9,19.6,14.9s-1.3-8-4.6-16.2S77,284.6,77,284.6
		s-17.2-29.1-18.3-75.4s-2.3-52.8-2.3-52.8s3.6-49.7,7.7-65.1C68.2,75.9,69.7,66.4,69.7,66.4z"/>
</g>
<g id="catcher-fastback_x5F_vw3_x5F_plm">
	<path d="M226.1,63.9c0,0-7.4,10.5-10.7,16.7c-3.3,6.2-1.5,6.9-1.5,6.9c-8.8,3,6.4,60.7,26.5,63.8c0,0,19.6,25.5,48.1,23.7
		c0,0,22.7,1.6,34-20.5l-2.8-4.5c2.2-3.3-36.4-40.8-36-40.4l-43.2-37.1L226.1,63.9z"/>
</g>
<g id="catcher-fastback_x5F_vw3_x5F_wlt">
	<path d="M71.7,66c0,0-11.2,46.1-11.7,66.9s-3.3,58.1,2.3,96.8s21,62.4,26.6,72l12.9,31.7l2.5,8.9l-5.1-1.5c0,0-5.8-22.8-11.9-34
		s-26.4-48.9-28.5-71.7s-4.2-92-1.9-108.8c2.3-16.7,6.9-54.7,11.3-58.9L71.7,66z"/>
	<path d="M116.2,41.8v4.7c0,0-15,35.2-17.7,75.7c0,0-4.6,48,0,66.1c0,0,5.9,40.6,18.9,71.3s14.4,41.6,14.4,41.6l9.1,29.9l2.5,11.2
		h-3.2c0,0-1.5-6-2.7-11.6s-5.9-21.6-5.9-21.6s-14.7-42.6-18.3-49.9c-3.5-7.4-19.5-60.8-18.8-74.5c0,0-6.3-37.5,3.8-85.9
		c0,0,7.5-37.1,12.4-44.1c0,0,2.3-9.2,2.3-12.8L116.2,41.8L116.2,41.8z"/>
</g>
<g id="catcher-fastback_x5F_vw3_x5F_stch">
	<path fill="none" d="M209.5,309.9c0,0,1.5-9.8-18.3-9.8s-41.2,1.8-41.2,1.8s-10.6-1.3-18-0.5c-7.5,0.8-29.9,2.6-43.5,0.8
		s-15.2-2.1-15.2-2.1s-2.1,6.4,3.1,14.2"/>
	<path fill="none" d="M86.2,329.7c4.1,3.8,8.1,7.6,12.6,9.5c11.1,7.2,30.9,4.1,42.4,2.6l25.3-1.3c0,0,21.4,0.5,25.2-0.3"/>
	<path fill="none" d="M98.8,339.2c-7.2-29.3-15.4-39.1-15.4-39.1c-19.3-30.6-27.8-78-27.8-78s-0.8-29.1-1.8-52s3.3-60.7,4.4-64.3
		c1-3.6,7.7-32.7,7.7-32.7s-11.3,5.1-21.6,19.6c0,0-5.4,11.1-6.2,18.8c0,0-7.7,26-8.7,31.9s-2.8,25-2.8,35s2.8,29.9,4.6,37.3
		c1.8,7.5,8.8,37.8,13.4,51c0,0,1.5,14.4,1.3,17.2c-0.3,2.8-2.8-3.3-2.8-3.3s1.8-14.9-7.2-35.5L29.5,217c0,0-2.6-13.9-2.8-18.5
		s-4.4-33.2,3.6-65.4s10.3-35.3,10.3-35.3S48.9,80,65.9,71"/>
	<path fill="none" d="M71.8,71c0,0-11.6,40.7-11.1,63.3s0,51.7,0,51.7s0.8,52.5,8.8,72.8S81.1,291,86.7,300s19.3,37.8,19.3,41.2"/>
	<path fill="none" d="M73.6,68.7c0,0,17.8-8,13.1,18c-4.6,26-3.6,38.1-3.6,38.1"/>
	<path fill="none" d="M72.6,67.7c0,0,16.5-7.2,16.5,7.2S86,105.3,86,107.6S92.9,77,92.9,77s2.6-26,17-30.4"/>
	<path fill="none" d="M97.5,65.1c0,0,2.8-15.2,12.4-16.5l-10,34.2c-2.8,7-12.4,58.2-8.6,82.6c0,0-2.9,27.3,15.6,81.8
		c18.3,54,17.8,47.1,19.6,52.8s9.8,41.7,9.8,41.7"/>
	<path fill="none" d="M321.7,185.6c-9.1,7.3-18.1,13.9-25.7,15.4c-26.7,8.4-48.4,1-60.5-5.8s-29.6-33.6-37.8-51.1
		s-13.4-68.2-13.4-68.2s0.8-18,1.3-21.1s3.6-16.5,3.6-16.5c-1-6.9-8.5-7.2-24.4-6.4s-25,17-27,22.4s-4.4,33.2-4.4,33.2v20.2
		l-1.8,24.8l-3.1,9.3c-1.8-4.6-1.5-34.1-1.5-34.1s0-18.1,2.8-43.9c2.8-25.7-13.1-17.2-13.1-17.2"/>
	<path fill="none" d="M320.1,188.4c0,0-19.3,15.2-33.7,18c-14.4,2.8-40.7,1.2-56.1-11.2c-12-9.7-26.3-31.3-28.1-38.2h-1.8
		c0,0,3.9,13.5,7.2,26.7c2.7,10.8,5.1,21.4,4.6,23.9h-2.1"/>
	<path fill="none" d="M203.6,60.7c0,0-8.5,51,22.1,83.4c0,0,13.9,22.9,40.4,30.9"/>
	<path fill="none" d="M219,90.8c0,0,30.9,25.2,45.3,39.6s36.3,29.6,37.1,32.9l2.6-2.1c0,0-30.1-26.3-34.2-30.4s-34-30.4-34-30.4
		L221.1,88L219,90.8z"/>
	<path fill="none" d="M125.3,182.2c0,0-1,23.2-1.5,27.5c-0.5,4.4,0,6.4,0,6.4s-2.8,14.4,16.2,15.7s50.2,2.6,61.3,0
		s14.4-7.5,14.2-15.4"/>
	<path fill="none" d="M238.8,43.8c0,0,38.9,27.5,48.9,36.5s31.1,22.4,43,39.9v-1.5c0,0-20.8-27.5-35.5-34.7c0,0-36.5-28.3-39.9-31.1
		c-3.3-2.8-16.5-11.3-16.5-11.3L238.8,43.8L238.8,43.8z"/>
	<path fill="none" d="M229,60.2c0,0,35.8,24.7,44.5,31.9c8.8,7.2,18,13.4,30.4,28.1s18,20.8,18,20.8"/>
	<path fill="none" d="M349.5,108.6c0,0-9-16.2-15.2-22.6c-6.2-6.4-26-21.4-31.1-25.2s-3.9-5.9-17.8-14.4s-25.5-15.7-25.5-15.7"/>
	<path fill="none" d="M117.9,43.8c0,0,15.4-2.8,14.4,10.3s-3.3,32.2-3.1,51.7s0.3,30.9,0.3,30.9"/>
	<path fill="none" d="M116.6,48.6c-1.6,0-17.4,44-17.8,72.8c-0.3,28.9-2.1,52.5,1.5,69.5s6.7,35.8,16.2,61.5s17.2,47.6,17.2,47.6
		s9,32.4,11.6,39.1"/>
	<path fill="none" d="M136.1,100.6c0,0-1.3-33.7,3.9-46.6s14.2-18.3,23.9-20.1c9.8-1.8,23.9-0.5,22.6,6.2
		c-1.3,6.7-6.7,20.3-4.9,35.3s4.9,32.7,6.2,38.9"/>
</g>
<g id="catcher-fastback_x5F_vw3_x5F_bnd">
	<path d="M145.9,22.1c-1-1.6-84.5,24-98.6,47.4c-13.3,22.2-24,40.4-24,40.4s-6.9,17.4-11.7,49.2c-4.7,31.2-3.2,37.3-3.2,37.3
		s-0.8,13.1,1.8,27.5s-1.9,18-1.9,18S1.8,213.6,2.8,200s1.8-34.7,4.9-49.7s5.4-31.4,14.4-48.9s13.4-22.1,13.4-22.1
		s11.8-23.2,41.2-36.8c0,0,25-13.1,44.8-17l24.4-7.7V22.1z"/>
	<path d="M201.3,5.1v2.6c0,0,27,3.3,14.2,28.8c-13,25.5-10.6,16.8-12.7,34.5c0,0,1.8,20.1,3.6,26.3c1.8,6.2,1.7,25.9,19.8,47.4
		c19.6,23.2,52.5,55.1,94.2,20.3c13-10.9,17-23.9,24.2-28.6c7.2-4.6,12.4-3.3,13.4-3.6s6.2-5.7-4.1-11.3s-9.8-2.1-9.8-2.1l-7.7,4.6
		c0,0-19,34-27.8,42.7c0,0-28.1,14.9-55.3-7.5s-33.7-42.5-35.8-47.9s-4.1-31.9-3.6-48.9l6.9-6.2c0,0,11.3-19.8,11.3-30.1
		S214.1,5,214.1,5h-12.8V5.1z"/>
	<path d="M79.8,320.7c0,0,15.4,22.9,27.5,22.9s22.9-0.3,35.8-2.3c12.9-2.1,42.7,0.3,48.4-0.5s11.3-0.8,11.3-0.8l4.1-0.3l-6.7,5.1
		c0,0-27,4.4-44.3,0c0,0-15.1,0.6-25.6,2.9c0,0-25.1,3.8-35.1-4.2s-12.4-14.9-12.4-14.9L79.8,320.7z"/>
</g>
<g id="catcher-fastback_x5F_vw3_x5F_web">
	<path d="M239.3,13.9c0,0-8.2-6.4-11.6-6.4c-3.3,0-6.4,0.8-6.7,3.2s14.8,17.9,15,23.3s-2.7,5.9-4,10s-5.1,8.8-6.9,13.4
		s-6.7,11.3-8.8,14.2l2.6,3.3c0,0,4.4-8,6.2-9.3s3.9-1.3,3.9-1.3s12.9,9.5,20.8,14.7l23.4,21.6c0,0,27.8,25.5,28.3,26.3
		s10.6,8.2,18.8,25.5c0,0,3.3-0.8,4.6-7.2l-1.8-3.3c0,0,9-9.5,9-18.8l8.2-10l3.1-7.5l6.2,13.1c0,0,0.5,2.8,3.6,0s4.1-8.5,6.8-9
		l-4-8.2l-3.9-8.4l-1.8-2.7l-6.4-7.7l-7.5-9l-1.8-2.1l-9.3-6.2l-2.6-1.8l-8.2-6.2l-3.1-2.3l-9-5.4l-2.1-2.3l-9.8-5.7l-4.4-2.6
		l-9.8-4.9l-11.6-6l-14.4-7.9L239.3,13.9z"/>
</g>
<g id="catcher-fastback_x5F_vw3_x5F_lce">
	<path d="M198.4,91.6L181.7,72l-6.9,6.2l17,21.6c0,0-8.2,0.8-1.3,9.8s12.9,1.8,12.9,1.8l1.3-8.8l3.1-4.1c0,0-4.1-8.5-5.9-8.2
		C200,90.6,198.4,91.6,198.4,91.6z"/>
	<path d="M192.8,79.3c0,0,1,8,6.7,7.2s8.2-2.1,8.2-2.1s6.2-0.4,6.9,2.1c0,0,0.5-7.3,0-8c-0.5-0.8-1.8-2.1-1.8-2.1l3.9-2.1l-2.6-7.7
		C214.1,66.7,193.8,73.6,192.8,79.3z"/>
	<path d="M223.1,61.5l-3.6-2.8c0,0,2.6-4.9,0-6.2s-9.3-4.6-21.1,0l-1.5,6.9l6.7,2.1c0,0,0.3-6.7,13.1-2.3c0,0-3.6,0.8-3.1,4.1
		s4.4,4.9,4.4,4.9L223.1,61.5z"/>
	<path d="M230.3,46.3c0,0-20.1-12.1-28.1-4.6c0,0-2.3,3.1,0,5.7c0,0,11.1-4.5,16.7,2.8l6.2,3.9L230.3,46.3z"/>
	<path d="M235.7,31.1c0,0,0.8,5.1,0,6.9s-21.6-8.5-19.9-1l-7.1-2.3c0,0-2.6-3.3,1.3-6.2S235.7,31.1,235.7,31.1z"/>
	<path d="M215.8,18.8c0,0,0.9-7.7,6.2-7.2l2.4-3.9c0,0-33.7-14.4-47.9-2.3l-4.9-2.3c0,0-9.5,6.7-10.8,7.7s0,2.6,0,2.6l-4.9,2.1
		l-2.1-0.8l-6.7,2.6v3.1l-10.8,9v2.1l4.9,4.1l9.3-5.4c0,0,10-3.1,15.4-3.9l2.8-3.6c0,0,7.5,0.5,11.6-8.5l4.6,0.3
		c0,0,1.8,4.6,1.8,5.7c0,1,12.6,0.3,12.6,0.3l1.8-5.9V12V4.4c0,0,8.8,0.5,11.6,2.3c0,0-6.7,9.6-7.2,11.4S215.6,20,215.8,18.8z"/>
	<path d="M129.7,21.6c0,0-4.9,0-6.4,2.1s3.2,6.7,3.2,6.7l8.4-4.4L129.7,21.6z"/>
	<path d="M107.3,27.7c0,0-5.7,0.8-7.2,2.6s0,2.7,0,2.7l3.3,3.8l9.1-3.8L107.3,27.7z"/>
	<path d="M83.4,38.3l4.9,3.6l-6.2,4.7c0,0-3.1-3.6-5.1-4.2L83.4,38.3z"/>
	<path d="M52.8,59.2c0,0,1.3-4.5,8.2-9l6.9,2.6c0,0-3.9,4.8-5.7,6.4C62.3,59.2,57.1,56.6,52.8,59.2z"/>
	<path d="M34,79.5c0,0,2.1-10.6,14.2-9.8c0,0,0,4.9-1.5,6.8C46.6,76.6,34.2,77.7,34,79.5z"/>
	<path d="M22.4,100.1c0,0,5.4-3.3,9-3.3s4.4-8.2,4.4-8.2s-9.3-0.9-11.8,4.6C21.4,98.6,22.4,100.1,22.4,100.1z"/>
	<path d="M24.2,109.6c0,0,2.8,0.3,0,6.7c0,0-10.8,5.4-11.8,8.8C11.1,114.1,16,110,24.2,109.6z"/>
	<path d="M6.9,152.1c0,0,1.3-9.5,11.9-13.9c0,0,1.1-6.4,0-6.7S1.5,134.9,6.9,152.1z"/>
	<path d="M25.4,140v6.9c0,0-1.5,9-1.8,10.8s-2.6,3.9-2.6,3.9S15.4,148.2,25.4,140z"/>
	<path d="M4.4,176.5c-0.7-4.3,7.3-12.8,10.8-14.9c0.9-2.6,0-5.4,0-5.4S-1.3,156.2,4.4,176.5z"/>
	<path d="M3.2,202.8c0,0,2.7-13.4,9-17.5l-1.1-6.4C11.1,178.9-4.2,182.2,3.2,202.8z"/>
	<path d="M10.8,200.2c-8.1,6.5-13.7,14.5-6.2,30.4c0,0-2.1-14.7,6.2-21.4C12.1,205.7,13.2,202.2,10.8,200.2z"/>
	<path d="M15.6,190.8c0,0-2.3,11.5-3.4,19.9s-1.1,16.5-1.1,16.5l-4.4,7.2c0,0-5.5,3.9,0,11.3c5.4,7.5,11.6,11.3,11.6,11.3
		s0.3-2.6,2.3,3.3c2.1,5.9,12.1,29.1,15.2,34c7.4,9,10.9,8.8,9.5-3.3c0,0-14.4-39.4-12.9-44.5l-0.8-3.9l4.4-3.8l-5.9-5.9
		c0,0-0.8-8.8,0.8-13.4l-5.4-1.5l-6-5.4l3-22.9l-6.9-1.8C15.6,187.9,15.6,190.8,15.6,190.8z"/>
	<path d="M37.6,215.4c0,0,1.3,14.7,2.8,19h6.4L43.7,212L37.6,215.4z"/>
	<path d="M78.2,306.8c0,0,6.4,9.5,6.7,19.6c0,0,9.5,5.7,20.3,5.4c0,0-5.7-16.2-4.9-20.1L78.2,306.8z"/>
	<path d="M122,312.2c0,0,18.8-3.1,26,0c0,0-1.3,10.3,1.3,17.8c0,0-11.3,2.6-21.6,1.8L122,312.2z"/>
	<path d="M163.2,330.2c0,0,2.8-12.3,2.8-19.4c0,0,21.4,3.3,21.9,0h2.1l2.8,1.4h8.8l6.9-0.3c0,0,18.3-2.3,21.6-10.8
		c0,0,6.7-4.4-1.3,7.7h2.1c0,0,8-17.2,9.8-8.5v2.8c0,0-3.3,11.9-11.1,18.2c-7.7,6.3-12.4,15.8-12.4,15.8l-3.1,1.8
		c0,0-2.8,3.3-4.4,3.9s-10.3-2.8-11.6-5.1l-3.1-0.8C195.1,336.9,180.7,338.9,163.2,330.2z"/>
	<path d="M259.4,271.8l-8,8.5L237,293.6c0,0,10.8,0.3,14.9-6.4C251.9,287.2,261,290,259.4,271.8z"/>
	<path d="M358.5,110.4c0,0,3.9,9,4.9,12.1s3.6,7.5,0,17.5s1.8,13.1-14.9,27.8l-2.8,4.1c0,0,2.3,4.4,2.6,9.5s-2.6,5.7-2.6,5.7
		s-10,14.2-18.3,12.4l-23.2,22.6l-3.3,2.1l-2.3-2.6l17-17.2l-20.3-13.9c0,0-9,5.4-13.1,0.8c-4.1-4.6-2.6-7.7,2.3-10s7.5-2.8,7.5-2.8
		l3.1-3.3l7.5,5.7l-1,1.8l22.4,15.7l-1.3-4.9c0,0,8.8-17.8,14.2-21.1l2.6-2.1c0,0,14.4-24.7,11.8-28.8l3.9-2.6
		c0,0,11.6-9.3,1.5-14.7l-3.3-3.1L358.5,110.4z"/>
	<path d="M340,114.5c0,0,14.4,10.6,8.5,28.6l-4.6,4.1l-1.8-3.9c0,0,6.9-7.5-8-19.8L340,114.5z"/>
	<path d="M332.5,129.2l-2.1,3.3l-4.4,5.1c0,0,6.7,13.6,3.2,18.3v3.1c0,0,7.1-2.1,8.1-5.7s2.6-8,2.6-8S343.1,135.4,332.5,129.2z"/>
	<path d="M322.5,151.8c0,0,2.1,6.9-1.5,12.1c0,0-1,0.8,0,3.3h4.1c0,0,6.9-9,0-20.1L322.5,151.8z"/>
	<path d="M316.5,159c0,0,1.5,10.6-6.7,20.8h-5.7c0,0-0.5-5.4,0-9.3L316.5,159z"/>
	<path d="M282.1,169.5c0,0-5.7,13.5-14.4,16.3l-7.5-2.8c0,0,10.3-10.6,10.9-15.7C271.1,167.3,276.7,165.7,282.1,169.5z"/>
	<path d="M257.1,157.2c0,0,3.6,1.8,7.5,4.4l-1.3,3.6c0,0-10.3,7.4-15.2,11.2c-9.1,1.6-10.6-1.7-8-6L257.1,157.2z"/>
	<path d="M229.6,133.8c0,0,5.4,4.4-8,16.7c0,0-4.1,8.2,4.5,8.5c0,0,10.1-10.6,12.8-14.9C241.7,139.7,231.9,129.2,229.6,133.8z"/>
	<path d="M204.7,128.2c0,0,8.6-7.7,12-14l1.3-1.7h2.6l3.5,7.8c0,0-9.3,13.8-11.6,15.3s-4.9,1.3-4.9,1.3S204.9,135.9,204.7,128.2z"/>
	<path d="M245.3,75.1c0,0,11.1-8,16.2,4.4c0,0,2.3,5.9-4.4,10.8c-6.7,4.9-10,0-10,0s-4.7-2.9-1.8-7.8
		C247.1,79.4,254.5,79.3,245.3,75.1z"/>
	<path d="M274.9,99.9c0,0,5.4-5.4,7.5-4.4s6.9,4.4,6.9,4.4s-1.8,7.2-5.7,12.6S269.7,119.2,274.9,99.9z"/>
	<path d="M300.1,121.5v3.2c0,0,4.9,3-1,8c0,0-4.1,5.8,4.9,6.6h4.3c0,0,9.4-8.5,2-16C310.3,123.3,305.2,117.1,300.1,121.5z"/>
	<path d="M289.3,59.2c0,0-23.9-21.3-27.4-23.6s-9.5-11.6-10.1-13.1l5.6,3.1l4.5-1c0,0-1.7-2.6-8.8-4.6c0,0-2.5-8.5-13.7-7.2l3.5,5.4
		l-1.8,2.8c0,0,12.1,17.5,19.3,23.4c7.2,5.9,19.9,17,20.9,18.5c1,1.5-1.7,3.9-1.7,3.9s1.6,4.9,4.2,9.9h3.1c0,0,12.9,6,17,4
		c11.4,6.2,27.2,22.5,42.7,37.8l3.2-2.4l3.5-4.5L310.6,74c0,0-0.5-2.4-2.8-7.3h-2.2c0,0-5.1-6.2-11.5-7.5
		C294.1,59.2,289.3,59.2,289.3,59.2z"/>
	<path d="M174.7,40.4c0,0,2.3,1.3,1.5,3.9c-0.8,2.6-3.3,4.6-3.6,11.3c0,0-2.6,9.3-8.2,4.6c-0.4-3.9,1-10.3,2.1-16.2L174.7,40.4z"/>
	<path d="M264.6,29.1c0,0,1.5-2.2,5.1-1.3c3.6,0.8,6.2,3.7,6.2,3.7l-3.6,1.6C272.3,33,266.9,31.9,264.6,29.1z"/>
	<path d="M277.2,35.5c0,0,2.1,3.1,6.2,4.9S288,38,288,38s-3-3.6-6.6-4.9L277.2,35.5z"/>
	<path d="M294.2,40.4c0,0-3.6,1.3-3.3,2.8c0.3,1.5,5.6,5.9,5.6,5.9s5.5-1.3,4.2-4.4L294.2,40.4z"/>
	<path d="M312.1,54c0,0-2.1,3.8-3.6,3.8s-5.7-3.1-6.2-5.8s1.5-2.8,1.5-2.8l1.9-1.1C309.2,50.5,313.5,53.1,312.1,54z"/>
	<path d="M314,57.8l4.3-0.9c3.9,3.5,10.1,5.7,1,9.7c0,0-5.5,0.1-6.3-6.3L314,57.8z"/>
	<path d="M328.6,65.4c0,0-4.1,0.8-3.4,3.7c0.7,2.9,6,5.7,6,5.7s4.5-2,3.9-4.7C334.6,67.4,328.6,65.4,328.6,65.4z"/>
	<path d="M336.8,73.4c0,0,1.7-1.2,3.6,0.7c1.9,1.9,4.1,3.9,4.1,3.9s-1.7,4.1-3.9,6.5c0,0-4.8-0.2-5.5-4.8L336.8,73.4z"/>
	<path d="M344.5,82.6c0,0-2.5,3.1-2.5,4.8c0,1.7,3.2,8.4,5.5,6c1-1.1,1.8-1.9,2.5-2.5c0.7-0.7,1.1-1.1,1.1-1.1s0.9-2.2,0-3.3
		s-4.3-5.1-4.3-5.1L344.5,82.6z"/>
	<path d="M351.4,92.5c0,0-1.1,2.1-1.5,4.4c-0.7,4.2,3.5,9.5,3.5,7.4c1.9-0.9,3.5-2.5,4.2-5.9C357.5,98.4,352.9,88.1,351.4,92.5z"/>
</g>
<g id="catcher-fastback_x5F_vw3_x5F_fpad">
	<path d="M187,95.4c0,0,6.2,40.8,14.4,64.2s16.8,45,13.7,52.2c-8.6,7-57.6,10-90.2,2.4c-0.3-1.9-1.4-1.4-1.4-1.4s-0.7-37.1,3.4-51.1
		c4.1-14.1,3.1-18.2,3.1-18.2l0.7-37.1C142.4,95.9,183,83.4,187,95.4z"/>
</g>
<g id="catcher-fastback_x5F_fastback_x5F_back">
	
		<image overflow="visible" enable-background="new    " width="711" height="680" xlink:href="./assets/images/nine-positions/overlay_images/9P_catcher_fastback_back.png"  transform="matrix(0.5147 0 0 0.5147 0 0)">
	</image>
</g>
</svg>
