<?xml version="1.0" encoding="utf-8"?>
<!-- Generator: Adobe Illustrator 20.1.0, SVG Export Plug-In . SVG Version: 6.00 Build 0)  -->
<svg version="1.1" id="Layer_1" xmlns="http://www.w3.org/2000/svg" xmlns:xlink="http://www.w3.org/1999/xlink" x="0px" y="0px"
	 viewBox="0 0 375 350" enable-background="new 0 0 375 350" xml:space="preserve">
<g id="Layer_2">
	<rect x="41.1" y="0"  width="292.9" height="350"/>
</g>
<g id="fbase_x5F_vw1_x5F_wst">
	<path  d="M53.5,277.5L66,310.1c0,0,7.7,26.7,46.5,35.5c18.4,4.2,33.3-1.8,46.5-7c0,0,16.8-32.9-38.8-64.8
		C124.9,272,111.4,327.2,53.5,277.5z"/>
</g>
<g id="fbase_x5F_vw1_x5F_logo">
	<g>
		<path  d="M66.1,296.1c0,0,0.1,0,0.1,0C66.2,296.1,66.1,296.1,66.1,296.1z"/>
		<path  d="M65.5,296.2c0.1,0,0.3,0,0.4-0.1C65.8,296.2,65.7,296.2,65.5,296.2z"/>
		<path  d="M66.2,296.1c0,0,0.1,0,0.1,0C66.3,296.1,66.3,296.1,66.2,296.1z"/>
		<path  d="M65.9,296.1c0,0,0.1,0,0.1,0C66,296.1,66,296.1,65.9,296.1z"/>
		<path  d="M66,296.1L66,296.1C66.1,296.1,66.1,296.1,66,296.1z"/>
		<path  d="M65.5,296.2c-0.2,0-0.4,0.1-0.4,0.1s0,0,0,0C65.3,296.3,65.4,296.2,65.5,296.2
			C65.5,296.2,65.5,296.2,65.5,296.2z"/>
		<path  d="M104.3,315.7c0,0,0.4-7.7-18.4-12c-17.7-4-20.4-7.1-20.6-7.5c-0.2,0.1-0.3,0.2-0.4,0.3c-1.3,1.4,0,6.1,0,6.1
			c-3,5.2,6.1,13.1,6.1,13.1c2.1-0.1,0.7,2.8,0.7,2.8c-1.6,0.1-0.4,2.7,1.9,3s2.9-1.9,2.9-1.9l2.1,8.1c5.7,5.9,7.3,4,7.3,4l-1.1-5.7
			C106.5,327.6,104.3,315.7,104.3,315.7z M83.6,320.8l-1.1-9.8l-8.2-1.6v3.2c0,0-0.1-0.3-0.2-0.4c-2.2-4.1-4.4-6.4-4.4-6.4
			c-0.3-0.4,11.3,4,14.2,4.5c4.5,0.7,8.1,3.6,8.1,6.2C91.5,319,91.3,321.1,83.6,320.8z"/>
		<path  d="M66.4,296c0,0,0.1,0,0.1,0C66.4,296,66.4,296,66.4,296z"/>
		<path  d="M66.5,296L66.5,296L66.5,296z"/>
	</g>
</g>
<g id="fbase_x5F_vw1_x5F_plm">
	<g>
		<path  d="M156.5,43.4l2.1-8.7c0,0-5,2.9-7.2,5.1c-2.2,2.2-28.2,32.5-28.2,32.5s2.1,5.1-5,10c-7.1,4.9,0,0,0,0l-7,8.3
			l-2.8-1.4L93,133.5c0,0,1.7,26.9,11.7,35.1s0,0,0,0l9.6-15.4l17.4-44.8c0,0,7.3-17.6,9.2-23.2C142.8,79.6,156.5,43.4,156.5,43.4"
			/>
		<path  d="M85,130.4c0,0,0.4-2.2,4.1-1.7c3.7,0.5,4.4,6.1,4.4,6.1s4.8,22.2,14.8,28.1c10.1,5.9,45,27.6,45,27.6l29,13.4
			c0,0,3.7-0.7,1.9,4.1c-1.7,4.9-12.7,12.2-12.7,12.2s-22.3-0.4-34.5-7.8s-45.4-25.2-47.3-29.1s-12.1-23.4-11.3-30.1
			C79.4,146.5,85,130.4,85,130.4"/>
	</g>
</g>
<g id="fbase_x5F_vw1_x5F_thb">
	<path  d="M103.7,255.9c0,0,2.6-7.7,7.7-13.2c0,0,74,23.1,105.8-7.3S282,171,282,171s29.3-30.8,30-35.5
		c0.7-4.8-7,13.9-9.9,19.8s-10.6,17.6-12.4,19.8c-1.8,2.2-26,30.8-26,30.8l-12.4,16.5c0,0-16.8,16.8-23.4,28.6l-16.1,23.8
		l-37.3,46.5c0,0-1.5,11.3-15.4,17.6c0,0,14.3-31.1-39.5-63.3C119.4,275.3,124.2,267.6,103.7,255.9z"/>
</g>
<g id="fbase_x5F_vw1_x5F_bfg">
	<path  d="M110.4,244.6c0,0-4.6,4.4-6.3,10l-1.2,1.9c0,0-41-12.2-46.6-17.3c-5.6-5.1-12-10.7-12-10.7s2.2-11,3.9-14.2
		c1.7-3.2,11-34.4,11-34.4l3.7-15.4C62.8,164.5,68.9,209.7,110.4,244.6z"/>
	<path  d="M154.9,25.2c0,0-50.4,34-42.9,55.2c0,0-17.5,3.4-33.5,50l-4.2,0.7c0,0-2.9-5.4,7.5-15.9l-1.9-4
		c0,0,11-20.6,14.7-20.3c3.7,0.3,0,0,0,0L99,77.1c0,0,0.9-13.7,17.8-37s0,0,0,0S133.1,21.7,154.9,25.2z"/>
</g>
<g id="fbase_x5F_vw1_x5F_utoe">
	<path  d="M78,134.7l-2.9-4.7c0,0-20.1,24.2-10.6,60.4s39.2,50.9,39.2,50.9s72.9,39.9,113.5-5.9c0,0,30-23.4,38.1-33.7
		C263.3,191.5,282,171,282,171s14.3-28.6,2.2-43.9h-4.4c0,0-46.5,52.7-53.4,60c-7,7.3-31,29.7-50.9,35.1
		c-19.8,5.5-77.3-26.7-77.3-26.7S76.2,183,78,134.7z"/>
</g>
<g id="fbase_x5F_vw1_x5F_web">
	<path  d="M135.3,215l23.2-32.2c0,0,37.6,23.9,39.8,25.2c0,0,1.9-0.3,12.2-15.1h1.2l9.5-12c0,0,3.2-4.4,1.2-8.5
		l-36.8-25.2l11.5-14.6l36.9,32.9c0,0,2.2,1.5,9.3-6.8l4.6-6.6l2.7,0.5l11.5-13.9c0,0,3.7-6.6,2.7-8.5c0,0-37.3-28.1-37.6-29.8
		l14.2-12.9c0,0,31.2,35.4,36.9,37.1l3.2-1c0,0,12,22.4-2.5,47.1l0.7,4.4c0,0,2.7-1,3.2-3.9c0,0,27.3-24.4,31.2-38.1v-4.9l5.1-5.6
		c0,0,0.5-6.8-1.2-9.8s-7.6-13.9-14.2-17.8l-3.4-6.3l-12.9-17.1l-2.5-3.7l-19.3-21.7l-19.3-17.3l-19.1-12.2L215.8,11l-15.6-5.4
		l-24.9-1.5c0,0-16.8,1.5-23,1.7c0,0-21.7,16.4-35.1,34.2c0,0-2.7,3.4-1.7,5.1l7.8-7.8c12.6-11.7,39.4-20,73,12.7L185,63.2
		c0,0-33.7-24.4-37.6-24.9l-4.4,0.5l-14.1,15.1v1.9c0,0-7.3,3.7-7.3,9.8c0,0-2.2,3.2,1.9,6.3c4.1,3.2,27.1,18.6,32.7,24.9l-15.4,18
		c0,0-33.8-24.8-35.8-27.5c0,0-3,2.6-6,7.7s-8.3,15.7-8.3,15.7s-7.8,5.1-5.6,13.9c0,0,0.7,2.5,3.9,3.9c3.2,1.5,9.5,10.5,9.5,10.5
		l16.4,12.9l-22,35.4C93,187.5,118.2,208.4,135.3,215z"/>
</g>
<g id="fbase_x5F_vw1_x5F_stch">
	<g>
		<path   stroke-width="1.5" stroke-miterlimit="10" stroke-dasharray="3,1.5" d="M174.7,161.1
			c0,0,28.6,19,35.3,22.5c0,0,1.6,0.2,1.1,2.9c-0.5,2.7-5.1,0-5.1,0l-33.5-22.1"/>
		<polyline   stroke-width="1.5" stroke-miterlimit="10" stroke-dasharray="3,1.5" points="212.6,115.2
			247.6,147.6 250.8,144.8 215.1,113.1 		"/>
		<polyline   stroke-width="1.5" stroke-miterlimit="10" stroke-dasharray="3,1.5" points="226.3,67.6
			179.6,116.3 149.6,154.8 132.4,183.1 120.9,201.9 112,197 139.9,154.8 157.1,131.3 181.1,102.2 199.9,80.9 218.8,60.1 		"/>
		<path   stroke-width="1.5" stroke-miterlimit="10" stroke-dasharray="3,1.5" d="M221,62.4
			c0,0-38,38.5-44.4,47.2C170.3,118.3,145,151,145,151l-20.6,30.8"/>
		<path   stroke-width="1.5" stroke-miterlimit="10" stroke-dasharray="3,1.5" d="M129.7,181.8
			c0,0,10.6-16.4,15-22.6c4.4-6.2,14.8-21.9,21.1-28.8c6.2-7,13.9-16.3,13.9-16.3l20.3-23.4l5.7-5.3l19-19.4"/>
		<path   stroke-width="1.5" stroke-miterlimit="10" stroke-dasharray="3,1.5" d="M172.7,77.1
			c0,0-32-23.8-36.8-25.1l-2.2,2.4c0,0,27.6,16.5,37,25.1"/>

			<line   stroke-width="1.5" stroke-miterlimit="10" stroke-dasharray="3,1.5" x1="113.2" y1="122.1" x2="128" y2="132.4"/>
		<path   stroke-width="1.5" stroke-miterlimit="10" stroke-dasharray="3,1.5" d="M105.1,111.1
			c0,0,17.8,15.2,24.6,19.2"/>
		<path   stroke-width="1.5" stroke-miterlimit="10" stroke-dasharray="3,1.5" d="M146.3,22.2
			c0,0,19-7.5,50.5,17.6c0,0,10.4,2.7,20.1,11.3c9.7,8.6,28,28.4,28,28.4l11.2,14.3c0,0,18.3,23.2,27.3,26.2l2.2-2
			c0,0-16.5-13.7-28.2-27.8C245.7,76,234,62.6,226.3,56.6S202.9,39,193,33.4c-9.9-5.6-20.1-12-30.9-13.3s-13.5-0.9-13.5-0.9
			l-3.8,2.4L146.3,22.2z"/>
		<path   stroke-width="1.5" stroke-miterlimit="10" stroke-dasharray="3,1.5" d="M283.8,130.4
			c0,0-11.9,9.7-23.6,20.6c-11.7,10.9-9.4,10.3-9.4,10.3s-8.1,10.4-15.4,16.6s-4.9,7.9-4.9,7.9l-17.9,17.1c0,0-23.9,22.3-45.1,21.1
			c-21.2-1.2-47.8-6.4-70.8-27.8S76,154.8,76,154.8"/>
		<path   stroke-width="1.5" stroke-miterlimit="10" stroke-dasharray="3,1.5" d="M74.9,132.4
			c0,0-22.3,35.8-4.5,66.3c0,0,8.6,17.5,18,25.6c0,0,27.7,25.9,70,28.8c0,0,32.1,5.1,56.6-19l25.4-22.9l14-13"/>
		<path   stroke-width="1.5" stroke-miterlimit="10" stroke-dasharray="3,1.5" d="M254.4,199.7
			c0,0-9,10.4-16.8,16.7c-7.8,6.3-18.6,16.2-18.6,16.2s-21.7,22.8-48.6,23.5c-26.9,0.7-62.1-15.2-62.1-15.2S80,225.4,68.6,199.7
			c0,0-5.7-14.2-5.8-24.7"/>
		<path   stroke-width="1.5" stroke-miterlimit="10" stroke-dasharray="3,1.5" d="M47.5,228.3
			c0,0,2.1-0.7,11.9,8.4c0,0,35.1,13.7,39.3,15.4l6.3-8.8"/>

			<line   stroke-width="1.5" stroke-miterlimit="10" stroke-dasharray="3,1.5" x1="107.4" y1="244.3" x2="101.1" y2="253.1"/>
		<path   stroke-width="1.5" stroke-miterlimit="10" stroke-dasharray="3,1.5" d="M118.1,285
			c0,0,43,21.7,33.5,55.3"/>
		<path   stroke-width="1.5" stroke-miterlimit="10" stroke-dasharray="3,1.5" d="M120.9,278.3
			c0,0,46.6,24.9,38.1,60.4"/>
		<path   stroke-width="1.5" stroke-miterlimit="10" stroke-dasharray="3,1.5" d="M86.7,334.4
			c1.5,0.5,26.4,20.8,64,7.8"/>
		<path   stroke-width="1.5" stroke-miterlimit="10" stroke-dasharray="3,1.5" d="M84.8,153.2
			c0,0,5.9,18.9,14.1,23.8"/>
		<path   stroke-width="1.5" stroke-miterlimit="10" stroke-dasharray="3,1.5" d="M283.8,165.4
			c0,0,20.5-16.9,24.7-27.2"/>
		<path   stroke-width="1.5" stroke-miterlimit="10" stroke-dasharray="3,1.5" d="M312.7,131
			c0,0-11.3,26.3-30.8,38.8"/>
	</g>
</g>
<g id="fbase_x5F_vw1_x5F_bnd">
	<g>
		<path  d="M271.2,120.1c0,0-2.7,7.8-7.1,9c3,6.1-9,19.8-28.7,36.2l-5.2-1.8c0,0-5.1,4.4-6.1,8.1
			c-1,3.7-14.9,21.5-14.9,21.5l-21.7,17.6c0,0-6.3,7.1-11.2,6.3c-4.9-0.7-24.6,2.5-38.1-4.9c-13.4-7.3-44.4-26.9-46.9-31.7
			c-2.5-4.9-10.5-24.2-8.8-35.4s1.5-26.1,7.3-34.2c3.9-5.3,8.7-18.5,14.9-20.8c3.1-1.2,10.7,6.9,10.7,6.9s6.2-6.4,1.8-12.7
			c0,0,7.8,0.5,8.8-9.5s24.4-33.9,24.4-33.9s5.1-2.7,5.6-5.1s3.2-5.1-1-7.6c0,0-6.3,0-10,0l-7.8,4.2l-9.3,8.3c0,0-10,6.6-9.8,15.4
			c0,0-8.3,10.5-8.3,13.7c0,3.1,1.7,8.8,1.7,8.8l-1.9,1.9c0,0-4.9-2.2-8.5,2.7s-6.3,8.3-6.3,8.3s-4,4.9-4,8.3c0,3.4-4.9,9-4.9,9
			s-2.4,4.9-3.7,9.3c-1.2,4.4-6.4,35.6-6.4,35.6s1.7,29.8,23,44.7c0,0,17.6,15.6,48.1,23.4c0,0,8.1,1.2,15.6,1.2
			c7.6,0,14.9,1.9,14.9,1.9s4.9-1.2,13.4-6.8c8.5-5.6,7.3-4.6,7.3-4.6s7.3-0.5,13.4-11l7.3-5.6c0,0,6.8-4.6,10.7-12
			c3.9-7.3,4.4-9.8,4.4-9.8s3.2,3.4,16.1-12.4l12-13.2c0,0,9.5-7.8,11.7-11.2c2.2-3.4,9.5-8.5,9.5-8.5L271.2,120.1z"/>
		<path  d="M73.5,324c0,0,11.3,10.1,19.2,13.9c7.9,3.8,28.6,16.5,64.2,2.2c0,0,12.8-8.1,15-12.6c2.2-4.6,1.1,2.6-0.9,4.9
			s-14.3,11.1-25.1,14.3c-10.8,3.3-11.5,4.2-31.5,2.3c0,0-12.3-1.1-25.1-9.9S73.5,324,73.5,324z"/>
		<path  d="M106.4,256.3l-28.7-10.8c-6-1.1-20.3-8.8-20.3-8.8s-6.8-7.5-9.9-8.4c-3.1-0.9-3.1-0.9-3.1-0.9s-4.4,2,0,7.5
			c0,0,1.3,0.5,1.6,7.5c0.4,7,1.1,8.8,1.1,8.8s2,28.5,7.1,35.9c0,0,0.7,6.8,4,12.4s5.7,6.8,5.7,6.8l-0.7-2.4c0,0-3.7-9.2-5.1-12.8
			c-1.5-3.7-3.8-9.2-3.3-11.3c0,0,14.8,13.5,24.7,15.9c9.9,2.4,17,4.4,26.2,0.9s12.4-11.5,12.4-11.5l2.2-11.3
			C120.3,273.7,120.9,261.6,106.4,256.3z M112.1,279.2c-11,28.1-64.6-3.4-50.4-14.2c-2.8-7-3.6-12.5-4.6-23c0,0,19.2,9.2,22.5,9.2
			l21.6,7.3C114.8,265.6,114.5,272,112.1,279.2z"/>
	</g>
</g>
<g id="fbase_x5F_vw1_x5F_lce">
	<path  d="M250.8,225.4c-1.7,3-7.7,5.4-7.7,5.4l8.1-8.6L250.8,225.4z"/>
	<path  d="M278.3,175l-3.1,4.2L264.1,193c0,0,6.4,3.1,16.2-11.2c0,0,7.3-10.9,3.5-12.8L278.3,175z"/>
	<path  d="M241.4,232.6l1.7,2.2c0,0-9,12-11.5,14.2c-2.5,2.2-7.1,6.4-7.1,6.4S232.9,242.1,241.4,232.6z"/>
	<path  d="M190.8,73.4c0,0-4,3.3-4.8,5.3c-0.7,2,16.7,16.5,19.6,21.2c0,0,2.4,2.4,5.1,1.3c2.7-1.1,4-4.9,4-4.9
		S204.5,79.8,190.8,73.4z"/>
	<path  d="M90.5,108.4h-4.4c0,0-2.4-0.2,0-2.7l0.9-4.1c0,0,2.6-1.4,3.5-1.4s4.2,0,4.2,0L90.5,108.4z"/>
	<path  d="M87,116.8c0,0-4.2,2.9-1.5,9.2h-5.5c0,0-0.6-5.3,1.9-7.3C84.4,116.6,87,116.8,87,116.8z"/>
	<path  d="M167.7,96.9l6.8-3.1c0,0,2.7,1.6,2.7,9.7l-1.3,12.6c0,0,13.5-3.5,15.7-4c2.2-0.5,5.9-0.5,7,0.9l-0.9,6.2
		c0,0-2.2,1.6-4,2.6s-5.7,0.9-18.7,4.9l-1.8,20.3c0,0-4,7-7.1,2.4s-2-4.2-2-4.2l0.5-15.6l-18.3,4.6l-1.6-2.2v-6.4l18.9-5.9
		c0,0,1.6-0.5,2.2-2.2C166.3,115.9,167.7,96.9,167.7,96.9z"/>
	<path  d="M198.7,209.6c0,0,0.9,5.7,0,10.8c0,0-4.2,2.4-7.3,2.2l-0.7-10.3L198.7,209.6z"/>
	<path  d="M175.6,217.3l-5.5,14.3c0,0-4.6-2.6-7.3-1.3c-2.7,1.3,5.5-14.2,5.5-14.2L175.6,217.3z"/>
	<path  d="M143.2,212.4c0,0-3.7,5.5-5.5,7.3c-1.9,5.6,1.6,6.8,6.7,4.9c0,0,2.1-2.4,7.2-10.1
		C151.6,214.6,152,211.4,143.2,212.4z"/>
	<path  d="M88.8,106.9l4.2-6.8h1.6c0,0,6.6,6.8,18.7,23.2l19.2,25.1h3.8l1.5,2.5c0,0,5.1-2.3,13,2.6l2.7-0.9
		c0,0,2.7,2.4,4.2,7.7c0,0,0.7,0.9-0.9,3.3c0,0,1.5,0.4,11.3,11.3c9.9,11,26,27.6,26,27.6l5.7,6.6l-6.2,7c0,0-34.6-39.4-43.4-46.7
		c0,0-9,0.7-13.7-4.6c0,0-3.3-1.1-5.3,0.7c0,0-2.2,2.2-5.3-7.5l1.5-1.6c0,0-10.3-12.4-14.6-18.7C108.4,131.6,93,108.4,88.8,106.9z"
		/>
	<path  d="M74.9,128.2c0,0,4.9,12.4,7,16.5c2,4,7.5,14.8,10.3,21.2c0,0,11.3,16.5,16.8,22.1v2.6l5.1,5.7h4
		c0,0,2.9,3.1,9.2,1.6l20.7,14.6c0,0,21.2,12.6,26.4,19l6.8-5.1l-19.8-15.9l-9.9-6.4l9,0.9c0,0,4.2-1.1,0.9-4.2
		c-3.3-3.1-4.4-3.1-4.4-3.1l-17.9-5.5c0,0-1.8-3.1-3.8-4.2c0,0-3.7-8.8-7.1-6.4l-1.6,1.1c0,0-5.9-5.5-9.7-0.9c0,0-4-4.2-4.4-9.2
		c0,0-11.2-9.5-12.8-11.9c-1.6-2.4-18.3-38.4-18.3-38.4h-2L74.9,128.2z"/>
	<path  d="M221.2,261.4l4.9-5.3l2.4,2l-6.2,10.8c0,0,1.6,2.9-5.9,7.9l-12.1,18.5c0,0,0.2,2,0,3.1
		c-0.2,1.1-3.7,8.2-4.8,11.3s-3.8,1.5-3.8,1.5l-1.6,2.7c0,0-7.5-2.4-9.7-1.5v-1.8c0,0-3.7,4-4.4,5.7c-0.7,1.6,1.3,3.5,0,12.8
		s-3.3,11.2-3.3,11.2l-2-3.5c0,0,1.6-1.5,1.3-8.4c-0.4-7,0-16.3,2.6-19.2s4.8-5.3,4.8-5.3s-3.3,0.7-4,0.9c-0.7,0.2,6-8.2,6-8.2
		s2-4.9,9.2-8.8l2.2,0.4c0,0,6.6-3.1,9.7-7.1c3.1-4,13-20.3,13-20.3L221.2,261.4z"/>
	<path  d="M217.2,222.4l2.2-2.2c0,0,1.8-3.5,7.9-5.1c0,0,2.7,2.4,9.9,1.1l3.3,1.3c0,0-0.5,3.1,0,4.9c0,0-7,3.8-13.9,2
		c0,0,0.9,12.4-2.7,14.5c0,0-5.1,1.6-6.6,0S218.8,235.4,217.2,222.4z"/>
	<path  d="M221,171.2c0,0,3.8,0.2,10.3,3.8l6.2,4.2c0,0-0.2-0.9,1.3-2.3c1.5-1.4,6.6-3.8,6.6-3.8s1.3,0,2,2l13.7-5.9
		l11.2-6l2,6.6c0,0-18.9,11.2-24.5,12.8c0,0,0.9,14.3-10.8,8.1c0,0-2.6,1.6-4.6-2.9l-12.1-8.1C222.3,179.8,225,173.4,221,171.2z"/>
	<path  d="M216.8,187.8c0,0,1.3,9.9,3.3,12.3l-5.5,6c0,0-1.5,0.4-4.6-11.7l0.9-2.1l1.5,1L216.8,187.8z"/>
	<path  d="M247.6,152.3l-4.5,5.9c0,0,5.9,0,8.6,4.2c2.7,4.2,8.2,2.7,8.2,2.7s6.6-8.2-2.2-20.9l-7.9,8.6L247.6,152.3z"/>
	<path  d="M271.9,119.9l-4.8,4.4c0,0,8.8,13.4,7.1,18.3l0.2,2.2c0,0,1.4,0.4,4.2-2.7s3.3-4,3.3-4s0-7.3-5.5-15
		L271.9,119.9z"/>
	<path  d="M255,185.3l7.3-6c0,0,0.5-1.7,4.9-1.4c4.4,0.3,7-0.8,7-0.8s1.3,1,0.9,2.3c-0.4,1.3-0.9,4.8-0.9,4.8
		s-0.7,2.9-11.9,2c0,0,1.5,6.8,0.7,10.1l2.1-1.6c0,0,1.7,2.4,0,4.6c0,0,21.4-25.1,26.7-26.9l2.9,4.9c0,0-24.5,23.7-27.5,29.2
		l0.5,1.3l-5.5,8.8h-1.1l-2.4,3.7c0,0-4.9,0.4-6.2,1.5l-2.3-0.9c0,0-2.4-0.5-6.4,5.3c0,0-18.1,17.8-19.8,23.2l-3.3-0.7l-0.9-2.6
		c0,0,12.4-16.8,16.8-19.4s8.1-12.4,8.1-12.4s5.1-4.8,7.8-9.2l2.7-3.7C255.4,201,254.7,187.3,255,185.3z"/>
	<path  d="M126,210.7l-7.5-4.6c0,0-3.1,2.6-5.3,3.5s-0.7,1.1-0.7,1.1s-1.3,3.1,0.5,3.8c1.8,0.7,6,1.6,6,1.6L126,210.7z"
		/>
	<path  d="M94.5,189.7l2.2,2c0,0-1.5,6-1.1,7.7c0.4,1.6-6.8-3.7-6.8-3.7s-2-6.8,4-17.4l4,2.9l-4.1,5.7L94.5,189.7z"/>
	<path  d="M87,168.1c0,0-6.8,6.2-4.4,10.3c0,0,0.7,4.4-2,1.1c-2.7-3.3-3.7-5.1-3.7-5.1s-0.9-10.7,7.7-15.1
		C84.6,159.2,86.6,164.6,87,168.1z"/>
	<path  d="M78,136.2l3.8,8.4c0,0-4.2-0.2-5.9,8.8c0,0-0.7,1.1-1.1-2.5c-0.4-3.6-1.3-6-1.3-6S76.9,138,78,136.2z"/>
	<path  d="M104.8,156.9l3.7-9.7l3.6,2.9c0,0-3.2,6.8-5.4,9.1L104.8,156.9z"/>
	<path  d="M97.8,138.8l-2.2,2.6c0,0,1.6,5.3,2.2,5.9C98.4,147.7,100.2,142.4,97.8,138.8z"/>
	<path  d="M102.6,57.1c0,0-1.5,6.8-1.5,8.6c0,1.8-2.4,8.6-2.1,11.3l1.8,1.3l0.9,4.4c0,0,1.8,0.2,5.3,5.5l1.4,3.1
		c0,0-4.3-3.1-6.3,0l-1.5,2.4c0,0-2.6-5.1-5.9-2.9L93,89.2l-2,0.7l-4-5.3c0,0-0.3-2.4,2.9-4.6s2.1-3.1,2.1-3.1l1.1,0.9
		c0,0,3.2-6.2,4.6-17.9l2.1-4L102.6,57.1z"/>
	<path  d="M122.5,33.3c0,0-3.7,5.3-5.7,6.8c-2,1.5-3.7,2.9-3.7,2.9l-1.8,3.8c0,0-4.2-1.3-1.6-8.2l-1.4-4.8l2.8-5.1h2.7
		l1.5,4.6l1.6,0.2C117,33.5,119.8,30.8,122.5,33.3z"/>
	<path  d="M111.2,90.6L122.5,78c0,0,1.5-2.7,0-4.6c-1.5-1.8-5.3-3.3-5.3-3.3l-12,13.9c0,0-0.4,2.6,1.8,4.2
		S111.2,90.6,111.2,90.6z"/>
	<path  d="M111.4,61.3l-1.5,7c0,0,9.7,1.5,13.3,4l-1.9-2.2c0,0-0.5-3.8,1.3-7.7c1.8-3.8,6.4-6.6,6.4-6.6V54l0.9-1.5
		l-14.4,3.3l-1.3,4.8L111.4,61.3z"/>
	<path  d="M124.3,43.4l4.4-3.8c0,0,7.1-2.2,9.7,1.9l4.4-2.5l5.7-1.2c0,0-12.1-10-18.7-3.8c-6.6,6.2-6.6,6.2-6.6,6.2
		L124.3,43.4z"/>
	<path  d="M156.2,28.8l-1.3,3.3c0,0,2-0.7,0.7,3.7l-0.7,2.1c0,0,2,1.2,3.8-1.2c0,0,2,0.2,3.8-1.1
		c1.8-1.3,3.7-3.8,3.1-4.8C165.2,29.9,156.2,28.8,156.2,28.8z"/>
	<path  d="M294.8,169l-3.3,4.9l2.4,3.9c0,0,3.8-5.2,4.4-7.4c0.5-2.2,1.5-7.7,4.9-10.3v2c0,0,4.9,0.5,6.4,1.1
		c0,0,1.6-2.6,2.4-3.1c0.7-0.5,2,0,2,0s2.7-3.6,3.8-5.4c1.1-1.8,0-3,0-3s0.6-3.8,0.5-4.6c-0.1-0.7,15.6-24.3,15.6-28.2s0,0,0,0
		s-1.5-3.1-7.7-3.8c0,0-10.6,20.1-11.9,22l-1.6-2.4c0,0-4.6,10.3-9.7,16.1l-1.1,2.9l1.8,1C303.7,154.8,296.4,159.3,294.8,169z"/>
	<path  d="M181.1,1.2c0,0-6.8,1.9-6.5,5.6s6.5,3.7,6.5,3.7l4.9-4.6c0,0-1.7,2.9-1.7,4.6s2.2,2.2,5.9,1.2
		c3.7-1,8.1-6.6,13.2-5c0,0-2.6,1.4-4.7,5.5c-2.1,4.1,6.4,4.9,6.4,4.9s5.9-7.6,12-5.4c4.6,1.7,0.3,1.8-3.4,5.4
		c-2.9,2.8-4.9,5.9,6.1,5.6c0,0,9.3-6.2,12-3.2s2.2,0.8,2.2,0.8s0.7-3.7-4.9-6.1s-4.3-2.2-4.3-2.2h-3.7c0,0-2.4-4.9-6.2-4.6
		l-5.8-1.7c0,0-2.5-0.5-3.4,1c0,0-1.6-3.9-6.9-3.9l-5.6-1.1C193.1,1.6,185.4-0.8,181.1,1.2z"/>
	<path  d="M238.5,20.4c0,0-7.2,4.3-9.2,5.7c-1.2,0.7-4.8,6.6,6.3,7.3c0,0,7.3-8,10.7-4.6c0,0,3.6-1.9,0-3.9
		C242.6,22.8,238.5,20.4,238.5,20.4z"/>
	<path  d="M255.6,32c0,0-7.8,2-10.7,6.1c-2.9,4.1,1,6.4,1,6.4s3.4,1.4,5.6,0.2c2.2-1.2,7.1-6.1,9.8-3.4
		c0,0,2.5-3.4,0-5.1C258.8,34.4,257.5,33.5,255.6,32z"/>
	<path  d="M274.6,54.7c0,0-5.3-1-10.7,5.4c0,0-9.5,1.4-5.6-7.5c0,0,7.2-5.7,8.9-7.5h2.1c0,0,4.7,4.5,5.3,6
		C275.1,52.5,274.6,54.7,274.6,54.7z"/>
	<path  d="M278,60.1c0,0-0.1,2.2-6,5.9c-5.9,3.7-1.7,8.9-1.7,8.9s4.2,2,7.7-1.4c3.5-3.4,7.7-7.5,7.7-7.5s1.2-1.2,0-2.5
		c-1.2-1.2-2.5-3.2-3.7-4.4C282,59.1,281,58.3,278,60.1z"/>
	<path  d="M279,79.5c0,0-2.9,5.5,4.4,6.7c1.5,0.3,10.7-8.1,10.7-8.1s3.2,1.9-1.5,6.3s-6.6,7.1-6.6,7.1s-2.5,4.1,5.3,5.1
		c0,0,10.3-8.1,10-10.5c-0.3-2.5-3.4-6.8-4.6-8.1c-1.2-1.2-2.5-1.2-2.5-1.2l0.5-2.4l-4.9-5l-2.6,2C287.3,71.5,279.4,78.4,279,79.5z"
		/>
</g>
<g id="fbase_x5F_side_x5F_view">

		<image id="glove-view-3" overflow="visible" enable-background="new" width="800" height="956" xlink:href="./assets/images/9P_fbase_side_view.png"  transform="matrix(0.3661 0 0 0.3661 41.063 2.115553e-02)">
	</image>
</g>
</svg>
