<?xml version="1.0" encoding="utf-8"?>
<!-- Generator: Adobe Illustrator 20.1.0, SVG Export Plug-In . SVG Version: 6.00 Build 0)  -->
<svg version="1.1" xmlns="http://www.w3.org/2000/svg" xmlns:xlink="http://www.w3.org/1999/xlink" x="0px" y="0px"
	 viewBox="0 0 306.4 350" enable-background="new 0 0 306.4 350" xml:space="preserve">

<g id="inf_x5F_vw1_x5F_thbi">
	<path  d="M49.9,251.7l0.8,5.9c0,0,69.9,55.8,72.3,80c0,0,8.9-1.6,12-4.3l6.1-15.3c0,0,1.1-7.9,7.8-16.2
		c6.7-8.4,14.4-20.6,14.4-20.6s1.3-5.2,11.1-15.9c9.9-10.7,12.8-15.7,13.8-17.6c1-1.9,9.6-20.4,22.8-31.7l17.2-18.2
		c0,0,18-18.9,27.9-26.2c9.9-7.3,27.9-21.4,27.9-21.4l18.7-13.8l-18.4-19.5c0,0-18.4,5.4-19.7,11.3l-25.6,16.6l-3.2-5.3l-47.9,31.4
		l4.8,4.3l-37.5,34.4l-5.4-4.8c0,0-13.8,12.8-22.4,28.1c0,0-3.1,4.4-9,4.4S49.9,251.7,49.9,251.7z"/>
</g>
<g id="inf_x5F_vw1_x5F_midi">
	<path  d="M6.8,201l-4.8-1.5c0,0,2.4-39.5,6.3-52.2l2.2-7.1C10.6,140.3,5.7,196,6.8,201z"/>
</g>
<g id="inf_x5F_vw1_x5F_indo">
	<path  d="M10.3,202.9c0,0,3.4-40.8,3.9-49.2c0.6-8.4,5.1-23,11.2-37c5.6-12.8,7.2-16.6,11.1-23.9
		c3.9-7.3-23.7,25.1-26.5,49.7S7.3,182,7,189.1c-0.3,7.1-1.1,11.5-1.1,11.5S8.9,202.3,10.3,202.9"/>
</g>
<g id="inf_x5F_vw1_x5F_wst">
	<path  d="M11,271.1c0,0,35.1,17.9,39-15.4c0,0,72.4,38.8,72.9,81.9c0,0-34.1,10.6-51.7,3.9
		c-17.6-6.7-34.4-15.9-36.3-17.6c-2-1.7-6.4-11.7-6.4-11.7l-14.3-29.1C14.3,283.1,12.4,273.9,11,271.1z"/>
</g>
<g id="inf_x5F_vw1_x5F_logo">
	<path  d="M49.9,303.1c-3.2-8.5-10.3-13.4-17.6-15c-7.3-1.5-17.3-6-17.3-6c-1.1,2.8,0,6.6,0,6.6l3.4,3.1l-0.7,2.2
		c-1.3,2.1,0.8,6.7,2.9,9.5c2.1,2.8,4.8,6.1,4.8,6.1l1.4,3.6c2.2,2.1,2.7,1.7,2.7,1.7s1.8,6.8,5.7,8.7s5,1.3,5,1.3l-2.9-7.1
		c4.5-0.3,6.7-1.4,6.7-1.4S53.1,311.6,49.9,303.1z M34,309.8l-2-11.5l-8.9-1.7c-0.7-1.8-3.4-3.9-3.4-3.9c1.4,1,9.3,3.8,9.3,3.8
		c7.9,1,8.2,5.9,8.2,5.9C40.8,311.3,34,309.8,34,309.8z"/>
</g>
<g id="inf_x5F_vw1_x5F_plm">
	<g>
		<path  d="M28.5,145.4c0,0-15.7,7.3-13.2,45.9l1.5,17.4c0,0,28.1,37.1,30.8,44.6h3.1c0,0,42.4,5,67.5-16.3l2.5-2.7
			l23.5-28.5c0,0-15.4,8-21.2,0.4l-19.6-11.3l-6.9-4.8l4.6-2.5l11.5-19.9c0,0-5.9-11.9-11.1-14.9c0,0-2.7-3.8-5.7-5.9
			c-2.9-2.1-10.1-8.4-10.1-8.4l-24.2-29.8l-10.6,13.4l-6.6,7.4c0,0-8.8,8.4-10.1,11.9C34.2,141.5,34.2,144,28.5,145.4z"/>
		<path  d="M144.2,46.9c0,0-1.7,10.3-4.6,14.7c0,0-1.7,2.5,0,4.4c1.7,1.9,4.6,4,4.6,4l-24.7,22.8L98.4,70.3
			c12.8-12.9,28.3-24.1,45.8-34.1l7.5,5.5L144.2,46.9z"/>
	</g>
</g>
<g id="inf_x5F_vw1_x5F_bnd">
	<g>
		<path  d="M47.4,245.6c0,0-1.3-2.5-16.3-22.6S2.1,199.5,2.1,199.5s-6.3-2.1,4.2,10.1s8,21,8,21V254c0,0-14,10-2.9,18.9
			c14.2,11.4,27.2,4.6,27.2,4.6C59.1,268.7,47.4,245.6,47.4,245.6z M41.5,259.9c-2.9,8-13.4,2.9-16.8-3.4
			c-3.4-6.3-10.5-43.6-10.5-43.6L41.5,246C41.5,246,44.4,251.9,41.5,259.9z"/>
		<path  d="M39.4,326.9c0,0,18.9,10.7,32.1,14.3s26.6,1.9,26.6,1.9s21-3.8,25.8-5.2c4.8-1.5,16.3-5.4,17.8-7.5l1.5,3.1
			c0,0-18,9.6-31.9,11.7c-13.8,2.1-20.1,3.6-30,1c-9.9-2.5-29.8-11.3-29.8-11.3L39.4,326.9z"/>
	</g>
</g>
<g id="inf_x5F_vw1_x5F_indi">
	<path  d="M149.5,10.6c0,0,5.9-4.5,11.5,0s-14.3,23.8-14.3,23.8s-8.4,6.1-12.9,8.1c-4.5,2-29.3,18.2-33.5,26L83.6,83.8
		L59,106.9c0,0-4.2,0.1-12.3,16.1c0,0-14.8,12.9-16.2,20.7c0,0-17.7,6.5-15.4,45.5l1.7,19.7l-3.9-4.5c0,0-0.8-44.2,0-52
		c0.8-7.8,14-46.7,27.1-62.6s47.2-43.3,47.2-43.3l39.5-26.3L149.5,10.6z"/>
</g>
<g id="inf_x5F_vw1_x5F_thbo">
	<path  d="M302.6,136.2c0,0,1.7,11.7-14.9,30.6c-14.6,16.6-52.8,43.8-52.8,43.8l-33.3,37.7l-7.1,11.9l-53,70.2
		c0,0-4,2.7-5.2,2.7c-1.3,0,5.4-13.8,5.4-13.8s4-14.5,11.5-21.8c7.5-7.3,11.1-15.7,11.1-15.7s6.1-11.5,11.9-15.7
		c5.9-4.2,14-19.1,14-19.1s10.1-23.7,26.8-36.9c0,0,24.5-24.9,29.6-29.1c5-4.2,19.9-16.6,19.9-16.6L302.6,136.2"/>
</g>
<g id="inf_x5F_vw1_x5F_wlt">
	<path  d="M59,105.2l-17.3,22.2c0,0-11.2,10.3-11.5,16.8c-0.3,6.4,8.1-8.4,8.1-8.4s5-5,6.3-6.7c1.3-1.7,4.9-3.9,8.5-10.6
		l8.4-9.8L59,105.2z"/>
	<path  d="M149.5,205.4c0,0-2.8,1.7-21.8,25.7c0,0-3.1,6.7-9.2,7s2-3.4,2-3.4s3.6-3.6,7.8-9.2s14.3-17.3,14.3-17.3
		l5.6-6.1L149.5,205.4z"/>
	<path  d="M235.6,139.2L188.1,171l-1.7-2c0,0,33.3-22.6,37.7-26c4.5-3.4,10.3-6.7,10.3-6.7L235.6,139.2z"/>
	<path  d="M12.9,205.1c-0.6-5.9-0.4-53.9,0.2-53.6c-2.8,16.1-3.4,33.3-2.7,51.4L12.9,205.1z"/>
	<path  d="M7.1,201.6c0,0,0.4-27.9,1-39.4l-4,38L7.1,201.6z"/>
	<path  d="M137.6,332.3c0,0,5.7-18.7,9.4-24.3c3.6-5.6,11.5-14.5,14.5-18.4s6.7-17,15.9-21.8c0,0,10.1-12.9,16.5-25.4
		c6.4-12.6,14.5-21.2,24-30.5c9.5-9.2,18.2-20.7,29.9-29.9s34.3-28.2,34.3-28.2v-2c0,0-19.5,13.9-30.9,23.3
		c-11.5,9.4-22.6,21.4-22.6,21.4s-25.3,25.7-27.8,29.1c-2.5,3.4-7.1,11.2-11.6,19.8c-4.5,8.7-18.4,24-18.4,24s-6.7,9.3-10.3,15.6
		c-3.7,6.5-10.9,15.6-10.9,15.6s-5,4.5-9.5,18.2s-4.5,13.7-4.5,13.7L137.6,332.3z"/>
</g>
<g id="inf_x5F_vw1_x5F_web">
	<path  d="M94.7,67.5c0,0-4.2-3.1-6.5-1.7c-2.3,1.5-7.8,5.2-11.3,9.9s-6.7,4.4-6.7,4.4l-6.3,6.3
		c-3.1,1.5-8.5,6.9-10.3,9.6c0,0-1.5,0.6,1.3,4s15.7,20.3,15.7,20.3l15.1,18.2l15.1,12.6c0,0,3.1,2.5,11.7,16.6s22,21.4,22,21.4
		l18.7,18.6c0,0,1,1.9,2.9,2.5l9.4-8.2c0,0,10.3-5.4,8.2-8l2.5-1.9l9-6.1l10.3-8.2c0,0-25.6-22.4-29.1-29.6l32.9-27l14.9-14
		c0,0,2.1-3.1,3.8,1l34.4,29.5c0,0,4.4-3.7,8-6.2s4.2-3.6,4.2-3.6s-2.7-2.9,11.3-8.2c14-5.2,0,0,0,0l15.7-8.6l-5.7-10.3l-13-20.3
		c0,0-1.3,0-1.5-3.8l-7.8-9c0,0-3.6-2.9-4.8-5.4l-8.2-9.2c0,0-2.9-1.3-2.9-3.8l-9.9-9.2l-2.1-3.1l-9-8.8l-2.9-2.9l-13-10.9l-18-9.2
		l-14-1.7h-11.9c0,0-6.9,3.1-7.1,5.7l-4.2,4.2l-0.8,1.7c0,0-8-0.2-18,7.1c0,0-6.7,3.1-1.3,7.3s22,11.5,30,24.7
		c0,0-44.4,35.2-45.9,38.6c-1.5,3.4,0,0,0,0S97.7,69.1,94.7,67.5z"/>
</g>
<g id="inf_x5F_vw1_x5F_stch">
	<g>
		<g>
			<line   stroke-width="1.5" stroke-miterlimit="10" x1="234.3" y1="80.7" x2="233.2" y2="81.7"/>

				<line   stroke-width="1.5" stroke-miterlimit="10" stroke-dasharray="2.9728,1.9819" x1="231.6" y1="82.9" x2="141.5" y2="158.9"/>
			<line   stroke-width="1.5" stroke-miterlimit="10" x1="140.7" y1="159.6" x2="139.6" y2="160.5"/>
		</g>
	</g>
	<g>
		<g>
			<line   stroke-width="1.5" stroke-miterlimit="10" x1="141.7" y1="163.1" x2="142.8" y2="162.1"/>

				<line   stroke-width="1.5" stroke-miterlimit="10" stroke-dasharray="2.9807,1.9871" x1="144.3" y1="160.8" x2="234.9" y2="84.8"/>
			<line   stroke-width="1.5" stroke-miterlimit="10" x1="235.7" y1="84.2" x2="236.8" y2="83.2"/>
		</g>
	</g>
	<g>
		<g>
			<path   stroke-width="1.5" stroke-miterlimit="10" d="M102.9,118.4c0,0,0.2-0.4,0.7-1.3"/>
			<path   stroke-width="1.5" stroke-miterlimit="10" stroke-dasharray="3.0557,2.0372" d="M104.8,115.5
				c2.3-2.9,7-7.8,16.3-14.2l38.6-33.7l34.7-25.7"/>
			<line   stroke-width="1.5" stroke-miterlimit="10" x1="195.2" y1="41.1" x2="196.4" y2="40.2"/>
		</g>
	</g>
	<g>
		<g>
			<line   stroke-width="1.5" stroke-miterlimit="10" x1="194.9" y1="38.4" x2="193.7" y2="39.2"/>
			<path   stroke-width="1.5" stroke-miterlimit="10" stroke-dasharray="3.0444,2.0296" d="M192,40.4
				l-28.4,20.4c0,0-29.1,22.2-31.4,25.6c-2.1,3-23.1,20.6-29.6,27.3"/>
			<path   stroke-width="1.5" stroke-miterlimit="10" d="M102,114.3c-0.4,0.5-0.8,0.9-1,1.1"/>
		</g>
	</g>
	<g>
		<g>
			<line   stroke-width="1.5" stroke-miterlimit="10" x1="173.3" y1="32.5" x2="172.1" y2="31.6"/>

				<line   stroke-width="1.5" stroke-miterlimit="10" stroke-dasharray="3.0376,2.0251" x1="170.5" y1="30.4" x2="155.2" y2="18.7"/>
			<polyline   stroke-width="1.5" stroke-miterlimit="10" points="154.4,18.1 153.2,17.2 154.6,16.7
				"/>
			<polyline   stroke-width="1.5" stroke-miterlimit="10" points="155.2,16.5 156.6,15.9 157.8,16.8
				"/>

				<line   stroke-width="1.5" stroke-miterlimit="10" stroke-dasharray="3.1252,2.0834" x1="159.5" y1="18" x2="171.3" y2="26.6"/>
			<line   stroke-width="1.5" stroke-miterlimit="10" x1="172.1" y1="27.2" x2="173.3" y2="28.1"/>
		</g>
	</g>
	<g>
		<g>
			<path   stroke-width="1.5" stroke-miterlimit="10" d="M182.3,21.4c0,0,0.5,0.3,1.2,0.9"/>
			<path   stroke-width="1.5" stroke-miterlimit="10" stroke-dasharray="2.9751,1.9834" d="M185.1,23.4
				c2.1,1.5,5.2,3.6,7.9,5.3c4.8,2.9,14.3,10.5,22.6,21l15.7,15.9c0,0,13,13.8,17,24.1l17.2,25.2"/>
			<polyline   stroke-width="1.5" stroke-miterlimit="10" points="266.2,115.7 267,116.9 266.2,118.2
							"/>
			<polyline   stroke-width="1.5" stroke-miterlimit="10" stroke-dasharray="3.4455,2.297" points="
				264.9,120.1 263,123.1 262,123.4 			"/>
			<polyline   stroke-width="1.5" stroke-miterlimit="10" points="260.9,123.7 259.5,124.1 258.5,122.9
							"/>

				<line   stroke-width="1.5" stroke-miterlimit="10" stroke-dasharray="3.0339,2.0226" x1="257.2" y1="121.4" x2="234.7" y2="95.4"/>
			<line   stroke-width="1.5" stroke-miterlimit="10" x1="234" y1="94.6" x2="233.1" y2="93.5"/>
		</g>
	</g>
	<g>
		<g>
			<line   stroke-width="1.5" stroke-miterlimit="10" x1="235.6" y1="91.6" x2="236.5" y2="92.7"/>

				<line   stroke-width="1.5" stroke-miterlimit="10" stroke-dasharray="2.8597,1.9065" x1="237.8" y1="94.2" x2="258.9" y2="118.8"/>
			<line   stroke-width="1.5" stroke-miterlimit="10" x1="259.5" y1="119.5" x2="260.5" y2="120.6"/>
		</g>
	</g>
	<g>
		<g>
			<line   stroke-width="1.5" stroke-miterlimit="10" x1="102.9" y1="106.1" x2="101.8" y2="105.1"/>

				<line   stroke-width="1.5" stroke-miterlimit="10" stroke-dasharray="3.0156,2.0104" x1="100.4" y1="103.7" x2="79.4" y2="83.5"/>
			<polyline   stroke-width="1.5" stroke-miterlimit="10" points="78.6,82.8 77.5,81.7 76.2,82.4 			"/>
			<polyline   stroke-width="1.5" stroke-miterlimit="10" points="76,82.5 74.6,83.2 75.7,84.3 			"/>

				<line   stroke-width="1.5" stroke-miterlimit="10" stroke-dasharray="3.2199,2.1466" x1="77.2" y1="85.8" x2="99.2" y2="107.8"/>
			<line   stroke-width="1.5" stroke-miterlimit="10" x1="100" y1="108.6" x2="101" y2="109.6"/>
		</g>
	</g>
	<g>
		<g>
			<polyline   stroke-width="1.5" stroke-miterlimit="10" points="71.9,87.4 70.6,89.1 71.6,90.2 			"/>
			<path   stroke-width="1.5" stroke-miterlimit="10" stroke-dasharray="2.9892,1.9928" d="M73,91.6
				l19.4,20.9c0,0,2.3,5.2,7.5,10.7l21,22.6c0,0,13.4,17.7,14.5,19.1c1,1.5,7.3,6.7,13.4,10.1l17.7,17.9"/>
			<polyline   stroke-width="1.5" stroke-miterlimit="10" points="167.2,193.6 168.3,194.7 165.8,196.2
				164.7,195.1 			"/>
			<path   stroke-width="1.5" stroke-miterlimit="10" stroke-dasharray="2.9551,1.9701" d="M163.4,193.7
				L145.2,175c0,0-5.4-3.8-9.4-7.3l-30.8-36l-16.2-17.8L70.4,93.4"/>
			<polyline   stroke-width="1.5" stroke-miterlimit="10" points="69.7,92.7 68.7,91.6 69.8,90.5 			"/>
		</g>
	</g>
	<g>
		<path  d="M150.7,163.1"/>
	</g>
	<g>
		<g>
			<line   stroke-width="1.5" stroke-miterlimit="10" x1="149.6" y1="164.1" x2="150.7" y2="165.2"/>

				<line   stroke-width="1.5" stroke-miterlimit="10" stroke-dasharray="3.2079,2.1386" x1="152.2" y1="166.7" x2="169.9" y2="185.3"/>
			<line   stroke-width="1.5" stroke-miterlimit="10" x1="170.6" y1="186.1" x2="171.6" y2="187.2"/>
		</g>
	</g>
	<g>
		<g>
			<path   stroke-width="1.5" stroke-miterlimit="10" d="M158,168.1c-0.1-0.1-0.4-0.6-0.9-1.2"/>
			<path   stroke-width="1.5" stroke-miterlimit="10" stroke-dasharray="2.2541,1.5027" d="M156.2,165.7
				c-0.6-0.8-1.2-1.7-1.7-2.5"/>
			<path   stroke-width="1.5" stroke-miterlimit="10" d="M154.1,162.6c-0.5-0.7-0.9-1.2-0.9-1.2"/>
		</g>
	</g>
	<g>
		<g>
			<path   stroke-width="1.5" stroke-miterlimit="10" d="M49.8,249.6c0.2,0.4,0.5,0.9,0.7,1.3
				c0.5,0.1,1,0.1,1.5,0.2"/>
			<path   stroke-width="1.5" stroke-miterlimit="10" stroke-dasharray="3.0117,2.0078" d="M54,251.2
				c26.7,1.9,60-10.5,60-17.1c-5.2-6.2-81,13.1-86.4-81.7"/>
			<path   stroke-width="1.5" stroke-miterlimit="10" d="M27.5,151.3c0-0.5,0-1-0.1-1.5
				c0,0-0.4,0.4-0.9,1.2"/>
			<path   stroke-width="1.5" stroke-miterlimit="10" stroke-dasharray="2.9141,1.9427" d="M25.4,152.6
				c-4.2,6.5-12.9,24.7-6.4,55.6"/>
			<path   stroke-width="1.5" stroke-miterlimit="10" d="M18.8,209.2l-0.4,1.4c0.4,0.4,0.7,0.7,1.1,1.1"
				/>
			<path   stroke-width="1.5" stroke-miterlimit="10" stroke-dasharray="3.1032,2.0688" d="M21,213.2
				c11.7,11.9,21.5,23.8,28.3,35.5"/>
		</g>
	</g>
	<g>
		<g>
			<path   stroke-width="1.5" stroke-miterlimit="10" d="M19.9,205.8c0,0-0.1-0.5-0.3-1.5"/>
			<path   stroke-width="1.5" stroke-miterlimit="10" stroke-dasharray="2.8894,1.9262" d="M19.4,202.4
				c-1.1-8.1-3.1-28.9,4.2-41.5"/>
			<path   stroke-width="1.5" stroke-miterlimit="10" d="M24.1,160.1c0.3-0.4,0.5-0.8,0.8-1.2
				c0,0-0.1,0.5-0.1,1.5"/>
			<path   stroke-width="1.5" stroke-miterlimit="10" stroke-dasharray="2.9897,1.9932" d="M24.8,162.3
				c0.1,7.4,2.1,25.3,17.5,43.5c0,0,6.9,20.5,44.6,26.6c0,0,17.6,2.3,21.4,2.7h0.2"/>
			<path   stroke-width="1.5" stroke-miterlimit="10" d="M109.6,235.1h1.5c0,0-0.4,0.3-1.2,0.8"/>
			<path   stroke-width="1.5" stroke-miterlimit="10" stroke-dasharray="3.117,2.078" d="M108.1,237.1
				c-7.1,4.2-26.4,13.8-54,12.1"/>
			<path   stroke-width="1.5" stroke-miterlimit="10" d="M53.1,249.1c-0.5,0-1-0.1-1.5-0.1"/>
		</g>
	</g>
	<g>
		<path  d="M44.6,209.6"/>
	</g>
	<g>
		<g>
			<path   stroke-width="1.5" stroke-miterlimit="10" d="M50.5,250.9c0,0,0.1,0.5,0.2,1.5"/>
			<path   stroke-width="1.5" stroke-miterlimit="10" stroke-dasharray="3.2014,2.1343" d="M50.9,254.5
				c0.5,7-0.2,22.1-14.4,23.5"/>
			<path   stroke-width="1.5" stroke-miterlimit="10" d="M35.5,278.1c-0.5,0-1,0-1.5,0"/>
		</g>
	</g>
	<g>
		<g>
			<path   stroke-width="1.5" stroke-miterlimit="10" d="M52,260.5c0,0,0.5,0.2,1.3,0.7"/>
			<path   stroke-width="1.5" stroke-miterlimit="10" stroke-dasharray="3.0412,2.0275" d="M55.1,262.1
				c12.2,6.3,55.9,31.7,64.9,72.7"/>
			<path   stroke-width="1.5" stroke-miterlimit="10" d="M120.2,335.7c0.1,0.5,0.2,1,0.3,1.5"/>
		</g>
	</g>
	<g>
		<g>
			<path   stroke-width="1.5" stroke-miterlimit="10" d="M50.1,268.3c0,0,0.5,0.2,1.3,0.7"/>
			<path   stroke-width="1.5" stroke-miterlimit="10" stroke-dasharray="3.078,2.052" d="M53.2,270
				c11.3,6.4,49.9,30.5,59,66.7"/>
			<path   stroke-width="1.5" stroke-miterlimit="10" d="M112.4,337.6c0.1,0.5,0.2,1,0.3,1.5"/>
		</g>
	</g>
	<g>
		<g>
			<path   stroke-width="1.5" stroke-miterlimit="10" d="M140.8,330.3c0,0-0.4,0.3-1.3,0.7"/>
			<path   stroke-width="1.5" stroke-miterlimit="10" stroke-dasharray="3.0393,2.0262" d="M137.7,332
				c-6.1,3-21,9.1-45.5,11.8c0,0-8.6,2.7-26.4-4.6c-10.9-4.5-16.4-7.2-19-8.6"/>
			<path   stroke-width="1.5" stroke-miterlimit="10" d="M45.9,330c-1-0.5-1.3-0.8-1.3-0.8"/>
		</g>
	</g>
	<path   stroke-width="1.5" stroke-miterlimit="10" stroke-dasharray="3,2" d="M15.7,207.5
		c0,0-8.2-7.5-11.9-8.8"/>
</g>
<g id="inf_x5F_vw1_x5F_lce">
	<path  d="M189.5,1.7c0,0-11.7-3.6-15.1,8.9v1.7l-5.6,2.2c0,0,12.9,45,16.8,52.5c0,0-1.1,1.1-3.6,2.5l3.4,10.1h4.2
		c0,0,10.1,5.6,15.1,5.6s4.5,4.5,4.5,4.5l30.5,56.4l10.3-6.4c0,0-31.6-53.4-31.6-56.2l2.8-3.4c0,0-3.1-12-5.3-7.8h-4.2
		c0,0-3.9-7-13.1-7.3c0,0-16.8-35.5-18.2-50.3c0,0,10.1-7.8,14.3-7.5c0,0-10.6,5-7.5,10.9s6.4,1.4,6.4,1.4s12.1-10.9,18.2-4.5
		c1.2,1.3,0.3,1.4,0.3,1.4s-12.3,4.5-12.3,10.3s8.7,3.6,8.7,3.6s12.9-10.9,17-3.6c0,0-16.5,6.7-13.1,11.5c3.4,4.8,7.5,3.9,7.5,3.9
		s16.2-10.6,17-3.6c0,0-18,6.5-14,12c8.8,12,10.2-4.1,24.9-1.7c0,0,2-0.8-2-5.6c-3.9-4.8-7.3-3.6-7.3-3.6s-1.7-3.6-2.5-5.6
		c-0.8-2-5.6-6.4-5.6-6.4l-3.8-0.3l-0.3-1.7c0,0-0.4-4.1-8.1-9.2c0,0-2.2-0.9-4.1-0.8c0,0-0.7-4.2-6-6.4c-5.3-2.2-12.3-5.9-12.3-5.9
		S192,1.4,189.5,1.7z"/>
	<path  d="M249.8,52.5c0,0-16.8,6-13.7,10.8c0,0-0.4,4.1,4.6,5c3.3,0.7,15.9-9.1,18.9-7.1c0,0,0.8-1.1,0-3.9
		C259.6,57.3,256.9,52,249.8,52.5z"/>
	<path  d="M273.2,80.6c0,0-11,6.1-13.2,6.6c-2.2,0.4-5.7,3.8-4,5.9s3.1,4.3,3.1,4.3s3.1,1.5,14.1-4.3l6.4-4
		c0,0,2.7,0.3,1.1,2.3c-1.5,2-4.9,5.6-11.5,8.8c0,0-4.2,0.4-4.3,4.2c-0.1,3.8,5.7,5.3,5.7,5.3s1.4,1,7.3-2.5c5.9-3.5,8.5-6,8.5-6
		s0.3-2.7,0.8-4.6l-5.3-8.7c0,0,0.6-0.7-0.6-2s-4.9-5.3-4.9-5.3S275.4,81.2,273.2,80.6z"/>
	<path  d="M271.4,76.7c0,0-2.2-1-18.4,5.4c0,0-8.8-1.8-4.2-7.7c4.9-3.6,9.9-6.1,15-6.8l3.4,0c0,0,3.6,4.8,4.3,6
		C272,74.9,271.4,76.7,271.4,76.7z"/>
	<path  d="M279.7,119.7l9.2-5.2c0,0,2,1.4,3.8,2.6c1.8,1.2,4.9,6.4,4.9,6.4s4.2,0.4,7.3,3.9c3.1,3.5-1,5.7-1,5.7
		s-1.8,5.7-3.2,7.5c0,0-1.8,0.7-3.5,0l-1.3,4.5l-10.1,24.7l1.8-2.2l1.3,6.4l-6.7,4.8l-12,34.8c0,0-5.3,0.3-7.1-1.3l-1.3-1l6.6-23.3
		c0,0-21.5,19-23.8,22.8c0,0-1.3,1-2.8,1.5l-1.4,4.9c0,0,3.6-1,4.6,0s0.6,2.7,0.6,2.7s-29.3,19.8-31.3,23.8c-2,3.9-6,16.5-6,16.5
		L205,261l-1.4-2.2l2.1-5.3c0,0-4.5,3.9-5.3,7.5l2.5,2.4c0,0-3.1,11.6-2.5,16.3l-4.3,2.8c0,0-0.4,1.4-1.5,2.1
		c-1.1,0.7-3.9,2.9-3.9,2.9s-1-1-10.2,3.1c0,0-8.1,4.8-9.5,6.1c0,0-19.4,9.9-19.4,38.3c1.1,11.7-8.1,7-8.9,0.8
		c0,0-2.2-17.7,9.8-32.7c0,0,2-4.2,16.6-18.3l0.8-2.4l5.4-11.6c0,0,1.3-1.1,3.2-1.1l5.4-8.2c0,0,3.9-2.7,8.5-9.1l2-0.3l3.2-2.9
		c0,0-6.3-2.8,1.1-10.9c0,0,12.3-13.8,13.8-16.6s6.7-8.5,6.7-8.5l0.8,1.1c0,0,0.7-2.7,2.9-4.8l1.8-0.8c0,0-0.4-3.4,5.9-6.4
		c0,0-1-3.9,4.8-5.9l2-1.5l0.1-1.8l5.3-4.5l15.4-13.6c0,0,2-1.6,4.2-2.7s4.3-0.7,4.3-0.7s-0.4,3.9-4.1,9.9l9.9-6.5l1.8-1l12.9-33.7
		c0,0-2.1-0.3-1.7-4.6c0.4-4.3,1.7-5.3,1.7-5.3L279.7,119.7z"/>
	<path  d="M182.9,188.5l6.6-4.6l1.8,1.4l23.9-21.2l6,6.6c0,0-28.1,26.8-30.6,29.1c0,0,1.4,3.2-0.6,8
		c-2,4.8-4.3,4.8-4.3,4.8s-0.7,5.2-4.8,7.8c0,0-5.6-0.3-7.3,0.6c0,0-2-0.4-2.8-2.2l-26.3,15.1L132,241l-3.9-8.1
		c0,0,34.1-19.4,35.8-20.4l-4.2-4.2l6.3-6.6l2-1.5l4.3,3.6c0,0,3.1-3.9,3.9-3.9c0,0-2.1-5.2,0.3-7.1
		C178.8,190.9,182.9,188.5,182.9,188.5z"/>
	<path  d="M121.4,132.7c0,0-1-5.3-2.1-6.8s3.8-1.4,3.8-1.4s-14.4-19.1-16.6-24.9c-2.2-5.7-13.4-23.5-17.7-26v-1l6.4-5.4
		c0,0,9.9,8.8,19.6,26.3s16.5,27.7,16.5,27.7s6.3-0.6,12.4,5l3.9-1.3c0,0,1.5,4.1,3.2,6.7c1.7,2.7-1.1,4.9-1.1,4.9
		s7.7,10.8,9.5,15.1c1.8,4.3,22.8,33.1,27.4,37.2l-7.1,5l-2.2-0.8c0,0-25.3-33.8-27.1-38.6c-1.8-4.8-8.9-13.6-8.9-13.6
		s-6.1,1.3-10.9-5.7c0,0-1.1-1.5-3.6-1.8C124.1,133,121.4,132.7,121.4,132.7z"/>
	<path  d="M64,85.5c0,0,0.6-4.8-6.1-4.9c0,0-0.8-0.1-2.5,1.5c-1.7,1.7-4.5,5.6-4.5,5.6l5,5.3L64,85.5z"/>
	<path  d="M73.5,161l-3.8-2.8l-0.9,7.3l4.8,4.5C73.5,169.9,73.8,163.2,73.5,161z"/>
	<path  d="M78.5,109.8c0,0-13.7-5.9-8.1,4.8c0,0,1,7.8-1.3,11.7c-2.3,3.9-11,4.8-31.6,22.1c0,0-1.7,8.7,3.1,12
		c4.8,3.4,10.3-4.8,10.3-4.8s3.4-5,13.1-10.6c0,0-3.6,10.6-7.6,19s-3.1,17.9-3.1,17.9l7.5,1.7c0,0,1.4-1,3.9-8.6s12-32.2,12-35
		s16.5-3.1,18.7,0.3c0,0,8.1,0.3,6.4-6.4c-1.7-6.7-11.7-11.2-21.5-9.2C80.5,124.6,81.6,114,78.5,109.8z"/>
	<path  d="M97.5,151.7c0,0-5,12.9-8.8,16.5c-3.8,3.6,0,6.8,0,6.8s12.3-5.9,13.5-19.9C102.2,155.1,102,151.2,97.5,151.7z"
		/>
	<path  d="M125.2,158.2c0,0-7.5-3.1-8.1,5.9c-0.6,8.9,0.6,10.3-2.5,17c0,0-27.7,14.3-29.3,15.1c-1.7,0.8-5,0-6.1,2.8
		c-1.1,2.8-1.4,7.3,3.9,7.8c0,0,3.4,0.3,4.1,0c0.7-0.3,4.1-2.5,23.3-10.6c0,0-3.6,14.3-7,18.7c-3.4,4.5,3.1,8.4,3.1,8.4h7.5
		c0,0,8.1-8.3,15.4-32.8c0,0,5.6-1.2,10.3,0c4.8,1.2,7.3,0,7.3,0s5.3-7.7-4.6-11.3h-11.3C131.1,179.1,133,160.4,125.2,158.2z"/>
	<path  d="M133,50l-1.1,2.5l-2.5-1.2l-8.9,6.3l4.2,1.7V64l-8.4,6.4l-1.4,11.7c0,0,8.4-3.9,13.3-1.5c0,0-3.8,5.5-5.7,7.7
		v2.5l16.5-13.4c0,0,0.8-13.8-1.3-17s-5.4,4.4-5.4,4.4l-0.8,5.6h-10.9c0,0,10.1,0.3,20.1-20.4l-2.9-2.5L133,50z"/>
	<path  d="M83.8,34.7c0,0-2.2,13.3-1.1,17.8c0,0-3.9,2.7-1.4,7.9s11.5,4.4,11.5,4.4s10.1-1.8,2.8-12.3l-3.6-2.7l0.6-12
		L83.8,34.7z"/>
</g>
<g id="inf_x5F_open_x5F_side">

		<image id="glove-view-3" overflow="visible" width="731" height="835" xlink:href="./assets/images/9P_infield_swelt_side_view.png"  transform="matrix(0.4192 0 0 0.4192 0 0)">
	</image>
</g>
</svg>
