<?xml version="1.0" encoding="utf-8"?>
<!-- Generator: Adobe Illustrator 20.1.0, SVG Export Plug-In . SVG Version: 6.00 Build 0)  -->
<svg version="1.1" xmlns="http://www.w3.org/2000/svg" xmlns:xlink="http://www.w3.org/1999/xlink" x="0px" y="0px"
	 viewBox="0 0 380 349.2" enable-background="new 0 0 380 349.2" xml:space="preserve">

<g id="inf_x5F_vw2_x5F_plm">
	<path  d="M313.4,58.3c0,0,8.1-17.6,26.2-3c18,14.6,14.1,32.6,14.1,32.6s-0.1,28.8,0.4,36.1s-2.9,31.5-4,49.2
		c-1.2,17.7-2,29.8-3.3,39.2s-2.2,21.4-2,22.4c0.2,1-7.3,3.8-6.1,13.2c1.2,9.4-9.1,34.6-9.1,34.6s-20.2,25.2-27.3,29.3
		s-47.2,18.4-75,16.2s-50.3-4.3-63.1-18.4C151.3,295.7,132,259,132,259s-5.1-3.1-8.6-6.3c-3.5-3.1-32.3-41.1-32.3-41.1
		s-34.4-40.4-37.9-44.2c-3.5-3.8-15.6-16.6-18-22.7c-2.5-6.1-9.3-24.2-8.9-25.2c0.3-1,1.2-1.5,1.2-1.5s5-3.8,8.4-1.8
		c3.5,2,15.4,7.9,27.7,21.7s9.8,11.8,15.9,17.4c6.1,5.6,12.1,11.9,18.2,16.4c0,0,1.3,1,4,5.3s15.1,18.7,15.1,18.7s-1.3-2.5,3.8-11.6
		c5.1-9.1,9.1-16.2,9.1-16.2l4.3-7.8c0,0,3.1-6.5,4.6-9.6c1.5-3.1,4.3-7.8,4.3-7.8l8.9-12.9c0,0,3.3-6.1,0.3-23.5s-3-17.4-3-17.4
		s-1.5-3.8-2.5-11.1s-2.3-16.9-5.8-22.8s-6-15.2-6.5-21c-0.5-5.8-1.7-9.9-1.7-9.9s-0.3-10.9,19.2-13.2s24.7,3.1,24.7,3.1
		s9.1,6.3,12.4,20c3.3,13.7,3.5,19,3.5,19s6.8,29.8,7.5,36.3c0.7,6.5,0.7,17.9,0.7,24.5s-1.7,6.6,0.5,9.3c2.2,2.6,5.1,2.3,6.8-2
		c1.7-4.3,2-52.3-7.5-68.9l-7.5-21.5c0,0-4.8-16.1,11.1-18.4s34.1,0.7,38.2,9.9s4.6,18.9,4.6,18.9l0.3,17.1c0,0,3.8,40.9,3.3,50.2
		c-0.5,9.3-2.8,26.2-4,28.6s2.5,9.6,5.6,3.6c0,0,2-19.7,2.6-29.8s1-38.2,0.2-46.5s2-25.8,2-25.8s5.3-24.2,26-11.9
		s20.7,21.4,20.7,21.4v13.2l-4.3,26c0,0-0.8,8.1-1.8,11.6c-1,3.5-1.3,37.1-7.1,51.8c-5.8,14.7-0.5,12.7-0.5,12.7s4.6-17.1,5.1-24.5
		c0.5-7.5,7-31,7.6-38.2c0.7-7.3,1.3-9.9,1.3-9.9l5.1-8.6c0,0-1.5-6,0.5-12.4C311.6,63.1,313.4,58.3,313.4,58.3z"/>
</g>
<g id="inf_x5F_vw2_x5F_thbo">
	<path  d="M28.5,135.3c0,0-13.1,0-9.6,11.4c0,0,3.1,5.5,10.6,15.7c7.5,10.3,11.8,13.1,19,24.2c0,0,4.4,6.5,8.4,10.3
		S68.1,210,68.1,210l9.1,14.2l3.6,5.3c0,0,11.9,13.6,14.4,18.9s4.1,7.5,7.3,10.9c0,0,6.5,12.3,10.9,17.9c4.5,5.6,7.9,14.6,7.9,14.6
		s-1.5,2.8-2.3,2.8s9.9,12.6,15.1,25.7c5.1,13.1,6.8,12.6,6.8,12.6s1.4,8.9,12.2-9.9v-2.9l-11.4-16.4l-25.3-41.4
		c0,0-0.7-5.5,2.2-8.4v-1.7c0,0-47.2-61.3-51.2-65.2C63.4,183,37.8,155,28.5,135.3z"/>
</g>
<g id="inf_x5F_vw2_x5F_thbi">
	<path  d="M23.2,120c0,0,0.9,3.3,2.6,6.6s2.1,6.1,2.1,6.1s-8.3,1.7-10.6,7C17.2,139.8,15,123,23.2,120z"/>
</g>
<g id="inf_x5F_vw2_x5F_indi">
	<path  d="M148,6.6c0,0-11.3,0.8-17.2,11.8c0,0,1.4,11.8,2.6,17.7s3.7,13.2,6.9,20.8c3.1,7.5,4.9,19.6,4.9,19.6
		s4.5,20,4.5,23.5c0,3.5,2,7.3,2,7.3s2.6,19.4,1.4,21.5c-1.1,2.1-1.3,1.3-1.3,1.3s-2-12.4-2.5-15.9c-0.5-3.5-1.8-8.9-3.1-11.9
		c-1.3-3-2.3-15.2-2.3-15.2s-1.7-6-3.8-8.8l-2-14.2c0,0-0.7-11.6-3.8-16.2c-3.1-4.6-3.5-8.6-4.3-16c-0.8-7.4-2-10-2-10
		s-5.8-13.4,19.5-20L148,6.6z"/>
</g>
<g id="inf_x5F_vw2_x5F_indo">
	<path  d="M151.5,1.5c0,0,8.4-2,16.1,1.7c0,0,15.6,1.7,22.8,19.4c0,0,2.2,4.1,2.7,9.4c0.5,5.3,4.8,19.6,4.8,19.6
		s0.8,8,2,12.5s4.1,10.1,6.5,39.6l0.7,8.6c0,0,0.7,5.3-1.5,8.9c-2.2,3.6-2,0-2,0s-1.7,0.3-1.5-12.3c0.2-12.6-2.2-30.5-3.6-37.4
		c-1.5-7-4.1-22-4.1-22s-4.6-20.7-5.8-24S177.3,2.4,152.2,5.8C152.2,5.8,151,3,151.5,1.5"/>
</g>
<g id="inf_x5F_vw2_x5F_midi">
	<path d="M214.5,2.9c-22.1,3.1-21.2,12.2-20.8,12.3c0,0,0,0,0,0c1.3-1.8,7.9-5.4,20.6-6.5C214.2,8.7,214.3,6.4,214.5,2.9z"/>
</g>
<g id="inf_x5F_vw2_x5F_mid">
	<path d="M192.4,15.2c0,0,17.9-15.1,48-1s0,0,0,0s9.1,13.2,9.5,26.5s-0.6,25.2,0,33.9c0.6,8.8,1.8,25.7,1.8,32s-3.3,25.2-3.3,28.6
		s-2.6,5.2-0.2,6.4c2.5,1.2,4.3-3.3,4.6-6.8s2.3-30.1,2.3-30.1s0.7-15.3,0.4-26.6S254.8,62,254.8,62l0.2-23c0,0-1.3-17.7-12.7-27.7
		s-29.1-8.4-29.1-8.4S195.5,4,192.4,15.2"/>
</g>
<g id="inf_x5F_vw2_x5F_mido">
	<path d="M214.5,8.9c9.6-0.2,18.4,1.2,25.9,5.3l0,0c0,0,9.1,13.2,9.5,26.5c0.4,13.3-0.6,25.2,0,33.9c0.6,8.8,1.8,25.7,1.8,32
		s-3.3,25.2-3.3,28.6s-2.6,5.2-0.2,6.4c2.5,1.2,4.3-3.3,4.6-6.8s2.3-30.1,2.3-30.1s0.7-15.3,0.4-26.6c-0.3-11.3-0.7-16.1-0.7-16.1
		l0.2-23c0,0-1.3-17.7-12.7-27.7c-0.7-0.9-5.5-4.8-26.6-8.5l0,0C215.3,4.8,214.9,6.8,214.5,8.9z"/>
</g>
<g id="inf_x5F_vw2_x5F_rngi">
	<path  d="M288.6,18.5l-5.1,3.5l-13.3-2C270.3,20,277,15.7,288.6,18.5"/>
</g>
<g id="inf_x5F_vw2_x5F_rngo">
	<path  d="M291.9,19.9c0,0,3.8,1.2,7.6,5.3c0,0,12.3,7.9,15.1,26.4l0.7,2.9l-5.6,15.1l-2.2,10.3l-3.8,12.3l-1,8.4
		c0,0-4.3,18.7-5.5,20.2c-1.2,1.5,1.5-28.1,4-32.8c2.5-4.6,5.1-26.5,7.5-30.3c2.3-3.8,0,0,0,0s-1.8-20.9-20.7-34
		C287.6,21.3,289.2,20.2,291.9,19.9"/>
</g>
<g id="inf_x5F_vw2_x5F_pnki">
	<path  d="M346.6,50.5c0,0-2.3-0.2-5.6,3c0,0-10.8-5.6-12.9-5.6c-2.2,0,0,0,0,0S333.8,44.2,346.6,50.5z"/>
</g>
<g id="inf_x5F_vw2_x5F_pnko">
	<path  d="M343.4,54.3c0,0,12.6,10.1,14.4,29.8v33.6c0,0-3.5,40.6-4.5,46.7l-1.8,28.1c0,0-0.3,11.4-0.9,15.2
		c-0.6,3.8-4.4,20.4-3.7,25.3l0.5,2.6c0,0,3.8-4,8.4,1L356,226c0,0,0.7-9.9,7.6-37.4c0,0,2.2-11.4,2.3-14c0.2-2.6,0.7-41.1,0.8-46.1
		c0.2-5,2.3-34.4-2-43.5c0,0-2.3-18.2-14.6-32.3s0,0,0,0S347.2,49.8,343.4,54.3z"/>
</g>
<g id="inf_x5F_vw2_x5F_web">
	<path  d="M37.9,113.4l-4.6,1.7c0,0-15.7,0-16.9,0s-1.7,2.2-1.7,2.2s-3-3-2.5-4.8c0.5-1.8,2.6-5.6,4.7-10.9
		c2.1-5.3,8.1-21.4,8.1-21.4h1.3l-1.3-2.6l6.7-9.6c0,0,1.8-0.3,2.5-5.1l7.3-8.3c0,0,3.8-1,2.5-4.6l8.4-7.3c0,0,2.3,0.5,3.1-3.3
		c0.8-3.8,7.9-6.8,7.9-6.8l3.8-3.8l9.1-6.3l6.5-5.1l9.4-3.8c0,0,2-0.2,2.8-1.2s10.5-3,10.5-3h9.9c0,0,4.6-3,7.3-1.2
		c2.6,1.8,3.8,3.3,3.3,7.1c-0.5,3.8-2.3,8.9-2.2,10.8c0.2,1.8,0.5,2.5,0.5,2.5l1.8,1.3c0,0,0.9,7.3,1.1,10.8c0,0-0.9,1.2-2.6,1.5
		c-1.7,0.3-17.1,2.3-36.6,27.7l9.9,18.5l6.1,12.7c0,0,11.6-17.9,25.7-26.7c0,0,6.8,6.5,7.5,7.8c0.7,1.3,0,9.4,0,9.4h1l7.8,10.8
		c0,0,0.5,2-1.5,3.8s-9.8,14.1-12.9,18.5c-3.1,4.5-7.1,9.8-10.1,12.7s-2.5,1.3-6,8.1c-3.5,6.8-4.3,7.6-4.3,7.6s-4,18.4-7.1,24h-2.6
		L78,154v-1l-21-32.6c0,0-0.3-1.8-3.5,4c0,0-7.5-2.6-9.4-3.6"/>
</g>
<g id="inf_x5F_vw2_x5F_stch">
<g>
		<g>
			<path  stroke-width="2" stroke-miterlimit="10" d="M331,272c0,0-0.2,0.5-0.7,1.3"/>
			<path  stroke-width="2" stroke-miterlimit="10" stroke-dasharray="3.0063,1.5032" d="M329.6,274.6
				c-4.4,7.6-18.3,29.7-37.5,39c-23.3,11.3-52.2,11.8-52.2,11.8s-49.7,2-67-13.7c-10.7-9.7-15.1-14.6-16.8-17"/>
			<path  stroke-width="2" stroke-miterlimit="10" d="M155.6,294.1c-0.7-1-0.7-1.3-0.7-1.3"/>
		</g>
	</g>
	<g>
		<g>
			<polyline  stroke-width="2" stroke-miterlimit="10" points="135,97.1 136.2,96.2 136.2,97.7 			"/>
			<path  stroke-width="2" stroke-miterlimit="10" d="M136.2,98.5v1.5c0,0-0.4,0.4-1.1,1"/>
			<path  stroke-width="2" stroke-miterlimit="10" stroke-dasharray="3.0227,1.5114" d="M134.1,102.1
				c-3.6,3.7-10.8,11.5-14.9,19.1c0,0-6.5,7.9-9.6,14.1c-2.6,5.1-11.4,25.4-14.3,31.9"/>
			<path  stroke-width="2" stroke-miterlimit="10" d="M95,167.9c-0.4,0.9-0.6,1.4-0.6,1.4l-2-2.1
				c0,0,0.2-0.5,0.6-1.4"/>
			<path  stroke-width="2" stroke-miterlimit="10" stroke-dasharray="2.9514,1.4757" d="M93.6,164.5
				c2.5-5.8,8.1-19.1,9.6-22.6c2-4.5,14.7-23.8,14.7-23.8s10.9-16.3,16.5-20.6"/>
		</g>
	</g>
	<g>
		<g>
			<path  stroke-width="2" stroke-miterlimit="10" d="M133.7,91.9c0.7-0.6,1.1-1,1.1-1v2.5
				c0,0-0.4,0.4-1.1,1.1"/>
			<path  stroke-width="2" stroke-miterlimit="10" stroke-dasharray="2.9235,1.4618" d="M132.7,95.5
				c-4.7,4.8-16,17-19.1,25.2c-4,10.4-7.6,15.2-7.6,15.2s-11.6,18.2-14.5,25.6"/>
			<path  stroke-width="2" stroke-miterlimit="10" d="M91.3,162.2c-0.2,0.6-0.3,1.1-0.4,1.4
				C90.9,163.6,90.9,163.1,91.3,162.2"/>
			<path  stroke-width="2" stroke-miterlimit="10" stroke-dasharray="3.0102,1.5051" d="M91.6,160.7
				c1.2-4,4.4-12.2,13.3-25.4c0,0,10.3-21.9,15.5-29c3.8-5.2,9.9-11.1,12.7-13.9"/>
		</g>
	</g>
	<g>
		<g>
			<path  stroke-width="2" stroke-miterlimit="10" d="M60.1,112.8c0,0,0.3,0.5,0.7,1.3"/>
			<path  stroke-width="2" stroke-miterlimit="10" stroke-dasharray="2.8622,1.4311" d="M61.6,115.3
				c3.7,6.4,13.3,23.1,16.5,29.3"/>
			<path  stroke-width="2" stroke-miterlimit="10" d="M78.4,145.3c0.3,0.6,0.5,1.1,0.7,1.3"/>
		</g>
	</g>
	<g>
		<g>
			<line  stroke-width="2" stroke-miterlimit="10" x1="61.9" y1="111.6" x2="62.7" y2="112.9"/>

				<line  stroke-width="2" stroke-miterlimit="10" stroke-dasharray="3.1294,1.5647" x1="63.4" y1="114.2" x2="79.6" y2="141.9"/>
			<line  stroke-width="2" stroke-miterlimit="10" x1="80" y1="142.6" x2="80.8" y2="143.9"/>
		</g>
	</g>
	<g>
		<g>
			<line  stroke-width="2" stroke-miterlimit="10" x1="85.7" y1="73" x2="86.4" y2="74.3"/>

				<line  stroke-width="2" stroke-miterlimit="10" stroke-dasharray="2.9514,1.4757" x1="87.1" y1="75.7" x2="100.8" y2="102.6"/>
			<line  stroke-width="2" stroke-miterlimit="10" x1="101.1" y1="103.3" x2="101.8" y2="104.6"/>
		</g>
	</g>
	<g>
		<g>
			<line  stroke-width="2" stroke-miterlimit="10" x1="87.9" y1="71.4" x2="88.6" y2="72.7"/>

				<line  stroke-width="2" stroke-miterlimit="10" stroke-dasharray="2.8619,1.4309" x1="89.2" y1="74" x2="102.2" y2="100.3"/>
			<line  stroke-width="2" stroke-miterlimit="10" x1="102.5" y1="101" x2="103.2" y2="102.3"/>
		</g>
	</g>
	<g>
		<g>
			<path  stroke-width="2" stroke-miterlimit="10" d="M118.1,31.8c0,0-0.5,0.2-1.4,0.6"/>
			<path  stroke-width="2" stroke-miterlimit="10" stroke-dasharray="3.0152,1.5076" d="M115.3,33
				c-6.4,2.8-22.2,10.8-32.5,23.9C69.7,73.6,64.4,80,64.4,80s-13.3,14.9-19.9,36.7"/>
			<path  stroke-width="2" stroke-miterlimit="10" d="M44.3,117.5c-0.1,0.5-0.3,1-0.4,1.4"/>
		</g>
	</g>
	<g>
		<g>
			<path  stroke-width="2" stroke-miterlimit="10" d="M42.8,115.4c0,0,0.1-0.5,0.3-1.5"/>
			<path  stroke-width="2" stroke-miterlimit="10" stroke-dasharray="3.0588,1.5294" d="M43.5,112.5
				c1.8-7,7.3-24.8,20.1-37.2L80,56.1c0,0,12.3-16.4,27.9-23.4"/>
			<path  stroke-width="2" stroke-miterlimit="10" d="M108.6,32.4c0.5-0.2,0.9-0.4,1.4-0.6"/>
		</g>
	</g>
	<g>
		<g>
			<path  stroke-width="2" stroke-miterlimit="10" d="M101,33.5c0,0-0.5,0.2-1.4,0.5"/>
			<path  stroke-width="2" stroke-miterlimit="10" stroke-dasharray="2.9487,1.4744" d="M98.2,34.6
				c-5.1,2.2-16.3,8.2-26.8,21C57.2,72.8,55.5,74.5,55.5,74.5s-11.4,20.7-13.4,34.9"/>
			<path  stroke-width="2" stroke-miterlimit="10" d="M42,110.1c-0.1,0.5-0.1,1-0.1,1.5"/>
		</g>
	</g>
	<g>
		<g>
			<path  stroke-width="2" stroke-miterlimit="10" d="M80.1,44.2c0,0-0.4,0.4-1,1.1"/>
			<path  stroke-width="2" stroke-miterlimit="10" stroke-dasharray="2.9007,1.4504" d="M78.1,46.4
				c-4.8,5.3-17,18.7-19.2,20.6c-2.7,2.3-14,18.2-16,32.2"/>
			<path  stroke-width="2" stroke-miterlimit="10" d="M42.8,99.9c-0.1,0.5-0.1,1-0.1,1.5"/>
		</g>
	</g>
</g>
<g id="inf_x5F_vw2_x5F_bnd">
	<path  d="M355.2,242.7c0,0,4.6-6.6-2.8-8.6c-7.5-2-15.6,4.8-15.4,12.7c0.2,7.9-7,38.4-19.4,47c0,0-21.7,21.5-39.4,25.8
		c-17.7,4.3-24.3,5.5-24.3,5.5s-33.1,1.5-50.2-1.3l-8.9-3.1c0,0-12.3-2.8-14.1-3.6c-1.8-0.8-10.8-7.5-13.4-9.6
		c-2.6-2.2-10.9-12.7-10.9-12.7s-8.3-7.3-11.1-12.4c-2.8-5.1-6.5-18.9-6.5-18.9l-4-10.4c0,0-5.6-7.1-12.9-1.3
		c-7.3,5.8-5.6,12.7-5.6,12.7l6.8,8.8c0,0,3.5,7.1,6,10.4c2.5,3.3,6.1,9.8,6.1,9.8s5.3,9.6,6.6,11.8c1.3,2.2,8.1,8.8,8.1,8.8
		l3.8,4.6v4.8c0,0-9.1,13.2-11.6,9.9c-2.5-3.3-1.5,0.5-1.5,0.5s1,12.5,9.9,5.3c8.9-7.3,10.9-14.2,10.9-14.2l6.8-4l1.5,3.1
		c0,0,6.5,3.5,13.1,3.6l13.7,3c0,0,3.6,3.1,12.9,2.6l12.9,1c0,0,4.8,0.5,12.7-0.3c7.9-0.8,15.4-0.5,15.4-0.5s9.3-0.5,12.3-1.7
		c3-1.2,14.4-3.6,14.4-3.6s5-1.3,6.8-2.3s-6.6,7.8-6.6,7.8s-1.2,5.6,4.6,3.1c5.8-2.5,6.8-3.6,6.8-3.6s4-6.3,5.8-7.3
		s8.4-3.5,10.9-5.6c2.5-2.2,2.2-4.8,7.8-6.6l8.1-7.1c0,0,7.3-0.5,13.9-13.6l3.5-9.3c0,0,5.5-11.6,6.6-15.4
		c1.2-3.8,4.5-11.8,5.5-13.9C351.9,252.2,355.2,242.7,355.2,242.7z"/>
</g>
<g id="inf_x5F_vw2_x5F_wlt">
	<g>
		<path  d="M29.5,135.9c0,0-13.1-0.7-10.3,10.8c0,0-1.3,0.3-2.2-3.1c0,0-1.7-10.9,10.4-10.8L29.5,135.9z"/>
		<path  d="M27.8,117.1c0,0-4.1-0.8-4.6,3s2.3,6.3,2.3,6.3s3.5,7.8,3.5,12.3c0,0,5,11.3,8.3,16.2c0,0,22.7,23.2,26.3,29
			l29,35.1c0,0,23.5,31.3,26.2,34.9c0,0,2.6-3.3,3.6-3.6c0,0-25.2-35.6-34.6-46.2s-25.2-32-31.6-37.9c-6.5-6-16.1-13.4-22.2-30
			S27,119.1,27.8,117.1z"/>
		<path  d="M152.3,1.3c0,0-0.7,2.2,0,3.5c0,0,28.1-5.3,37.7,21.9c0,0,4.9,22.2,5.4,24.5c0.5,2.3,2.3,15.2,3.3,18.7
			c1,3.5,3.6,16.2,4.6,33.6c0,0-2,6.8,0,15.7c2,8.9,5-10.9,5-10.9s-5-42.7-7.5-49.3c-2.5-6.6-4.6-8.4-2.8-8.3
			c4,0.2,4.5,5.1,7.6,19.2c3.1,14.1,3.3,16.6,3.8,21.9c0.5,5.3,1.2,20.5-0.8,28.8c-2,8.3-8.6,1.8-8.6,1.8s-2.6-8.1-0.2-19.9
			c0,0-4.5-32.1-5.8-38.2c-1.3-6.1-3.1-15.7-3.1-15.7l-3.3-15.4c0,0-3.5-24.7-30.3-22.7c0,0-26.8,1.7-24.2,14.2
			c2.6,12.6,2.6,12.6,2.6,12.6s1.2,10.6,6.8,19.9c0,0,4.6,11.4,4.8,17.9c0.2,6.5,3.1,16.4,3.1,16.4s0.7,9.8,1.3,13.6
			s3.6,16.7,1.5,23.7l-1.7,1.5c0,0,1.5-18.5-2.8-29.5c0,0-1.2-8.4-2.5-12.7c-1.3-4.3-3.3-11.4-3-14.6c0.3-3.1-2.5-13.7-5.8-19.5
			c-3.3-5.8-5.6-11.3-6-20.9L130,19.5c0,0,1.5-11.1,17.4-13.9l0.3-4.3C147.7,1.3,150.5,1.3,152.3,1.3z"/>
		<path  d="M192.4,27c0,0-1.4-15,21.5-15.2c22.4-0.2,31.5,8.3,32.8,29.3c1.2,19.4,1.7,41.1,1.7,41.1s3.8,28.3,0,45
			s-1.8,13.6-1.8,13.6s4.6,4.8,5.3,0.2s1-6.7,1-6.7s-2.8,9.4-4,2.6c0,0,4.1-17.4,4-34.1c-0.2-16.7-2.5-41.6-2.5-41.6l0.2-22.4
			c0,0,1.5-33.3-34.1-31.1c0,0,0.7-3.8,1.2-4.6h-4.5l-0.2,4.3c0,0-25.2-1.2-21.9,17.1L192.4,27z"/>
		<path  d="M260,30.8c0,0,6.1-10.4,14.9-7.3c8.8,3.1,30.8,10.4,27.8,35.8c-3,25.3-4.1,27.5-4.1,27.5l-2.6,14.9
			c0,0-1.2,37.3-7,50.2c0,0-4.3,8.1,0.2,12.6l1.3-1.7c0,0-4.6-1.3,4.1-23.2c0,0,2.2-16.6,2.6-18.9c0.5-2.3-0.7-13.9,3.6-31.5
			c4.3-17.6,7.8-31.6,7.8-31.6s1.8-25.4-20.5-34.7c0,0,1.8-3.4,3.8-3.1c0,0-2-1.7-5.1-1.7l-3.1,2.8C283.6,21,267.2,13.1,260,30.8z"
			/>
		<path  d="M318.4,52.5c0,0,15.9-13.4,33.4,19.5c0,0,2.6,5.6,1.8,36.9c-0.8,31.3-0.8,34-0.8,34s-2.3,17.8-2.6,24
			s-0.7,17.6-1.7,28c-1,10.4-5.6,32.6-4.6,40.9c0,0,3,0,4.5-2c0,0-1.2-9.1,2.5-22.2c0,0,1-13.9,1.7-22c0.7-8.1,1.5-25.3,2.5-30.8
			c1-5.5,3.3-37.1,3.3-47.5s0-27.2,0-27.2s-1-22.5-14.1-29.6c0,0,1.8-2.8,6-1.8c0,0-1.7-2.8-3.3-2.9c-1.7-0.1-5.6,1.2-6.1,2.7
			C340.8,52.5,331.3,41.6,318.4,52.5z"/>
		<path  d="M302.7,97.9"/>
		<path  d="M300.7,113.8c-0.7,2.5-3.1,13.2-3.6,16.4c-0.5,3.1-2.3,11.6-2.3,11.6s0.8-15.4,3.8-26.3
			c3-10.9,4.1-14.9,4.1-14.9L300.7,113.8z"/>
	</g>
</g>
<g id="inf_x5F_vw2_x5F_lce">
	<g>
		<path  d="M286.6,217.9c0,0-2.3,24.2,32.5,51l3.6,2c0,0,4,1,7,5.3c0,0-0.3,3.3,8.9,8.3c0,0,1.7,4-2.3,8.3
			c0,0-10.9-3-15.9-16.6c0,0-15.4-2.3-19.9-18.5l-2.6-0.3c0,0-12.5-6.1-11.3-21c0,0-7.8-4.5-4.6-19.9
			C282,216.4,284.6,211.1,286.6,217.9z"/>
		<path  d="M243.9,262.6c0,0,0.7-2.6,4.5-2.3c3.8,0.3,4.3-0.9,16.2,1.1v1.2h1l0.7-1.2c0,0,20.9,2.2,23,7
			c0,0,1.5-1.7,4.3,0c2.8,1.7,14.9,9.6,14.9,9.6l1.6,1.5l2.5,5.8c0,0,6.6,12.9,8.8,20.9c0,0-3.5,6-8.4,7.5c0,0,0-9.3-5.3-19.2
			l-0.7-5.8l-1-1.7l-18.5-13.2c0,0-11.3-3-21.5-6.1l-2.2-0.7c0,0-15.1-0.3-16.6-1.3C245.7,264.6,243.9,262.6,243.9,262.6z"/>
		<path  d="M292.1,304.3c0,0,3.6-2.6,4.3-3.3c0.7-0.7,3.3,0.8,3.8,3.3c0.5,2.5,1,7.8,2.3,10.3c0,0,1.3,6.8-0.7,8.8
			c-2,2-6,4-6,4s-1.7,0-2.2-0.8C293.7,326.5,297,327.5,292.1,304.3z"/>
		<path  d="M270.1,313.6c0,0,5.3-2,6.5-2c1.2,0,1.8,2,1.8,2s-0.5,14.6-4.1,18.2c0,0-7.3,2.2-9.6,2.2s-3.5-1.8-3.5-1.8
			s7.9-4.3,8.6-10.8C270.4,314.9,270.1,313.6,270.1,313.6z"/>
		<path  d="M245.7,321.7c0,0-0.2-5.1,3.3-5.5c3.5-0.3,5.3,0,5.3,0s2.2,1.3-0.8,8.1c0,0-1.7,7.6-6.3,11.8h-10.8
			c0,0-1.3,0.8-3.1-2.2C233.3,334,239.4,336.3,245.7,321.7z"/>
		<path  d="M229.3,322.8l-7.8,12.3c0,0-5.5,3-15.1-2.3l4.6-0.3c0,0,7-6.3,10.8-14.4c0,0,4.3-1.8,7.5,0V322.8z"/>
		<path  d="M199.9,314.1l6.6,2l-0.8,4.9c0,0-6.3,7.3-10.1,10.4c0,0-7.9,1.8-14.2-4.1l3.3-0.7
			C184.6,326.6,192.9,325.4,199.9,314.1z"/>
		<path  d="M183.1,314.1c0,0,1.8-1.3,0.8-3.2c-1-1.8-5.8-2.6-5.8-2.6s-14.6,10.6-25,9l-2.5-1.8H148c0,0,3.1,8.3,8.4,9.1
			C161.8,325.4,170.7,324.4,183.1,314.1z"/>
		<path  d="M139.6,302.5c0,0,6.6,9.6,22.7-3.1c0,0,2.8-3.6,5-1c2.2,2.6,2.2,2.6,2.2,2.6s-2.2,12.3-21.4,12.6
			c0,0-7.8-1.7-13.9-14.6C134.1,299,138.9,299.2,139.6,302.5z"/>
		<path  d="M149.2,291.1c0,0-10.3,4-17.7,0c0,0-5.1-4.6-6.6-9.1s2.3-1.2,2.3-1.2s4.6,7.9,18.2,2.2l-3.6-8.9
			c0,0-14.4,3.1-17.2,0l-2.3-1.3c0,0-13.4-2.8-10.3-12.5l4.3,3.4c0,0,4.5,6.3,11.8-1.2c0,0,8.1-2.8,7.3-8.3s-4.1-5.3-4.1-5.3
			l0.7-2.8c0,0,13.9,4,8.3,17.6l3.8-1.7c0,0,1.5,4,3,4.8c1.5,0.8-1.5,5.1-1.5,5.1l6.4,8.1l1.9-0.7l4.8,5.6c0,0-0.7,2.3-2.5,3
			l2.5,2.5l-4.1,5.8L149.2,291.1z"/>
		<path  d="M120.9,291.7l-0.8,2.5h-3.6c0,0,4.8,4.3,12.3,16.2c0,0,7.8,19,9.4,23.5l-4,1.2c0,0,12.3-4-30.6-44.7l-1,1.2
			c0,0-12.4-3-14.4-6.3c-2-3.3,0-8.1,0-8.1l4-8.1c0,0-1.8-14.7-8.4-17.2h-1.2c0,0,0.5,8.8,2,12.3l-4.1-0.2l-3.8-3.5
			c0,0-1.3-16.6-1.8-17.7c-0.5-1.2,0.7-1.7-6-8.6c0,0-2.8-0.8-2.3-6c0,0-0.8-3.1-4.6-4.6c-3.8-1.5-8.6-8.6-8.6-8.6s-0.5-3.8,0-9.9
			c0,0-14.7-15.6-15.4-16.6c-0.7-1-3.5-5.3-2.5-7c1-1.7,3.6-1.7,3.6-1.7l12.4,11.4c0,0,6.3,6.3,7.3,8.1c1,1.8,1.7,0.8,1.7,0.8
			l7.5,9.1c0,0,2.6,6.5,5.8,9.6c3.1,3.1,2.8,5.5,2.8,5.5l12.1,14.2l6.5,9.6l-1.5,0.8c0,0,5.3,6,7.3,8.4l1.7,1.5c0,0,1.5,4.1,4.5,8.8
			s5.8,7.3,6.8,9.8C114.6,280,121.4,290.3,120.9,291.7z"/>
		<path  d="M16.9,133.3c0,0-0.7,9.4,1.2,12.4l-1.3,0.7c0,0,20.2,57.6,31.6,72.9c0,0,1.3,3-2,3.1
			c-3.3,0.2-6.3,0.7-6.3,0.7S10.3,172.5,6,146c0,0-6.1-2.3-5.1-11.1l1.2-2.3l0.3-3.3l7.3-2.5c0,0,2.2,0.2,3.5,1.2h0.8
			c0,0-1.5-7.1,1.2-10.3c2.6-3.1,6.6-3.5,6.6-3.5l5.5,1.2c-2.1,1.4-3.4,2.9-4,4.5c0,0-4.8,1.2-5.8,6.6L16.9,133.3z"/>
		<path  d="M129,128.3l1,6.5l11.6,9.1l-3.5,7.1l-7.5-6.6c0,0-0.2,11.9,3.1,15.7l-4.8,9.3c0,0-6.8-9.4-8.3-15.7
			c-1.5-6.3-4-10.8-4-10.8L129,128.3z"/>
		<path  d="M106.1,173.5l-1.2,3.8c0,0-3-0.5-4.3,0v4.3l3.6,5.1c0,0,10.4,7.9,12.4,10.9s1.2-6,1.2-6l-1.2-2.3l3.6-5.6
			C120.4,183.8,106.8,178,106.1,173.5z"/>
		<path  d="M32.5,115.2c0,0,1-5.3,11.4,3.6v2.2c0,0,15.1,3,20.5,17.7c0,0-1.7,1.7-2.2,3.1c0,0-8.6-9.3-14.6-11.3l-6-4.3
			l-0.7-1.7l-4.6-6C36.4,118.7,36.6,117.4,32.5,115.2z"/>
		<path  d="M74.7,164.1c0,0-1.7-2.8-1.2-3.8c11.8,1.3,17.9,14.5,17.7,20.4c0,1,12.1,2.6,17.2,20.2
			c0,0,16.7,5.8,18.4,18.7c0,0,7.1-3.1,16.6,17.1v3.6c0,0-10.9-14.1-17.2-16.1l-1.8-2.6c0,0-3.3-8.1-11.8-12.9l-3.5-2.8
			c0,0-1.3-2.3-2.5-4.5c-1.2-2.2-9.1-11.9-11.9-13.9c-2.8-2-4-3.6-4-3.6l-1.3-2.2l-14.6-16.6L74.7,164.1z"/>
		<path  d="M102.7,97.4l-4.5-8.9c0,0,5.3-8.4,6.5-10.1l7,3.1C111.6,81.5,102.8,96.4,102.7,97.4z"/>
		<path  d="M134.1,48.8l-5,1.2c0,0-1.7,6.5,0,13.1c0,0-4.9,4-0.7,8.6c0,0,3.1,3,5.7,2.3v2.6l2.6,4.8l3-2.5
			c0,0,1.5-4.1-1.5-13.8l-0.2-2.7l-1-0.8l-0.8-7.1C136.3,54.5,134.6,51.2,134.1,48.8z"/>
		<path  d="M124.8,20.9c0,0,6.3,6.3,14.6,4.5l5.5,0.3c0,0,3.1-0.2,5,2.5l0.8,1.5c0,0,2.8,9.8,5.1,14.6l-7,4.6
			c0,0-1.2-3-7.5-14c0,0-3.2-0.1-14.7-4.1C126.7,30.8,124.2,27.3,124.8,20.9z"/>
		<path  d="M140.1,93.4c0,0,1.9-2.6,3.9-2.5l2.2,9.1h-1.8C144.4,100,141.2,95.2,140.1,93.4z"/>
		<path  d="M128.2,14.9l-2.3,1.8v-5.3l-1.1-2.6c0,0,3.1-4.3,10.7-2.5C135.4,6.3,128.2,11.3,128.2,14.9z"/>
		<path  d="M167.6,24c0,0,3-0.8,5,0c2,0.8,11.1,11.6,13.1,11.9s14.6-8.4,14.6-8.4l3.3-2.2c0,0,3.1,3.9,5.3,4.5
			c0,0-5,9.1-9.6,12.1c0,0,6.1,1.5,9.6,0c0,0,3,2,4.3,3.3c0,0-0.8,4-2.8,5.8c-2,1.8-17.2-1.2-21.2-3.3c0,0-8.3,2.5-10.4,1.2
			c-2.2-1.3,1.3,0.2-3.3-4.6c0,0-0.8-3.8,2.8-2.8c0,0-7.6-6.8-8.4-8.8C168.9,30.6,167.6,24,167.6,24z"/>
		<path  d="M229.5,27.5l6,1.2c0,0,5.6,11.9,8.9,13.2c3.3,1.3,18-4.3,18-4.3s3.6-2.3,6.1,1.3c0,0,3.8,2.6,0,6.3
			c-3.8,3.6-15.4,5.6-15.4,5.6s5.6,1.5,8.1,3.3c1.2,0.8,5.8,3.5,6.3,5.6c0.5,2.2-5.5,6-5.5,6s-16.6-7.1-20.9-10.9l-3.6,1
			c0,0-4.8-2-5.1-3c-0.3-1-1.2-5.3-1.2-5.3l2.8-2.5l-4.6-6.8V27.5z"/>
		<path  d="M287.6,46.6c0,0-4.1,10.2,0,18.1c0,0-5.3,0.7-3.8,6.3c1.5,5.6,6.5,3.8,6.5,3.8s10.8,13.6,12.4,15.4
			s5.8,2.6,5.8,2.6s2.6,0.2,2.6-4.1c0-4.3-2-6.8-2-6.8s-7.5-7.9-8.3-9.9c0,0,10.9-2.9,14.9-2.3c4,0.6,3.3-10.1,3.3-10.1l-2-1.3
			l-21.2,3.6l-3.1-12.3L287.6,46.6z"/>
		<path  d="M322.5,106.3c0,0,4.1-4.1,3.8,1.7c-0.3,5.8-1.8,21.9-1.9,28.1c-0.1,6.3-1.9,7.6-1.9,7.6s-4.8,12.9-3.5,24.7
			l-0.2,7.1c0,0-6.9,7.3-4.1,19.2c0,0-3.1,6.1-4.7-1.5s-4.8-14.7,4.2-25.2c0,0-8.9-14.7,5.6-32C319.9,136.1,312.6,123,322.5,106.3z"
			/>
		<path  d="M289.9,176.7c0,0-3-5.3-4.3-2.8c-1.3,2.5-4.1,11.3-2.3,19.2c1.8,7.9,6.6,0.7,6.6,0.7V176.7z"/>
		<path  d="M364.8,85.3c0,0,2.2,9.1,2.3,12.7c0,0.8,0.1,2.2,0.2,4c0.3,6.4,0.6,17.5-0.2,22.7c0,0,0.5,4,4,8.4l8.9-3.6
			V128l-11.8-24.8c0,0-1.3-1.5-0.3-4.5c1-3,2.5-5.8,2.5-5.8s1.2-2.5,0.2-3.6C369.6,88.1,367.3,85.8,364.8,85.3z"/>
		<path  d="M347.4,50.5c0,0-7.8-3.5-12.7-3.9c0,0,7.3-5.6,13.4,1.9l0.8,1.9H347.4z"/>
		<path  d="M138.1,183.6c0,0-8.1,6.8-8.9,13.1c-0.8,6.3,7.3,3.6,7.3,3.6l7-11.7C143.4,188.6,138.8,184.9,138.1,183.6z"/>
		<path  d="M147.2,165.9l7.6-17.1c0,0,1.7-2.3,4.1,0c2.5,2.3,2.3,3.5,2.3,3.5s-6.3,15.9-7,17.1S147.2,165.9,147.2,165.9z
			"/>
		<path  d="M161.3,89.1l1.8-2.8h4.6c0,0,4.8,6.8,3,19.9c0,0-4.5,2.5-6,2C163.3,107.6,162.8,90.7,161.3,89.1z"/>
		<path  d="M260.6,282c0,0-5,4.1,0,6.1c5,2,17.6,1,17.6,1s4.8-2.5,0-7.1C278.2,282,269.7,279.7,260.6,282z"/>
		<path  d="M239.8,280.9c0,0,5.8,2.4,0.8,6.7h-13.1l-4.8-0.7c0,0-1.8-2.9,0-6C222.7,280.9,234.5,279.8,239.8,280.9z"/>
		<path  d="M203.7,279c0,0-11.8-5-18.5-5c0,0-1.5,3.1,0,6.9l17.1,4.2C202.2,285.1,206.5,282.6,203.7,279z"/>
		<path  d="M158.5,252.2c0,0-1.2,2.2,0.7,5.3c1.8,3.1,6.3,10.8,7.9,11.6c1.7,0.8,3.6-1.2,3.6-1.8c0-0.7,0-2.6,0-2.6
			S164.9,253.8,158.5,252.2z"/>
		<path  d="M209,262.1c0,0,7.1,1.3,10.3,2.5c3.1,1.2,4.3-3.1,4.3-3.1s-4.2-6.8-18.9-5l-2.1,1.8
			C202.5,258.3,205.2,261.4,209,262.1z"/>
		<path  d="M170.7,252.2c0,0-4.3-3.1-4.3-6.1s15.1,1.2,17.4,6.1s-5,3-5,3S173,249.9,170.7,252.2z"/>
		<path  d="M138.1,219.1v3.3l9.1,12.3c0,0,1.7,2,2.2,0.8c0.5-1.2,0-3,0-3S141.6,220.7,138.1,219.1z"/>
		<path  d="M21.7,80.3c0,0-3.3,6-4.5,6.8c-1.2,0.8,0,2.8,0,2.8s0.2,1.2-1.3,2.3s-0.5,4.6-2.6,6.8c0,0-0.2,3.8,2,5.5
			c2.2,1.7-3-13.6,21.5,2.6c0,0,3.5,5.3,4.3,0c0.8-5.3-4.1-15.1-4.1-15.1S30,78.2,21.7,80.3z"/>
		<path  d="M25.7,76.7c0,0,10.8,4.3,12.4,15.2c0,0-0.1,7.6,3.1,2.2c3.2-5.5,3.9-6.2,3.9-6.2s2.2-16.5-15.9-20.3l-4.5,7.1
			C24.7,74.7,24.3,77.3,25.7,76.7z"/>
		<path  d="M41.2,54c0,0,13.8,6.8,10.3,19.9s-6.4,7.9-6.4,7.9l-0.9-4.3c0,0-0.5-12.3-9.3-15.2l-1.3,1.5
			c0,0-0.8-4.1,1.3-6.1c2.1-2,3.5-3.6,3.5-3.6S38.9,53.8,41.2,54z"/>
		<path  d="M45.1,49.7c0,0,7.5,6.9,7.7,18.7l0.8,3c0,0,6.6-4.5,7.1-7.8c0.5-3.3,1.9-12.7-7.8-21.2h-3.3
			c0,0-3.3,3.6-4.6,3.8C43.9,46.4,44.4,48.9,45.1,49.7z"/>
		<path  d="M55.5,38.9c0.5,0.6,8.6,11.4,6.5,19.5c0,0-0.4,1.7,0.4,2.6c0.8,1,8.6-6.8,8.7-8.3c0.2-1.5,7.1-8.6,10.9-10.4
			c3.8-1.8,8.6-3.8,10.4-5.6s1.5-4.3,1.5-4.3s4.5,0.8,7.3,0c2.8-0.8,3.7-21.2,3.7-21.2s4.7,8.9,0.9,15.7c0,0-1.2,2.2,0.7,2.2
			s7,0.8,8.3,0.2c1.3-0.7,3.3-3.5,3.3-6.5s0-10.1-3.8-15.2l-1.5-1.8L104.9,7c0,0,0.1-0.8-2.2-0.3s-5.8,2-7,2s-1.2,4.1-1.2,4.1
			s2.2,14.9-1.3,18.7c0,0,1.3-14.2-0.5-18.2l-2.3-2c0,0-3.8,1.5-6.5,2.3c-2.6,0.8,1.5,21.2-1.7,24c0,0-3-14.6-5.3-16.7l-3.8-1
			c0,0-4.8,4.6-6,4.8s0.2,4.3,0.2,4.3s6.7,12.6,4,19.9c0,0-2.2-12.3-7.6-16.9l-3.5-0.8l-5.6,5.1C54.6,36.3,54.2,37.3,55.5,38.9z"/>
		<path  d="M327.8,258.1c0,0-3.5,6.3,1,10.8c4.5,4.5,8.6,8.9,15.1,7.3c0,0,2.2-2,3.1-5.3c1-3.3,0-3.5,0-3.5
			s-5.8,3.9-13.4-5.6C333.6,261.8,331.7,258,327.8,258.1z"/>
		<path  d="M328.2,242.9c0.6,0.2,3,1,4.1,1.8c1.2,0.8,3.3,0.7,3.3,0.7s1.7,7.6,17.4,1c0,0,3-3,3-3.5s-3.1,7.6-4.3,10.7
			l-1,6.6c0,0-3.3,2-3.2,3c0,0-20.6,2.2-21.6-16.6C325.9,246.7,325.6,242,328.2,242.9z"/>
	</g>
</g>
<g id="inf_x5F_open_x5F_pocket">

		<image id="glove-view-2" overflow="visible" width="765" height="703" xlink:href="./assets/images/9P_infield_swelt_pocket_view.png"  transform="matrix(0.4967 0 0 0.4967 0 0)">
	</image>
</g>
</svg>
