<?xml version="1.0" encoding="utf-8"?>
<!-- Generator: Adobe Illustrator 20.1.0, SVG Export Plug-In . SVG Version: 6.00 Build 0)  -->
<svg version="1.1" id="Layer_1" xmlns="http://www.w3.org/2000/svg" xmlns:xlink="http://www.w3.org/1999/xlink" x="0px" y="0px"
	 viewBox="0 0 375 350" enable-background="new 0 0 375 350" xml:space="preserve">
<g id="fbase_x5F_vw2_x5F_plm">
	<path  d="M28.2,99.9c0,0-3.1,7.5,9.4,29.1s16.6,28.8,16.6,28.8L91.3,215c0,0,27.2,36.9,43.5,60.7c0,0,3.1,15,10.9,29.4
		c7.8,14.4,26.9,27.2,26.9,27.2s33.2,10.9,64.7,8.8s61.3-23.1,71.6-32.8c10.3-9.7,30.6-31.6,35-38.1c4.4-6.6,16.9-33.2,19.1-46.9
		c2.2-13.7,2.2-87.9-22.2-121.7S299,29.9,213.3,13.9c0,0-67.2-6-65.4,23.8c1.9,29.7,15.3,37.5,15.3,37.5l4.1,5.3l1.5,10
		c0,0,17.5,20,4.7,34.1l-3.4-7.2l-12.2,5.6c-4.3,0-27.8,28.5-59.7,54.3l-1.3,1.6c0,0-35.3-42.8-41.9-55s-20.6-17.5-20.6-17.5
		L28.2,99.9z"/>
	<path  d="M19.7,122.1c0,0,6,8.1,13.1,21.9s36,63.2,36,63.2L96,244.2c0,0,20.3,22.8,26.6,34.4
		c6.2,11.6,23.8,38.1,25.3,44.7c1.5,6.6,3.8,7.5,0,9.4c-3.8,1.9-7.2-5.3-7.2-5.3l-60.4-92.9c0,0-3.1-3.8-11.3-15.6
		C61,206.9,26.3,154,26.3,154l-11.9-13.1L19.7,122.1z"/>
</g>
<g id="fbase_x5F_vw2_x5F_bnd">
	<path  d="M19.7,104.6l4.5-11.5c0,0,4,0.9,3.8,7c-0.2,6.1-1.6,7,4.2,17.8s9.9,16.9,14.5,26.5
		c4.7,9.6,15.2,26.7,15.2,26.7l6.3,9.4l16.2,24.9l7.7,11.3l5.4,8.2c0,0,3.8,2.1,8.7,11.5c4.9,9.4,4.9,8.2,4.9,8.2s4.5,1.9,11.7,12.9
		c7.3,11,11.7,17.6,11.7,17.6l4.7,8.9c0,0,0.5,3.3,4.5,11c4,7.7,7.5,16.7,22.3,28.4c14.8,11.7,34,12.4,34,12.4s23.7,7.7,57-2.8
		l7.7-0.5c0,0,0,0.5,19.9-13.4l18.3-14.1l12.2-9.9l6.3-7.5c0,0,9.4-3.5,16.4-16.4c7-12.9,15-28.9,15-28.9l1.2-9.9
		c0,0,6.8-18.3,4.9-30.5c0,0,2.3-4.7,1.9-16.2c-0.5-11.5-1.9-11-1.9-11s0-9.4-1.4-17.1c-1.4-7.7-3.5-9.4-3.5-9.4s-3.5-12.7-7.3-24.4
		s-4.7-9.9-4.7-9.9l-8.9-17.6c0,0-19.5-31.2-46.9-46.9c0,0-22.1-17.8-29.8-19.7c0,0-8-6.1-15-6.1c0,0-32.8-12.7-68-4.5
		c0,0-24.9,3.8-23,18.3c1.9,14.5,7,26.7,7,26.7l6.3,4l3.5,4.5l-0.9,4l3.3,4.2c0,0-2.6,5.9,7.5,16.7c10.1,10.8-2.3,28.2-2.3,28.2
		l-2.8-2.3c0,0,7.5-15.5,2.1-24.4c0,0-8.2-12.2-8.9-15.5c-0.7-3.3-0.9-4.5-0.9-4.5s-7.1,0.9-11.3-10.6c-4.7-12.9-2.8-15-3-19
		s-4.9-11-2.3-19.7s8.2-14.8,8.2-14.8s4.7-4.7,15.2-7.3c10.6-2.6,20.6-2.8,20.6-2.8s22.5,0.5,29.6,1.6s18.8,4.5,18.8,4.5
		s11,2.6,17.4,5.4c6.3,2.8,9.6,4.5,9.6,4.5s8.4,2.3,15,8c6.6,5.6,10.1,8,10.1,8l12.7,9.1l10.6,9.6c0,0,10.8,9.9,16.9,18.3
		c6.1,8.4,13.4,15.7,16.9,25.3s7,15.5,7,15.5l6.8,17.6c0,0,10.1,22.3,9.9,42.5c0,0,1.2,5.6,0,15.5c-1.2,9.9-0.9,15-0.9,15
		s-3.8,17.1-5.2,22.3s-4,11.3-4,11.3s-0.7,6.8-7,15l-4.5,12.4L339,282c0,0-8.2,11.5-13.4,16.9s-15.5,13.6-15.5,13.6s0.2,0.5-5.6,5.4
		c-5.9,4.9-12.2,8.9-12.2,8.9L278,336.9c0,0-16.2,10.1-18.3,6.3l-9.9-0.2l-10.3,1.1h-12.2c0,0-46-4.1-59.6-11.9
		c-13.6-7.7-13.1-4.9-13.1-4.9s2.1,7-9.4,9.9l-2.3-5.9c0,0,5.4-2.6,4.9-4.5c-0.5-1.9-9.9-13.8-9.9-13.8s-4.7-3.3-4.7-8.9l-5.4-8.9
		c0,0-5.4-7.7-6.1-10.6c-0.7-2.8-6.6-10.3-6.6-10.3l-12-17.4c0,0-4.9-5.9-9.4-11.7c-4.5-5.9-5.2-7.3-5.2-7.3s-6.8-6.8-9.1-11.7
		c-2.3-4.9-15-20.4-15-20.4L50,180.4l-15-27l-4.5-9.6c0,0-9.6-15.2-10.8-16.7c-1.2-1.4-8.4-12-8.4-12s-4.2-6.1-2.3-11.3
		S19.7,104.6,19.7,104.6z"/>
</g>
<g id="fbase_x5F_vw2_x5F_web">
	<path  d="M16.4,87.7v8.7c0,0-6.1,0.2-9.1,3.3c-3,3-1.9,8.9-1.9,8.9s4.2-0.7,5.4,5.6c1.2,6.3,2.6,12.4,2.6,12.4h-2.6
		c0,0-2.8-0.2-3.3-8c0,0-4.9-7-5.2-11.5c-0.2-4.5,0.2-10.1,14.1-25.6h1.4c0,0-0.7-17.4,12.7-26.3l5.2-7c0,0,1.9-1.4,3-4.9
		c1.2-3.5,5.4-5.9,5.4-5.9l5.4-4.9l6.6-4.7c0,0,4.9-2.6,6.1-5.2l8.7-3.3l6.6-3.3l8.7-2.6h4.7l9.6-3.8c0,0,1.4,1.4,5.2,0
		s25.8-4.2,25.8-4.2L146.6,3c0,0,22.5-7.3,34.5,1.6l-8.2,3l-14.1,0.7c0,0-2.1-4.9-8.4-0.5l-3.3,20.2c-21,1.3-38.1,8.6-54.4,19.7
		l3.8,10.8c17.3-9.8,34.2-18.9,46-20.6c0,0,4.2,10.3,7,13.8c-0.7,4.2,2.6,11.6,2.6,11.6l1.2,4.8c0,0-31.4,11.5-40.1,20.6l8.4,14.5
		c0,0,29.8-18.5,42.5-22.3c0,0,1.4,10.8,5.4,15.5l7.3,16.4c0,0,0.2,0.5-6.3,3.5c0,0-1.2,1.6-8.9,5.2s-17.6,7-23.5,11.7
		c0,0-0.9,3.3,4.5,6.8c0,0,0.7,1.2-28.6,25.1l-4.9-7.7c0,0-2.6,2.8-14.8,18.8l-14.5-17.6l-7.3-10.1c0,0,10.1-6.1,17.8-18.8
		c0,0-5.2-12.9-7.5-11.5c-2.3,1.4-15,21.6-15,21.6s1.4-3.5-5.4-6.1c0,0-6.8-8.7-12.2-16l-5.2-5.6c0,0,14.5-14.5,20.9-24l-6.8-11.9
		c0,0-1.4-1.2-2.6,1.4c-1.2,2.6-7.5,11.7-12.4,20.9c0,0-0.7,1.9-6.1,7.3l-4.5-10.8C33.3,95.2,26,81.7,16.4,87.7z"/>
</g>
<g id="fbase_x5F_vw2_x5F_stch">
	<g>
		<g>
			<path  stroke="#000000" stroke-miterlimit="10" stroke-dasharray="3,1.5" d="M84.5,161.9l0.5,0.5c0,0,0.1-0.2,0.4-0.6
				"/>
			<path  stroke="#000000" stroke-miterlimit="10" stroke-dasharray="3,1.5" d="M85.7,161.3c4.5-6.6,28.4-39.4,80.4-60.3
				"/>
			<path  stroke="#000000" stroke-miterlimit="10" stroke-dasharray="3,1.5" d="M166.4,100.8c0.2-0.1,0.4-0.2,0.7-0.3
				v-0.7"/>
			<path  stroke="#000000" stroke-miterlimit="10" stroke-dasharray="3,1.5" d="M167,98.8v-0.7c0,0-0.2,0.1-0.7,0.2"/>
			<path  stroke="#000000" stroke-miterlimit="10" stroke-dasharray="3,1.5" d="M165.7,98.6c-8.4,3.4-55.9,24-82.1,60.9"
				/>
			<path  stroke="#000000" stroke-miterlimit="10" stroke-dasharray="3,1.5" d="M83.5,159.7c-0.1,0.2-0.3,0.4-0.4,0.6
				l0.5,0.5"/>

				<line  stroke="#000000" stroke-miterlimit="10" stroke-dasharray="3,1.5" x1="83.7" y1="161.1" x2="84.4" y2="161.8"/>
		</g>
	</g>
	<g>
		<g>

				<line  stroke="#000000" stroke-miterlimit="10" stroke-dasharray="3,1.5" x1="97.4" y1="102.5" x2="97.7" y2="103.1"/>
			<line  stroke="#000000" stroke-miterlimit="10" stroke-dasharray="3,1.5" x1="98.1" y1="103.7" x2="105" y2="114.9"/>

				<line  stroke="#000000" stroke-miterlimit="10" stroke-dasharray="3,1.5" x1="105.2" y1="115.3" x2="105.6" y2="115.9"/>
		</g>
	</g>
	<g>
		<g>

				<line  stroke="#000000" stroke-miterlimit="10" stroke-dasharray="3,1.5" x1="95.9" y1="105.8" x2="96.4" y2="106.4"/>

				<line  stroke="#000000" stroke-miterlimit="10" stroke-dasharray="3,1.5" x1="96.7" y1="106.9" x2="103.5" y2="116.2"/>

				<line  stroke="#000000" stroke-miterlimit="10" stroke-dasharray="3,1.5" x1="103.7" y1="116.5" x2="104.2" y2="117.1"/>
		</g>
	</g>
	<g>
		<g>

				<line  stroke="#000000" stroke-miterlimit="10" stroke-dasharray="3,1.5" x1="100.1" y1="100.5" x2="100.4" y2="101.2"/>

				<line  stroke="#000000" stroke-miterlimit="10" stroke-dasharray="3,1.5" x1="100.8" y1="101.8" x2="107.8" y2="112.6"/>

				<line  stroke="#000000" stroke-miterlimit="10" stroke-dasharray="3,1.5" x1="108" y1="112.9" x2="108.3" y2="113.5"/>
		</g>
	</g>
	<g>
		<g>

				<line  stroke="#000000" stroke-miterlimit="10" stroke-dasharray="3,1.5" x1="101.5" y1="99.9" x2="101.9" y2="100.4"/>

				<line  stroke="#000000" stroke-miterlimit="10" stroke-dasharray="3,1.5" x1="102.2" y1="101" x2="108.9" y2="110.8"/>

				<line  stroke="#000000" stroke-miterlimit="10" stroke-dasharray="3,1.5" x1="109.2" y1="111.1" x2="109.6" y2="111.7"/>
		</g>
	</g>
	<g>
		<g>
			<line  stroke="#000000" stroke-miterlimit="10" stroke-dasharray="3,1.5" x1="71.1" y1="63.1" x2="71.5" y2="63.7"/>
			<line  stroke="#000000" stroke-miterlimit="10" stroke-dasharray="3,1.5" x1="71.8" y1="64.2" x2="78" y2="73.8"/>
			<line  stroke="#000000" stroke-miterlimit="10" stroke-dasharray="3,1.5" x1="78.2" y1="74" x2="78.6" y2="74.6"/>
		</g>
	</g>
	<g>
		<g>
			<line  stroke="#000000" stroke-miterlimit="10" stroke-dasharray="3,1.5" x1="72.1" y1="61" x2="72.5" y2="61.6"/>
			<line  stroke="#000000" stroke-miterlimit="10" stroke-dasharray="3,1.5" x1="72.9" y1="62.2" x2="79.8" y2="72.5"/>
			<line  stroke="#000000" stroke-miterlimit="10" stroke-dasharray="3,1.5" x1="79.9" y1="72.8" x2="80.4" y2="73.3"/>
		</g>
	</g>
	<g>
		<g>
			<line  stroke="#000000" stroke-miterlimit="10" stroke-dasharray="3,1.5" x1="76.2" y1="58.9" x2="76.6" y2="59.5"/>
			<line  stroke="#000000" stroke-miterlimit="10" stroke-dasharray="3,1.5" x1="76.9" y1="60.1" x2="82.5" y2="69.7"/>
			<line  stroke="#000000" stroke-miterlimit="10" stroke-dasharray="3,1.5" x1="82.7" y1="70" x2="83" y2="70.6"/>
		</g>
	</g>
	<g>
		<g>
			<line  stroke="#000000" stroke-miterlimit="10" stroke-dasharray="3,1.5" x1="78.6" y1="57.7" x2="78.9" y2="58.4"/>
			<line  stroke="#000000" stroke-miterlimit="10" stroke-dasharray="3,1.5" x1="79.2" y1="59" x2="83.5" y2="67.9"/>
			<line  stroke="#000000" stroke-miterlimit="10" stroke-dasharray="3,1.5" x1="83.7" y1="68.2" x2="84" y2="68.9"/>
		</g>
	</g>
	<g>
		<g>
			<path  stroke="#000000" stroke-miterlimit="10" stroke-dasharray="3,1.5" d="M147.1,28.2c0,0-0.2,0-0.7-0.1"/>
			<path  stroke="#000000" stroke-miterlimit="10" stroke-dasharray="3,1.5" d="M145.7,27.9c-4.8-0.6-22.5-0.8-54,16.9
				C54.2,65.9,44.8,97,44.8,97l-5.5,4.8"/>
			<path  stroke="#000000" stroke-miterlimit="10" stroke-dasharray="3,1.5" d="M39,102l-0.5,0.5c0,0,0.1-0.2,0.3-0.7"/>
			<path  stroke="#000000" stroke-miterlimit="10" stroke-dasharray="3,1.5" d="M39,101.2c2.2-4.9,10.6-22.4,19.6-32.4
				c10.6-11.6,12.7-13.5,18.8-18.2c3-2.3,4.5-3.4,5.3-4"/>
			<path  stroke="#000000" stroke-miterlimit="10" stroke-dasharray="3,1.5" d="M82.9,46.4c0.6-0.4,0.6-0.4,0.6-0.4
				s0.2-0.1,0.6-0.3"/>
			<path  stroke="#000000" stroke-miterlimit="10" stroke-dasharray="3,1.5" d="M84.7,45.3c6.2-3.2,34.8-17.5,56.6-20"/>
			<path  stroke="#000000" stroke-miterlimit="10" stroke-dasharray="3,1.5" d="M141.7,25.3c0.2,0,0.5,0,0.7-0.1"/>
		</g>
	</g>
	<g>
		<g>
			<path  stroke="#000000" stroke-miterlimit="10" stroke-dasharray="3,1.5" d="M150.6,37.8c0,0,0-0.2,0-0.7"/>
			<path  stroke="#000000" stroke-miterlimit="10" stroke-dasharray="3,1.5" d="M150.7,36.4c0.6-4.8,6.1-20.1,53.2-18.8
				c55.8,1.5,100.4,46.3,100.4,46.3s50.8,48,54.9,111.1c4.1,63.2-20.6,93.8-20.6,93.8s-3.9,11.2-23.3,26.5s-33.5,25.9-33.5,25.9
				s-22.7,20.5-61.3,17s-48.3-10.7-48.3-10.7s-23.2-13-31.4-39.1c-8.2-26-48.6-71.8-48.6-71.8L56,160.6c0,0-23.6-42.1-26.9-50.4"/>
			<path  stroke="#000000" stroke-miterlimit="10" stroke-dasharray="3,1.5" d="M28.9,109.9c-0.1-0.3-0.2-0.5-0.2-0.7"/>
		</g>
	</g>
	<g>
		<g>
			<path  stroke="#000000" stroke-miterlimit="10" stroke-dasharray="3,1.5" d="M111.4,182.8c0,0,0.2-0.1,0.6-0.3"/>
			<path  stroke="#000000" stroke-miterlimit="10" stroke-dasharray="3,1.5" d="M112.6,182.1
				c6.1-3.4,32.8-19.8,55.9-54.6"/>
			<path  stroke="#000000" stroke-miterlimit="10" stroke-dasharray="3,1.5" d="M168.7,127.2c0.1-0.2,0.3-0.4,0.4-0.6"/>
		</g>
	</g>
	<g>
		<g>
			<path  stroke="#000000" stroke-miterlimit="10" stroke-dasharray="3,1.5" d="M113.6,184c0,0,0.2-0.1,0.6-0.4"/>
			<path  stroke="#000000" stroke-miterlimit="10" stroke-dasharray="3,1.5" d="M114.9,183.3c6.3-3.8,35.9-23,56.2-53.9"
				/>
			<path  stroke="#000000" stroke-miterlimit="10" stroke-dasharray="3,1.5" d="M171.2,129.2c0.1-0.2,0.2-0.4,0.4-0.6"/>
		</g>
	</g>
	<g>
		<g>
			<path  stroke="#000000" stroke-miterlimit="10" stroke-dasharray="3,1.5" d="M24.1,133.7c0,0,0.1,0.2,0.3,0.6"/>
			<path  stroke="#000000" stroke-miterlimit="10" stroke-dasharray="3,1.5" d="M24.8,134.9c2.9,5.1,13.8,24.9,17.8,33.6
				"/>
			<path  stroke="#000000" stroke-miterlimit="10" stroke-dasharray="3,1.5" d="M42.7,168.9c0.1,0.2,0.2,0.4,0.3,0.7"/>
		</g>
	</g>
</g>
<g id="fbase_x5F_vw2_x5F_lce">
	<path  d="M17.1,87.3c0,0-1.9,5.9,0,9.6c0,0-11.3-2.1-11.3,10.1l1.9,2.1c0,0-1.9-12,20.6-1.6l8,4.2c0,0,2.6-1.9-2.3-15.2
		l-7.7-9.1c0,0-2.1,2.6-1.4,5.9l4,8.7l-5.4-4.7c0,0,1.3-5.9,0.5-9.9C23.9,87.3,21.1,80.9,17.1,87.3z"/>
	<path  d="M18.3,75.3c0,0,5.6-11.7,18.7,5.4c0,0,1.9-1.7,1.9-9.3c0,0,1.6,1.8,5.2-7.3l1.6-3c0,0,4.2-0.2,5.4-4.7
		c1.2-4.5,1.2-10.1-6.6-19.2h-3.8c0,0-6.6,3.8-3.8,8c0,0,4.7-2.3,6.8,12.7c0,0-3.3-9.1-9.9-9.6c0,0-3.3-0.5-4.7,4.7
		c0,0,6.1,4.9,7.7,13.8c0,0-4.6-10.1-11.9-7.7C17.8,61.2,18.3,75.3,18.3,75.3z"/>
	<path  d="M129.5,4h-4.7c0,0,0-2.6-5.2,0s-12,1.6-12,1.6s-7,12-7,16s1.9,3,1.9,3l6.6,0.1l3.3-5.3l1.6,3.8l7.3-0.2
		c0,0,1.4-1.9,1.2-7.7c0,0,1.2-1.9,3.5,6.6c0,0,7.5-0.7,6.8-1.2c-0.7-0.5,0-6.8,0-6.8l-1-6.3L129.5,4z"/>
	<path  d="M100.6,9.9c0,0-2.6,4.7-2.1,17.1c0,0-3.5,5.6-10.8,2.3c0,0,3.8-14.9,3.5-15.5c-0.2-0.7-0.9-2.1-0.9-2.1l2.1-3
		L99,7.5L100.6,9.9z"/>
	<path  d="M86.8,13.8c0,0-2.3,1.2-1.9,10.9s-11,10.7-11,10.7s2.8-13.4,2.3-17.8s2.8-3.8,2.8-3.8S84.9,10.5,86.8,13.8z"/>
	<path  d="M71.5,18.9c0,0-2.3,3.4,0,9.9c2.3,6.6-3.8,13.1-3.8,13.1s-6.3,3-6.1,0s1.6-5.9,0-19.5c0,0-0.7-2,4-3.6
		C65.7,18.9,69.7,17,71.5,18.9z"/>
	<path  d="M56.5,27.4c0,0,4.9,14.5,3.8,20.6l-5.9,2.6c0,0-1.6-0.7-1.6-4.5c0-3.8-4.5-13.4-4.5-13.4s-1.4-3,1.4-3.8
		l4.5-2.8L56.5,27.4z"/>
	<path  d="M149.4,15.2l-1.9,8.6c0,0,4.7,10.1,8.9,9.4c4.2-0.7,3.8,0.9,4.9-2.6l-3.3-4.4L149.4,15.2z"/>
	<path  d="M150.4,7.5v6.3l6.8,5.2c0,0,2.5-2.7,5.2-3.5c0.4-0.1,0.8-0.2,1.1-0.2c3-0.2-0.4,0-0.4,0s2.7,9.8,12.1,13.8
		c0,0,4.2,1.4,4-2.8c0,0-11.7-8.2-7.5-18.8c0,0,0.2-3.8-6.9,0l-1.5,2.3l-7.3-4C156,5.8,152.2,5.2,150.4,7.5z"/>
	<path  d="M186.3,52.8c0,0,13.8,0,22-0.8l2.6,5.9c-12.4,3-14.4,2.1-21.7,1.7L186.3,52.8z"/>
	<path  d="M193.1,4.7c0,0-6.8,5.2,2.3,17.1c0,0,3.2,4.9-2.4,2.9c-5.6-2-6.8-3.4-8.2-9.5c-1.4-6.1,0-12.4,0-12.4h7
		L193.1,4.7z"/>
	<path  d="M203.9,4.7c0,0,1.5,17.3,6.9,20.5c5.5,3.2,6.4-0.9,6.4-0.9s-4.9-5.3-5.4-19.6C211.8,4.7,207.6,2.6,203.9,4.7z"
		/>
	<path  d="M231.3,8.4c0,0,1.2,0.5,0.5,8.2c0,0,0.9,11.5,5.9,14.3s5.2-1.6,5.2-1.6v-2.9c0,0-2.3-4.6-2.8-18
		c0,0-2.8-3.2-6.6-1.2C231.3,8.4,231.3,8.4,231.3,8.4z"/>
	<path  d="M257.1,15.2c0,0,3.5-1.2,9.1,4c0,0-0.7,13.8,0,19.7c0.7,5.9-2.8,2.6-2.8,2.6s-4.9-0.4-5.4-8.2
		C258,33.4,257.8,20.2,257.1,15.2z"/>
	<path  d="M280.3,28.8c0,0,4.5-2.1,2.3,9.2s0.6,15.2,0.6,15.2s5.5,8.9,7.4,0c-1-4.9,0-10.6,2.1-16.7
		c-0.4-3.3-4.7-6.2-9.1-9.1L280.3,28.8z"/>
	<path  d="M304.3,44.8c0,0,2.1,4.2,0.9,12.4s-0.3,16.7-0.3,16.7s1.9,1.6,4.7,4.2c0,0,1.4-2.3,2.6-8.7s0.7-1.1,3-13.5
		C315.3,56,314.1,46.9,304.3,44.8z"/>
	<path  d="M329.8,70.8c0,0,6.1,5.9-4.9,22.1c0,0-2.8,7.5,3.3,10.1c0,0,2.1,1.9,10.1-18.1
		C338.3,84.9,339.4,73.9,329.8,70.8z"/>
	<path  d="M348.4,96.4c0,0,5.9,6.8-11,24.4c0,0-1.4,9.9,3.5,7.3c4.9-2.6,12.4-12,14.3-17.4
		C357,105.3,356.1,102.7,348.4,96.4z"/>
	<path  d="M361.3,128.5c0,0,3.5,10.6-10.8,24.4c0,0-1.6,5.6,4,8c0,0,8.4-5.9,12.7-16.2
		C367.1,144.7,369.2,137.8,361.3,128.5z"/>
	<path  d="M370.4,158.1c0,0,5.4,5.6,3.3,14.3s-17.7,16-17.7,16s-6.2-3.8-2.7-8.4C353.3,179.9,371.3,169.8,370.4,158.1z"
		/>
	<path  d="M374.2,188.4c0,0,3,10.3-1.9,16.4s-14.6,8.7-20.1,8.9c-5.5,0.2,0-7.7,0-7.7l6.6-3.5
		C358.8,202.4,369,202.4,374.2,188.4z"/>
	<path  d="M369.7,220c0,0,0.2,11.3-4.2,16.9c-4.5,5.6-19.5,5.4-19.5,5.4s-6.3-5.2,1.2-8.2
		C347.2,234.1,368.3,231.1,369.7,220z"/>
	<path  d="M312.7,154.8c0,0,4.2-6.6,5.2,1.9c0.9,8.4,4.2,16.6,4.2,16.6v5.8c-0.3,1.9-1.6,0.6-4.7-0.9
		C317.4,178,310.8,164,312.7,154.8z"/>
	<path  d="M314.8,206.9c0,0-5.3,17.1-2.4,22.8c0,0,4,4.5,4.9,0c0.9-4.5,3.2-20.9,3.2-20.9S319.5,206.2,314.8,206.9z"/>
	<path  d="M306.4,288.6c0.5-6.1,5.1-4.7,5.1-4.7c22,11.5,25.9-1.6,25.9-1.6c-8.7,1.2-16.9,0-16.9,0c-3.8-4-1.4-6.5,4-8.2
		c13.6,2.6,25.3-7,25.3-7c-4,1.9-12.2,0-12.2,0c-3.8-4.5-2.6-6.1-2.6-6.1l5.2-1.6c10.8,1.2,20.9-12.4,20.9-12.4
		c-2.6,16-8.8,16.7-8.8,16.7c2,12.7-13.5,19-13.5,19c-3,10.8-10.3,12.2-10.3,12.2c-4.7,0.8-13.4-1.2-13.4-1.2l2.6,6.7
		c0,0,2.8,0.1,9.1-2.7c0,0,1.7,3.3-3.3,8.6l-5,1.1l-0.3,2.5c0,0-2.2,4.2-7.5,2.7c0,0,1.4-0.9,0.5-5.3l-7.5-2.3c0,0,1.7,7.5,0,16
		c0,0-4.1,6-9.9,5.5c0,0,6.1-5.8,1.9-22.4l-1.9-3.4c0,0-12.8-10.2-14.9-16.4l-1.9-0.6c0,0-5.2-6.9-11.1-17.8l-0.8-0.6
		c0,0-4.4-14.4-1.5-22.4h4.9c0,0,1.9,23.7,13.9,35.6l0.6,2.3l1.4,0.1l12.1,13.9c0,0,4.4-0.5,11.7,3.8l-0.6-8.4L306.4,288.6"/>
	<path  d="M306.4,288.6"/>
	<path  d="M257.7,299.3c0,0-10.5-5.7-15.6-10.7c0,0-4.8,0.6-18-6.6c0,0-3.1-2.7,2.3-5.6l17.5,7.9l3.3,1.2
		c0,0,3.9,0.8,15.3,9.7c11.4,8.9,17.7,14.7,17.7,14.7s5.4,5.9,3.6,10.1l2.3,10.3l-3.9,6.4h-3.9c0,0,0.9-3.9-0.5-11.6
		c-1.4-7.7-1.1-11.6-1.1-11.6C271.3,311.6,264.3,304.7,257.7,299.3z"/>
	<path  d="M219.6,303.7c0,0-4.4,2.8,0,6.1c4.4,3.3,20.3,2.5,20.3,2.5s4.8-3.1,0-6.4C235.1,302.6,219.6,303.7,219.6,303.7
		z"/>
	<path  d="M177.7,289.1c0,0,14.4,0.5,20.6,8.4c6.2,8,0,0.9,0,0.9s1.9,5.5-3.6,4.2c0,0-13-6.6-17.7-7.8
		C177,295,176.4,290.3,177.7,289.1z"/>
	<path  d="M182.4,265.4c0,0-3.3,0.1-0.8,4.2c0,0,0.5,1.1,16.4,6.7c0,0,6.7,1.1,3.1-5.5
		C201.1,270.9,184.1,263.9,182.4,265.4z"/>
	<path  d="M153.1,256.6c0,0-5.6-2.2-4.1,0.8c1.5,3,7.5,10,9.2,19c0,0,2.7,2.4,3.9-1.3
		C163.4,271.3,153.1,256.6,153.1,256.6z"/>
	<path  d="M156.4,247.6c0,0-4.6,0.1-0.8,3.6c3.7,3.4,9.9,8.1,9.9,8.1c1.5,1.1,1.9-0.4,1.4-3.4
		C166.9,255.8,160.1,248.3,156.4,247.6z"/>
	<path  d="M103.1,183.9l2.3-1.1l4.2,0.6c0,0,4.7,3.2,3.9,7.3h-3l-0.9,2.7l-4.8-4.4l-1.7-3.8V183.9z"/>
	<path  d="M120.9,184.2c0,0,1.7-2.2,4.7-0.6c3,1.5,1.4,10-0.5,13.6l-4.7-3C120.4,194.2,122.1,188.1,120.9,184.2z"/>
	<path  d="M135.4,177.3c0,0-0.9,0.6-0.9,4.1c0,3.4,0.5,8.7,0.5,8.7s0.6,1.5,2.5,1.6c1.9,0.1,3.6-2.7,3.6-2.7
		s1.5-6.1,0-10.8c-1.5-4.7-4.8-1.5-4.8-1.5L135.4,177.3z"/>
	<path  d="M149.7,180.6c0,0,1.1-3.3,11.7-10.9c0,0,4.2-1.4,3.1,3.6s-10.2,10.5-10.2,10.5S152,185.5,149.7,180.6z"/>
	<path  d="M162.2,152.8c0,0-4.2,3.8-2.3,5.3l12.7,2.2c0,0,6.6-3.4,2.8-6.4C175.3,153.9,176.7,152.3,162.2,152.8z"/>
	<path  d="M171.1,138.3c0,0-2.8,3.6-1.7,6.2c0,0,2.5,0.1,11.7-1.7c0,0,3.4-1.4,0-6.6C181.1,136.2,177,137.9,171.1,138.3z
		"/>
	<path  d="M170.2,117.9c0,0,0.6,3,2.5,3.3c0,0-1.1,3.6,1.1,4.7c2.2,1.1,8.6,0.9,11.1,0c0,0,3.1-4.7,0-5.5
		c-3.1-0.8-8-0.6-9.7-1.7l0.7-2.8L170.2,117.9z"/>
	<path  d="M180.2,100.5c0,0-4.2,3-6.6,2.3l-2,0.1c0,0,2.3,9,4.3,8s7.9-4.1,7.9-4.1S185.2,100.9,180.2,100.5z"/>
	<path  d="M165,84.6c0,0-0.1,6.2,2.3,8.1h1.8l-0.7,1.9c0,0,2.5,2,3.1,4.7c0.6,2.7,6-4.8,6-4.8s0.5-0.9,0.7-3.1l1.8-1.9
		c0,0,3.4,3.3,6.2,2s4.1-3,4.1-3v-2.6c0,0-3.4-0.6-5.3-3l2.7-1.9c0,0-1.9-3.9-6.6-4.7l-2.9,2.5c0,0-2.7-5-10.2-5.5l-1.9,3.4l7.2,6.4
		l-1.7,4.6C171.6,87.7,165.8,88.2,165,84.6z"/>
	<path  d="M210,79.8c0,0-4.8-4-7.4-0.8c0,0-0.3,2.8,2.7,4.8l-1.3,1.6c0,0-4.1,4.4,2.6,6.6c0,0,2.1,0.3,6.1-0.9
		c4.1-1.3,10.9,4.7,10.9,4.7s7,0,2.2-7.5l-3.8-1.5l4.2-2.2l-3.8-3.3c0,0-0.6-1.3-3.4-0.9c-2.8,0.3-5.2,1.1-5.2,1.1L210,79.8z"/>
	<path  d="M251.5,93.4c0,0-1.1-2.3-5.6-1.9l4.7,9.1l-4.7-0.7c0,0-5.6-1.5-3.9,4.5c0,0,1.5,2.1,14.2,8.2l3.1,4
		c0,0,3.6,4.1,4.8-0.6v-2.2l7.4,3.6c0,0-1.9-6.1-3.1-9.2l-3.1-2.3l-3.6-1C261.7,104.8,254.7,95.2,251.5,93.4z"/>
	<path  d="M232.8,61.5c0,0-2.3-5.8,3.1-3c5.5,2.8,6,5,16.7,6.6c0,0,4.4,0.8,4.8,4.7C256.1,73.6,238.3,71.9,232.8,61.5z"
		/>
	<path  d="M285.7,98.2c0,0-0.6-3.4,3.1-1.8c3.8,1.6,0,0.7,0,0.7s8.3,14.6,13.1,17.2c4.8,2.7,0.9,6.4,0.9,6.4
		C293.4,117.9,288.1,109.8,285.7,98.2z"/>
	<path  d="M281.8,160.9c0,0-2.5,23.5,0.6,23.6c0,0,1.7,3.8,4.4,0c0,0-0.8-15.8,0-18.9h2c0,0,3.3-2.7-0.6-9.1l-2.5-3.3
		l3.5-8.5c0,0,0.9-1.9-6.4-5.1l-2.8,7.6l-2.2-4.8c0,0-5.8-7.4-7.4-1.5c-1.5,5.8,7.6,12.7,7.6,12.7l-2.5,6.4c0,0,0.1,2,3.6,2
		L281.8,160.9z"/>
	<path  d="M276.8,203.3c0,0-6.7,4.6-7.4,18c0,0,4.1,5.6,6.4,1.4c0,0,2.2-9.1,4.2-12.7
		C282.1,206.4,279.3,204.2,276.8,203.3z"/>
	<path  d="M257.1,329.8c0,0-0.9,12.2-5.4,13.1h-2.3c0,0,5.2,3.3,9.5,0c4.4-3.3,4.9-2.8,5.8-13.1
		C264.8,329.8,266.3,324.9,257.1,329.8z"/>
	<path  d="M242.5,331.8l-6.2,0.6c0,0-4.4,11.7-8.4,11.3h-2.7c0,0,0.2,4.3,11.6,2.9C236.9,346.6,244.7,340.9,242.5,331.8z
		"/>
	<path  d="M219.7,333.7c0,0-2.5-3.8-6.5,0c-4,3.8-8,9.3-10.3,8.1c2.6,2.6,5.2,3.3,11.6,2.6
		C214.6,344.4,219,341.7,219.7,333.7z"/>
	<path  d="M188.6,333.8l4.5-3.4c0,0,4.8-1.2,5.9,0.7s-0.1,3-1.3,4.9c-1.2,1.9-7.6,6.3-9.4,5.3c-1.6-0.9-5.6-1.9-5.9-0.9
		c0,0-0.7,0.4-3.7-3.7C178.8,336.7,180.6,339,188.6,333.8z"/>
	<path  d="M148.3,329c7.7,5.4,16.4,4.5,25.3,1.4l3.3-3.4c0,0,2.1-5.2-4.5-4.7c0,0-2.3-0.6-5.3,1.8
		c-3,2.4-18.7,4.6-22.4-1.8L148.3,329z"/>
	<path  d="M161,318.5c-12.5,5.1-20.1,1.6-20.1,1.6s1.3,4.8,3.8,14.7s3.5,9.5,3.5,9.5l-2.1,5.2
		c-6.5-4.2-9.9-19.4-9.9-19.4l-2.5-6.2c0,0-1.5-2.3-11-6.6c0,0-4.8,1.8-8.7-3.9c-3.8-5.7-4.9-4.9-4.9-4.9s-2.5-4.9-1.4-16.8
		l-7.3-13.7l-9-19.8l-0.6-2.3c0,0-4.9-6.1-6-8.3l1.8-2.8l2.3,2v-2c0,0-8.2-4.8-8.2-11.7c0,0,9.3,10.2,30.7,2c0,0,5.3,2.6,4.2,6.9
		c-1.1,4.4-20.3,5.7-23.9,4l5.8,6.8c0,0,5.1,9.4,26.3,5.1c0,0,6.1-2.9,6.3,7.4c0,0-14.1,3.7-22,1.4l5.4,5c0,0,6.5,7.6,24.4,2.5
		c0,0,4.9,1.5,3.3,6.8s-20.9,3.4-20.9,3.4s3,3.7,2.6,6.9h1.4c0,0,5.4,10.2,22,1.4c0,0,4,0.4,4.2,6.1c0.2,5.7-21.1,5.8-25.2,2.3
		c0,0,5.1,6.8,9.1,8.6c4,1.8,4.7,7.4,21.2,1.9C155.5,311.5,165.2,308.4,161,318.5z"/>
	<path  d="M0,107.4v22.1l5.9,13.1c0,0-4,10.6,6.6,15c0,0,0.9,2.3,2.3,2.7c1.4,0.4,6.7,0,6.7,0s1.3,0.1,1.8-2.7
		c0,0,6.3,5.6,8,16.9c0,0,3.7,5.2,13.5,14.4c0,0,3.1,4.7,3.3,9.5c0.1,4.8,4.1,9.9,4.1,9.9s11.1,6,12.2,5.5c1.1-0.5-3.4-6.6-5-8.8
		c0,0,13.3,2.8,26.7-1.5l-2.5-7.2c0,0-1.5-0.9-4.8-0.5c0,0-11.9,0.8-19.8,0.6l-5-7.6l0.9-3.3c0,0-3.8-1.7-7-5.6
		c0,0,13.9-1.5,19.6-0.9c5.6,0.6-0.5-8.4-0.5-8.4s-1.5-1.3-6.2-0.3s-16.6,1.1-20,0.5l-2.7-1.1c0,0-6.7-14.8-10-16.7
		c0,0,19.6-0.1,24.4,2.8c4.8,3,1.9-5.6,1.9-5.6s-0.1-3.9-7.6-4.7c0,0-28.2-4.6-28.2-5l0.1-8.6c0,0-1.5-3.4,1.3-5.2
		c0,0,8.4-5.8,22.4,1.7c0,0,6.9,3,2.2-3.4c-4.7-6.4-7.2-7.4-7.2-7.4s-20.2-5.8-25.2,6.2l-2.7,4.1C9.2,127.8,2.3,110.7,0,107.4z"/>
	<path  d="M63.3,146.5l2.5,4.7c0,0,7.5,8.9,13.1,18.3l3.9,5.5c0,0,10.5,12.5,13,16.7c2.5,4.2,4.1,5.5,4.1,5.5
		s9.9,7.4,14.7,16.7c0,0,2.8,2.1,1.3-3.2c-1.5-5.3-8.4-15.2-17.4-18.9c0,0-6-14.1-16.6-20.2C82,171.6,74.5,148.7,63.3,146.5z"/>
	<path  d="M66.5,215.8c0,0,9.1,7.2,29.7,0c0,0,2,0.3,1.7,2.6c-0.3,2.3,2,1.9,2,1.9l0.1,3.4c0,0-16.1,5.3-26.1,2.8
		C74,226.6,69.1,226,66.5,215.8z"/>
	<path  d="M148.3,33.4c0,0-3.1,0.6-1.5,6.8h-2.8l1.3,6.9c0,0,3.4-0.6,7.6-1.1c4.2-0.5,3.4-3.7,3.4-3.7s-0.1-1.7-2.8-3.1
		s-4.9,0.1-3.3-3.8L148.3,33.4z"/>
	<path  d="M148.9,52c0,0,2.8-0.5,4.4-1.9c0,0,2.7,0.3,4.1,4.7c0,0-0.7,3.5-7.2,3C150.1,57.7,150.3,54.6,148.9,52z"/>
	<path  d="M158,64.7c0,0,3.6,0.7,5.2,3.3c0,0-1.8,4.1-8.6,2.5c0,0-4-2.7-2.2-8.1C152.3,62.4,155,65.4,158,64.7z"/>
</g>
<g id="fbase_x5F_open_x5F_pocket">

		<image id="glove-view-2" overflow="visible" enable-background="new" width="800" height="746" xlink:href="assets/images/nys_fbase_inside_view.png"  transform="matrix(0.4692 0 0 0.4692 0 0)">
	</image>
</g>
</svg>
