<?xml version="1.0" encoding="UTF-8" standalone="no"?>
<!-- Generator: Adobe Illustrator 20.1.0, SVG Export Plug-In . SVG Version: 6.00 Build 0)  -->

<svg
   xmlns:dc="http://purl.org/dc/elements/1.1/"
   xmlns:cc="http://creativecommons.org/ns#"
   xmlns:rdf="http://www.w3.org/1999/02/22-rdf-syntax-ns#"
   xmlns:svg="http://www.w3.org/2000/svg"
   xmlns="http://www.w3.org/2000/svg"
   xmlns:xlink="http://www.w3.org/1999/xlink"
   xmlns:sodipodi="http://sodipodi.sourceforge.net/DTD/sodipodi-0.dtd"
   xmlns:inkscape="http://www.inkscape.org/namespaces/inkscape"
   version="1.1"
   x="0px"
   y="0px"
   viewBox="0 0 375 352.4"
   enable-background="new 0 0 375 352.4"
   xml:space="preserve"
   id="svg572"
   sodipodi:docname="new  2.svg"
   inkscape:version="0.92.2 (5c3e80d, 2017-08-06)"><metadata
     id="metadata578"><rdf:RDF><cc:Work
         rdf:about=""><dc:format>image/svg+xml</dc:format><dc:type
           rdf:resource="http://purl.org/dc/dcmitype/StillImage" /><dc:title></dc:title></cc:Work></rdf:RDF></metadata><defs
     id="defs576" /><sodipodi:namedview
     pagecolor="#ffffff"
     bordercolor="#666666"
     borderopacity="1"
     objecttolerance="10"
     gridtolerance="10"
     guidetolerance="10"
     inkscape:pageopacity="0"
     inkscape:pageshadow="2"
     inkscape:window-width="1366"
     inkscape:window-height="745"
     id="namedview574"
     showgrid="false"
     inkscape:zoom="4"
     inkscape:cx="184.55533"
     inkscape:cy="40.48747"
     inkscape:window-x="-8"
     inkscape:window-y="-8"
     inkscape:window-maximized="1"
     inkscape:current-layer="catcher-mitt_x5F_vw3_x5F_logo" /><g
     id="catcher-mitt_x5F_vw3_x5F_utoe"><path
       d="m 22.3,204.6 c 0,0 0,-32.6 4.5,-55 4.5,-22.4 14.8,-46.4 14.8,-46.4 0,0 17.9,-31.4 28.4,-38.7 10.5,-7.3 22.6,-18.6 42.7,-24.3 20.1,-5.7 39.7,-14.1 47.4,-16.1 7.7,-2 11.3,-3 11.3,-3 0,0 1.5,-1.3 8.3,-2 6.8,-0.8 19.1,-6 31.9,-7.3 12.8,-1.3 16.8,3 16.8,3 0,0 11.3,11 8,20.3 -3.3,9.3 -17.8,37.4 -18.8,50.5 -1,13.1 4.5,38.4 7.8,45.2 3.3,6.8 15.1,36.1 29.6,43.4 14.6,7.3 30.9,20.8 49.7,18.3 0,0 20.3,-13.1 28.6,-21.1 8.3,-8 11.8,-7.3 11.8,-7.3 l -2,6.8 c 0,0 -16.1,18.1 -31.6,28.6 -15.6,10.5 -12.6,9.5 -16.8,12.3 -4.3,2.8 -6.3,5.8 -10.3,7.8 -4,2 -31.9,22.3 -45.9,23.1 -14.1,0.8 -23.8,-5.3 -32.4,-4.5 -8.5,0.8 -80.3,9.3 -104.7,15.1 -24.4,5.8 -59.5,10 -59.5,10 z"
       id="path354"
       inkscape:connector-curvature="0" /></g><g
     id="catcher-mitt_x5F_vw3_x5F_thb"><path
       d="m 111.6,75.1 c 0,0 -4.4,47.2 -4.4,63.3 0,16.1 -1,36.5 0,48.9 1,12.4 4.7,36.8 6,42.5 1.3,5.7 3.3,23.8 3.7,28.1 l 32.5,-7 c 0,0 45.9,-8.7 54.9,-9.4 0,0 29.8,6 10.4,33.8 0,0 -13.1,8.4 -41.5,9.7 -28.4,1.3 -69.3,2.7 -69.3,2.7 0,0 7,11.7 10.7,19.1 l 4.6,3.5 c 0,0 -1.8,3.1 -2,7.2 l -0.1,3.9 c 0,0 -5.5,16.7 -9,19.9 l 0.8,1.7 3.7,2.2 c 0,0 18.6,6.9 38.5,5 19.9,-1.9 46.4,-8.4 46.4,-8.4 0,0 3.5,-1.8 7.2,-5.7 3.7,-3.8 27.3,-31.3 27.3,-31.3 l 45.5,-48.5 14.7,-16.4 35.8,-42.7 7.4,-11 6.4,-8.9 c 0,0 5.7,-4.5 3.3,-10.4 0,0 -12.4,15.9 -20.4,22.4 -8,6.5 -17.2,13.1 -17.2,13.1 0.1,8.5 -19.7,11.5 -19.7,11.5 -21.8,11.3 -48.4,13.3 -75.8,-37 -2.8,-0.2 -21.8,-53.6 -20.9,-82 -1.2,-21.8 -1.2,-26.4 -1.2,-26.4 -1.2,-6.2 -4.2,-21.1 -30.3,-10.9 -20.7,10 -23.3,21.3 -23.3,44.2 C 135.5,76.3 126,68 111.6,75.1 Z"
       id="path357"
       inkscape:connector-curvature="0" /></g><g
     id="catcher-mitt_x5F_vw3_x5F_bfg"><path
       d="M 56,283.9 37.9,223.7 c 0,0 -12,-48.2 0,-74 2.9,-19.3 12,-33.5 27.9,-42.2 14.8,-7 25.6,1.5 26.6,11.5 0,0 2,-41.7 19.3,-43.7 l -4.3,58.5 c 0,0 -1.5,35.1 0.3,57.2 1.8,22.1 3.3,25.6 5,35.6 1.8,10 4.8,28.4 4.5,32.1 0,0 -27.9,3.3 -22.6,17.1 5.3,13.8 17.3,35.9 17.3,35.9 0,0 6,6 3,14.1 -3,8 -1.8,14.1 -6.8,15.6 -5,1.5 -15.8,0 -15.8,0 0,0 -10.8,-24.6 -14.8,-34.9 C 73.5,296.2 56,283.9 56,283.9 Z"
       id="path360"
       inkscape:connector-curvature="0" /></g><g
     id="catcher-mitt_x5F_vw3_x5F_web"><path
       d="m 230.4,73.5 h 2.8 l -2.8,11.8 6,1.5 11.4,1 29.8,26.9 34,33 16.7,17.1 c 0,0 5.4,-1.2 13.9,-15.5 8.5,-14.3 11.5,-21.1 11.5,-21.1 l 12.6,-7 6.5,-6.3 c 0,0 1.3,-2 0,-4.8 -1.3,-2.8 -4.5,-10 -4.5,-10 l -3,-10 -5,-9.5 -8,-9.8 L 337,56.2 323.9,44.7 311.6,35.4 297,26.6 l -17.1,-8.3 -10,-3 -20.3,-6 -10.4,-3.3 -5,3.3 -2.5,8 c 15.5,1.4 15.8,13.8 15.4,19.1 l -3.6,10 c 0,0 -2.3,6.8 -4.8,11 -2.5,4.2 -8.3,16.1 -8.3,16.1 z"
       id="path363"
       inkscape:connector-curvature="0" /></g><g
     id="catcher-mitt_x5F_vw3_x5F_plm"><path
       d="m 252,86.3 -13.6,-10 -8.3,10 -7,18.8 -1.3,5.3 c 0,0 -2,16.3 6,30.1 8,13.8 23.6,33.1 27.9,35.6 4.3,2.5 21.3,13.6 32.4,15.6 11,2 19.6,0 19.6,0 v -3.5 c 0,0 11.2,-9.4 17.6,-16.3 l 4.3,-5.8 c 0,0 1.3,-1 0,-2.8 -1.3,-1.8 -11.8,-14.6 -11.8,-14.6 l -32.4,-33.1 z"
       id="path366"
       inkscape:connector-curvature="0" /></g><g
     id="catcher-mitt_x5F_vw3_x5F_lin"><path
       d="m 102.2,283.4 c 0,0 17.8,-2.8 42.9,-3 25.1,-0.2 46.2,-2.6 46.2,-2.6 0,0 9.3,-2.8 16.3,-5.1 14.8,-5 9.9,-29 -6.8,-27.9 0,0 -19.6,12.6 -45.1,8.3 0,0 -6.1,2 -21.2,6 -15.1,4 -20.8,5 -20.8,5 l -7.3,1.5 c 0,0 -10.8,3 -8.5,9.5 z"
       id="path369"
       inkscape:connector-curvature="0" /></g><g
     id="Layer_14"
     display="none"><path
       display="inline"
       fill="#05181D"
       d="M111.5,283c0,0,8.3,5.6,18.7,0s30.8-5.3,30.8-5.3s9.6,5.5,22.5-1.4s27.3-1.6,27.3-1.6   l1.4,2.7c0,0-21.4,14.2-83.2,9.9c-61.8-4.3,0,0,0,0l-32.6,3.2l8.8-4.6L111.5,283"
       id="path372" /></g><g
     id="catcher-mitt_x5F_vw3_x5F_bnd"><g
       id="g421"><path
         d="m 111.1,319.4 c 0.3,7.8 -8.2,23 -18.2,20.7 0,0 7,5.3 14.6,3.8 0,0 18.8,9 42.9,7.8 24.1,-1.3 37.1,-4.5 37.1,-4.5 0,0 13.6,-5.3 17.1,-11.3 -6.8,7.5 -67.5,19.8 -93.4,6 l 3.5,-6 c 5.9,-7.8 4.9,-16.1 0.7,-27.1 l -1,-2 c -1.6,-5.2 -4.5,-10.7 -8.5,-16.6 2.9,-0.7 57.9,-2.3 58,-2.3 25.3,-1.3 40.7,-1.5 52.7,-10.2 19.6,-10.9 6.9,-38.2 -10.5,-38.5 -18.6,11.5 -33.6,14.1 -66.8,10.8 l -39.4,8.5 c -16.6,10.5 -7,24.1 -7,24.1 0,0 14.8,25.5 16.8,33.6 z m -1.4,-3.1 m 92.5,-42.5 c 0,0 -23.4,6.7 -57.1,5.6 -0.3,-0.9 -43.4,1.7 -42.9,3 l -4.3,-7.3 c -2.3,-6.5 8.5,-9.5 8.5,-9.5 l 7.3,-1.5 c 0,0 5.8,-1 20.8,-5 15.1,-4 21.2,-6 21.2,-6 25.5,4.3 45.1,-8.3 45.1,-8.3 20.4,-0.1 20.7,24.7 1.4,29 z"
         id="path375"
         inkscape:connector-curvature="0" /><path
         d="m 25.1,195.3 v 8.7 l -3,2.7 -1.3,-2.2 L 20,203 c -0.1,0 3.8,-7.6 5.1,-7.7 z"
         id="path377"
         inkscape:connector-curvature="0" /><path
         d="m 26.6,171.7 c 0,0 -1.3,11.2 -1.5,13.1 l -5.2,5.7 V 178 Z"
         id="path379"
         inkscape:connector-curvature="0" /><path
         d="m 23.3,153.9 c 0,0 5,-5.9 6.4,-6.9 0,0 -3.2,14.1 -2,15.4 l -5.1,3.7 z"
         id="path381"
         inkscape:connector-curvature="0" /><path
         d="m 29.6,129.2 c 0,0 -3.7,9.2 -3,11 l 4.5,-2.3 c 0,0 2.8,-10.4 5.4,-14.9 0,0 -2.4,-0.5 -6.9,6.2 z"
         id="path383"
         inkscape:connector-curvature="0" /><path
         d="m 46.7,100.4 c 0,0 -4,0 -6.7,3.5 -2.7,3.5 -4.9,10 -4.9,10 l 4.5,-0.7 c 0.1,0.1 5.6,-11 7.1,-12.8 z"
         id="path385"
         inkscape:connector-curvature="0" /><path
         d="m 54.6,80.5 c 0,0 -7.7,8.2 -7.9,11.5 h 4.7 c 0,0 4.5,-11.5 10.2,-13.6 z"
         id="path387"
         inkscape:connector-curvature="0" /><path
         d="m 71.5,62.4 c 0,0 -7.2,5.2 -8.5,8 h 4.3 c 0,0 5.9,-6.7 9.5,-8 z"
         id="path389"
         inkscape:connector-curvature="0" /><path
         d="m 97.1,49 c 0,0 -11,4.4 -13.4,7.4 l -4.2,-1.5 c 0,0 10.9,-7.4 14.6,-7.5 3.6,-0.2 3,1.6 3,1.6 z"
         id="path391"
         inkscape:connector-curvature="0" /><path
         d="m 102.9,42.8 c 0,0 9.9,-4 11.2,-4 1.3,0 4.5,0 4.5,0 L 105,44.5 Z"
         id="path393"
         inkscape:connector-curvature="0" /><path
         d="m 212.3,11.5 c 0,0 8.9,0.3 10.2,4.9 l 3.3,-3.3 c 0.1,0 -3.9,-4.1 -13.5,-1.6 z"
         id="path395"
         inkscape:connector-curvature="0" /><path
         d="m 228.4,19.7 c 0,0 2.3,0.5 2.3,3.7 l 13.7,1.2 c 0,0 -5.9,-7.5 -13.6,-7.5 z"
         id="path397"
         inkscape:connector-curvature="0" /><path
         d="m 230.4,35.6 -2,4.9 c 0,0 8.8,2.5 10.7,3.8 l 2.9,-6.9 c 0,0 -4.7,-4.9 -11.6,-1.8 z"
         id="path399"
         inkscape:connector-curvature="0" /><path
         d="m 224.9,50.4 -4.4,8.9 c 0,0 7,-1.2 9.7,0 l 3.3,-6.5 c 0,-0.1 -4.2,-3.4 -8.6,-2.4 z"
         id="path401"
         inkscape:connector-curvature="0" /><path
         d="m 227,67.6 -1.8,4.9 H 224 l -1.7,5 -6.7,2.2 3,-11.4 c 0.1,0 3.7,-1.9 8.4,-0.7 z"
         id="path403"
         inkscape:connector-curvature="0" /><path
         d="m 224.1,114.8 -1.5,5 c 0,0 -0.5,2 -3.5,0 l -1.7,0.9 c 0,0 0.2,9.6 2.3,11.8 l 6,-7.4 c 0,0.1 -0.8,-8.8 -1.6,-10.3 z"
         id="path405"
         inkscape:connector-curvature="0" /><path
         d="m 225.7,142.7 c 0,0 5.2,10.2 6.9,11.5 l 3.7,-5.8 c 0,0 0.2,-3.1 0,-4.3 -0.2,-1.2 0.2,1.2 0.2,1.2 0,0 -7,-6.9 -6.2,-9.9 z"
         id="path407"
         inkscape:connector-curvature="0" /><path
         d="m 239,162.5 c 0,0 12,13.6 15.1,14.9 l 6,-4.5 c 0,0 -12.4,-10 -17.2,-16.9 z"
         id="path409"
         inkscape:connector-curvature="0" /><path
         d="m 267.7,178.9 12.6,4 -4.9,5.9 c 0,0 -11.4,-3.5 -13.6,-4.9 z"
         id="path411"
         inkscape:connector-curvature="0" /><path
         d="m 289.7,187.2 c 0,0 9.7,1.7 16.6,1.5 l 4.5,-3.3 c 0,0 1.8,2.3 0,6 0,0 -14.2,7.7 -26.8,1.2 0,0 0.8,-3.7 5.7,-5.4 z"
         id="path413"
         inkscape:connector-curvature="0" /><path
         d="m 333,166.7 c 0,0 0,6.9 -3,10.7 -3,3.8 -6.5,6.4 -6.5,6.4 0,0 3,-6.6 1.8,-10 l 2.2,-3.5 c 0,0 3.3,-1 5.5,-3.6 z"
         id="path415"
         inkscape:connector-curvature="0" /><path
         d="m 350.6,136.2 c 0,0 -2.3,5 -3,6.2 0,0 2.5,8.7 3,11.9 l 2.8,-5.4 c -0.6,-4.8 1.4,-5.8 -2.8,-12.7 z"
         id="path417"
         inkscape:connector-curvature="0" /><path
         d="m 74.3,298.9 c 0,0 -5.2,-6.4 -9,-7.9 l -5,1.5 10.2,7 4.9,4.4 v -4.2 z"
         id="path419"
         inkscape:connector-curvature="0" /></g></g><g
     id="catcher-mitt_x5F_vw3_x5F_fpad"><path
       d="m 139.4,149.1 c 0,0 1.5,36.1 4.5,43 3,6.9 0,3.2 0,3.2 l -0.8,1 c 0,0 -5.5,40.7 -5.5,52.4 28.8,9 59.6,3.5 67.9,-10 0,0 2.2,-3.2 5.2,-2.8 0,0 -6.2,-43.3 -11.5,-57.4 -5.3,-14.1 -12.2,-31.6 -14.4,-41.5 -17.4,-2.3 -32.8,1.1 -45.4,12.1 z"
       id="path424"
       inkscape:connector-curvature="0" /></g><g
     id="catcher-mitt_x5F_vw3_x5F_stch"><g
       id="g471"><path
         stroke-miterlimit="10"
         d="M 37.8,214.5 36,176.2 c 0,0 2.3,-20.7 4.4,-31 0,0 9.2,-23.8 23.2,-32.5 14,-8.7 22.8,4.6 22.8,4.6 0,0 3,5.4 3.5,22.1 0.5,16.7 0.3,41.2 1,48 0.7,6.9 2.3,15.6 2.3,15.6 0,0 4.2,3.9 4.9,-2.3 0.7,-6.2 -1.5,-62.9 -1.7,-71.6 -0.2,-8.7 0.3,-41.8 12.6,-47.4 l -3.3,34.2 c 0,0 -2.7,37.2 -2.2,45.6 0.5,8.3 1.8,45.1 5.5,59.7 3.7,14.6 4.4,31.8 3.8,34.5 0,0 -18.9,1.3 -21.8,10.5 l -1.7,5.2"
         id="path427"
         inkscape:connector-curvature="0"
         style="stroke-miterlimit:10" /><path
         stroke-miterlimit="10"
         d="m 110.4,78 c 0,0 -12.4,5 -15.9,35.5 v 15.7 l 1.5,42.7 1.2,27.3 c 0,0 -3.5,6.7 -4,-1.2 -0.5,-7.9 -1.7,-44.3 -1.7,-44.3 0,0 3.2,-38.5 -9.4,-44.4 -12.6,-5.9 -28.4,1.3 -40.8,30.7"
         id="path429"
         inkscape:connector-curvature="0"
         style="stroke-miterlimit:10" /><path
         stroke-miterlimit="10"
         d="m 116.8,80.1 c 0,0 -4.2,8.3 -3.9,25 0.3,16.7 -1.2,24.9 -1.2,24.9 v 40.1 c 0,0 1.2,28.7 3.8,44.8 2.6,16.1 5.7,31.1 6.2,37.7"
         id="path431"
         inkscape:connector-curvature="0"
         style="stroke-miterlimit:10" /><path
         stroke-miterlimit="10"
         d="m 111.1,80.1 c 0,0 12.4,-8.6 17.4,8.3 5,16.9 2.2,23.3 2.2,23.3 0,0 -0.2,19.6 3.2,40.2 0,0 1.5,30.1 5.2,37.8 3.7,7.7 5.4,3.2 5.4,3.2 v -39.8 c 0,0 -3.8,-61.9 -3.5,-66.4 0.3,-4.5 7.5,-22.3 21.3,-23.9 13.8,-1.6 21.4,-6.7 21.9,15.4 0.5,22.1 -0.2,22.9 0.7,27.6 0.8,4.7 4,30.6 8,41.2 4,10.5 14.6,40 20.9,47.3 6.4,7.4 29.5,35.7 50,31.8 20.5,-3.8 33.2,-11.5 33.2,-11.5 l 6,-3.5"
         id="path433"
         inkscape:connector-curvature="0"
         style="stroke-miterlimit:10" /><path
         stroke-miterlimit="10"
         d="m 293.8,214.4 c 0,0 -20.7,11.2 -35.8,9.5 -15.1,-1.7 -28.9,-16.2 -28.9,-16.7 0,-0.5 -18.9,-13.6 -27.4,-41 -8.5,-27.4 -12.2,-42.3 -12.2,-42.3 0,0 -4.7,-27 -3.3,-46.6 1.3,-19.6 -11.7,-20.2 -11.7,-20.2 0,0 -17.1,1.7 -25.9,10.7 -8.9,9 -10,20.1 -10,20.1 l 2,35.1 c 0,0 1.7,40.2 1.7,42.2 0,2 1.5,14.4 1.5,14.4"
         id="path435"
         inkscape:connector-curvature="0"
         style="stroke-miterlimit:10" /><path
         stroke-miterlimit="10"
         d="m 138.4,182.4 c 0,0 -2.7,-30.3 -3.5,-38.8 -0.8,-8.5 -2.3,-29.6 -2.3,-29.6 l 0.7,-12.9 c 0,0 0,-29.3 -18.9,-24.6"
         id="path437"
         inkscape:connector-curvature="0"
         style="stroke-miterlimit:10" /><path
         stroke-miterlimit="10"
         d="m 121.8,254 17.9,-4.2 c 0,0 4.4,-40.7 3.8,-45.9"
         id="path439"
         inkscape:connector-curvature="0"
         style="stroke-miterlimit:10" /><path
         stroke-miterlimit="10"
         d="m 207,234.4 c 0,0 0,-23.3 -6.2,-39.5 -6.2,-16.2 -9,-24.3 -9,-24.3 0,0 -9,-24.8 -9.2,-30.1 h -2.2 c 0,0 4.5,17.7 9.2,30.1 4.7,12.4 16.9,46.4 15.4,63.8 z"
         id="path441"
         inkscape:connector-curvature="0"
         style="stroke-miterlimit:10" /><path
         stroke-miterlimit="10"
         d="m 199.8,337.5 c -7,9.9 -74.6,13.7 -88.7,4.5"
         id="path443"
         inkscape:connector-curvature="0"
         style="stroke-miterlimit:10" /><path
         stroke-miterlimit="10"
         d="m 107.4,290.5 c 0,0 13.7,-1.8 29.5,-2 15.7,-0.2 33,-0.8 33,-0.8 0,0 21.1,-0.7 32,-3.7 46.7,-11.5 16.2,-46.9 5.2,-44.5"
         id="path445"
         inkscape:connector-curvature="0"
         style="stroke-miterlimit:10" /><polygon
         stroke-miterlimit="10"
         points="308.6,179.2 271.3,144.4 228.1,104.4 230.3,101.7 269.4,138.1 310.2,176.2 "
         id="polygon447"
         style="stroke-miterlimit:10" /><path
         stroke-miterlimit="10"
         d="m 223.7,51.2 c -0.2,0 -3.2,2.4 -4.4,7.7"
         id="path449"
         inkscape:connector-curvature="0"
         style="stroke-miterlimit:10" /><path
         stroke-miterlimit="10"
         d="m 216.1,71.3 c 0,-0.6 -1.5,6.1 -1.3,7.2"
         id="path451"
         inkscape:connector-curvature="0"
         style="stroke-miterlimit:10" /><path
         stroke-miterlimit="10"
         d="m 216.8,121.2 c 0.1,0.3 1.4,8.3 2.6,11"
         id="path453"
         inkscape:connector-curvature="0"
         style="stroke-miterlimit:10" /><path
         stroke-miterlimit="10"
         d="m 225,142.5 c -0.3,0.3 6.6,11.5 6.6,11.5"
         id="path455"
         inkscape:connector-curvature="0"
         style="stroke-miterlimit:10" /><path
         stroke-miterlimit="10"
         d="m 239.5,163.5 c 0,0 10.2,10.2 13.2,12.7"
         id="path457"
         inkscape:connector-curvature="0"
         style="stroke-miterlimit:10" /><path
         stroke-miterlimit="10"
         d="m 261.9,183.7 c 0,0 11.7,5.9 12.2,5.6"
         id="path459"
         inkscape:connector-curvature="0"
         style="stroke-miterlimit:10" /><path
         stroke-miterlimit="10"
         d="M 284.5,193.1"
         id="path461"
         inkscape:connector-curvature="0"
         style="stroke-miterlimit:10" /><path
         stroke-miterlimit="10"
         d="m 284.5,193.1 c 0,0 8.9,3.3 11.7,2.5"
         id="path463"
         inkscape:connector-curvature="0"
         style="stroke-miterlimit:10" /><path
         stroke-miterlimit="10"
         d="m 325.1,123.9 14.8,17.7 -1.3,0.9 C 317.8,116.9 282,90.1 242,63.1 l 1.3,-2.2 c 20.5,13.8 50.8,37.1 81.8,63 z"
         id="path465"
         inkscape:connector-curvature="0"
         style="stroke-miterlimit:10" /><path
         stroke-miterlimit="10"
         d="m 250.7,39.7 c 0,0 47.9,29.8 57.7,41.9 0,0 27.8,25.5 33.1,31.5 5.4,6 9.4,13.7 9.4,13.7 l 0.8,-1.7 c 0,0 -15.1,-19.7 -26.7,-32 -11.6,-12.3 -0.6,-0.9 -0.6,-0.9 0,0 -34.8,-28.4 -41.8,-33.4 -7,-5 -30.7,-20.7 -30.7,-20.7 z"
         id="path467"
         inkscape:connector-curvature="0"
         style="stroke-miterlimit:10" /><path
         stroke-miterlimit="10"
         d="m 279.2,27.6 c 0,0 57.1,45.7 69.5,63.8 12.3,17.9 11.7,19.6 11.7,19.6 l 0.8,-1 C 353.7,85.2 301.1,43.9 301.1,43.9 Z"
         id="path469"
         inkscape:connector-curvature="0"
         style="stroke-miterlimit:10" /></g></g><g
     id="catcher-mitt_x5F_vw3_x5F_lce"><g
       id="g558"><path
         d="m 114.7,306.7 c 0,0 -1,6.3 -4.3,10 0,0 -6.8,-9 -9.5,-8.3 -2.8,0.8 -2.5,6.3 -2.5,6.3 l 6,8.8 -3.3,3.3 c 0,0 -1,7.5 5.4,6.3 l 3.4,-3 4.8,7.3 c 4.1,0.5 6.9,-0.1 8.8,-1.5 0,0 1.3,-3 -1.5,-4.8 -2.8,-1.8 -6.8,-7.3 -6.8,-7.3 l 7.5,-11 c 0.9,-7.1 -3.9,-6.1 -8,-6.1 z"
         id="path474"
         inkscape:connector-curvature="0" /><path
         d="m 88.6,333.3 c 0,0 1.5,5.5 7.8,8.3 l 2,1.5 c 0,0 -4,3.8 -11.3,-1.3 l -4,-8.5 c 0,0 -4,1.8 -7.5,-7 -3.5,-8.8 -3.8,-12 2.5,-18.6 0,0 0.5,-9.5 -9.3,-22.1 l 1.3,-3.8 c 0,0 3.8,0 5.8,2 2,2 7.8,15.8 7.8,15.8 0,0 0.5,7.8 1.8,9 1.3,1.3 5,4.4 5,4.4 l 2,8.9 c -0.1,0.2 1.6,6.9 -3.9,11.4 z"
         id="path476"
         inkscape:connector-curvature="0" /><path
         d="m 59.5,296.7 v -3.5 c 0,0 7.8,-3.3 8,-4.5 0.3,-1.3 -4,-4.5 -4,-4.5 l -3.3,-0.8 -5.5,-7 c 0,0 -2.8,-4.5 -3.5,-7 -0.8,-2.5 2.5,-4.3 2.5,-4.3 l -8.8,-7.8 1.8,-4.8 -1.8,-2.8 c 0,0 -4.3,-6.5 -3.3,-13.1 1,-6.5 -2.8,-9.8 -2.8,-9.8 h -2.3 c 0,0 -9,-23.1 -10.3,-23.8 l -4.8,3 v -2 l -6.8,2.5 10.5,36.1 -18.8,-13.2 c -4.5,-1.1 -7.8,-1.2 -3.8,5.5 l 27.1,26.1 5.4,8 3.4,7.8 3.8,1 c 0,0 2.5,4 5.3,4 l 7.5,16.3 z"
         id="path478"
         inkscape:connector-curvature="0" /><path
         d="m 27.4,193.5 c 0,0 -7.5,4.3 -7.8,9.5 -0.3,5.3 -1.8,-2.5 -1.8,-2.5 v -7 c 0,0 2,-5 9.5,-10 0.1,0 4.8,6.3 0.1,10 z"
         id="path480"
         inkscape:connector-curvature="0" /><path
         d="m 29.5,170.7 c 0,0 -8.7,5 -9.7,7.5 -1,2.5 -0.5,-5.5 0,-8.5 0.5,-3 5.5,-6.8 9.7,-8 4.2,-1.2 2.4,7.5 0,9 z"
         id="path482"
         inkscape:connector-curvature="0" /><path
         d="m 23.7,155.1 c 0,0 1.4,-6.8 8.3,-8.3 0,0 5.1,-7.5 0,-9.3 -5.1,-1.8 -9.7,10.5 -9.7,10.5 0,0 -0.6,7.4 1.4,7.1 z"
         id="path484"
         inkscape:connector-curvature="0" /><path
         d="m 38.7,121.7 c 0,0 -6.8,0 -9.2,6.5 0,0 0.4,-6.8 2.5,-9.5 2.1,-2.8 9.4,-6 9.4,-6 0,0 3.5,6.7 -2.7,9 z"
         id="path486"
         inkscape:connector-curvature="0" /><path
         d="m 39.9,102.4 c 0,0 1,-4.8 2.5,-7.8 0,0 7,-5.5 9.6,-2.5 2.5,3 -1.3,7 -1.3,7 0,0 -8.8,1.6 -10.8,3.3 z"
         id="path488"
         inkscape:connector-curvature="0" /><path
         d="m 58.5,72.5 c 0,0 5.8,-3 8.8,-2 3,1 -2.8,7.5 -2.8,7.5 l -10.3,2 c 0,0.1 1.6,-6.3 4.3,-7.5 z"
         id="path490"
         inkscape:connector-curvature="0" /><path
         d="m 71.8,61.7 c 0,0 1.5,-5 7,-6.5 5.5,-1.5 6.3,3.3 6.3,3.3 l -4,4.8 z"
         id="path492"
         inkscape:connector-curvature="0" /><path
         d="m 93.9,47.2 c 0,0 1.5,-3.5 6.8,-5.8 l 5,2.9 -5.9,5.1 z"
         id="path494"
         inkscape:connector-curvature="0" /><path
         d="m 113.7,38.7 h 7.5 l 5.5,-2.5 c 0,0 -1.5,-3.3 -6.5,-2 -5,1.3 -6.5,4.5 -6.5,4.5 z"
         id="path496"
         inkscape:connector-curvature="0" /><path
         d="M 58.2,109.2 70,94.1 c 0,0 -0.8,-5.8 -1.9,-5.8 C 67,88.4 57,102.4 57,102.4 Z"
         id="path498"
         inkscape:connector-curvature="0" /><path
         d="m 82.6,80.1 c 0,0 -1,-8.3 14.6,-15.1 0,0 1.3,3 0,4.3 -1.3,1.3 -8.8,5.8 -9,8.5 z"
         id="path500"
         inkscape:connector-curvature="0" /><path
         d="m 112.7,59.1 c 0,0 5.8,-11.4 19.6,-9.6 l -2.8,4.7 z"
         id="path502"
         inkscape:connector-curvature="0" /><path
         d="m 158.6,45.4 12,-4 6,-5.2 h -7.8 l 22.8,-8.4 2,6 c 0,0 10.3,1.5 12.8,-3.5 v -5.8 l -2.8,-3 -7.8,-2.8 -2.8,1.5 c 0,0 -16.1,3.5 -20.1,6 -4,2.5 -9.5,3.8 -9.5,3.8 l -0.5,6.1 c 0,0 -7.8,1.9 -9.3,5.2 -1.5,3.3 0,2 0,2 z"
         id="path504"
         inkscape:connector-curvature="0" /><path
         d="m 172.2,66.8 v 3.6 c 0,0 -4,9.2 0,17 0,0 -1.5,7.6 -3.5,9.5 -2,1.9 -12,-16.5 -2.3,-28.3 1.3,-1.7 3.2,-2.4 5.8,-1.8 z"
         id="path506"
         inkscape:connector-curvature="0" /><path
         d="m 242,37.4 c 0,0 -4.8,-5.3 -12.8,-1.1 l -8.3,-1.6 c 0,0 1,-3 1.8,-5.5 0.8,-2.5 5.8,-9.3 21.8,-4.5 l 3.3,1.8 c 0,0 1,9.5 0,9 -1.1,-0.6 -4.3,-2 -5.8,1.9 z"
         id="path508"
         inkscape:connector-curvature="0" /><path
         d="m 228.9,20.1 2.5,-3.5 1.3,-2.5 c 0,0 -2,0 -3.8,-1.3 -1.8,-1.3 -6.5,3.6 -6.5,3.6 z"
         id="path510"
         inkscape:connector-curvature="0" /><path
         d="m 243.2,46.9 h -2.5 c 0,0 0.3,-11 -15.3,-5.8 -15.6,5.2 -13.1,4.3 -13.1,4.3 l -0.1,6.3 c 0,0 3.7,0.5 6.2,0 2.5,-0.5 5,-4.3 20.6,2.5 z"
         id="path512"
         inkscape:connector-curvature="0" /><path
         d="m 208.1,63.5 c 0,0 12.6,-5.8 23.1,-4.4 l -1.5,8.7 3,1.8 -1.8,4 h 1.8 c -1.6,12.3 -5.3,24.1 -10.3,35.4 0,0 0.8,1.8 2,1.8 1.2,0 -2,10 -2,10 l -6,-1.3 c 0,0 -4.5,6.8 -11.5,3.5 -7,-3.3 -2.5,-12.3 -2.5,-12.3 l 5.5,-4.8 4.4,-0.3 2.9,-8.7 c 0,0 -6,-2.1 -8.5,-1.6 -2.5,0.5 -5.8,-8 -1.8,-10.3 4,-2.3 10,-6.5 16.1,-7 l 2.8,-5.3 2.5,-6.2 c 0,0 -8.7,2.5 -9.4,3.7 -0.7,1.3 -7.4,-0.8 -7.4,-0.8 z"
         id="path514"
         inkscape:connector-curvature="0" /><path
         d="m 262.8,81.8 c 0,0 -7.8,-0.8 -8.5,0 -0.8,0.8 -4.8,18.7 -2.3,21.4 -0.1,6.5 8.6,7 10.8,2.8 1.6,-3.1 5.3,-13.8 5.5,-14.5 0.2,-0.7 0,-4.5 0,-4.5 h -3.5 z"
         id="path516"
         inkscape:connector-curvature="0" /><path
         d="m 298.2,106.2 -8.5,-2.5 -2.3,2.5 c 0,0 -4,0.8 -3.3,7 0.8,6.3 -2.8,8.3 -2.8,8.3 l -1.5,2.4 c 0,0 -3.8,11.9 7,10.4 0,0 10.8,-13.2 11.3,-15.2 0.5,-2 0,-7.3 0,-7.3 v -5.6 z"
         id="path518"
         inkscape:connector-curvature="0" /><path
         d="m 315.5,131.3 c 0,0 -6,12.6 -7.3,16.8 -1.3,4.3 -3.3,1.5 -2.3,7.5 1,6 9.5,1.3 9.5,1.3 0,0 7.5,-11 8.3,-17.1 l 1.3,-8.5 c 0,0 -4.8,-5.3 -7,-5.3 -2.2,0 -2.5,5.3 -2.5,5.3 z"
         id="path520"
         inkscape:connector-curvature="0" /><path
         d="m 224.9,121.2 c 3.8,1.7 -4,13 -10.8,19.1 -5.9,2.9 3.8,10.3 3.8,10.3 0,0 14.8,-16.1 14.8,-19.6 0,-3.5 -7.8,-9.8 -7.8,-9.8 z"
         id="path522"
         inkscape:connector-curvature="0" /><path
         d="m 235.2,142.3 c 4.4,1.6 -4.7,17 -9.3,22.3 -3.7,2.2 4.6,9.3 4.6,9.3 0,0 14.7,-18.1 13.7,-23.3 -1,-5.3 -9,-8.3 -9,-8.3 z"
         id="path524"
         inkscape:connector-curvature="0" /><path
         d="M 262.6,170.7 245.7,184 c 0,0 -2.5,7.5 4.3,6.8 6.8,-0.8 18.1,-13.3 19.6,-13.1 1.5,0.3 0,-3.8 0,-3.8 z"
         id="path526"
         inkscape:connector-curvature="0" /><path
         d="m 283.1,180.7 c 0,0 -13.1,13.5 -18.1,14.5 -5,1 5.2,7 5.2,7 0,0 18.2,-15.3 19.7,-15.3 1.5,0 0,-3.8 0,-3.8 0,0 -2.5,-3.8 -6.8,-2.4 z"
         id="path528"
         inkscape:connector-curvature="0" /><path
         d="M 325.1,172.7 310.2,185 c 0,0 2.5,4.5 -3,9.8 -5.5,5.3 -1.5,3 -1.5,3 l -4,-3 c 0,0 -3.5,0.7 -5,3.5 0,0 -9.8,0.3 -13.1,9.3 0,0 1.6,5 5.2,5.8 3.6,0.8 11.6,-2.3 12.1,-3.5 0.5,-1.3 8.8,2.3 8.8,2.3 l -17.6,22.3 -1.6,5 h 3.3 c 0,0 17.3,-21.6 18.6,-22.8 1.3,-1.2 -0.3,-4.8 7.8,-1.3 l 3.5,-4.8 c 0,0 6.5,1.5 9,-4.5 l 2.8,-1.3 2.8,-12 15.8,-24.1 -4,-1.8 c 0,0 -12.6,20.3 -13.8,21.1 -1.3,0.8 2,-7.6 2,-7.6 l -13.3,13.9 -7.5,10 -8.3,-2 c 0,0 21.4,-19.6 15.9,-29.6 z"
         id="path530"
         inkscape:connector-curvature="0" /><path
         d="m 338.6,156.1 -4.8,5.5 H 330 c 0,0 0.7,5.6 -3,9 l 5.8,-3.8 c -0.1,5.1 -0.3,9.3 -7.8,16.8 0,0 8.5,-4 10.5,-7.5 l 3,-2.3 c 0,0 13.8,-15.1 12.3,-17.8 -1.5,-2.8 10.3,-2.8 11.3,-9.8 0,0 14.3,-7.5 12,-30.6 l -5.8,5.5 c 0,0 3.8,2.5 1,7.5 -2.8,5 0,-2.8 0,-2.8 0,0 -17.3,-16.1 -29.4,-37.9 l -11,-13.1 v -2 c 0,0 -2,-2.8 -1.8,-5.8 0.3,-3 -4.3,-1.8 -4.3,-1.8 0,0 -2,-5.3 -10.5,-4.5 0,0 -20.1,-16.6 -28.9,-25.6 -8.8,-9 -18.3,-20.3 -18.3,-20.3 l -7.3,2.8 c 0,0 16.3,21.3 33.6,36.4 l 8,7.6 1,5.8 c 0,0 1.3,4.3 3,7.8 h 4 c 0,0 4.5,5.3 7.6,3.8 0,0 2.6,3.3 6.9,3.5 4.3,0.3 11,12.5 11,12.5 l 24.6,31 c 0,0 -3.5,1.3 -7,9.9 0,0 4.8,10.2 -0.3,17.4 0,0 -1.3,-7.7 -2.8,-11 l -4.5,2.7 -3.8,8.5 c 0,0 2,4.3 0,9.5 z"
         id="path532"
         inkscape:connector-curvature="0" /><path
         d="m 192.8,12.6 v 3.7 c 0,0 3.8,-2.3 4.8,1.2 1,3.5 13.8,-5 13.8,-5 0,0 -4.4,-5.1 5.4,-4.8 9.9,0.3 15.9,3.8 15.9,3.8 L 236,8.2 c 0,0 -18.8,-11.8 -27.6,-1.8 l -5,-4 -2.5,-1.4 -7.4,2.3 -0.8,3.3 -30.6,8.5 -13.9,6.5 c 0,0 -22.6,8.9 -24.3,8.6 -1.8,-0.3 0,3.9 0,3.9 l 2.8,2.1 c 0,0 26.2,-10.8 31,-12.3 l 0.5,1.2 8.9,-3.1 v -1.9 l 11.6,-3.7 0.7,3.7 6.9,-2.9 -0.1,-2.4 6.6,-2.2"
         id="path534"
         inkscape:connector-curvature="0" /><path
         d="M 192.8,12.6"
         id="path536"
         inkscape:connector-curvature="0" /><path
         d="m 254.5,10.8 5.7,-3 c 0,0 8.4,1.8 8.2,6.3 l -7,1 z"
         id="path538"
         inkscape:connector-curvature="0" /><path
         d="m 269.3,16.3 3.8,-3.7 8.3,3.7 v 2.5 c 0,0 -3.3,-0.3 -4.8,1.3 z"
         id="path540"
         inkscape:connector-curvature="0" /><path
         d="m 291.7,29.1 c 0,0 3.7,-3.4 6.7,-2.5 5.1,1.5 -4.9,-6.5 -6.7,-6.5 0,0 -4,1.3 -6.8,4.5 z"
         id="path542"
         inkscape:connector-curvature="0" /><path
         d="m 307.7,39.7 5,-3.6 c 1.8,0 -3,-7.5 -6,-7 -2.3,0.4 -5.8,3.8 -6.5,5.3 z"
         id="path544"
         inkscape:connector-curvature="0" /><path
         d="m 320.8,48.7 5.5,-3.3 c 0,0 -3,-6.4 -5.5,-6.5 -4.3,0.8 -4.6,3 -5.4,4.9 -0.8,1.7 5.4,4.9 5.4,4.9 z"
         id="path546"
         inkscape:connector-curvature="0" /><path
         d="m 327.3,54.2 3.5,-5.5 h 3 l 4.8,4 c 0,0 0,3 0,4.3 0,1.3 -5.6,3 -5.6,3 l -6.7,-4.8 z"
         id="path548"
         inkscape:connector-curvature="0" /><path
         d="m 339.9,65.5 c 0,0 2.5,-3.5 2.3,-5.5 l 3,-1.1 5.8,6.6 -2.3,3 -3.3,2.8 c 0,0 -3.3,-0.5 -5.5,-5.8 z"
         id="path550"
         inkscape:connector-curvature="0" /><path
         d="m 350.9,77.1 c -0.6,0.7 0.1,5.7 4.5,4.3 2.9,-0.9 4.3,-6.8 4.3,-6.8 l -4.4,-4.3 c 0,0 -1.9,-1.5 -4.4,0 z"
         id="path552"
         inkscape:connector-curvature="0" /><path
         d="m 359.7,79.6 c 0,0 4,-1.5 6.8,4.8 2.8,6.3 0,6 0,6 0,0 4.5,0.8 4.5,7.5 0,6.8 -5.6,7.3 -5.6,7.3 v -5.8 c 0,0 1.1,-6.2 0,-7.1 -1.1,-0.9 -2.9,0 -2.9,0 l -2.8,-4.2 c 0,0 0,-4.9 0,-6.7 0,-1.8 0,-1.8 0,-1.8 z"
         id="path554"
         inkscape:connector-curvature="0" /><path
         d="m 116.2,276.4 c 0,0 3,-6.3 3,-7.5 0,-1.3 -4.5,-3.3 -4.5,-3.3 l -9.8,10.8 c 0,0 0.8,3 3.8,3 3,0 7.5,-3 7.5,-3 z"
         id="path556"
         inkscape:connector-curvature="0" /></g></g><g
     id="catcher-mitt_x5F_vw3_x5F_logo"><g
       id="g4276"><path
         inkscape:connector-curvature="0"
         id="path4270"
         d="m 146.25,301.14999 -11.25,44.25 21.25,-2.5 3,-12.25 6,12.25 15.5,0.75 -23.5,-30.25 -6.5,23.25 -5.25,0.25 8,-29 z"
         style="fill-rule:evenodd;stroke:#000000;stroke-width:1px;stroke-linecap:butt;stroke-linejoin:miter;stroke-opacity:1" /><path
         inkscape:connector-curvature="0"
         id="path4272"
         d="m 147.75,294.39999 30,-1 6.5,11.25 3.75,-13.5 20,-0.5 -11,42.75 -5.5,-8 8,-25.75 -6.25,-0.5 -5,20.5 -14.75,-18.5 -6.75,-0.25 28.5,38.75 -1.25,1.75 -9.75,0.5 z"
         style="fill-rule:evenodd;stroke:#000000;stroke-width:1px;stroke-linecap:butt;stroke-linejoin:miter;stroke-opacity:1" /></g></g><g
     id="catcher-mitt_x5F_open_x5F_back"><g
       id="g569"><image
         id="glove-view-1"
         overflow="visible"
         width="747"
         height="702"
         xlink:href="./assets/images/nys_catcher_back_view.png"
         transform="matrix(0.502,0,0,0.502,0,-0.6334)"
         style="overflow:visible"
         sodipodi:absref="./assets/images/nys_catcher_back_view.png" /></g></g></svg>
