<?xml version="1.0" encoding="utf-8"?>
<!-- Generator: Adobe Illustrator 19.2.1, SVG Export Plug-In . SVG Version: 6.00 Build 0)  -->
<svg version="1.1" id="Layer_1" xmlns="http://www.w3.org/2000/svg" xmlns:xlink="http://www.w3.org/1999/xlink" x="0px" y="0px"
	 viewBox="0 0 375 352" style="enable-background:new 0 0 375 352;" xml:space="preserve">
<style type="text/css">
	.st0{fill:none;}
</style>
<g id="of_x5F_vw1_x5F_wst">
	<path d="M89.8,273c0,0,14,3.8,35.6,24.9s28.5,43,28.5,43v1.5c0,0-10.9,0.3-19.6,1.8c-8.6,1.5-22.6,3.6-27.2,2.8
		c-4.6-0.8-9.4-5.1-9.4-5.1l-4.8-5.6L72,300.5l-2.5-10.7C79.5,292.6,86.1,286.4,89.8,273z"/>
</g>
<g id="of_x5F_vw1_x5F_thbi">
	<path d="M88.8,274.3c0,0,41.2,18.3,64.3,66.4l12.2-1.5l7.6-4.1v-1.8c0,0,13.7-45,24.1-52.1c6.6-8.6,14.3-22.9,17.8-32.6
		c3.6-9.7,14.2-24.7,14.2-24.7l39.2-42.5l38.4-33.6c0,0,16-12,16-20.9S309,113.6,309,113.6l-10.2-1l-8.4,2.5L262,126.3l-20.6,15.5
		l-25.2,16.8l-8.1,6.4l-17,16l-7.4,5.8c0,0-7.9,8.1-9.4,9.7C172.7,198,160,211,160,211l-6.4,10.4c0,0-12.5,15.5-13,24.4l-8.1,6.9
		c0,0-20.3,18.8-43.7,18.8V274.3z"/>
</g>
<g id="of_x5F_vw1_x5F_thbo">
	<path d="M175.3,332.3c0,0,3.2-18.3,8.2-26.5s1.5-11.4,13.2-22.5c11.6-11.1,23-39.6,23-39.6l15.4-23.2l29.1-30.9l26.9-25.4
		c0,0,11.5-13.9,16.1-17.7s13.4-11.9,15.3-20.1l4.7,4.9c0,0,3.2,12.8-1.7,22.5c-5,9.7-22.7,32.8-22.7,32.8l-27.1,30.5L253,242.7
		l-14.5,17.7c0,0-9,11.3-11.1,15.1s-6.3,8-6.3,8s-8,13.7-10.7,17s-12.6,10.7-12.6,10.7l-7.6,7.6L175.3,332.3z"/>
</g>
<g id="of_x5F_vw1_x5F_indo">
	<path d="M154.1,46.9l-9.7,10.2L137.1,68l-9.9,12.2l-7.6,10.2l-9.2,12.7c0,0-15.4,20.1-18.2,26.1c-2.8,6-6.7,11.7-6.7,11.7
		S76.8,150.4,75,154s-7.9,8.9-7.9,8.9s-6.1,3.3-9.9,12l-2.5,62l-6-6.3c0,0-2.1-64.9,9.5-85.4c7.4-14.8,14.2-27,14.2-27
		S95,84.8,110.8,67.5s29.8-34.1,29.8-34.1S154.6,43.9,154.1,46.9z"/>
</g>
<g id="of_x5F_vw1_x5F_plm">
	<path d="M211.3,105.5c-6.9,27.8-20.2,58.1-37,90l-14.8,15.3c0,0-7.5,7.3-9.3,10.3s-9.3,13.3-13.5,26.5c0,0-16.5,21.5-48.8,24
		c0,0-16.5-26.8-35.5-35.8c0,0-10.5-50.8,3.5-59.8c7.6-5.4,18.5-19.8,21-25.3c0,0,61-89.5,77.1-103.8L211.3,105.5"/>
</g>
<g id="of_x5F_vw1_x5F_web">
	<path d="M192.1,46.2l-21.9,26.7l-27.1,33.2l-24.6,33L95,167.7l-15.1,18.7c0,0-16,20.6-2.7,31.1s20,11.6,30.9,2.3
		s22.7-25.2,22.7-25.2l35.5-46.2l32-40.6l28-33.6v-1.1l-33.2-28.8L192.1,46.2z"/>
	<path d="M182.2,4.6c0,0,0.8,1.5-4.8,0c-5.5-1.5,0,0,0,0s-2.9,1.4-7.1,0.7c0,0-1.7,2.8-3.8,1.8l-3.6,4.4c0,0-1.3,2.7-2.9,3.4
		c-1.5,0.8-1.3,2.3-1.3,2.3l-2.1,1.7h-1.7l-4.8,4.4c-0.1,0.1-7.4,1.1-10.3,11.8L141,37c0.7,0,26.9,21,30.5,24.4
		c3.8,3.6,16-19.5,16-19.5l5.7,2.3L231.6,78l3.4,2.7c0,0-16.6,11.4-17.2,16l14.9,12.4c12.8,9.5,20.6,9.1,34.7,26.9
		c0,0,3.2,0.6,8.6-5.9c5.3-6.5,12.6-13.7,16.6-15.8c4-2.1,15.8-7.2,15.8-7.2l1.9-2.3l-9.9-13.5c0,0-12.6-14.1-21.4-20.4
		s-24.2-18.3-24.2-18.3l-25.9-17.7L189.4,7.8L182.2,4.6"/>
</g>
<g id="of_x5F_vw1_x5F_bnd">
	<g>
		<path d="M191.9,46.4l-42.7,54l-29.8,37.8l-19.3,24.6c0,0-16,17.4-20,23.7s-7.8,17-7.8,17s-1.7,18.3,20.8,21.9
			c0,0,13.7-1.1,24.4-14.1s31.1-41,31.1-41l35.9-45.4l24-29.8l18.1-21l8.4,7.1c0,0-6.5,3.1-11.8,9.3S202,116.9,202,116.9l-4.4,7.1
			l-11.1,13.4l-18.7,23.1L149.3,184l-13,16.6l-12.6,14.1l-10.3,10.7c0,0-18.7,15.8-34.7,2.7s-12-32.6-12-32.6s7.8-13.2,12.4-18.7
			s35.5-42.2,35.5-42.2s31.1-40.1,37-46.7S178,53.4,178,53.4l9.5-12C187.5,41.4,194.2,43.5,191.9,46.4z"/>
		<path d="M176.8,331.3c0,0-12.4,8.6-23.8,8.8s-12.8,0-12.8,0s-33.6,7.4-41.8,1.3l-1.9-1.5c0,0,2.3,7.4,10.9,8.8s33-3.6,33-3.6
			s28.8-3.4,34.9-7.6L176.8,331.3z"/>
		<path d="M214.4,293l-4.2,7.6l2.1,2.1c0,0,4.4-7.2,5-8L214.4,293z"/>
		<polygon points="227.4,275.4 221.6,283.4 224.5,284.4 229.1,275.4 		"/>
		<path d="M237.5,260.2c0,0-4.8,8.4-6.5,9l1.5,1.1l7.1-9L237.5,260.2z"/>
		<path d="M48.3,228.5c0,0,2.3,7.4,13.7,13c11.4,5.5,25.7,28.8,25.7,28.8s6.5,13.5-3.1,22.7c0,0-11.2,3.4-15.6-1.7s0-10.1,0-10.1
			s5.1-7.2,13.7-9.5c0,0-8.6-15.6-16.5-21.7S50,238.4,48.3,235.8C46.5,233.1,45.8,229.3,48.3,228.5z"/>
	</g>
</g>
<g id="of_x5F_vw1_x5F_wlt">
	<path d="M321.5,131.6c0,0-7.9,13-25.9,24.9c-18.1,12-40.2,38.7-40.2,38.7L231,220.4l-7.2,8.4l-9.6,20.1c0,0-14.5,29.8-21.6,36.6
		c-5.5,6.6-8.3,14.5-11.7,22.4l-9.2,25.9h3.3c0,0,5.5-19,9.9-29c3.9-6.4,0.3-11.8,15.9-24.9c9.4-13.6,9.4-14.7,9.4-14.7l9.8-21.7
		c2.8-11.4,15.3-22.5,22.6-31l22.1-22.9l27-25.7c0,0,29.2-18.8,32-32.3s0-3.1,0-3.1C323.6,125.8,323,125.8,321.5,131.6z"/>
	<path d="M67.3,165.6c-1-0.3-6.5,5.3-10.1,9.2c0,0,1.8-5.7,9.9-12L67.3,165.6z"/>
	<path d="M138.9,247.2c0,0,2.3-7.3,5.6-13.5s9.6-14.8,9.6-14.8l-2.6,1.4c0,0-4.6,5.6-8,12s-6.1,13.5-6.1,13.5L138.9,247.2z"/>
	<path d="M306.3,109.9l1.8,3.7c0,0,6.9-0.3,14,11.9l5.3,6.2C327.3,131.7,324.3,117,306.3,109.9z"/>
</g>
<g id="of_x5F_vw1_x5F_stch">
	<g>
		<path d="M86.6,269c15.3-0.6,27.5-5.5,43.3-18.3"/>
		<path d="M48.5,229.5c0,0,2.9,5.3,6.1,7.6c3.2,2.3,20.2,10.5,30.7,29.6s0,25.6,0,25.6"/>
		<path d="M86.6,266.5c11.5,1.6,25.6-5.2,41.4-17.4c-52.5,5.3-69.6-10.9-75-61.4c-0.9,15.6-0.6,31.4,2.7,47.5"/>
		<path d="M55.1,178.5c0,0-4.8,43.9,24.4,62.6c0,0,5.3,9.3,46.3,5"/>
		<path d="M54,180.3c0,0-8,18.5,0,53.2"/>
		<path d="M131.6,121.9c0,0,11.1,12-1.5,28.4s-29,37.4-29,37.4l-10.7,12.6l-0.4,3.4l4.5,5.3c0,0,14.9-14.1,21-21.4
			s18.9-27.3,23.3-31.1s14.9-18.3,26.3-7.2l-32.2,42c0,0-18.1,26.3-25.6,29.4c-7.4,3.1-16.4,10.9-30.9-4.6s24.4-54.4,24.4-54.4
			L131.6,121.9z"/>
		<line class="st0" x1="132.4" y1="120.6" x2="147.1" y2="102.4"/>
		<line class="st0" x1="181.6" y1="128.4" x2="165.9" y2="148"/>
		<path d="M181.6,127.2c0,0-16.2-12.8,4.4-35.1s24.6-16,34.5-13l6.1-4.4"/>
		<line class="st0" x1="218.4" y1="83.4" x2="185.2" y2="123.6"/>
		<line class="st0" x1="150.7" y1="98.2" x2="184.1" y2="55.9"/>
		<path d="M132.8,119.6c0.2-0.2,13.5-16.1,13.5-16.1"/>
		<path d="M148,101c0,0,16.8,8.1,30.3-11.9s13.5-20,13.5-20s0.8-14.9-4.4-17.4L148,101z"/>
		<line class="st0" x1="188.5" y1="50.4" x2="191.9" y2="45.8"/>
		<path d="M182.5,48.1c0,0-17-15.3-21.7-20.2s-6.5-6.5-6.5-6.5l3.1-2.9c0,0,21.4,22.5,25.2,25.4"/>
		<path d="M167.4,18.5l17.8,15.8c0,0,9.9,2.9,17.5,13.7l26.7,21.4c0,0,11.1,10.1,21,16.2l12.6,7.8"/>
		<path d="M231,85.7l48.6,31.9c0,0,6.9-2.1,8-7.1l-17-14.1L231,67c0,0-26.5-21.4-33.4-27.3s-9.2-7.1-9.2-7.1l-16-14.1l-7.8-4.8
			l-2.7,1.1"/>
		<path d="M91.6,282.9c0,0,28.5,11.2,50.9,57"/>
		<path d="M97.9,341.4c0,0,9.2,4.6,33.6,0c0,0,14.5-1.5,25.2-1.5c0,0,15.3-3.8,19.8-7.9"/>
		<path d="M91.6,278.9c0,0,32.8,8.6,58.5,61.5"/>
		<path d="M233.2,83.4c0,0,41.5,25.6,46.5,29.9"/>
	</g>
</g>
<g id="of_x5F_vw1_x5F_lce">
	<path d="M184.4,4.6c0,0-8.9,0.6-9.4,5s2.5,3.3,2.5,3.3l7.9-4.1c0,0-4.6,4.8-2.8,7.4c1.8,2.5,4.9,0,4.9,0s3-4.8,11.1-3.8
		c0,0-8.6,2.5-9.2,6.6s1,4.8,4.1,4.8s4.6-6.1,14-5.1c0,0-9.4,5.1-9.4,7.4s1.5,3.3,4.8,4.8c0,0,12.5-8.6,16-3.8c0,0-5.3,1.3-7.9,5.3
		c-2.5,4.1-2,9.7,4.6,7.9c0,0,10.9-8.6,13.7-4.8c0,0-4.3,2-6.9,5.2c-2.5,3.2,0.9,13.1,5.3,7.5c4.9-6.1,13.7-7.4,15.8-3.1
		c0,0-5.8,2.5-8.6,5.3s-3.1,10.4,5.8,7.1c8.9-3.3,2.5-6.9,13.2-5.8l1.8,1c0.6-1.9,0.1-3.3-8.1-7.9l-4.8-2c0,0-2.5-4.4-8.9-6.4
		c0,0-8.2-8.2-12.7-8.4c0,0-4.1-5.8-10.7-8.6c0,0-6.9-5.8-9.9-7.1c0,0-6.6-5.1-10.2-5.6C190.5,6.8,186.7,4.7,184.4,4.6"/>
	<path d="M260.4,53.8c0,0-12,1.3-14,9.2s7,5.1,7,5.1s10-11,14.9-6.9C268.3,61.2,270.9,59.1,260.4,53.8z"/>
	<path d="M280.8,72.1c0,0-3.6-5.1-13.5,6.1c-9,4.2-10.6,1-8.9-5.3c0,0,8.4-7.1,14.5-8.9h2C274.9,64,285.3,70.8,280.8,72.1z"/>
	<path d="M287.1,73.6c0,0,10.9,7.1,6.6,9.4c0,0-3.6-6.4-13.2,4.6c-9.8,6.4-10,0.6-10.4-4.8C270.2,82.8,281.3,71.6,287.1,73.6z"/>
	<path d="M294.8,84.3l-10.9,10.4c0,0-4.1,6.1,5.5,7.1l4.2-1.5l7.6-8.6l1.8-3.8l-5.3-4.8L294.8,84.3z"/>
	<path d="M298.6,112.8l4.3,8.6c0,0-5.6,3.6-6.1,8.6l1.3,2.8L277,167.2l-12.5,20.3l4.1,3.8l-2.3,1.5l-1.8,2c0,0-2.5,1.5-3.3,3.6
		c-0.8,2-3.4,6.1-3.4,6.1l-1.4-1l-7.1,4.1l-4.3,10.9c0,0-17,5.8-34.8,23.7v2.8l5.1,4.3c0,0,12-14.8,21.9-19.1
		c0,0-12.5,10.7-13.5,13.7c-1,3.1,2.5,3.6,2.5,3.6s13.2-7.6,18.1-20.9l3.3-1.3l1.8,1.5l7.2-0.5v-3.6l1.7,0.5l4.6-6.4l-0.3-2.3
		l40.4-25.4l-1.5-6.4l-27.2,13.7l-4.8,0.5c0,0,20.3-13.2,24.9-23.4v-6.1l-3.8,2.3c0,0-9.4,10.4-10.4,11.1s17.3-27.8,17.3-27.8
		l11.2-19.1v2.8c0,0,11.4,3.8,12-11.7c0,0-2-4.3-8.1-5.3l-6.6-10.9L298.6,112.8z"/>
	<path d="M196.3,285.7c0,0-5.8,7.6-6.9,11.4c-1,3.8-2,5.8-2,5.8s-11.3,26.2-11.3,33.8c0,7.6,3.3,3.8,3.3,3.8s4.1-2.5,6.7-9.7
		c2.7-7.1,8.5-21.1,8.5-21.1s1,1.3,5.8,0s9.4-8.9,9.4-8.9s4.1-4.6,0-7.1l4.1-4.8v3.1c0,0,2.3,2.8,6.1,2.8s6.9-1.5,6.9-1.5l2.3-0.8
		l10.4-3.1V288l-3.1-2.3c0,0-3.3,0.8-9.4,1.3l-1.3-1.3l-2.5-2.3h-4.8l7.4-8.4l3.8,1.3l2.8-4.3c0,0,0.3-2.3-1.8-3.1l2.3-4.1
		c3.8-7.4-0.3-10.7-8.6-5.1c0,0-21.1,22.6-22.4,23.9c-1.3,1.3-3.3,0.8-3.3,0.8L196.3,285.7z"/>
	<path d="M248,252.4c0,0,0.8,4.3-2,7.4s-9.2,0-9.2,0s3.4-6.4,5.6-7.4C244.7,251.4,248,252.4,248,252.4z"/>
	<path d="M81.9,200l-6.1-32.6l-1.5-5.8l7.6,2.3c0,0,7.4,9.7,8.9,14s2,6.6,2,6.6s3.1,1.5,4.8-1c1.8-2.5,0-9.9,0-9.9l-9.2-15
		c0,0-0.5-5.1,3.1-5.3l2.8,3.3c0,0,8.4,2.5,13,7.1c0,0,11.2,2.5,7.1-6.4l-16-7.9h3.8l1.3-2.5c0,0-4.7-2.3-8.7-2.3v-5.8
		c0,0,6.9-8.9,11-9.7l19.1,11.4c5.1,4.3,10.2-1.5,5.8-6.1l-11.2-7.1l1.8-3.3c0,0-7.1-3.1-8.1-4.1s2.8-5.8,1.8-9.2
		c-1-3.3,9.2-7.9,9.2-7.9s6.9,6.6,14.2,11.2c7.4,4.6,4.8,3.1,4.8,3.1c4.6,2.8,9.4-3.1,4.6-6.9l-9.7-7.4l2.3-2.5
		c0,0-6.4-5.1-10.7-4.8l0.8-7.1c0,0,5.6-7.9,13.2-8.6c0,0,1.5,4.3,7.1,8.1c5.6,3.8,8.1,6.1,8.1,6.1c4.6,6.1,13.7,2,5.6-6.6l-7.9-5.8
		l2.8-3.8c0,0-3.3-4.1-10.2-5.6c0,0-1.5-3.1-0.8-5.8s13.2-11.4,14.2-9.2c1,2.3,1,5.6,6.4,8.9c5.4,3.3,8.9,6.9,8.9,6.9
		c6.6,4.3,9.4-0.4,7.1-5.1l-10.2-9.4v-2.9c0,0-1.2-1.3-5.3-4.6l-3.1-9.9c-4.3-4.2-6.9-1.9-8.6,3.6l2.3,5.1c0,0-9.2,4.9-11.7,8.7
		h-7.9l-1.3,1.5l-9.7-3.1l-1.5,5.8c0,0,1.1,1.4,10.7,4.1l2.3,6.4c0,0-3.3,0.5-9.9,8.1l-1.5-0.8H122l-1.3,1.5c0,0-7.4-2-8.1-2.5
		c-0.8-0.5-2.5,6.1-2.5,6.1s1,1.3,9.4,4.1l2.3,6.9l-9.2,7.9c0,0,0.3-1.5-7.4-1.3l-3.3,1.8l-6.9-0.3l-1.8,4.3l1.3,2.3l6.4,1.3
		c0,0,1,5.6,2.5,8s0.3,1.4,0.3,1.4s-5.3,4.8-7.1,7.9c0,0-5.1,0.5-6.6-0.5l-2.5,2l-6.4-2c-3.6-0.2-4.2,2.3-3.8,5.6
		c0,0,3.1,1.5,8.9,4.1c0,0,1.3,6.4,2,7.9l-3.8,4.6l-1.5-0.5c0,0-1.3,2-5.3,0.8l-0.8,3.8L73,154l-3.6-15.5L62,141l2.5,10.7
		c0,0-0.5-0.5-2.5,1s-3.1,3.8-2,5.3s6.4,2.8,6.4,2.8l5.8,31c0,0-0.8-2.8-2.5-5.1c-1.8-2.3-5.6-3.3-5.6-3.3l-0.5,8.1l5.8,8.4l2.3,3.3
		c0,0-0.5,5.3,1,8.9c1.5,3.6,3.1,2.8,3.1,2.8s2.3,6.1,9.7,4.3l7.6,1.5c0,0,31,20.1,46.5,39.2l2.8,1.1l3.3-4.6c0,0-18.3-20.9-29-28.6
		c-10.7-7.6-22.6-16-22.6-16l0.8-3.6l-4.3-5.1h-3.1L81.9,200z"/>
	<path d="M159.7,232.3l4.1-14.2l7.1,3.1l-3.8,13.7c0,0,4.1,2.5,0.8,7.9c-3.3,5.3-9.2,5.1-9.2,5.1s-4.3,2.5-7.4-6.4
		c0,0-15-13.2-14.5-30c0,0-7.9-7.9-15.5-7.1s-8.4-1.8-8.4-1.8s-0.5-5.3,4.6-6.9c5.1-1.5,17,1.5,21.9,6.4l2.5-4.1
		c0,0-8.6-10.9-13.5-16.8c0,0,3.1-7.6,6.4-4.6c3.3,3.1,4.3,5.1,4.3,5.1l6.6,8.4l1-4.1l3.1-3.6l5.1,8.1l-1.3,5.1c0,0,3.1,2.5,5.6,2
		c0,0,0.8-16.3,2.8-21.1L146.7,159c0,0,3.1-5.3,5.8-5.1c2.8,0.3,5.3,3.6,5.3,3.6l6.9,9.9l2.5-6.6l5.8,8.1v3.8c0,0,4.3,2.5,8.1,0.5
		c0,0,0.3-14.4,2.5-22.2l-17-12.4l-3.8-2.5c0,0,1.3-6.6,5.8-6.9l16.3,13.2l3.8-7.1c0,0,4.8,6.9,6.1,8.1c1.3,1.3,0,4.3,0,4.3
		s4.6,2.3,9.9,0.5l1.8-19.1l-17.8-12l-6.1-3.1l2.3-7.6c0,0,3.8-0.5,8.4,2.3c4.6,2.8,13.2,9.7,13.2,9.7V111l5.1-6.6l-1.8,9.4l5.3,4.6
		v5.1c0,0,7.1,1.5,10.7,0.8l-2.3-19.8c-1,1.5-18.6-12.1-21.1-12l-3.3-2c0,0,2.8-5.9,4.3-7.4s16,7.1,17.8,9.4l2-3.1
		c0,0,1,2.8,8.1,5.8l1.3,2l10.7,1.5c7.2,3.7,8.3,6.7-1.3,8.4l-8.6-1.3c0,0-2,9.4,0.8,18.3l9.2,1c0,0-0.5,1.5,3.6,7.1v5.8l-5.1,4.3
		l2.3,4.6c0,0,2,10.2-7.6,5.8c0,0-6.4-13-8.9-18.8c0,0-7.1-0.5-12.2-1.8l-2,14.8l6.9-0.5c0,0,0,3.3,4.1,6.4c0,0-4.1,4.1-8.6,4.3
		c0,0,1,8.9,2.8,10.7c-1.1,5.9-3.9,7.2-8.6,3.3l-3.1-13.5c0,0-11.2,0.5-15-1c0,0-3.9,8.9-4.5,13.5c0,0,1.7,1.8,5.8-1.5l1.5-0.3
		l4.1,4.8c0,0-2.8,5.6-7.4,6.9l3.1,9.7c-1.9,3.9-4.1,6.5-7.1,4.3c0,0-3.4-2.5-4.1-11.2c0,0-9.2-0.8-12.7-1.8
		c-3.6-1-2.8,12.5-2.8,12.5l2.8-1.5l2.3,2c0,0,1.8,3.3,1.5,5.3s-4.8,4.8-4.8,4.8l3.1,7.6c1,4.9-1.8,6.1-7.4,4.8c0,0-3.3-6.6-3.3-8.4
		c0,0-8.6-1-10.9-3.8l-2.3,1.8l1.8,2.5c0,0-2,3.8,0.5,5.3s1.8,3.3,1.8,3.3l-6.9-0.5c0,0,2.5,10.7,9.2,15.5L159.7,232.3z"/>
	<path d="M178.8,150l-8.9,12.4c0,0-1,3.6,2.5,5.1l6.4-11.2C178.8,156.3,181.1,151.9,178.8,150z"/>
</g>
<g id="of_x5F_side_x5F_view">
	
		<image style="overflow:visible;enable-background:new    ;" width="739" height="902" id="glove-view-3" xlink:href="assets/images/nys_outfield_side_view.png"  transform="matrix(0.3815 0 0 0.3815 46.5437 4.5884)">
	</image>
</g>
</svg>
