<?xml version="1.0" encoding="utf-8"?>
<!-- Generator: Adobe Illustrator 26.4.1, SVG Export Plug-In . SVG Version: 6.00 Build 0)  -->
<svg version="1.1" id="Layer_1" xmlns="http://www.w3.org/2000/svg" xmlns:xlink="http://www.w3.org/1999/xlink" x="0px" y="0px"
	 viewBox="0 0 375 350" style="enable-background:new 0 0 375 350;" xml:space="preserve">
<style type="text/css">
	.st0{display:none;}
	.st1{display:inline;}
	.st2{display:inline;fill:none;stroke:#000000;stroke-miterlimit:10;}
</style>
<g id="inf_x5F_vw3_x5F_thbo" class="st0">
	<path class="st1" d="M287.7,205.4l13.4-5.9c0,0-2.4,18.9-10.6,41.6c-7.5,20.8-22.3,54.7-22.3,54.7s5-23.8-15.1-47l-0.5-3.1
		C252.6,245.6,291.1,238.7,287.7,205.4z"/>
</g>
<g id="inf_x5F_vw3_x5F_wst" class="st0">
	<path class="st1" d="M253.1,248.7c0,0,8.2,25-26,31.9c-34.1,6.9-48.5,9.2-68.8,5.4c-20.3-3.7-39.5-11.8-39.5-11.8
		c8.3,20.2,13.3,41.1,6.6,55.4l2,2.2c16.9,24.9,129.8,18.2,129.4-2.2l4.6-17.6C261.4,312,286.2,269.5,253.1,248.7z"/>
</g>
<g id="inf_x5F_vw3_x5F_thbi" class="st0">
	<path class="st1" d="M252.8,245c0,0,1.4,2.5,1.8,4.7c0.4,2.2,17.6,5.7,15.1,40.9c0,0,27.7-61.1,30.1-84.3l-4.1-19.3l-5.4,2.2
		L252.8,245z"/>
</g>
<g id="inf_x5F_vw3_x5F_web" class="st0">
	<path class="st1" d="M271.8,11l-4.7-4.4c-0.1-0.1-0.3-0.2-0.4-0.3c-0.8-0.4-3.3-1.5-6.1-2c-0.5-0.1-1,0-1.4,0.4l0,0
		c-0.7,0.6-0.8,1.5-0.2,2.2l0.2,0.3c0.2,0.3,0.3,0.6,0.3,1c0,1.4,0,5,0.8,5.4c1,0.5,4.7,1.2,4.7,1.2s8.1,1.7-1.7,8.6l-0.1,0.1
		l-0.6,0.3c-0.7,0.4-1,1.2-0.7,2s0.7,1.6,1.4,1.9c1.2,0.5,18.7,3.9,35.4,38.2c0.1,0.3,0.2,0.6,0.2,0.9c-0.3,2.2-1.4,11-2.4,16.7
		c-0.3,1.5-2.3,1.8-3,0.5c-4.5-8.6-15.4-28.2-22.1-29.6c-1.2-0.2-2.2,0.8-1.9,2c0.7,2.9,1.6,8.8-2.8,6.9c-1-0.5-2.2,0.2-2.3,1.4v0.5
		c0,0.2,0,0.5,0.1,0.7l1.7,4.7c0.1,0.3,0.3,0.5,0.5,0.7l3.7,3.2c0.4,0.3,0.6,0.9,0.6,1.4c-0.1,1-0.4,2.7-1.3,3.9
		c-0.1,0.1-0.2,0.2-0.3,0.3c-0.9,0.7-4.9,3.4-7.7,2.9c-1-0.2-2,0.6-1.9,1.6c0.1,0.9,0.5,2.1,1.9,3.6c3.5,3.5,11.1,20,13.4,24.2
		c1.8,3.3,3,5,3.4,5.5c0.1,0.1,0.2,0.3,0.3,0.5l11.6,32.7c0,0.1,0.1,0.2,0.1,0.3l1.9,13.6c0.1,1,6.4,16.2,12.5,19
		c3,1.4,7.5-0.5,8.2-7.6l-2.4-30.5c0,0,0,0,0.1-0.1l4.2-6.1c0.1-0.2,0.2-0.4,0.3-0.6l6.8-30.4c0-0.1,0-0.2,0-0.4V85.4v-5.5
		c0-0.1,0-0.2,0-0.4L317,56.6c0-0.1-0.1-0.3-0.2-0.4c-1.3-2.3-13.5-24.9-22.4-31.5l-9-6.6c-0.3-0.2-0.4-0.4-0.6-0.7l-1.1-3
		c-0.1-0.3-0.3-0.6-0.6-0.8l-0.6-0.4c-0.7-0.4-1.6-0.3-2.1,0.3l-0.8,0.9c-0.5,0.6-1.4,0.3-2.1-0.1l-5.2-3
		C271.9,11.2,271.8,11.1,271.8,11z"/>
</g>
<g id="inf_x5F_vw3_x5F_indi" class="st0">
	<path class="st1" d="M233,4.7c0,0-4.7,30.4-5.9,44.5s-4.7,32.2-4.7,32.2l-8.9,46.8l-11.1,52.5l-4.7,27.7c0,0,28.2,7.2,31.9,11.6
		l20.8-85.1l4.7-18.6l2-35.6l3-23.8l-1.5-4.7V30.9c0,0,1.2-1.5,1.5-5.9s-4.2-12.9-4.2-12.9S242.4,1,233,4.7z"/>
</g>
<g id="inf_x5F_vw3_x5F_plm" class="st0">
	<path class="st1" d="M266.4,135.6c0,0-7.9-13.4-11.4-16.6c0,0-0.7,11.9-1.7,13.4s-4.2,3.2-4.2,3.2l-2.7,4.2
		c0,0-28.7,25.2-32.9,69.5c0,0,25.2,5.2,39.3,35.6c0,0,40.3-2.2,34.9-39.6l2.5-12.4v-5.7l-3.7-8.2l-6.5-12l-5.2-13.6L266.4,135.6z"
		/>
	<path class="st1" d="M290.2,150.9l2.5,17.6l-6.2,10.6L280,167C280,167,285,165,290.2,150.9z"/>
</g>
<g id="inf_x5F_vw3_x5F_indo" class="st0">
	<path class="st1" d="M200.9,14.8c0,0,6.7-9.9,19.5-12.4h13.9l-2,4.9l-6.9,55.2c0,0-5.9,35.9-7.8,43.8c-1.9,7.9-10.3,50.5-10.3,50.5
		L196.9,209l-20.5-2l1.7-60.4c0,0-2.5-26.2,4.5-35.6l3.7-18.1c0,0,6.9-48.5,8.9-55.4s2.5-11.6,2.5-11.6S198.5,17.7,200.9,14.8z"/>
</g>
<g id="inf_x5F_vw3_x5F_midi" class="st0">
  <path d="M174.7,5.1c0,0,14.1,1.7,23.1,10c0,0,0.5,8.2-1,13.4s-7.7,14.1-11.1,55.4l-1,13.6c0,0-1.5,10.1-2.2,12.6
    s-4.5,9.4-4.9,53.7s-1.5,43.5-1.5,43.5c-5.7,1.6-17.5-0.4-19.3,3.4c-0.5,1-0.1,2-0.1,2c-0.2,0-5.9-39.2-7.8-55.4
    c-4.8-40.2,1.7-94.4,14.7-130.5C167.2,16.9,172.7,13.6,174.7,5.1z"/>
</g>
<g id="inf_x5F_vw3_x5F_mido" class="st0">
  <path d="M156.7,210c-7.9,4.4-15.4,6-20.2,6.7l-1.7-4.7l-8.9-65.1c0,0-0.5-43.3,3-50c0,0.1,9-45.9,11.1-51.6l3.7-10.1l4.9-11.9
    c12.6-14.9,21.5-18.7,27.8-17c-23.5,34.6-22.3,55.3-27.1,83.9C145.1,108.9,149.7,185.2,156.7,210z"/>
  <path d="M185.7,83.9"/>
</g>
<g id="inf_x5F_vw3_x5F_mid" class="st0">
	<path class="st1" d="M140,45.3l3.7-10.1l4.9-11.9C166.4,0,196.9,4,197.8,15.1c0,0,0.5,8.2-1,13.4s-7.7,14.1-11.1,55.4l-1,13.6
		c0,0-1.5,10.1-2.2,12.6s-4.5,9.4-4.9,53.7s-1.5,43.5-1.5,43.5l-39.6,9.4l-1.7-4.7l-8.9-65.1c0,0-0.5-43.3,3-50
		C128.9,97,137.9,51,140,45.3z"/>
</g>
<g id="inf_x5F_vw3_x5F_rngi" class="st0">
	<path class="st1" d="M116,38.4c0,0-23.9,53.1-20.3,88.8c2.5,24.7-3.6,25.7,21,80.4c9.9,22,4.9,15.3,4.9,15.3l14.1-7.7l-2.7-15.1
		l-6.7-48.7l-0.7-25.5c0,0,2-22.5,2.7-29.2s9.4-42.8,11.1-51l3.2-7.4c0,0-1.5-18.3-20-9.9L116,38.4z"/>
</g>
<g id="inf_x5F_vw3_x5F_rngo" class="st0">
	<path class="st1" d="M115.5,38.8l4.5-9.4c-20.3,7.2-6.8,9-20.8,24.8C75,121.9,76.3,168,110.4,232.6l11.5-10.6
		c0,0-17.1-41.8-20.5-54.2c-5.7-20.5-5-39.4-5.2-59.9c-0.2-20,10.3-54.2,12.6-54.4L115.5,38.8z"/>
</g>
<g id="inf_x5F_vw3_x5F_pnki" class="st0">
	<path class="st1" d="M97.9,55.7c0,0-2.7-2.5-13.4,3.5L81,71.8l-3.7,34c0,0-3,14-4.2,18.2s-9.9,14.1-7.9,40.6
		C67.2,191,67,213,67,213l29.4,62.8c0,0,12.4,29.7,12.9,33.9c0.5,4.2,2.5,7.9,2.5,7.9l7.2,11.9c0,0,1.4-14.1-3-29
		c-4.5-14.8-13.1-40.6-12.4-55.7c0.7-15.1,4.9-12.4,4.9-12.4s-20.3-38-20.9-57.4c0,0-7.7-27.8-4.4-49.9c3.3-22.1,4.6-41.8,10.6-56.5
		L97.9,55.7z"/>
</g>
<g id="inf_x5F_vw3_x5F_pnko" class="st0">
	<g class="st1">
		<path d="M81.1,71.8l-3,4c0,0-0.7,15.8-2.5,19.5c-1.7,3.7,0,18.4,0,18.4L81.1,71.8"/>
		<path d="M66,242.7c0,0,2.7,15.3,5.4,20.8c2.7,5.4,4.5,11.1,4.5,11.1s2.7,7.9,11.9,12.9l21.5,22.3l-31.9-67.1
			C77.4,242.7,80.4,246,66,242.7z"/>
	</g>
</g>
<g id="inf_x5F_vw3_x5F_logo" class="st0">
	<polygon class="st2" points="169.5,299.8 155,342 179.2,341.2 182,332 187.5,340.5 200.3,340.8 180.1,312.7 172.2,332.8 167.5,333
		176.7,307.8 	"/>
	<polygon class="st2" points="170.2,291.7 207.3,341.2 219.8,341.2 189.8,299.8 197.8,300.7 212,320.9 219.8,301 225.5,300.7
		215.8,325.5 222.2,334 238.2,291.7 213.3,291.7 210.5,300.7 204.2,292.3 	"/>
</g>
<g id="inf_x5F_vw3_x5F_wlt" class="st0">
	<path class="st1" d="M235.3,4.9c0,0-3.2,16.4-5.4,37.7s-4.5,34.1-4.5,34.1S213,143.5,211,149c0,0-7.7,39.3-8.4,41.6
		s-2.2,14.1-2.2,17.6h-4.7l7.9-39.8l10.1-53.7c0,0,8.7-38.4,11.6-66.3c3-28,5.4-43.4,5.4-43.4h4.6L235.3,4.9L235.3,4.9z"/>
	<path class="st1" d="M182.3,113.8c0,0-4.5,13.1-2.7,34.6c0,0-0.6,18.1-0.4,25c0.2,6.9-1.2,21.8,0,32.2h-4.5c0,0,1.5-31.1,1.5-35.6
		c0-4.5,0.7-30.2,0.7-37s2.5-17.2,5.4-25.4V113.8z"/>
	<path class="st1" d="M158.3,208.1c0,0-6.9-46.3-8.4-66.1s-2.2-52,8.4-91.6c0,0,5.2-26,16.3-39.1l-4.7,0.5c0,0-13.9,24-18.3,55
		s-7.7,53.7-4.9,76.5c2.7,22.8,7.4,65.8,7.4,65.8L158.3,208.1z"/>
	<path class="st1" d="M125.9,134.4c0,0-1,22,3.2,48.7c4.2,26.7,4.9,32.4,4.9,32.4l3.7-1.2c0,0-9.2-47.5-9.7-56.4
		C127.6,149,125.9,134.4,125.9,134.4z"/>
	<path class="st1" d="M123.6,219.8C100.9,169.4,95,145,98.9,96c0,0,7.2-39.6,20-60.6l-5.9,4.5c0,0-13.9,33.9-15.6,47.3
		s-4.2,45.9-0.7,65.3c3.6,19.8,11.8,37.4,14.3,45c2.5,7.7,8.9,24.2,8.9,24.2L123.6,219.8z"/>
	<path class="st1" d="M91.4,187.3c0,0,12.6,38.6,17.9,42.6l-1.7,4c0,0-14.6-33.2-16.2-40.3c-1.6-7.2-2.6-11.9-2.6-11.9L91.4,187.3z"
		/>
	<polygon class="st1" points="81.3,70.8 78.1,96 79.7,72.3 	"/>
	<path class="st1" d="M254.3,118.3l-4.4,16.1l3.4-1.3C253.3,133,257,123.7,254.3,118.3z"/>
</g>
<g id="inf_x5F_vw3_x5F_stch" class="st0">
	<g class="st1">
		<g>
			<path d="M249.7,235.9c0,0-0.3-0.4-0.9-1.2"/>
			<path d="M248,233.5c-4.2-5.5-15.6-19.3-28.6-23.8"/>
			<path d="M218.7,209.5c-0.5-0.2-1-0.3-1.4-0.4c0,0,0-0.5,0.1-1.5"/>
			<path d="M217.6,206.1c1.2-9.5,6.2-39.3,23.4-56.2c0,0,11.8-12.7,10.9-10.2c-11,31.4-2.3,78.2,31.2,74.5"/>
			<path d="M283.8,214.2c0.5-0.1,1-0.1,1.5-0.2c0,0,0.1,0.5,0.1,1.5"/>
			<path d="M285.4,216.9c-0.4,6-4.2,19.6-30.4,26.3"/>
			<path d="M254.3,243.4c-0.5,0.1-1,0.2-1.5,0.3"/>
		</g>
	</g>
	<g class="st1">
		<g>
			<path d="M252.8,241c0,0,0.5-0.1,1.5-0.3"/>
			<path d="M255.8,240.4c6.7-1.6,22.8-6.8,28-20.9"/>
			<path d="M284.1,218.7c0.2-0.5,0.3-0.9,0.4-1.4c-0.5,0.1-1,0.1-1.5,0.2"/>
			<path d="M281.5,217.6c-28,1.3-42.4-33.3-34.8-66.9"/>
			<path d="M246.9,149.9c0.1-0.5,0.2-1,0.4-1.5c-0.2-0.1-0.7,0.1-1.4,0.6"/>
			<path d="M244.8,149.9c-5.9,5.1-19.8,23.6-23.8,54.6"/>
			<path d="M220.9,205.2c-0.1,0.5-0.1,1-0.2,1.5"/>
		</g>
	</g>
	<g class="st1">
		<g>
			<path d="M215.5,209.1c0,0-0.5-0.2-1.4-0.5"/>
			<path d="M212.6,208.2c-8.5-2.4-34.5-8.3-64.6-0.1c-28.2,7.7-38.7,18.1-38.7,18.1s-5.1,7.9-5.7,17.8"/>
			<path d="M103.6,244.8c0,0.5,0,1,0,1.5"/>
		</g>
	</g>
	<g class="st1">
		<g>
			<path d="M123.7,276.9c0,0,0.5,0.2,1.3,0.7"/>
			<path d="M126.3,278.2c6.6,3.1,24.7,10.4,46.4,10.8c25.9,0.4,61.4-5.8,73.2-14.2"/>
			<path d="M246.5,274.3c0.4-0.3,0.8-0.6,1.1-1"/>
		</g>
	</g>
	<g class="st1">
		<path d="M247.6,273.4"/>
	</g>
	<g class="st1">
		<g>
			<path d="M255,262c0,0,0.3,0.4,0.9,1.2"/>
			<path d="M256.7,264.5c3.6,5.6,10.9,20.8,5.2,43.7"/>
			<path d="M261.7,308.9c-0.1,0.5-0.3,1-0.4,1.4"/>
		</g>
	</g>
	<g class="st1">
		<g>
			<path d="M255,253c0,0,0.5,0.3,1.3,0.8"/>
			<path d="M257.4,254.7c5.1,4.1,15.6,16.1,9.7,41.5"/>
			<path d="M266.9,297c-0.1,0.5-0.2,1-0.4,1.5"/>
		</g>
	</g>
	<g class="st1">
		<g>
			<path d="M127.4,331.8c0,0,0.3,0.4,1,1.1"/>
			<path d="M129.5,333.9c5.5,4.5,22.6,14.7,62.6,11.7c46.6-3.6,56.1-6.7,61.9-12.1"/>
			<path d="M254.6,332.9c0.4-0.4,0.7-0.7,1-1.1"/>
		</g>
	</g>
	<g class="st1">
		<g>
			<path d="M290.2,92.7c0,0-0.1-0.5-0.4-1.4"/>
			<path d="M289.3,89.8c-1.7-4.8-5.7-14.2-12.3-19.1"/>
			<path d="M276.4,70.2c-0.4-0.3-0.8-0.6-1.3-0.8l0.3,1.5"/>
			<path d="M275.7,72.4l0.6,3c0,0,12.9,17.8,17.3,28.3"/>
			<path d="M293.9,104.4c0.2,0.5,0.4,1,0.5,1.4"/>
		</g>
	</g>
	<g class="st1">
		<g>
			<path d="M296.6,100.2c0,0,0.3-0.5,0.7-1.3"/>
			<path d="M298,97.7c1.6-2.9,4.1-7.5,5.7-10.5"/>
			<path d="M304,86.5c0.3-0.5,0.5-1,0.7-1.3"/>
		</g>
	</g>
	<g class="st1">
		<g>
			<path d="M302.3,92.7c0,0-0.2,0.5-0.6,1.4"/>
			<path d="M301.2,95.2c-0.9,1.9-2.1,4.4-3.2,6"/>
			<path d="M297.6,101.7c-0.4,0.5-0.7,0.9-1,1.1"/>
		</g>
	</g>
	<g class="st1">
		<g>
			<path d="M314.4,134.4c0,0-0.3,0.5-0.8,1.2"/>
			<path d="M313,136.4c-0.5,0.6-1.1,1.3-1.7,1.9"/>
			<path d="M310.9,138.6c-0.4,0.3-0.8,0.6-1.3,0.8"/>
		</g>
	</g>
	<g class="st1">
		<g>
			<path d="M309.6,142c0,0,0.5-0.4,1.2-0.9"/>
			<path d="M311.6,140.4c0.6-0.5,1.2-1.2,1.8-1.9"/>
			<path d="M313.6,138.2c0.3-0.4,0.6-0.8,0.8-1.3"/>
			<path d="M300.9,119.8c0,0,4.5,17.3,4.8,20.5"/>
			<path d="M302.3,120.5c0,0,4,12.6,4.5,19.8"/>
		</g>
	</g>
</g>
<g id="inf_x5F_vw3_x5F_bnd" class="st0">
	<g class="st1">
		<path d="M189.7,345.9c0,0-49.4,4.3-62.9-16c0,0,2.8-23-2.8-39.3s-4.1-15.2-4.1-15.2s25.6,16.5,69.6,13.2s59.2-16.1,59.2-16.1
			c11.5-8,8.5-33.2-11.9-51.4c-10.2-13.3-43.2-17.7-61.4-17.3c-33,1.5-62,19.9-62,19.9c-15.8,10.9-9.4,37.7-2,61.4
			c7.1,18.4,8,36,8,36l-0.6,8.9c0,0,2.2,5.4,7.1,3c0,0,6.7,17.1,59.8,17.1s66.6-10,68.5-13.4c0.9-1.7,1.7-3.4,2.3-4.6
			C253.6,336,241.4,344.4,189.7,345.9z M113.8,248.9c-1.1-18.2,8.1-24,50.1-34.3c37.1-7.5,69.9,4.1,74.6,23.9
			c10,25.9,1.3,29.2-12.8,34.9C202.3,279.7,115.7,286.2,113.8,248.9z"/>
		<path d="M257.3,330c0,0-0.3,0.8-0.9,2.1C257.3,330.8,257.3,330,257.3,330z"/>
	</g>
</g>
<g id="inf_x5F_vw3_x5F_lce" class="st0">
	<g class="st1">
		<path d="M283.3,96c0,0-3.5,1.2-3.2,10.6s-1.2,17.1-1.2,17.1s-11.1,10.6-13.1,11.6s-4.5,3.5-4.5,3.5s-0.7,6.9,3.7,9.2
			c4.5,2.2,7.3-4,7.3-4l3.1-1.2l-1.5,7.9l0.5,5.9c0,0-5,4.2-2.1,12.6c0,0,2.1,1.7,5.3,0c3.2-1.7,11.9-4.7,17.6-45.8
			c0,0,1.2,0.5,4.2-0.2c0,0,3-4.5,3-8.7l-5.2-5.7l-4.7,2.2C292.4,111.1,295.1,100.5,283.3,96z"/>
		<path d="M319.4,168.5c-1.6,2.2-3.2,0.6-3.2,0.6l-2.4,3.9c0,0-0.4,2.2-1.6,6.1c-1.2,3.9-7.7,7.9-7.7,7.9s2.6-4.5,3.1-10.2
			c0,0,6.8-5.6,7.1-11.2"/>
		<path d="M312.2,152.8c2,1.5,2.5,12.8,2.5,12.8"/>
		<path d="M254.6,68.3c0,0-7.7,1-3.2,8.9s5.9,3.2,5.9,3.2s2.6,0,3.9,1.4c1.3,1.3,6,0.3,8-2.6s0-6.4,0-6.4S263.2,68.8,254.6,68.3z"/>
		<path d="M270,24.5c0,0-3.6,15.3-5.1,16.6c0,0-4-3.7-7.2-1.7c-3.2,2-6.2,3.7-6.2,3.7s2.7,6.7,5.2,8.4l3.2,4.7v2.5
			c0,0,3.2,1.2,4.7,3.7c0,0,4.2,2,5.3-1c1.1-3,0-4.9,0-4.9l-3.4-2.5c0,0,4.7,0.7,6.4-3.7s0-4.9,0-4.9l5.4-18.6
			C278.6,26.7,272.4,23.5,270,24.5z"/>
		<path d="M263.5,24.3c0,0-3.2-1.2-5.2,0l-2-3.5c0,0-2-3-1-4s10.6-1.5,12.1-1s1,3.9,1,3.9L263.5,24.3z"/>
		<path d="M265.1,5.7c0,0,2.6,2.5,5,4.5l2.6,2l5.9,2.5c0,0,2.4-1.7,3.2-2.5V7.9l-6.9-2.2c0,0-0.9-0.2-1.4,0
			C272.9,5.9,268.2,3.7,265.1,5.7z"/>
		<path d="M315.4,134.4c0,0-2.5-8.7-3.5-8.7s-4.2-2.7-4.2-2.7l0.5-3.7l-2-2.5l-1.2-9.4c0,0,2.7,3.7-0.2-2c-3-5.7-0.5-7.9-0.5-7.9
			c5.9,0.7,6.2,5.7,6.2,5.7s-1-4.5-1.2-5.2s-14.1-40.1-14.1-40.1l8.7-2l1.7,3l3.2,9.4c4.9,8.9,11.1,39.1,11.1,39.1h2.2l1.2-17.1
			l-1.5-12.4v1.5c0,0-2-0.7-4-2.2s-4-4.9-4-4.9c-3.7-4.2-3.5-13.1-3.5-13.1l0.2-5.4l4.9,4c-0.2-8.2-23-33.3-23-33.3L283,17l-1.5-3.5
			l3.5-2l5.9,3.2l-0.5,3.2l4.9-3.2L308,30c13.4,12.6,17.8,30.4,17.8,30.4l1.5-1.5l5.7,6.2l-1.2,1.7l2.8,3.2l-2.8,5.3h-4
			c0,0,2,8.8,0,16.5s-1.2,21.3-1.2,21.3v3.7v6.9c0,0-1.2,0.2-1.7,2.7c-0.5,2.5-4,15.6-4,15.6c-1.4,8.3,3,21.1,3,21.1l-0.9,4.1
			l-4.3-0.9l-1.8-4.9c0,0,0.9,4-0.8,7.3l-2.5,0.7c0,0,2.8-1.1-0.8-13.7l-1.5-8.1C311.5,147.7,314.1,142.7,315.4,134.4z"/>
		<path d="M258.8,6.2v5.2H257c0,0-3.2-4.9-5.4-2.6c-0.5-1.5-17-5.3-30.9-3.9L219.4,3c0,0,8.9-6.4,26.7,0
			C246.1,3,255.5,1.5,258.8,6.2z"/>
		<path d="M158.8,18.3c0,0,20-7.2,27-6.9c0,0,3.5-2,1.7-4s-17.1-5.7-28.7,7.2C158.8,14.6,157.8,16.1,158.8,18.3z"/>
		<path d="M109.1,43.7c0,0,5.2-4.1,14.4-7.3s3.2-7.4,1.2-7.7c-2-0.2-12.6,1.2-16.8,9.2S107.5,44.7,109.1,43.7z"/>
		<path d="M78.1,56.4l4-5.9c0,0,10.6,2.3,9.2,12.5c-1.5,10.2-6.5,3.6-6.5,3.6S78.4,72.8,74,81.2l-3.5,6.2l1.2,20.8
			c0,0,0-8.2,4.5-11.1l-0.7,14.6l-2.2,11.1c0,0-3.2,11.9-5.4,14.6h-2.5c0,0-4.2,19.8-6.9,26.2s-4,11.4-4,11.4l-3.7-1.5
			c0,0,6.9-21.5,8.4-30.4s1.5-8.9,1.5-8.9l-1.7,0.2c0,0,0-4-0.5-6.4l1-1.2v-1.5l4.9-4.5c0,0,1.2,3.7,2.5-1.5
			c1.2-5.2,0.5-22.8,0.7-25.5l-1.7,0.5c0,0-15.6,24.2-18.8,28.7l-6.8-3.5c0,0,18.9-31.2,24.1-39.3s12.9-19.5,14.8-22L78.1,56.4z"/>
		<path d="M82.1,138.1l1,11.6l-5.7,6.2l-2.5-3.2l-2.2,4.7l-5.4,3.7l-1.5-2.5c0,0,1.2-7.9,3.9-11.4c0,0-0.2-3,4.7-3.2L82.1,138.1z"/>
		<path d="M59.8,231.1l-4.9-5.4l4.9-13.1c0,0,1-1.2,2.2-1.7l-1.2-33.7c0,0,0.2-8.7,1.2-11.9s1-12.6,3.7-12.9v47.5l2.5,10.1l1.7-3.5
			l6.7,9.7c0,0-1.2,5.9,3.5,9.4c0,0,5.4,2.2,4.9,8.7c0,0-2,4.5-3,4.5s13.1,28.5,13.1,28.5l3.2-2.5l3.2,14.8v7.7l2.2-2l2.7,5.2
			l3.2,19.9c0,0,0.7,3.1,3.5-1.1c0,0-8.2-12.2-2.7-16.9c0,0,2.7-0.7,5.2,5.7l1.7,5.7c0,0,5.2-8.2,9.9-9.9c4.7-1.7,4.7,8.2,4.7,8.2
			s-1-3.2-8.9,10.1c0,0,6.4,7.7,8.9,8.4l3.5,4.9l-8.7,1.5l-7.7-8.9v5.3c0,0-6.7-2.7-8.2-8.7c-1.5-6.1-2.7-1.5-2.7-1.5
			s-0.5,9.7,10.1,16.1c0,0,2,4.2,6.2,4.9l-3,2.3c0,0-16.1-3.8-17.3-19.9l-5.9-4.2c0,0-4.5-2.7-5.4-5.4c-1-2.7,0-4,0-4
			s-3.7-5.1-1.5-10.7c0,0-3.2,1.3-4.9-2.9l-0.5-2l4.7-0.2l4.5,2.7v-4.7c0,0-6.9,1-13.1-18.8c0,0-7.7-15.8-11.6-22
			c0,0-2.7-0.8-6.2-2.2s-7.9-6.7-7.9-6.7S58.3,230.4,59.8,231.1z"/>
		<path d="M66.5,245.7H64c0,0,0.5,4.7,1.2,6.7h3L66.5,245.7z"/>
		<path d="M70.5,262.8c0,0,2.2,2.5,4.5,3c0,0,3.2,7.7,3,8.7c0,0-2.5-0.7-7.4-3C70.5,271.4,67.7,264.3,70.5,262.8z"/>
		<path d="M132.8,41.3c0,0,5.9-7.4,10.4-3.2l-2,4.2L140,46c0,0-2.5-2.2-4.5,0h-2.7V41.3z"/>
		<path d="M190.7,18.3c0,0,4.5-6.2,14.6-1.5c0,0-0.7,3.2-1.7,4.5s-3.5,3-3.5,3s-1.5-2.4-4.5,0l-4.9-2.8L190.7,18.3L190.7,18.3z"/>
		<path d="M290.4,241l-5.9,16.1c0,0,6.9-4.7,7.4-6.2C292.4,249.4,294.1,246.9,290.4,241z"/>
		<path d="M268.2,295.7l1.5,17.1c0,0-2.7,7.9-4.2,2s-2-8.4-2-8.4L268.2,295.7z"/>
		<path d="M139.1,255.2c0,0-12.4,0.7-16.5,0c0,0-0.6,6.9,4.8,6.9c5.4,0,8.2,0,8.2,0S142,259.8,139.1,255.2z"/>
		<path d="M151.3,258.6c0,0,1.3,3.4,3.2,4.4c0,0,13.2,2.4,16.7,0.9s0-4.1,0-4.1S163,257.4,151.3,258.6z"/>
		<path d="M195.1,257.1c0,0,16-2.1,19.9-3.8s1.7,3.8,1.7,3.8s-8.4,6.5-20.2,4.2C196.4,261.3,194.9,261.2,195.1,257.1z"/>
		<path d="M314.4,163.2C314.4,163.2,314.5,163.5,314.4,163.2c-1.1-6.4-4.5-5.1-4.5-5.1l1.3-8.5c-2-1.5-0.1-2.3-6.2-7.5
			c0,0-4,2-5.7,7.9s-2.2,10.1-4.7,14.8l-4.9-12.6L284,175l2.5,3.4c0,0-1,0-2.5,2.2s-2.5,6.2-1,8.9s12.6-2.5,12.6-2.5
			s-5.2,7.2-7.9,8.4l-2.2,8.7c0,0,4.5,2,10.9-2.2l-3.7,9.2c0,0,0.5,4,1,6.4h2l4.5-13.4l-1.3,8.8l-0.7,4.6c0,0-2.5,8.2-3.2,10.1
			l5.9-2.5l-1-10.1c0,0-1.2-2.7,1.2-5.7c2.5-3,8.7-10.4,8.7-10.4l-4-3.7l-4.7,4.2l1.2-5.2l1.3-1.5c0,0,1.8,0.2,3.8-0.4
			c2.1-0.6,3.1-0.3,3.1-0.3s4.5-3.2,4.9-8c0.6-0.7,1-1.7,2-2.7c0.6-4.5-0.8-11-2-13.3s-4.1,4.9-4.1,4.9s2,2.3,0.9,6.2
			c-1.2,3.9-7.7,7.9-7.7,7.9s2.6-4.5,3.1-10.2c0,0,7-5.7,7.4-11.3L314.4,163.2z"/>
	</g>
</g>
<g id="inf_x5F_open_x5F_back">
	<g>

			<image style="overflow:visible;enable-background:new    ;" width="794" height="943" id="glove-view-1" xlink:href="assets/images/nys_infield_swelt_back_view.png"  transform="matrix(0.3712 0 0 0.3712 40.1511 0)">
		</image>
	</g>
</g>
</svg>
