<?xml version="1.0" encoding="utf-8"?>
<!-- Generator: Adobe Illustrator 20.1.0, SVG Export Plug-In . SVG Version: 6.00 Build 0)  -->
<svg version="1.1" id="Layer_1" xmlns="http://www.w3.org/2000/svg" xmlns:xlink="http://www.w3.org/1999/xlink" x="0px" y="0px"
	 viewBox="0 0 375 352" enable-background="new 0 0 375 352" xml:space="preserve">
<g id="of_x5F_vw2_x5F_thbo">
	<path  d="M28,130.5c0,0-10,5.5-4.5,15s15.5,23,15.5,23s6,8.5,6.5,13.5c0,0,3.5,3,5,6.5l5,5c0,0-1.5,3.5,4,12.5
		c0,0,6,8.3,12,15.5c0,0,2.8,6.8,6.8,10.3l3.8,10l4.3,6.8c0,0,7.9,16.8,18.3,28.5c12.6,14.3,16,20.5,16,20.5s-4,4.8,5,21.8
		c0,0,22,3.3,14.8-5.8l-37-65c0,0-4.8-6-9-12.8S70.8,201,70.8,201s-17.5-26.8-19.5-31s-8-12.5-10.8-15.5S29.3,141.5,28,130.5z"/>
</g>
<g id="of_x5F_vw2_x5F_thbi">
	<path  d="M24.4,116.5l3.8,12.7l-7.5,6.3C20.7,135.5,15.9,121.5,24.4,116.5z"/>
</g>
<g id="of_x5F_vw2_x5F_plm">
	<path d="M26.5,114.8c0,0-3.9,5.8,9.9,31.4c0,0,15.2,21.8,27.8,42.6s40.4,60,40.4,60s5.1-5.8,11.1,4.4c6,10.2,13.5,29.5,17.9,35.8
		s0.5,26.4,53.9,36c53.4,9.7,73.5-18.9,73.5-18.9l18.4-29.5c0,0,10.4-14.5,12.6-17.7c2.2-3.1,4.4-8.9,4.4-8.9s19.8-37.2,25.4-50.5
		s17.4-41.4,20.3-51c2.9-9.7,6.5-18.1,6.5-22.7c0-4.6,2.2-45.5-29.3-43.5c0,0-10.9,1.7-16.2,7.7s-8.9,18.9-8.9,18.9
		s-24.4,46.2-26.1,48.6s-13.1,21.8-15,31.2c0,0-5.8,2.2-2.7-4.1s10.4-20.8,10.4-20.8s11.8-24.4,13.5-29s15-33.4,16.7-37.2
		c1.7-3.9,6.8-15.3,6.8-15.3s12.3-38.6-31-41c0,0-6.8,2.4-10.4,16.7s-4.8,17.9-4.8,17.9s-7.7,68-22.2,82.7l-2.7,5.1
		c0,0-7.5,3.4-5.1-4.8s19.6-81.5,20.1-85.4s3.1-16.4,2.2-22.2c-1-5.8-9.7-26.8-28.8-24.9c0,0-13.1,1.9-13.1,18.6l-3.4,17.4l0.2,10.6
		c0,0-1.5,24.9-2.9,31.9c-1.5,7-6.3,48.1-6.3,48.1s-5.1-0.7-4.1-7.7s4.4-42.1,4.4-46.2s1.2-30.5,3.1-37s-0.7-15.7-0.7-15.7
		s0.5-13.1-5.1-18.6s-29.8-16.9-37.7-4.4c0,0-4.8,1.9-3.1,15.7s3.6,36,3.9,41.8c0.2,5.8-1,39.2-1,39.2s3.6,26.6-5.3,34.8
		c0,0-14.5,6.2-13.3,17.5c0,0-15.4,22.3-19.5,24.9l-16.7-17.8L87.2,168l-5.6-6.8l-7.5-9.2l-7-8.2l-7.7-10.6c0,0-4.6-11.8-24.4-20.6
		C35,112.6,29.6,110.7,26.5,114.8z"/>
</g>
<g id="of_x5F_vw2_x5F_indi">
	<path d="M142.6,147.5l3.6,1.7c0,0,4.1-43,2.4-69.9c-1.7-26.8-2.2-36.1-1.2-43.5l-2.9,0.3l-1,14.2c0,0,1.4,15.9,1,21.5
		c-0.5,5.6,0.2,17.5,0.2,17.5l-0.2,7.2c0,0,0.5,5.7,0,13.5c-0.5,7.7,0,21.5,0,21.5s0.5,13.3,0,14C144,146.3,142.6,147.5,142.6,147.5
		z"/>
</g>
<g id="of_x5F_vw2_x5F_indo">
	<path d="M172.3,17.1c0,0,1-2.6,8.7,1.3s16.2,16.9,16,28.1c-0.2,11.1-1.2,30.2-1,32.2c0.2,1.9-0.7,4-0.7,4l0.5,6.8
		c0,0-5.1,46.5-6,53.8l0.7,6L189,154l-2.7-1.7c0,0-1-20.5,2.9-56.9s6.8-58.9-7.3-71.7l-3.6-3.1L172.3,17.1z"/>
</g>
<g id="of_x5F_vw2_x5F_mid">
	<path d="M234,29.2c0,0,18.4,9.7,9.2,46.9s-9.4,40.1-9.4,40.1s-10.1,39.4-10.6,43.8s2.1,3.3,2.1,3.3s18-40.8,20.4-57
		s2.9-24.2,3.4-31.9s1.5-15,1.5-15S252.3,37.9,234,29.2z"/>
</g>
<g id="of_x5F_vw2_x5F_rngi">
	<path d="M285,39.6l-4.2,3.6l-10.3-4.7C270.5,38.5,274.6,35.3,285,39.6z"/>
</g>
<g id="of_x5F_vw2_x5F_rngo">
	<path d="M284.5,44.9c0,0,1.7-4.1,5.1-3.4c3.4,0.7,7.5,9.4,12.8,16.7c0,0,6,15.5,0,26.9l-0.9,3.8l-6.7,17.5L256.4,176l3-10.2
		L291,98.6l5.1-12.1C296.1,86.5,309.4,62.3,284.5,44.9z"/>
</g>
<g id="of_x5F_vw2_x5F_pnki">
	<path d="M346.9,104.9h5c0,0,5.6,13.5-5,44.3c-10.6,30.7-26.8,61.4-26.8,61.4L301.5,249c0,0,0.4,5.1-3.2,9.2l-2.4-2.9l32.9-71.3
		C328.8,184,356.1,120.9,346.9,104.9z"/>
</g>
<g id="of_x5F_vw2_x5F_pnko">
	<path d="M345.9,103.7l6,1.2c0,0-6.5-17.2-19.8-23.6c0,0-5.3-0.1-7.5,0.5C322.5,82.4,339.2,77.8,345.9,103.7z"/>
</g>
<g id="of_x5F_vw2_x5F_wlt">
	<g>
		<path d="M22.4,141.9c0,0-1.5-4.6,4.4-10.4c0,0,7.5,18.9,18.4,30c0,0,8.2,13.1,11.1,17.9c2.9,4.8,41.6,62.1,41.6,62.1l6.3,10.2
			l2.9-2.7l-23.9-36c0,0-26.8-39.9-30.2-45.9s-8-12.1-10.6-14.8c-2.7-2.7-12.1-23.2-14-30.5s0.5-7.7,0.5-7.7s-4.4,1.7-4.6,2.7
			s1.2,9.9,1.9,12.3C26,129.1,17.3,136.1,22.4,141.9z"/>
		<path d="M147.9,35.3c0,0,2.4,31.9,2.9,34.8s0.2,20.1,0.2,24.7s-0.5,19.3-0.5,19.3l-0.6,6.8v12.3c0,0,1.6,9.4-2.1,16.2
			c-3.6,6.8-3.4,4.8-3.4,4.8s4.6-12.3,3.7-23.2s1.8-23.7,1.1-33.1s0-26.1-1.1-34.1C147.2,55.8,145.9,39.9,147.9,35.3z"/>
		<path d="M152,21.2c-1.1-3.1,31.4-13.3,39.7,25.6c2.5,11.9,0,16.2,0,16.2l-4.1,41.4l-2.7,36c0,0-1.7,8.5,2.7,14c0,0-1.2-22,0-29
			s2.7-28.3,2.7-28.3l3.4-33.6c0,0,0.7-12.6,0-17.7s0-11.8-6-19.6c-6-7.7-26.6-17.9-37.7-5.6l-1.6,4.6L152,21.2z"/>
		<path d="M217,26.3c0,0,20.3-1.9,25.1,24.7c-0.1,0.8,0.5,16.2-2.4,23.9c-2.6,6.9-6.8,27.3-10.2,44s-8.7,38.2-8.7,38.2
			s-1.9,6.5,2.9,8.7l3.6-3.1c0,0-6.8,4.1-3.4-8.2c3.4-12.3,11.6-47.4,11.6-47.4s6.5-26.6,7.7-31.9s2.2-10.4,2.2-15
			s0.2-24.7-11.8-31.9C233.7,28.3,220.2,22.2,217,26.3z"/>
		<path d="M266.6,41.6c0,0,14.5-0.7,28.5,16.9c0,0,7.3,10.2,0,24.9c-7.3,14.8-20.3,45.7-20.3,45.7l-17.4,38.7l-8,15
			c0,0-3.6,6.5,1.9,7.7l6.8-14.5c0,0,21.8-40.6,26.4-47.6s12.1-22.5,12.1-22.5l-0.5-1.9c0,0-37,68.7-40.4,73.5l31.4-68.2
			c0,0,8.4-14.9,11.2-24.5S308.2,57,284,43.2c0,0-8-4.4-12.3-5.6C271.7,37.7,265.6,39.1,266.6,41.6z"/>
		<path d="M318.4,82.9c0,0,23,0,27.6,26.1c0,0,4.4,15.2-13.8,59.7s-29.3,66.5-29.3,66.5l-11.6,21.5l4.6-1.5c0,0,1.5,0.7,20.6-40.9
			s27.3-66.3,27.3-66.3s10.9-23.9,4.4-41.6c0,0,1.7-0.7,4.8,0.7l-1.9-4.6l-3.9-0.2C347.1,102.5,339.4,76.1,318.4,82.9z"/>
	</g>
</g>
<g id="of_x5F_vw2_x5F_web">
	<path d="M23.3,116.8c0,0-2.3-8.6,11.5-6.3l15.4,9.9c0,0,1.9-1.4,3.8-1.9l4.8-3.3l8.4-5.2c0,0,3.4-2.4,7-4.2l17.3,38.8l19.4,53.5
		c4-2.1,10.6-11.6,17-20.6l1.8-2.9c0,0-2.3-5.4-3.1-17.6S114,111.2,114,111.2l-11-30.4c0,0,6-4.1,13-9.9s11.3-17.8,27-20.6
		c0,0,1-17.5,4.3-24.5c0,0,1.3-7.6,6.6-8.1L155,16l-8.8,2.1l-8.3,1.1c0,0-1.4-3.3-6.7,0s0,0.7,0,0.7l-8.4,3c0,0-0.9,2.4-2.8,1.3
		c0,0-9.2,4-8.8,3.6c0.4-0.4-2,1.4-4.1,1.6l-7.6,3c0,0-0.6,0.1-1.5,2.1L95.1,36l-7.5,3.6L82,43.9L75.5,47l-4.3,3l-5.6,4.1l-10.4,7.5
		c0,0-0.6,3.3-3.1,2.5l-6.9,5.3c0,0,0.9,5-3.5,4l-5.5,4.3c0,0,0.1,4.5-2.6,3.1L27.1,87c0,0-1.8,1.4-2.5,6.3L22,98.8
		c0,0-0.8,9.1-3.4,11.2C18.6,110,21.5,114.6,23.3,116.8z"/>
</g>
<g id="of_x5F_vw2_x5F_bnd">
	<g>
		<path d="M131.2,319.6l1.7,6.5c0,0,8.2,0.5,13.5-6.5s2.2-5.8,2.2-5.8s8,6.3,16.4,8.7c8.5,2.4,17.2,4.4,22.5,4.8
			c5.3,0.5,9.9,3.4,23.2,2.7c13.3-0.7,18.4,0.1,18.4,0.1l11.4-3.5c0,0-3.4,3.6-8.2,5.1c0,0-1,17.4,14.8-3.9l10.2-7.5l9.7-6.6
			c0,0,1.9,1.3,8.9-12.5s11.1-26.1,11.1-26.1l7.7-11.6c0,0,6.8-4.1,3.6-8.5c0,0-9.2,0.7-13.1,7c-3.9,6.3-14.5,24.2-14.5,24.2
			l-5.3,5.1c0,0-2.7,5.1-4.8,9.9c-2.2,4.8-5.3,6.8-5.3,6.8s-16.4,16.9-33.9,15.5l-8.7,0.5c0,0-13.8,0.7-15.2,0.7
			c-1.5,0-15.2-2.7-18.4-2.9s-8-3.4-8-3.4s-22-6-31.4-24.2c-9.4-18.1-14-29.7-14-29.7l-8.2-14.5c0,0-3.6-9.4-12.6-2.7
			c-8.9,6.8-4.4,9.4-4.4,9.4l10.2,12.3l10.9,22.6c0,0,3.1,8.4,5.1,12c1.9,3.6,10.6,7.7,10.6,7.7s6.5,2.4,2.4,6.3
			C135.5,321.6,131.2,319.6,131.2,319.6z"/>
		<path d="M98.8,84.7c0,0,21,48.9,28.8,93.6l3.6-5.8l-1.9-2.1c0,0-0.2-16.2-6.5-34.3s0,0,0,0L118,117l-2.9-9.4c0,0-0.7-7.5-3.4-10.2
			c-2.7-2.7-3.4-7.3-3.4-7.3l-3.9-11.6C104.4,78.5,103.4,82,98.8,84.7z"/>
		<path d="M67.6,110l7-4.8c0,0,8,9.9,14.4,24.2s9.8,23.4,9.8,23.4s6,11.4,10.2,27.1l2.2,17.4l-8.7-17.2c0,0-3.6-7-8.7-16.7
			s-10.2-20.8-10.2-20.8L67.6,110z"/>
	</g>
</g>
<g id="of_x5F_vw2_x5F_stch">
	<g>
		<path  stroke="#88FF37" stroke-miterlimit="10" stroke-dasharray="3,1.5" d="M43.2,113.5c0,0,12.1-11.7,19.6-18.6
			s20.8-18.3,33-26s20.7-15.2,20.7-15.2s8.7-9.3,24.7-13.3"/>
		<path  stroke="#88FF37" stroke-miterlimit="10" stroke-dasharray="3,1.5" d="M43.2,108.7c0,0,5.5-6.7,22.4-21
			s30.1-23,30.1-23s9.3-6,12.7-9.4c3.4-3.4,17.1-12.8,26.1-16.8"/>
		<path  stroke="#88FF37" stroke-miterlimit="10" stroke-dasharray="3,1.5" d="M42.2,107.1c0.2-0.7,14.5-16.9,20.5-22.3
			s11.9-11.1,11.9-11.1s14-11.3,24.2-18.3s19.1-12,27.8-16.5"/>
		<path  stroke="#88FF37" stroke-miterlimit="10" stroke-dasharray="3,1.5" d="M43.2,102.5c0,0,15.2-18.1,18.4-21
			s7.3-6.5,7.3-6.5s14.9-12.1,22.8-16.7s11.1-8.2,11.1-8.2s12-7.7,19.1-11.5"/>
		<path  stroke="#88FF37" stroke-miterlimit="10" stroke-dasharray="3,1.5" d="M278,272.7c0,0-14.5,32.9-36.8,45.2
			c0,0-10.2,8-52.5,4.8c0,0-32.2-6.3-40.6-18.4"/>
	</g>
</g>
<g id="of_x5F_vw2_x5F_lce">
	<g>
		<path d="M121.3,66.9l7.3,3.9c0,0,2.2-3.1,10.2-1.9s19.8,5.8,19.8,5.8l3.9,2.2c0,0,1,3.1-2.9,4.4c-3.9,1.2-13.3-3.9-13.3-3.9
			l-4.3-1.7c0,0-3.4,2.2-12.1,1.5c0,0-4.6,3.6-6,8l8,5.8c0,0,2.4-1,6.5-1.5s6.5-0.5,6.5-0.5s11.8,6.5,15.2,8s2.5,2.9,2.5,2.9
			s0.1,1.7-2.8,3.4c-2.9,1.7-16.4-7.5-16.4-7.5s-6,2.2-10.4,1.9l-4.8,8l5.3,3.9c0,0,4.1-3.1,11.4,0c7.3,3.1,14.8,8.9,16.7,9.2
			c1.9,0.2-1.9,4.8-1.9,4.8s-1.8,1.6-15.7-7.5c0,0-8.7,2.4-8.9,0.5l-4.8,10.4c0,0,2.9,3.6,4.6,4.4c1.7,0.7,0.7-3.9,9.9-1.5
			c0,0,10.9,7.5,15,8.2c0,0,2.2,1.2-1,4.8c0,0-3.9,1.5-12.1-4.8s-5.6-1-5.6-1l2.2,2.2c0,0-5.6,5.6-5.6,7l11.6,3.9
			c0,0,6.8,1.2,8.2,2.9c1.5,1.7,1,4.6-1.7,4.8s-11.4-2.9-11.4-2.9l-5.3-2.2c0,0-2.9,0.5-5.8,0.7l-4.6,6.5l-0.5-5.6l1.7-1.9l-1.5-0.5
			c0,0-2.2,3.9-7,5.8l-2.2-0.2l1.2-5.3c0,0,6.8-1.9,4.4-9.9c0,0,2.7-1.2,5.1-1.2l1.5-5.6l-4.8-4.8c0,0-3.1,6.8-9.9,9.2
			c0,0-2.2,0-2.2-3.1s7.5-3.6,6-10.4l-0.5-2.4l5.6-2.2l1,1.2l3.6-8.5c0,0-4.8-4.1-6.3-5.1H122c0,0-1.7,11.6-12.3,13.8
			c0,0-3.6-3.1,0-6s4.8-3.9,7-12.8l5.8-2.9l1.5,0.5l4.4-7l-8.9-6l-4.1,2.2c0,0-5.1,11.1-11.8,14l-3.6-3.4v-2.4c0,0,5.6-2.7,8.5-9.2
			l-1-2.4l1.5-0.2l1.5-2.9l7-2.7l2.4-0.5l4.1-6l-8-4.4L121.3,66.9z"/>
		<path d="M147.2,168.7c0,0-3.9,12.1-6.5,15c-2.7,2.9,3.3,4.1,3.3,4.1s6.9-5.8,8.3-15.2C152.2,172.6,150.3,169.7,147.2,168.7z"/>
		<path d="M129.3,199.5c0,0-4.1,7.7-8.5,10.2c0,0-1,4.6,1.7,5.1s10.6-9.7,10.6-9.7C134.4,202.7,133.2,200.8,129.3,199.5z"/>
		<path d="M111.1,173.1c0,0-2.7,5.3-11.4,6.5l1.2,4.6c0,0,9.7,3.9,8.7,15.2c0,0,4.1,1.7,9.4,9.4c0,0,1.5,6.6,0,5.8
			c-1.5-0.7-4.2-7.8-9.4-12.8l-2.7-4.4c0,0-1.9-7-5.8-7.7l-5.3-7c0,0,1.5-9.4-7.7-12.1h-2.9l-2.7-6.3c0,0,0.2-6-7-10.6h-3.4
			l-3.4-5.3c0,0,1-5.1-6.3-9.9c0,0-3.4-3.4-3.4-4.6s-1.5,2.4-1.5,2.4s-11.6-10.6-14.3-12.6c-2.7-1.9-6.3-4.8-6.3-4.8l-3.4-5.4
			c0,0-1-3.3,2.7-3.5c3.6-0.2,6.3,5.1,6.3,5.1l11.8,9.4c0,0,0-4.6-0.5-6c-0.5-1.5,4.4-3.1,4.4-3.1s1,8.2,1.9,9.4
			c0,0,5.1-9.2,10.9-10.2s12.3-1.5,15.2-2.9c2.9-1.5,3.1,1.8,3.1,1.8s-0.7,4.7-3.4,7.4c0,0-9.2-1-13.1,0.7c0,0-4.6,7.3-7.5,9.9
			c0,0,4.6,5.3,7.3,8.7c0,0,5.1-4.6,5.8-6.8c0,0,3.4,3.9,17.4-1.7c0,0,5.3,1.2-0.2,8.5c0,0-8,2.7-16.7,2.4c0,0-0.7,4.1-2.5,5.8
			c0,0,7.6,4.1,9.8,9.4l1-4.4c0,0,1,2.4,2.9,2.4s8.5-1.7,10.9-5.8l2.4-2.4c0,0,3.4,5.3,0.7,8.9c-2.7,3.6-11.8,5.9-14.3,5.7l-1.9,2.5
			c0,0,6.7,3.1,10.4,8.7c0,0,7-1.9,8.9-4.8l0.7-1.2C108.2,167.5,111.1,167.1,111.1,173.1z"/>
		<path d="M62.8,154l1.9,4.8c0,0,11.6,9.2,14.5,17.2s2.7,6.5,5.1,9.2s10.4,12.1,12.6,17.2s4.4,4.7,4.4,4.7s7.5,8.1,10.4,13.2
			s3.6,1.2,3.6,1.2s-3.4-13.3-16.7-19.6c0,0-1.2-14.3-16.2-22.5C82.3,179.4,78.5,157.9,62.8,154z"/>
		<path d="M27.7,111.9l-3.9,5.6c0,0-2.2,1-3.4,5.3c-1.2,4.4,0,9.7,0,9.7l1.2,5.1c0,0,1.9,8.9,4.1,17.9s3.9,13.3,3.9,13.3l5.1,11.8
			l-5.6,3.1c0,0-10.2-27.6-11.6-32.9c-1.5-5.3-3.1-13.8-3.1-13.8s-8.9-8.9-1.9-12.8c0,0,0.7-1.2,5.8-0.7c0,0,0.2-8.7,2.9-11.6
			L27.7,111.9L27.7,111.9z"/>
		<path d="M39.8,103.7c0,0-11.9-13.3-17.5-5.1v2.4c0,0-4.9-8.9,4.7-12.8h5.3L26.7,87c0,0-0.5-3.6,6.9-6.8c0,0,6.2,1.5,8.1,13.3
			C41.7,93.5,41.2,101.3,39.8,103.7z"/>
		<path d="M36.4,78.5c0,0,5.1,1.7,6.3,13.4c0,0-1,3.7,4.8-1.3s-7.3-18.9-7.3-18.9l-3.9,3.9C36.4,75.6,34.3,77,36.4,78.5z"/>
		<path d="M44.9,69.4c0,0-1.5-2.7,5.3-6c0,0,12.3,3.4,3.1,21.3l-2.6,1.9C50.7,86.5,50.4,69.4,44.9,69.4z"/>
		<path d="M54.8,60.7c0,0,4.8,3.4,3.9,17.9c0,0,4.4-0.5,6.3-5.3c1.9-4.8-0.7-14-2.2-16.7l-2.6-1.2L54.8,58V60.7z"/>
		<path d="M65.6,53.9c0,0,4.6,5.8,1.5,17.9c0,0,6.5-2.7,7.3-6.5c0.7-3.9-0.2-12.3-1.9-16.2l-2.3-1l-4.5,2.4
			C65.6,50.5,64.3,51.4,65.6,53.9z"/>
		<path d="M74.6,44.9c0,0,4.6,11.4,2.1,18.4c0,0,6.1-0.7,7.6-4.8s-1-13.5-1.2-16l-3.4-1C79.7,41.6,76.5,43.7,74.6,44.9z"/>
		<path d="M87.4,38.6c0,0,1.7,9.9,0,16.7c0,0,5.1-1.2,7.3-2.9c0,0,2.4-12.3,0-17.2c0,0-1.9-2.7-7.3,1.2V38.6z"/>
		<path d="M122.7,20.5l6.3-2.2l2.2,1.5l4.6-2.7c0,0-0.2,2.4,2.2,1.9s4.4-2.4,6.5-1.9c2.2,0.5,2.9,2.7,2.9,2.7s-0.5,5.8-1,8l-0.2,8.1
			c0,0-3.6,1.3-5.8-1.5c0,0-2.7,1.8-7.7,1.5c0,0,1.5-10.8-2.7-13.6c0,0,1,9.7-1.7,14.8l-6.6,1.6c0,0,0.2-2.7,0.8-12.5L122.7,20.5z"
			/>
		<path d="M122.7,23.7"/>
		<path d="M146.2,35.8"/>
		<path d="M99.3,31.9c0,0,1,14.5-1.5,17.5c0,0,1,1.5,3.4-0.3c2.5-1.8,6.2-4.8,6.2-4.8s0.2-10.4-0.5-15.2c0,0-0.2-2.1-2.2-1.4
			s-3.5,1.4-5.1,2C99.6,29.8,98.9,30.5,99.3,31.9z"/>
		<path d="M112.7,23.7l-0.6,4.8c0,0-0.3,6.1-2.3,13.1c0,0,3.4,2.4,7.9-1c0,0,1.8-10,2.3-16.9l-1.9-1.5C118,22.2,115.9,24,112.7,23.7
			z"/>
		<path d="M309.7,126.7c3.2-1.8,4.5,0.2,4.4,5.3c0,0-11.6,25.9-13.5,30.4c-1.9,4.4-15.5,30.1-15.5,30.1L272.4,219l-4.4-4.3
			c0,0,7.7-19.9,17.9-38.8s10.2-16,10.2-16S297.6,140.2,309.7,126.7z"/>
		<path d="M187.5,267.4c-5.1,0.7-5.8,2.1,0,4.8c0,0,28.8,6.3,50.5,8.7l3.6,1.9c0,0,2.9,6,14,11.4c0,0-3.6,4.1,0,13.1
			c3.6,8.9,4.8,10.6,4.8,10.6l5.3-2.4c0,0-5.1-18.4-6.8-23.6c-1.7-5.2-15-14.1-15-14.1s-0.7,0.5-2.9-0.2s-12.3-5.3-19.3-3.4
			c0,0-2.2-3.1-20.1-3.1L187.5,267.4z"/>
		<path d="M204.9,290.6c0,0,15.7,0.7,21.8,2.1c6,1.3,0,6.9,0,6.9s-13.8-1.9-19.1-2.2C202.3,297.1,204.9,290.6,204.9,290.6z"/>
		<path d="M163.8,280.2c0,0,17.7-1,21.3,5.1s-7.5,2.4-7.5,2.4s-5.1-2.4-11.6-1.9C159.5,286.3,163.8,280.2,163.8,280.2z"/>
		<path d="M135.3,248.1c0,0,15.5,0.7,14.3,19.3c0,0-0.2,4.4-3.1-3.6c-2.9-8-11.1-12.3-11.1-12.3L135.3,248.1L135.3,248.1z"/>
		<path d="M242.2,236.7c0,0,2.2,25.4,21,39.4l2.7,1.9c0,0,7.3,12.8,12.1,17l-2.9,6.6c0,0-11.4-10.9-13.1-18.4
			c0,0-11.1-7.3-12.1-14.1c0,0-9.7-2.1-9.4-16.6c0,0-6.8-10.9-2.7-16h4.4V236.7z"/>
		<path d="M245.6,202.6l-2.7,19.1c0,0-7.3-5.8,0-22.2C242.9,199.5,245.8,200.9,245.6,202.6z"/>
		<path d="M268.1,273.9c0,0-1.2-1.9,1.7-4.7c0,0,9.2,12.7,13.8,12.9c0,0,2.2,1.4-2.4,6.6C281.1,288.8,271.7,285.5,268.1,273.9z"/>
		<path d="M274.1,260.6c0,0,0.2-4.1,3.9-4.4s3.9,4.4,3.9,4.4s6.5,5.1,12.3,4.4l-4.6,4.2l-3.4,5.9
			C286.2,275.1,279.9,276.1,274.1,260.6z"/>
		<path d="M246.8,306.8c0,0,0-4.4,4.8-2.7c0,0,3.6,9.7,4.1,16.7l-7.3,6C250.1,325.6,245.6,310.4,246.8,306.8z"/>
		<path d="M239.8,313.4c0,0-5.3-1.8-6.3,2s0.2,10.8-5.3,14.9c0,0,0.5,2.9,7.5,0S239.8,313.4,239.8,313.4z"/>
		<path d="M215.1,317.9h6.8c0,0,0.1,10.1-5,13.6c0,0-10.4,1.6-10.4-1.3C206.4,330.3,212,332,215.1,317.9z"/>
		<path d="M194.3,317.9c0,0-6.8,11.4-10.9,8.9c0,0,4.4,5.1,9.7,3.6l8-9.9v-2.7C201.1,317.9,198.7,315.3,194.3,317.9z"/>
		<path d="M175.2,314.3c0,0,4.8-2.6,6.5,1c0,0-1.7,6.5-7.6,11.6c0,0-7.6-2.6-9.3-1.9c0,0-3.4-2.8-3.6-4.8
			C161.2,320.2,166,325.7,175.2,314.3z"/>
		<path d="M136.8,313.4c0.9-2.8,7.7,3.6,21.3-5.4c0,0,8.2-3.4,5.6,3.4c0,0-12.7,10-21.1,8.7h-4C138.4,320.2,135.8,316.4,136.8,313.4
			z"/>
		<path d="M125.9,303.8c0,0,10.2,4,20.1-6.1c0,0,3.9-1,4.4,1.9c0.4,2.9-4.9,10.2-15,12.3C135.3,311.9,129.7,311.6,125.9,303.8z"/>
		<path d="M136.5,286.8c0.5,0.7-7.3,8.2-18.2,2c0,0-3.1-7.4-2.2,1.8c0,0,8.4,16.6,27.3,0l-2.9-4.6L136.5,286.8z"/>
		<path d="M109.2,269.2c0,0,6.7,8.6,20.1,4c0,0,4.4-1.5,4.9,4.4c0,0-7.5,7.6-20.8,2.6C113.3,280.2,108.7,275.6,109.2,269.2z"/>
		<path d="M129.2,262.6c0,0-1-0.3-3.4-4.2c0,0-4.4,3.3-10.6,4.2c0,0,3.6-1.2,7-9.7c0,0-0.5-5.4-4.8-7.1c-0.5-0.2-1.4,0.4-1,0.8
			c3.4,3.2-4,15.8-15.2,11.1L99,254c0,0-5.3,4.7,4.4,11.7c0,0,2.9,3.6,5.8,3.5C112.1,269.1,124.6,269.8,129.2,262.6z"/>
		<path d="M56.2,196.3c0,0,7.7,16,12.6,22.2l2.9,3.1c0,0,0.4,0.6,1,1.6c2,3.3,6.3,10.5,7,11.5l-6.5-3.4l-2.2-6.5l-3-4.4
			c0,0-5.7,3.9-14.4-9.9c0,0,0-3.1,0-5.6l-11.4-13.8l-1.9-6h2.4c0,0,8.3,8.5,12.8,14.3L56.2,196.3z"/>
		<path d="M98.5,269.2c0,0-12.3-12.2-12.6-14.1s-4.6,0-4.6,0s15.5,22.6,15.2,25.1c-0.2,2.5-1.2,4.3-1.2,4.3s-1.7,2,0.2,4.3
			c1.9,2.3,8,3.9,8,3.9s-2.9,3,3.4,4.8s9,4.3,9,4.3h2.8c0,0,4.6,11.1,7,19.6s5.1,10.2,5.1,10.2s3.1-0.8,1.5-7.8
			c-1.7-7-6.5-22.3-11.8-26.3s-5.3-11.5-5.3-11.5l-4.4-4.1l-9.4-13.3L98.5,269.2z"/>
		<path d="M151.3,18.6c-4.2,5.5-3.8,9,4.4,9c2.2,0.2,2.5,2.4,6.1,6.7c0,0,1.1,8.6,3.6,19.3l-7.3,4c0,0-1.4-8.8-2.6-12.8
			s-1.4-10.5-1.4-10.5s-7,1.3-7.7,0s0.2-6.6,0.2-6.6l1-2.4V17l4.6-1.1L151.3,18.6z"/>
		<path d="M177.1,35.8L194.3,50c0,0,14.3-8.2,15.2-10.1c1-1.9,3.4,1.7,3.4,1.7v5.1c0,0-5.3,5.3-11.4,7.5c0,0,5.3,4.6,9.4,5.8
			c0,0,1,2.9-4.4,4.6c-5.3,1.7-11.6-6.3-11.6-6.3l-13.8,3.9c0,0-4.4-0.5-5.1-6.8l10.2-2.9c0,0-8.2-6-9.2-7.6
			C176.2,43.2,173.5,39,177.1,35.8z"/>
		<path d="M238.1,63.3c0,0-4.8,1.9-10.6,0c0,0-5.1,2.7,0,8.2c0,0,5.8,2.4,18.1,0l14,9.9c0,0,6.3,0,3.6-6l-9.9-6.8
			c0,0,10.2-3.6,12.6-5.3s0-8,0-8h-4.1c0,0-10.6,6-13.5,6s-16-12.3-16-12.3s-2.7,1.2-2.7,4.1S233.5,60.4,238.1,63.3z"/>
		<path d="M287.4,68.9c0,0,2.4,13.3,9.7,19.3c0,0,15.7,2.7,19.3,1.9l3.6,3.4c0,0,1,4.4-3.9,5.8c-4.8,1.5-17.2-1.5-17.2-1.5l6.8,7
			c0,0,0,10.9-5.8,6.5s-8.9-15-8.9-15s-13.1-1.9-13.8-3.4c-0.7-1.5,1.9-5.6,0-7.7c0,0,3.9-2.4,8.7,1.7c0,0-8.2-12.6-3.9-20.1
			C282.1,66.9,283.3,64.3,287.4,68.9z"/>
		<path d="M333.1,81.5l8.2,6.3h1.5l8-5.9c0,0,10.2,6.9,9.9,32.3L358,136c0,0,0.3,3.6,2.7,2.2s5.7-19.1,5.1-30.7
			c-0.7-14.1,0.2-22.7-12.8-30l-2.2-1.9l-1.2-3.9c0,0-7-0.7-9.7,1.5C339.9,73,331.9,75.9,333.1,81.5z"/>
	</g>
</g>
<g id="of_x5F_open_x5F_pocket">
	
		<image id="glove-view-2" overflow="visible" enable-background="new" width="737" height="672" xlink:href="assets/images/9P_outfield_inside_view.png"  transform="matrix(0.4836 0 0 0.4836 9.3189 13.5)">
	</image>
</g>
</svg>
