<?xml version="1.0" encoding="utf-8"?>
<!-- Generator: Adobe Illustrator 19.2.1, SVG Export Plug-In . SVG Version: 6.00 Build 0)  -->
<svg version="1.1" id="Layer_1" xmlns="http://www.w3.org/2000/svg" xmlns:xlink="http://www.w3.org/1999/xlink" x="0px" y="0px"
	 viewBox="0 0 375 350" style="enable-background:new 0 0 375 350;" xml:space="preserve">
<style type="text/css">
	.st0{fill:none;stroke:#000000;stroke-miterlimit:10;}
	.st1{fill:none;}
</style>
<g id="fbase_x5F_vw3_x5F_thb">
	<path d="M252.5,240.9l-8.1,17.3l7.3,19.7c0,0,4.5-14.8,17.3-35.5L252.5,240.9"/>
</g>
<g id="fbase_x5F_vw3_x5F_bfg">
	<path d="M271.5,27c-4.2-7.2-38-20.1-38-20.1S191.3,8.4,181,9.5s-57.8,14.8-74.9,33.4C89,61.6,78,64.6,62.8,94.2
		C47.6,123.9,45,140.6,45,140.6s-11.8,54.3,3.4,93.9c0,0-0.8,17.5,9.5,29.6c10.2,12.2,47.1,63.5,47.1,63.5s9.1,9.5,11,0
		s-10.6-50.5-10.6-50.5s-1.5-29.6,28.9-29.6s24.3-0.8,60,3.4s52.1,4.2,52.1,4.2l6.1-14.1c0,0-21.7-122.4-6.5-146.7l8.7-14.4V75
		l10.6,0.8l9.5-33.8C274.9,41.8,275.6,34.2,271.5,27z M147.9,90.1l-2.8,2.4l-1.6,1c0,0-3.9,1.2-3.4,0.4s7.8-5.4,7.8-5.4
		C149.3,87.9,147.9,90.1,147.9,90.1z M155.5,89.3l1.3-3.3c0,0,7.5-6,25.8-5.3c0,0,1.5-0.5,3.5,2C186,82.8,158.5,88.3,155.5,89.3z
		 M207,82.5l3.1-2.3c0,0,14.1,0,14.4,1.2C224.5,81.5,215,84,207,82.5z"/>
</g>
<g id="fbase_x5F_vw3_x5F_plm">
	<g>
		<path d="M306,120.1c0,0,3.2-12.2-1.9-17.6l-6.5-0.7l-9.1,1.7C288.6,103.5,300.5,112.5,306,120.1z"/>
		<path d="M252.6,141.2l8-8.6h2.9L286,168l-3.3,6c0,0-14.5,15.9-12,17.6c0,0,11,9.3,6.3,13.8l-0.8,1.7c0,0-26.7-27.6-28.2-45.5
			s1.3-17.8,1.3-17.8L252.6,141.2z"/>
		<path d="M224.6,75.5c0,0-24.7-3.3-45.1,0c0,0-39.5,2.8-61.7,33.5c-2.4,3.3-15.2,29.3-15.2,29.3l-0.8,3l3.2,1.3
			c4.6-13.6,11-26.5,20.5-37.9c18.6-15.6,45-33.5,99.7-23.4C225.2,81.3,223,76.8,224.6,75.5z"/>
	</g>
</g>
<g id="fbase_x5F_vw3_x5F_utoe">
	<path d="M197.7,82.1c0,0-3.8,4.6-3.4,16.3s1.5,22.8,0,27.4c-5.3,47.5,37.3,121.6,72.2,118.6c0,0,19.8-28.5,20.9-33.8
		c0,0-33.4-0.8-42.9-61.9c0,0,1.9-52.1,9.9-68.4l-29.3,1.9C225.1,82.1,211,84.4,197.7,82.1z"/>
</g>
<g id="fbase_x5F_vw3_x5F_wst">
	<path d="M251.3,268.3c0,0,0.8,2.7,2.3,6.5s-13,29.3-13,29.3s-10,21.7-19.7,33.4c-12.5,15.2-83.6,10.9-101.8,0
		c0,0,0.4-37.6-4.9-44.8V290c0,0,39.7,19.6,118.2,12.5C232.3,302.5,246.8,297.2,251.3,268.3z"/>
</g>
<g id="fbase_x5F_vw3_x5F_logo">
	<polygon class="st0" points="165.2,314.3 153.5,341.5 172.5,341.5 174.8,336 178.9,341.5 189,341.5 172.8,323.2 166.8,336.5 
		162.8,336.7 170,319.5 	"/>
	<polygon class="st0" points="166.2,308.8 194.2,341.5 204.8,341.5 180.5,314.3 186.8,314.3 198.2,327.9 204.8,314.3 207.8,314.3 
		200.5,331.8 205.8,336.7 218.5,308.8 198.7,308.8 196.7,314.3 191.2,308.8 	"/>
</g>
<g id="fbase_x5F_vw3_x5F_web">
	<path d="M223.8,47c0,0,4.2-17.7,4.6-25.9c0.4-8.3,5.1-14.2,5.1-14.2s4.2-3.5,8.3-5.2c4-1.6,17.1-1.2,21.9,1.9l21,3.2l22,6.3
		c0,0,1,2.4,4.7,1.8l8.2,5.6l2.2,1l10.2,9.8l7.2,10.2c0,0-2-1.5,0,10.7c0,0,2.5,3,0,12.9c0,0-0.5,8.9-1.3,15.2
		c-0.8,6.3,1.5,18.2,1.5,18.2s0.3,4.4-2.2,14.5s-9.7,25.2-9.7,25.2s-3.5,9.5-4.3,12.8s-8.9,18.9-8.9,18.9l-7.8,11.9
		c0,0-24.6,32.3-23.5,27.1c0,0-4.9-5.2-5.7-3.4c0,0,7.8-2-6.3-13.8c0,0-0.8-2.3,4.2-8.4c4.9-6,15.4-18.6,17.7-24.7l-35.1-25
		l-8.1-6.2c0,0,9.8-9.4,8-14.1c0,0,0-8.5,4.3-11.5s5.4-9,3.3-9.4s1.9-3.2,4.2-2c15.8,8.3,39.3,31.2,39.3,31.2l7.4-16.6
		c0,0-18.6-25.7-40.3-31.9l2.3-8.9c0,0,5.7-4.2,0.3-9.7l1.7-4c0,0,6.4-5.5,3.6-9.1c0,0-1.3-4.1,2.5-2.3s24.6,14,39.4,31.4
		c0,0-2.7-3.3-2.4-8.4s0-6.3,0-6.3s-12.3-26.7-48.4-26l-2.5-2.3c0,0-15.5-1.1-33.3,12.8l-10.6,8.5C228.5,48.8,221.1,51.3,223.8,47z"
		/>
</g>
<g id="fbase_x5F_vw3_x5F_stch">
	<g>
		<path d="M235,6.5c0,0-5.7,16-4.9,24.7"/>
		<path d="M239.7,4.6c0,0-8.6,17.5-7.3,29.6"/>
		<path d="M199.6,82.1c-8.6,79.5,3.4,109.4,47.9,152.8c0,0,3,6.8,21.7,6.8"/>
		<path d="M202.7,82.8c0,0-4.9,9.1-3,23.6c1.9,14.4,1.3,23.9,1.3,23.9s-9.1,57.8,52.8,107.5c0,0,13.9,5.3,18.7,0"/>
		<path d="M251.7,242.5l-5.7,11c0,0-28.1-1.1-40.3-2.3s-28.9-3.4-36.1-4.2s-16-2.4-27.4-0.4s-38.9-1.9-36,32.3"/>
		<path d="M117.9,290.7c0,0,20.1,11.8,61.8,14.1c41.6,2.3,46.2,0,46.2,0"/>
		<path d="M248.7,281.6c0,0,0.6,3.3-0.6,7.2"/>
		<path d="M250.9,274.2c0,0,2.7,0.6,1,7.3"/>
		<path d="M248,254.7c0,0,4.4,1.6,5.1,7"/>
		<path d="M272.4,184.3l-19.3-33.9l2-1.5c0,0,14.4,22,18.7,32.4"/>
		<path d="M277.9,116.9l-12.9-6.1c0,0-0.3-4.1,1.5-4.3l9.4,5.2"/>
		<path d="M323,82.1c0,0-19.5-23.2-37-29"/>
		<path d="M277.9,20.4c0,0,36.2,1,50.4,24.6c0,0,8.1,6.7,10.6,15.2"/>
		<line class="st1" x1="315.9" y1="133.9" x2="312.2" y2="143.8"/>
		<path d="M299.5,175c0,0,5.1-6.9,6.8-16.5"/>
		<path d="M301,177.2c0,0,5-10.3,7.2-14.9"/>
		<polyline points="291.6,194.7 287.4,199.8 286,197.2 291.6,189.4 		"/>
	</g>
	<path d="M249.4,89.6c0,0-8.2,24.5-9.7,32.2c-2.3,12.1,2,52.6,17.1,70.9c0,0,17,21.5,25.9,21.5"/>
</g>
<g id="fbase_x5F_vw3_x5F_bnd">
	<g>
		<path d="M243.3,254.6c-14.8-0.4-59.4-5.3-59.4-5.3c-22.6-4.2-28.4-1.9-44.7-2.7s-27,8.7-27,8.7c-14.4,17.5,1.9,59.7,1.9,59.7
			c6.7,24.9-7.9,14.6-7.9,14.6c7.2,6.8,10.9,7.2,10.9,7.2c9.5,9.1,18.4,11.2,27.9,11.8s31.7,0.4,50.2,0
			c18.4-0.4,25.7-11.2,25.7-11.2s-10.8,8.2-29.5,9c-18.6,0.9-44.1-1.8-44.1-1.8c-20.5-0.8-27-8.9-27-8.9c5.9-9.1,1.7-25.3,1.7-25.3
			l-6.3-20.5l4,2.3c22.8,10.6,74,13.8,74,13.8s37.3,3,45.7-8.4s12.2-27,12.2-27S258.2,255,243.3,254.6z M237.6,281.6
			c-5.3,10.1-4.6,11.1-9.4,13.9s-5.3,1.8-36,2.3s-55.2-6.8-64.9-11.1c-9.6-4.3-13.3-8.7-13.3-8.7c-4.5-21.3,16.7-22.2,16.7-22.2
			c6.9-1.6,35.4-1,35.4-1s26.1,2.3,38.3,3.5s21.4,1.1,21.4,1.1c6,1.8,13.3,1.4,13.3,1.4C249,259.8,243,271.5,237.6,281.6z"/>
		<path d="M44.8,150.5c0,0-3.2,8.6-3.4,18.4v9.1c0,0-0.4,12.9,0,15.8c0.4,2.9,1.6,10.8,1.6,10.8s0.3,6.5,0.8,12s2.1,9.9,2.1,9.9
			s2.9,11,4.2,13.5s2.1,8.6,2.1,8.6s-0.6,8.4,4,11.8l-1.5,2.7c0,0-3.2-5.3-4.9-12.7c-1.7-7.4-5.5-20.3-5.5-20.3l-1.9-10.8
			c0,0-1.5-7.4-1.1-11.2s-1.5-12.4-1.5-12.4s-2.7-8.6,0-14.6c0,0-2.9-19.8,1.1-26.6c0,0,2.2-21.7,6.5-26.4l3.3-9.3
			c0,0,1.9-9.1,5.5-13.9l4.8-9.5c0,0,4.2-9.9,8.2-14.3l6.5-9.3c0,0,5.7-7.4,9.7-10.8l1.7,1.1c0,0-7.6,5.1-10.1,9.9
			c-2.5,4.8-6.5,9.7-6.5,9.7S63,90.8,62.8,95l-4.1,9.5c0,0-6.1,8.9-6.1,12.5l-2.7,10.5c0,0-5.7,8.4-4.9,13.7
			C45.7,146.3,44.8,150.5,44.8,150.5z"/>
		<path d="M261.2,83.6c0,0-3.6-9.3-9.3-4.4c0,0-3.4,13.3-6.3,21.1s-5.9,19.6-5.9,21.5s0.4,24.9,2.3,32.3c1.9,7.4,3.2,20,4.9,23
			s3.5,4.2,3.5,4.2s3.1,6.8,6.4,11.4c3.2,4.6,5.3,5.5,5.3,5.5s7.6,6.5,8.4,8.9l2.9,4c0,0,6.1,1.7,10.3,0s3.8-2.3,3.8-2.3
			s-4.6,3.2-14.4-7.4c-9.9-10.6-19.4-26.2-21.1-34.2c-1.7-8-5.3-16.5-3.6-40.5S256,91,256,91L261.2,83.6z"/>
		<path d="M274.9,40.7c0,0-1.3,9.1-4.8,16.2S265,80.2,265,80.2s4.4,0.4,8-3.2s5.5-25.1,5.5-25.1s2.1-9.5,1-11.2
			C279.4,40.7,278.1,39.7,274.9,40.7z"/>
		<path d="M304.1,102c0,0,5.7,8,1.9,18.1l2.5,1.5c0,0,5.3-8.7,3.2-13.5c-2.1-4.8-3.6-8-3.6-8S304.1,99.8,304.1,102z"/>
	</g>
</g>
<g id="fbase_x5F_vw3_x5F_lce">
	<g>
		<path d="M187.2,96.4c0,0-10.1,3.8-8.9,6.3s4.4,1.3,4.4,1.3s-0.8-1.5,10.1,2.5c10.9,4.1,15.7,5.2,15.7,5.2l-23.3,11.5
			c0,0-7.1,2.3-6.9,5.3c0.1,3,5.7,5.3,5.7,5.3s32.2-16,34.7-17s4.3-8.6,1.5-10.4C217.4,104.8,188.9,95.7,187.2,96.4z"/>
		<path d="M170.5,11.8c0,0,5.9,1.8,7.7,1c1.9-0.8,0,3.5,0,3.5l15.6,7.9l15.4,7c0,0-1.5,1.6,0,3c1.5,1.4,4.6,3.7,7.6,2.7
			c0,0,0.3-2.5,2.8,0.3s12.4,9.6,15.3,11.9c0,0-2.4-0.8-11,4.1l-2.4-4.8l-9.3,4.8l3.8,3.5c0,0-7.6,2.8-6.1,4.8s4.6,5.1,4.6,5.1
			l5.1-1.5l5.6,9.9c0,0-1.9,1.4-1,4.3s2.9,5.2,8.1,3.7c0,0-2.7,1.6,0.9,3.9c3.6,2.3,9.5,1.3,9.5,1.3l2,1.3c0,0,10.4-1,12.7,3.3
			c0,0-4.1,4.6-3,7.5c0,0-17.2-2.2-19.4,2.9s1,6.8,1,6.8s9.5-1.3,16.1-1c0,0,3.5-3,5.3-4.6l-1.5-2.5c0,0,0.3-2.8,5.8,0
			c0,0,5.3-5.3,4.8-8.6c0,0-3.5-0.8-4.8-1.8s1.8-2.3,1.8-2.3s14.4-2.5,13.2-10.1s-1.6-6.4-1.6-6.4s3.5-7.5,1.6-9.3
			c0,0,2.4,0,3.1-2.4s-1.5-6.9-1.6-6.3c-0.1,0.7-12.5,3.1-13.2,4.4v1.3c0,0-5.6-0.3-5.1,1.7s-0.8,5.2,2,5.6s10.7,2.1,11.9,3.5
			s-2.4,6.7-2.4,6.7s-5.6,3.4-11,4.3c0,0,0.3-1.9-4-4.1c-4.4-2.1-5.1,2.9-5.1,2.9l-4.8,0.3c0,0,0-5.3-4.8-6.3s-6.7-1.3-6.7-1.3
			l-7-12.8c0,0,7.1-3.7,9.1-3.9l4.6-3.8c0,0,3.8-5.8,2.8-8.1s-14.9-10.9-17.2-13.8s2.3-8.5-6.8-9c0,0-5.1-0.5-6.6,3l-31.4-13.4h-1.8
			l1.5-2.3c0,0-3-2.5-6.6-1C172,10,170.8,10.5,170.5,11.8z"/>
		<path d="M249.1,118.4c-5.6,0-10,3.1-14.7,4.6c0,0-7.6,8.1,0,9.6c0,0,9.4-5.7,13.9-5.9C248.3,126.7,257.2,121.2,249.1,118.4z"/>
		<path d="M327.3,158.5c0,0-3.5-8.4-11.4-11.1l-21.5-25.7l-18-19.1l-4.9,6.8c1.8-0.8,9.5,11.4,21.2,24.6
			c12.2,13.9,15.6,19.3,15.6,19.3s-4.4,4.1,0,9.2c4.4,5,5.9,4.3,5.9,4.3s1-0.3-1.8,5.6c-2.9,5.8-5.9,9.6-5.9,9.6s0-2-3.4-2.3
			l-1.9,0.3c0,0-22.3-41.3-33.7-53.2l-7.6,6.1c0,0,14.9,19,16.5,22.8c0,0-7.1,1.9-4.7,6.9c0,0-3.4,0.7,19.1,17.7
			c0,0-3.5,5.8,0.4,10.2l0.6,4.5c0,0,3.3,4.6,5.6,0l1.3-0.1c0,0-6.1,7-6.8,11.5c-0.8,4.6-0.3,5.3,1.9,9.6c0,0,3.9-2.8,3.9-5.1
			s-0.8-7.1-0.8-7.1l6.2-9h1.7l-0.4,3.2l2.2-0.3l1.9-2.9c0,0,4-5.7,0-10.3c0,0,4.4-8.6,7.7-10.6c0,0,2-3.2,4.6-6.9
			C320.5,166.7,326.1,165.6,327.3,158.5z"/>
		<path d="M331.6,96.4c0,0-3.3,0.8-3.3,4.8s0.1,12.6-2.2,15.7c-2.3,3-9.2,8.6-9.2,8.6s-2,6.9-1,8.4c0,0,2.8-0.8,8.9-5.1l-5.6,11.1
			c0,0-0.8,3.4,0,4.9c0,0,1.8,0.8,5.1-1.4c0,0,9.6-15.8,12.2-26.5c0,0,0.5-5.8,0-7.1l-1.8,1C334.7,110.9,334.9,100.9,331.6,96.4z"/>
		<path d="M335.4,77.8l-1.8,6.7l0.9,14.2l0.9,2.8C335.4,101.5,346.6,90.8,335.4,77.8z"/>
		<path d="M284.8,100.1l3.8,3.4l9.1-1.7c3.3,7.3,3.3-2.9,12.2-1.7l-5.7-7.8C304.1,92.3,284.3,96.2,284.8,100.1z"/>
		<path d="M311.7,114.1c0,0-4.6-1.6-7.2,0s-2.5-4.2-2.5-4.2s4.2-2.9,9.6-1.7C311.7,108.1,312.9,110.7,311.7,114.1z"/>
		<path d="M258.4,135.2c0,0-3.3,4.1-5.3,5.6s-0.6,4.2-0.6,4.2s-4.3,6.4-12.8,12.5c-6.7,4.9-6.5-6.6-6.5-6.6s13.3-10.1,14.5-12.9
			c1.2-2.8,0.2-6.6,0.2-6.6S256.4,132.4,258.4,135.2z"/>
		<path d="M258.4,171.4c0,0-2-1.2-2.5-4.8s-4.2-3-4.2-3s2.5,4.1-10,14.7c0,0-5,8.4,4.1,6.8C245.8,185.1,255.6,177.2,258.4,171.4z"/>
		<path d="M258.4,182.1c0,0,5.8-2.8,7.6,5.3s-8.9,14.9-8.9,14.9s-6.3,1.7-4.1-5.1C253.1,197.2,264.8,184.7,258.4,182.1z"/>
		<path d="M273,201.4c0,0-0.1,5.4-4.9,8.2s0,4.6,0,4.6s7.4-2.7,8.2-7.2C277.2,202.6,273,201.4,273,201.4z"/>
		<path d="M277.9,206c0,0,1.5,2.9-1.5,8.2s3.5,0,3.5,0S284.8,208.3,277.9,206z"/>
		<path d="M290.1,202.5c0,0-0.3,9.4-7.3,14.1v-4.7L290.1,202.5z"/>
		<path d="M279.1,34.2c-1.2-3.9-10.9,0-14.1,3.9c-2.5,3.1,3,5.1,3,5.1c4.5-1.5,10.1-3.9,11.4-2.5v8.1h2.5c0,0,4.6-4.3,1.5-7.3
			l-2-1.1C281.5,40.3,281.4,38.9,279.1,34.2z"/>
		<path d="M104.4,307.4l8.6,10.2c0,0,6.3-1.3,9.1-7.1s7.6,3,7.6,3c-2,4-7.1,9-10.9,10.2c-0.5,1.1,9.8,0,9.8,0s4.1,5.5,1,6.3
			c-3.1,0.8-6.8,2.8-15.6-2.8c0,0-2.4,1.5-6.5-0.5s-5.1-5.1-3.3-5.6c1.8-0.5,3.3-0.8,3.3-0.8s-8.1-5.4-7.9-13
			C100.1,299.8,104.4,307.4,104.4,307.4z"/>
		<path d="M55.7,275c0,0-6.3-17.7-13.9-21.3l-1.3-3.5l2.8-3.6c0,0,9.8,9.2,11.3,16.4l1.5-2.7l6.5-0.8c0,0,2.4,1,3.4,5.1
			s3.3,10.4,3.3,10.4s-1.5-11.9-4.1-16.2c-2.5-4.3-5.1-2.1-6.6-12.2l1-2.1l-4.8-4.2c0,0,3.6-13.4,7.7-11.4c0,0-2.9-13.7-1.7-22
			c0,0-7.3,2.8-7.6-4.1c0,0-6.3-8.4,1.5-12.2c0,0,2.5-11.4,5.3-16.7c0,0-2.8-1.7-1.3-11.6s3.7-14.5,3.7-14.5s5.4-1.8,4.9,3
			s-4.8,15.5-3.8,19.8L66,175l-6.1,16.4l2.4,0.8l1.4-6.3c2.2-7.1,6.1-7.9,5.3-1.8V235c0,0,4.1,3,6.3,9.5l2.3,2.1l3.3,12.2
			c0,0,0.5,2.3-2.5,1.9c0,0,3.8,14.1,3.5,17.1c0,0,2.5-0.8,3.8,1.1s-0.5,11.3,5.3,15.6l3.8,3.3c0,0,1.8,9.6,3.3,14.4
			s1.3,7.3,1.3,7.3l-5.6-6.8c0,0-6.6-2.6-8.4-5.4c-1.8-2.7-2.8-11.4-2.8-11.4l-0.3,6.6c0,0-11.3-9.6-12.7-20.5c0,0,1.9,5.2-5.1,3.5
			C56.7,283.6,55.7,275,55.7,275z"/>
		<path d="M91.5,180.5c0,0-3,6.6-5.8,6.3s-5.6-4.8-5.1-10.6c0,0-7.6-19.3-6.6-20.8s5.6-3,5.6-3s5.4,14.7,7.4,17.2
			c0,0,1.5-1.5,3.7,1.5L88.9,157c0,0-3.8,0.5-2-1.6c0,0-2-4.8-1.3-6.6H87c0,0-1.1-5.2,0-5.7s3.2-4.2,5.4-4.2s2.5,0.8,2.5,0.8
			s10.7-18.7,11.2-19.7s5.2-10.5,5.8-13.6l2.3-0.6l3.5,1c0,0-9.5,20-12.2,25.2s-3,6.3-3,6.3l2.4,4.3c0,0-3.3,4.4-3.4,6.5
			c-0.1,2,0.6,5.3,1,6.7l-3.3,4.8l-2-0.4c0,0,3.4,30.3,2.5,34.5h-7.4C92.5,194.7,90.8,187.4,91.5,180.5z"/>
		<path d="M85.5,94.6c0,0-12.3,16.2-12.4,25.2c0,0,2.7,3,4.1,0s11.3-20.4,11.3-20.4v-4.1L85.5,94.6z"/>
		<path d="M112.4,69.8c0,0,14.2-11.4,18.5-13.2c4.3-1.8,3.3-6.1,3.3-6.1s-1-1.4-2.9,0s-21.3,10-23.6,17.7
			C107.7,68.3,107.3,73.7,112.4,69.8z"/>
		<path d="M168.1,41.4c0,0,8-2.2,15.2-2.9c7.6-0.8,7.6-5.4,7.6-5.4s-11.4-7.6-30.4,6.5c0,0,1,4.2,4.3,3
			C168.1,41.4,168.1,41.4,168.1,41.4z"/>
		<path d="M148.6,88.4c0,0,6.7-3,8.2-3l-1.5,4.1l-9.8,3.3C145.5,92.7,148.1,90.3,148.6,88.4z"/>
		<path d="M181.6,80.2c0,0,2.7,0.9,5.1,2.6c0,0,7.9-0.4,10.6-0.8l1.9-0.6c0,0,4.5,2.1,8,1.3v-0.8l3-1.9c0,0-5.7-1.2-10.4-1.9
			c-4.7-0.8-6.1,0-6.1,0L181.6,80.2z"/>
		<path d="M228.4,6.5c-0.5,0.1-9.2,0.9-9.2,0.9s0.5-2.3,2.9-2.8s3.3-1.1,5.1,0L228.4,6.5z"/>
		<path d="M206.9,7.3c0,0-6.5,1.9-7.2,0.7l-2.5-0.1c0,0,0.9-1.9,3.4-2.3s3.8-1,5.2,0S206.9,7.3,206.9,7.3z"/>
		<path d="M156.7,15.2c0,0,0,2.7-4.6,3.6l-6.6,0.6c0,0,1.3-2.8,2.8-3.2c1.5-0.4,4.7-2.3,4.7-2.3S155.6,14.3,156.7,15.2z"/>
		<path d="M130.6,23.7c0,0-4.1,2.4-4.8,3c-0.8,0.6-2.3,2.7-0.8,2.8c1.5,0.1,5.6-1.3,5.6-1.3s4.2-2.7,4.2-3.9L130.6,23.7z"/>
		<path d="M104.8,43.2c0,0,5.4-1.1,6.8-2.3c0.6-0.5,4.1-4.4,4.1-4.4s-4.2-1.3-5.4,0s-4.3,3.1-4.3,3.1S104.6,41.5,104.8,43.2z"/>
		<path d="M92.7,54.6l-2.5,4.9l-5.6,4.1c0,0-2.4-2,0.5-4.5s3.1-4.5,3.1-4.5H92.7z"/>
		<path d="M76.9,71.8L72,73.7c0,0-2.4,4.1-3,4.6s-1.5,3.1,0,5.2c0,0,3.5-5.1,6.6-5.8C75.5,77.6,79.2,73.7,76.9,71.8z"/>
		<path d="M58.3,97.4c0,0-5.6,8.4-2.5,11.6c0,0,3.4-5.6,5.2-7.7l2.4-2v-4.7C63.3,94.6,58.8,96.5,58.3,97.4z"/>
		<path d="M45.7,130.6c0,0-0.1-2.6,4.2-3.2l3.4-4.1c0,0,0.8-4.8,0-5.6c-0.8-0.8-7.2,3.8-6.1,5.6C47.2,123.3,44.7,128.1,45.7,130.6z"
			/>
		<path d="M40.5,154.8c0,0-1.6-1-0.5-5.2c0,0-0.1-2.9,2.2-5.4s2.8-3.5,5.2-2.9c0,0,1.4,2.3,0,5.6S41.5,151.8,40.5,154.8z"/>
		<path d="M43.8,168.3c0,0-6.8,4.6-6.8,6.7s-0.2,5.9,1.5,7.8l3.5-4.3C45,173.3,44.3,171.8,43.8,168.3z"/>
		<path d="M42.8,193.1c0,0,2.1,0,1.4,5.4c-0.7,5.4-3.6,6.8-3.7,10.3c-0.1,3.4-1.5-1.8-1.5-1.8s-0.2-3.4-0.5-5.5S39,194.2,42.8,193.1
			z"/>
		<path d="M46.4,224.6c0,0-4.2,2.8-2.3,4.5s-2,0-2,0s-4.4-7.6,3.5-12C45.6,217.1,49.4,217.9,46.4,224.6z"/>
		<path d="M52.1,238.5c0,0-4.7,1.8-4.5,6.3c0.2,4.6,1.1,5.1,2.3,5.7c0,0,0.4-2.1,2.9-4C52.7,246.6,53.8,242.2,52.1,238.5z"/>
		<path d="M284.5,6.7c0,0,2.5-2.4,5.4-0.5c0,0,1.5,0.3,2.9-0.7c0,0,2.4-0.3,5.4,2l1.8,1.4c0,0,4.9,0.8,5.7,0.8c0.8,0,1,4.8,0.6,7.2
			c0,0-1.8,1.3-4.2,0c-2.4-1.3-2.9-2-2.9-2l-0.6-2.4l-0.9,2.4h-2.2l-6.1-4.4L284.5,6.7z"/>
		<path d="M311.2,14.8c0,0,1.5,1.5,2.3,5.6c0,0,1.9,3.8,5.4,2.9C320.1,19.1,319.7,12,311.2,14.8z"/>
		<path d="M321.6,21.4c0,0,1,2.4,2.2,4.8c1.1,2.4,3.4,5.3,4.7,3.9c1.3-1.4,0.6-5.3,0.6-5.3l-4.2-3.4C324.9,21.4,324,20.6,321.6,21.4
			z"/>
		<path d="M331.4,29.9c0,0,1.8,5.3,2.3,7c0.5,1.6,0.5,3.5,2.2,3.4l1.2-4.2C337,36.1,333.9,28.9,331.4,29.9z"/>
		<path d="M337.7,40.3c0,0,1.5,0.4,2.7,4.2c1.1,3.8-1.4,6.1-1.4,6.1l-0.6-5.1L337.7,40.3z"/>
		<path d="M257.4,113.2c0,0,0.6,4-1.3,6.5s-3,2.7-3,2.7s-1.5-4.2-4-4l1-6.6C250.1,110.9,254.9,111.8,257.4,113.2z"/>
	</g>
</g>
<g id="fbase_x5F_open_x5F_back">
	
		<image style="overflow:visible;enable-background:new    ;" width="800" height="921" id="glove-view-1" xlink:href="assets/images/nys_fbase_back_view.png"  transform="matrix(0.38 0 0 0.38 36.9844 -1.464844e-005)">
	</image>
</g>
</svg>
