<?xml version="1.0" encoding="utf-8"?>
<!-- Generator: Adobe Illustrator 22.1.0, SVG Export Plug-In . SVG Version: 6.00 Build 0)  -->
<svg version="1.1" id="Layer_1" xmlns="http://www.w3.org/2000/svg" xmlns:xlink="http://www.w3.org/1999/xlink" x="0px" y="0px"
	 viewBox="0 0 350 350" style="enable-background:new 0 0 350 350;" xml:space="preserve">


<g id="pitcher_x5F_vw1_x5F_lin">
	<path  d="M60.6,271.4c-12.6-1.4-26.4-55.3,0-44.8l28,9.8c9.7,4.2,16.7,10.5,22.2,18.1
		C120.4,273.5,80.2,287.7,60.6,271.4z"/>
</g>
<g id="pitcher_x5F_vw1_x5F_bfg">
	<path  d="M197.6,225.6c0,0-52,40.6-77.8,38.5s0,0,0,0s38.8,49.9,40.9,72.7c2.2,22.8,0,0,0,0l4.9-3c0,0,26.6-30.8,32-41
		c0,0,3.3-5.5,7.4-9.8s15.3-24.6,15.3-24.6s7.5-18.9,18-32.8c10.5-13.9,19.6-26.9,19.6-26.9l32.8-47.2l15.7-23.8l5.9-10.2
		c0,0-4.3-10.7-5.9-12.3c-1.6-1.6-16.6,13.4-16.6,13.4s-78.7,102.1-83.1,104.1C202.3,224.9,197.6,225.6,197.6,225.6z"/>
	<path  d="M146.5,22.3L132.8,36c0,0-61.8,54.2-80.4,108.9c-8.1,10.9-13.6,55.8-12.2,74c0,0,32.5,3.9,53,17l24.2-65.9
		l74.1-158.6c4.1-3.7-9.6-5.9-20.4-0.3c-4.2,2.2-11.8,9.1-11.8,9.1C159,18.8,152.4,19.1,146.5,22.3z"/>
</g>
<g id="pitcher_x5F_vw1_x5F_plm">
	<path  d="M102.4,162.8l-7,7.4l-6.2,8.3c-8.5,11.5-9.9,31.8-5.5,50.7c19.3,8.7,31.3,19.1,36.4,34.2
		c16.4,3.3,32.3,1.5,47.7-6.4c8.6-4.7,16.3-12.5,23.4-22.3l-3.8-8.8c-14.9-3.8-58.5-35.9-74.1-56.8L102.4,162.8z"/>
</g>
<g id="pitcher_x5F_vw1_x5F_web">
	<path  d="M292.6,117.6l11.5-10l2.9-6.3l-3.9-6.3l3.4-4.3L282.6,69l2.3-2.1l-3.4-5.5l-2.3,2.1l-5.5-5.2l2.7-4.1l-3.9-5.2
		l-1.1,1.1c0,0-3.9-5.2-6.8-5.5l2.5-2.7l-5.2-5.5l-6.4,5.5l-7.3-5.5l6.4-6.8l-6.4-5.7l-6.4,5.9l-7.7-4.8l5.7-5.9l-5.7-4.8
		c-3.9,0.4-5.5,2.2-6.4,4.6l-8.4-4.6l5.2-4.8l-3.2-1.9l-4.8,4.4l-15.3-8.7h-6.8l-5.9,7.3l-9.8,11.8c0,0-3.6-6.8-9.8-2.7
		s-15.5,21.6-15.5,21.6s8.7-0.9,9.3,3.2l-13.4,21.4c0,0-6.2-5.7-11.2-3.6l-15.7,23.5l11.2,5l-13.4,21c0,0-5.5-4.3-13.4-3.2
		c0,0-12.3,24.6-12.5,29.2l13.4,3.9c-1.3,11.7,1.1,21.6,7.9,29.2c0,0-8.8,8.4-8.4,11.5c0.5,3.2,21.7,19.9,21.7,19.9s7.1-5,9.1-8.2
		c0,0,16.9,16.6,19.6,18.4c0,0-0.6,4.4-2.1,6.2c6.9,8.5,13.5,15,19.6,18.2c0,0,6.2-3.5,9.4-11.2c7.9,1,15,0.2,21.3-2.4l8,8.4
		c0,0,16.9-10.7,19.8-20.5l-6.2-8.7l12.3-17.1c0,0,4.1,5.3,6.2,6.8c2.1,1.5,19.4-23.2,19.4-23.2l-7-7.1l13.3-16.8
		c0.4-0.5,1.2-0.6,1.7-0.1l6.4,6.7c0.8-0.8,16.5-18.3,17.1-21.1c0.6-3-9.1-8.4-9.1-8.4l2.1-3.4L292.6,117.6z M251,97.3l0.8,4.3h-3.6
		L251,97.3z M240,112l1.4,3.3L240,116h-3.8C237.3,113.8,240,112,240,112z M227.9,127.8l3.3,3.2l-5.3,0.8
		C226,129.6,227.9,127.8,227.9,127.8z M219.8,146.6L215,148v-1.1l2.3-5C220.1,143.3,219.8,146.6,219.8,146.6z M215.1,61.8h2.4
		l-1.8,2.6L215.1,61.8z M215.1,47.7l3.2,6.8l-5.6-0.9l-2.4-5.9C210.3,47.7,215.1,47.7,215.1,47.7z M208,69c0.6,0.9,4.9-2,7.1,3.6
		l-1.5,1.7c0,0-7.4-6.5-10.3-7l-2.1-7h3.7C204.9,60.3,207.4,68.1,208,69z M206.4,75c0,0-1.4,2.6-3.2,3.6v-4.4L206.4,75z M201.1,47.7
		l1.4,3.4l-3.2-0.8L201.1,47.7z M193.1,59.2l0.6,5.2h-4.4L193.1,59.2z M193.8,72.6c0,0,2,7,3,8.8c1.1,1.8,7.6,5,7.6,5l-3.2,3.8
		c0,0-4.7-1.8-5.9-1.7c0,0-3.9-11.9-6.1-14.8L193.8,72.6z M196.7,180.5l-2.4-0.6l1.5-3.2C197.2,177.7,196.7,180.5,196.7,180.5z
		 M174.1,92.7l2,5.5v4.1c0,0-8.8-1.2-9.9-1.1C166.2,101.2,171.5,90.8,174.1,92.7z M142,137.3l5.3-9.9h3.9l1.1,12.9h-9.7L142,137.3z
		 M148.3,158.3l-5-5.2v-3.9c0,0,5.8-1.8,6.7-1.2s2.4,1.2,2.4,1.2l0.9,4.9L148.3,158.3z M158.6,111.5h3.6v7.2l-7.3-1.1
		C154.9,117.6,158.3,113.2,158.6,111.5z M165.3,140.4h-5.5c0,0-0.3-3.9-0.8-6.5c-0.5-2.5-2.7-8.1-2.7-8.1l7.6,0.8
		c0.5,4.3,4.3,9.7,4.3,9.7L165.3,140.4z M178.6,122.3l-6.8-1.2c0,0-2.7-8.5-4.3-11.5h9.1c0,0,0.3,7.7,2,9.4V122.3z M176.7,84.3
		l5.2-8.5h3.2l2,9.9L176.7,84.3z M184.1,103.9l-3.3-10.8c0,0,5.2-0.6,6.5,0c0,0,1.2,9.4,2,12.2L184.1,103.9z M194.3,190h-3.5h-2
		v-3.6l1.1-1.8c0.9,2.3,6.9,3.5,6.9,3.5C196.3,189.4,194.3,190,194.3,190z M206.1,175.8l-2.7,0.9c-2.9-7.4-5.8-8.2-5.8-8.2l1.2-0.8
		c2,4.9,7.9,4.9,7.9,4.9L206.1,175.8z M208.6,165.1c-0.8,0.5-5.2,1.1-5.2,1.1v-1.1l3.2-5.6C209.6,161.8,208.6,165.1,208.6,165.1z
		 M220.9,158.4c-3.3,2.9-7,3.6-7,3.6c-0.2-3.9-6.2-10.6-6.2-10.6l1.2-1.8c2.9,4.1,12,5.5,12,5.5V158.4z M232.7,141.9
		c-1.8,0-7.6,2.1-7.6,2.1l-1.8-4.3h9.4C233.9,141,232.7,141.9,232.7,141.9z M244,126.7v1.1l-8.5,1.4c-2.3-4.9-7.6-8.2-7.6-8.2
		c-0.2-1.1,2.6-3.3,2.6-3.3l5.2,4.7c0,0,6.4-0.3,7.4,0c1.1,0.3,2.4,3.5,2.4,3.5L244,126.7z M252,113.8h-5.3
		c-2.6-7.3-6.7-8.5-6.7-8.5l2.4-3.6h2.3v1.4c0,0,2.9,4.6,3.8,4.7c0.9,0.2,4.9,3.8,4.9,3.8L252,113.8z M264.2,102.2l-5.6,0.8v-6.2
		l5.6,1.7V102.2z"/>
</g>
<g id="pitcher_x5F_vw1_x5F_wst">
	<path  d="M119.9,264.1c-11.2,32.6-60,25.4-73.8,6.6c0,0,0.2,10.5,1.4,11.4c1.8,3.6,8.5,23.4,9.8,27.1
		c3.7,8.7,15.1,19.8,30.2,27.3c36.8,15.6,56.8,9.7,73.5,0.3C168.5,307,152.4,278.9,119.9,264.1z"/>
</g>
<g id="pitcher_x5F_vw1_x5F_logo">
	<path d="M59.5,296.9L60,290l21,3.8c0,0,9.3,0.9,13.8,1.1c24.4,1.9,18.7,15.5,11.9,21c-8.4,6.8-22.1,5.8-22.1,5.8
		l0.5,9.6L75,327.1l-1.8-22.5c0,0-0.3-2,0.8-1.9s10.2,1.7,10.2,1.7l0.6,11.2c0,0,9.6,0.1,11.4-5.6s-4.9-6.7-4.9-6.7
		s-12.6-0.8-18.7-2.6L59.5,296.9z"/>
	<path d="M58.2,299.3c0,0,10.9-3.3,14.3,8.1c1.5,8,1.6,15.3-6.5,12c-3.6-1.5,0-3.2,0-3.2c1.2-0.4,1.6-1.6,1.2-3.6
		c-2.8-0.1-4.8-0.3-8-3.9C56.8,305.9,56,302.1,58.2,299.3z"/>
</g>
<g id="pitcher_x5F_vw1_x5F_wlt">
	<path  d="M70.4,224.7c0,0-1.4-50.6,3.6-63.8c6.9-25.5,15.9-48.7,28.3-68.4c11.5-23.4,52.1-67.2,72.7-82.7h-3.9
		c0,0-33.5,32.4-44,44.8s-17.8,21.3-21,26.9s-16.6,28.4-20.3,38.8c-3.6,10.4-10.3,21.5-14.1,39.3s-3.9,63.8-3.9,63.8L70.4,224.7z"/>
	<path  d="M58.1,192.3c0,0-1.4,26,0.5,27.8l-1.8-1.8C56.7,218.3,55.6,197.8,58.1,192.3z"/>
	<path  d="M52.7,144c0,0-6.2,65.8-3.5,73.3h-1.8C47.4,217.3,47.6,149.3,52.7,144z"/>
	<path  d="M48.8,159.5c0,0-7.1,52.6-5.2,57.9l-1.8,0.7C41.7,218.1,44,170.9,48.8,159.5z"/>
</g>
<g id="pitcher_x5F_vw1_x5F_bnd">
	<path  d="M120,262.3c-1.8-10.5-10.8-16.3-10.8-16.3s-2.7-2.9-11.2-9.1c-8.5-6.2-16.3-8.4-16.3-8.4s-15-6.1-23.4-8.8
		s-1.9-1.2-11.8-2.3c-12.5-1.4-9.3,6.1-9,11.1c0.3,4.9,0,7.4-0.9,13.4c-0.8,5.7,0,23.7,0,23.7l3,14.7c1.5-3.5,6.8-4.7,6.8-4.7
		c-0.3-1.7-0.5-6.2-0.5-6.2c2.3,11.1,40.2,26.3,59.5,13.2C112.2,279,121,265.9,120,262.3z M60.6,271.4c-12.6-1.4-26.4-55.3,0-44.8
		l28,9.8c9.7,4.2,16.7,10.5,22.2,18.1C120.4,273.5,80.2,287.7,60.6,271.4z"/>
	<path  d="M49,286.2c0,0,4.3,9.6,5.1,12.6c0,0-5.5-2.7-9.6-8.8c0,0-0.9-1.4,1.5-5.2C46,284.8,46.7,285.6,49,286.2z"/>
	<path  d="M67.4,322.7c0,0,12.2,12.6,36.2,19c24.5,6.7,46.2,4.4,62.3-8.5c-15.3,21.7-50.4,15.2-62.7,10.2
		C103.1,343.3,74,334.8,67.4,322.7z"/>
</g>
<g id="pitcher_x5F_vw1_x5F_stch">
	<g>
		
			<path  d="M103,284.2c0,0,0.5-0.3,1.3-0.8"/>
			<path  d="M105.6,282.5c3.6-2.5,10.1-7.5,12.1-12.4"/>
			<path  d="M117.9,269.4c0.2-0.5,0.3-1,0.3-1.5c0.5,0.2,0.9,0.4,1.4,0.6"/>
			<path  d="M121,269.2c29.1,13.3,41.8,35.5,38,66.5"/>
			<path  d="M158.9,336.4c-0.1,0.5-0.1,1-0.2,1.5"/>
		
	
	
		
			<path  d="M114.8,275c0.5,0.2,0.9,0.4,1.3,0.7"/>
			<path  d="M117.5,276.4c35.5,19,37.8,50,35.9,61.4"/>
			<path  d="M153.2,338.5c-0.1,0.5-0.2,1-0.3,1.5c-0.4,0.2-0.9,0.5-1.3,0.7"/>
			<path  d="M150.1,341.4c-5.7,2.5-11.9,3.4-18.3,3.7"/>
			<path  d="M130.9,345.1c-0.5,0-1,0-1.5,0"/>
		
	
	
		
			<path  d="M95.7,187.3c0,0.5,0.1,1,0.1,1.5"/>
			<path  d="M96,190.3c3.5,35.7,23.2,55.9,63.1,56.5"/>
			<path  d="M159.8,246.8c0.5,0,1,0,1.5,0"/>
		
	
	
		
			<path  d="M98.2,187.3c0,0.5,0,1,0.1,1.5"/>
			<path  d="M98.4,190.3c2.1,31.4,22.1,54.2,59.1,54.6"/>
			<path  d="M158.2,245c0.5,0,1,0,1.5,0"/>
		
	
	
		
			<path  d="M92.7,183.5c0,0-0.4,0.4-0.9,1.2"/>
			<path  d="M91,186c-2.8,4.9-7.4,17.7-2.2,43.5"/>
			<path  d="M89,230.2c0.1,0.5,0.2,1,0.3,1.5c0,0,0.5,0.2,1.4,0.6"/>
			<path  d="M92.1,232.9c5.4,2.6,17.7,9.6,26.7,23.5"/>
			<path  d="M119.3,257.1c0.3,0.4,0.5,0.8,0.8,1.3c0,0,0.5,0.1,1.5,0.2"/>
			<path  d="M123.1,258.9c7.7,1.1,28.2,2.9,40.2-5"/>
			<path  d="M163.9,253.5c0.4-0.3,0.8-0.6,1.2-0.9"/>
		
	
	
		
			<path  d="M91.3,182.1c0,0-0.3,0.4-0.9,1.2"/>
			<path  d="M89.7,184.6c-3.1,5.5-8.9,19.8-3.2,42.9"/>
			<path  d="M86.7,228.2c0.1,0.5,0.3,1,0.4,1.5"/>
		
	
	
		
			<path  d="M121.5,261.1c0.4,0.1,0.9,0.3,1.4,0.4"/>
			<path  d="M124.4,261.8c8.6,1.7,25.4,2.1,38.7-5.5"/>
			<path  d="M163.8,256c0.4-0.3,0.9-0.5,1.3-0.8"/>
		
	
	
		
			<line  x1="172" y1="243.4" x2="173.5" y2="243"/>
			<path  d="M174.9,242.7l6-1.5c0,0,3.9-0.5,1.1,2.2c-1.7,1.6-3.8,3.3-5.2,4.5"/>
			<path  d="M176.2,248.4c-0.7,0.6-1.2,0.9-1.2,0.9"/>
		
	
	
		
			<line x1="173.5" y1="247.9" x2="174.6" y2="246.9"/>
			<polyline  points="175.5,246 176.6,245 175.1,245"/>
			<line  x1="173.5" y1="245" x2="172" y2="245"/>
		
	
	
		
			<path  d="M166.1,181.9l1.5,0.2c-0.1,0,0.1-0.5,0.6-1.4"/>
			<path  d="M168.9,179.4c8.2-13.8,51.4-77.8,75.2-106.8"/>
			<path  d="M244.5,72c0.3-0.4,0.6-0.8,1-1.2l-1.1-1"/>
			<polyline  points="244,69.6 242.9,68.6 242,69.8"/>
			<polyline  points="241.2,71 197.6,133.1 165.1,179.8"/>
			<polyline  points="164.7,180.4 163.8,181.7 165.3,181.8"/>
		
	
	
		
			<path  d="M213.1,26.9c0,0-0.5-0.3-1.3-0.8"/>
			<path  d="M210.6,25.3c-5.2-3.1-16.8-9.7-21.3-9.2l-2.3,1.7l-20.8,27.6c0,0-17.8,31.9-24.9,40.3l-21.2,34.5
				c0,0-12.5,19.9-7.4,36"/>
			<path  d="M112.9,156.9c0.2,0.5,0.3,0.9,0.5,1.4"/>
		
	
	
		
			<path  d="M211.5,29.3c0,0-0.4-0.4-1.1-1"/>
			<path  d="M209.3,27.4c-3.4-2.7-10.5-7.6-17.8-8.9"/>
			<path  d="M190.8,18.4c-0.5-0.1-1-0.1-1.5-0.2l-0.9,1.2"/>
			<path  d="M187.6,20.7l-26.9,38.5L130,109.5c-3,6.2-21,27.7-13.5,47.9"/>
			<path  d="M116.8,158.1c0.2,0.5,0.4,0.9,0.6,1.4"/>
		
	
	
		
			<path  d="M181.3,216.1c-0.3-0.1-0.7-0.4-1.3-0.7"/>
			<path  d="M178.7,214.6c-8.5-5.3-32.2-21.9-32.2-21.9l-21-18.7"/>
			<line  x1="124.9" y1="173.6" x2="123.8" y2="172.6"/>
		
	
	
		
			<path  d="M117.8,170c0.3,0.3,0.6,0.7,1,1.1"/>
			<path  d="M119.8,172.2c9.7,9.8,44.2,38.6,62.5,48.5"/>
			<path  d="M183,221c0.5,0.2,0.9,0.5,1.3,0.7"/>
		
	
	
		
			<path  d="M194.3,220.9c0.5-0.1,1-0.3,1.4-0.4"/>
			<path  d="M197.2,220.1c11.2-3.6,19.4-9.5,24.8-17.5c0,0,8.7-15.3,13.2-20.5c4.6-5.2,16.1-19.1,21.5-26.2
				c5.4-7.1,25.2-33.6,25.2-33.6l3.1-6.3"/>
			<polyline  points="285.3,115.3 286,113.9 285,112.8 			"/>
			<line  x1="284" y1="111.4" x2="278.1" y2="104.1"/>
			<line  x1="277.6" y1="103.4" x2="276.6" y2="102.2"/>
		
	
	
		
			<path  d="M220,35.3c0,0,0.5,0.2,1.3,0.7"/>
			<path  d="M222.6,36.7c4.4,2.6,14,8.9,25.5,21.1c0,0,18.1,22.8,24.2,32.4c5.5,8.6,13.4,15.3,16.3,21.5"/>
			<path  d="M288.9,112.4c0.2,0.5,0.4,0.9,0.5,1.4l2.1-1.8c0,0-0.3-0.5-0.8-1.3"/>
			<path  d="M289.9,109.4c-2.3-3.7-6.7-10.3-8.9-12.1c0,0-18.9-25.3-20.7-28.8c-1.7-3.3-22.9-26.8-36.3-35.1"/>
			<path  d="M223.2,33.1c-0.4-0.3-0.9-0.5-1.3-0.7"/>
		
	
	
		
			<path  d="M288,115.9c0,0-0.3,0.4-0.8,1.3"/>
			<path  d="M286.4,118.4c-4,6.1-14.7,22.1-22.2,31.2c-9.4,11.5-16.1,20.4-16.1,20.4s-18.7,24.4-24.8,34.9
				c0,0-7.7,13-24.3,17.9"/>
			<path  d="M198.2,222.9c-0.5,0.1-1,0.3-1.5,0.4"/>
		
	
	
		
			<line  x1="188.8" y1="197.6" x2="187.5" y2="196.8"/>
			<line x1="186.7" y1="196.4" x2="184.7" y2="195.3"/>
			<line  x1="184.4" y1="195.1" x2="183" y2="194.4"/>
		
	</g>
</g>
<g id="pitcher_x5F_vw1_x5F_lce">
	<path  d="M299,83.9c0,0-0.9-4.9-5-8.1h-4c0,0,1-2.2,1.2-4.3l-3-5.5c0,0-1.8-0.7-3.6,0.7c-1.8,1.4-2.3,2.3-2.3,2.3
		l-3-4.6c0,0,0.8-1.6,2.2-2.6s0.9-2.6,0.9-2.6l-4.3-4.7c0,0,0.2-0.8-2.1-0.3l-2.5,3.6c0,0-0.5-3.7-2.3-6.8l2.3-6l-4.3-4.3l-2.7,0.5
		l-2.1,3c0,0-5.2-2.7-8-1.5l-1.4-0.8l6.2-6.2l1.4-3.2l-5.2-4.6l-3.4,1.6l-5.6,6.5l-6.7-6c0,0,5.9-6.2,7.3-6.4
		c1.4-0.2,0.5-2.7,0.5-2.7l-6.2-3.2l-3.3,0.7l-6.2,6.2l-6.8-5.7c0,0,3.9-5.7,7.7-4.6c3.9,1.1-0.7-3.6-0.7-3.6l-7-2.6
		c0,0-1.8,0.1-3.9,2.4s-4.8,3.6-4.8,3.6l-2-2.1c0,0,3.8-3.9,7.2-3.9s-0.9-2.7-0.9-2.7l-14.5-3.9L203.9,5l-3.6-1.6l-3.4,4.7L196,9.7
		c0,0,17.5,10.6,19.1,11.7s-4.7,9.3-4.7,9.3l-2.3,2.7l-5.6-3.4c0,0-1.3-0.2-2.2,0.2c-0.9,0.5-6.6-3-6.6-3l-2.2,0.7l-3.5,3.4l2.5,4.8
		l-0.2,3l2,6.4l8.7,2.1l0.1,0.2l0.2-0.2l1.4,3.4l-0.4-0.1V51l-6.2-1.7l-5.5-1.7c0,0-3.4-4.6-7.3-4.9c0,0-4.8,2.4-4.6,4.9
		c0.2,2.4,2.1,4.3,2.1,4.3s-0.3,3.9,1.1,8.4h10.5l0,0l0.8-1.1l0.6,5.2h-4.4l0.1-0.2c-2.6-0.1-6.5-0.2-9.8,0.2
		c-5.5,0.5-5.7-4.1-5.7-4.1s-4.6-0.1-6.3,4.1s0,1,0,1l1.7,3.2c0,0-2.7,2.4,1.8,7.9l3.9,1.4l1.1,6.2h-4.9c0,0-6.4-7.7-8.9-7.6
		s-3.5,4.9-3.5,4.9l0.6,4.3l-0.6,1.6c0,0-1.8,2.5,1.6,7.3h3.3c0,0,3.2-1.9,8.7-1.8c0.6-0.4,1.2-0.4,1.7-0.1l0.1,0.2
		c0,0,1.4,1.7,1.7,4.6l0.3,0.7v4.1c0,0-0.4-0.1-1-0.1c0,0,0,0.1-0.1,0.1c0,0-11.5-2-16.7-0.6c0,0-5.4-6.6-8.2-6.8
		c-2.7-0.2-4.1,5.1-4.1,5.1s-0.9,3.1,0,4s-1.6,1.3,1.1,8.1h2.7c0,0,5.5-1.9,12.3-1c0,0,0,1.7,0,7.7c0,0-12.2-1.6-16.6-1.1
		c0,0-3.9-5.3-7.1-5.6c-3.2-0.3-4.8,5.2-4.8,5.2s-0.2,2.6,0,6.2s3.6,6.4,3.6,6.4s11.4-4.2,13-2.6c0.1,0.1,0.2,0.2,0.2,0.3h0.7
		l0.1,1.8c0.2,2.9,0.6,7.3,0.9,11.1h-7.7c0,0-0.6,0.4-0.9,0h-1l-0.3-1.7c-1.6-2-3.8-4.7-4.4-5.6c-1.1-1.6-6.2,0-6.2,0l-4.8-1.4
		c0,0-5,1.1-5.5,7.3c0,0,0.7,1.2,2.1,2.9l4.6,8.7l-3,4.1c0,0-4.1,4.3,3.4,9.6c0,0,12.8-3.9,16.6-3.4c3.9,0.5,3.1,3.4,3.1,3.4
		s2.6,9,3,14.3l0.6,1c-6.4-5.3-17.7-13.4-30.5-16.7c0,0-28.5-14.7-32.4-17.9l-5.2,6.2c0,0,9.1,6.8,17.3,11
		c8.2,4.3,11.8,6.1,16.6,7.9c4.8,1.8,22.6,10,31.9,18.7l-1.4,2.5c0,0,1.4,5.2,6.7,5.5c4.6,0.2,4.5-0.8,4.4-1.1
		c0.1,0.2,0.9,1.3,4.4,1.1c3.9-0.3,11.2,11.6,11.2,11.6s4.6,4.8,12.3,16.4s14.9,25.5,14.9,25.5l6.6-3.9c0,0-10.1-19.1-19.9-33.9
		c2.9-0.5,8.2-2.2,11.4-7.8c0,0,7,3.9,10.1-5.5c3.1-9.3-3.6-10.9-3.6-10.9l-0.7-2.1c0,0,4.7-2.5,5.6-3.9c0.9-1.4-0.3,2.5-1.3,6.2
		c0,0,0.6,2.5,2,3.6c0,0,8.5-0.2,10.2-8.1c-0.2,0.5-0.4,1-4.5-12.2l3.9-4c0,0,0.9,3.2,0.5,7.3c0,0,6.2,5.5,12.8-5.2
		c0,0-1.8-6-5.9-16.7l4-1.8c0,0,1.7,0.8,1,7c0,0,1.2,3.3,2.4,2.8s15-2.2,11.5-6.4c-0.6-0.7-7.2-13.6-6.8-17.3l5.3-3.5
		c0,0-0.7,5.2-1.2,8s1.2,4.4,1.2,4.4c5.3-1,9.2-3.2,11.8-6.5c0,0-2.7-3.9-7.2-17.7l4.3,1.3c0,0,0.7,4,0.9,8.4c0,0,7.7-2.8,8.9-2
		c0,0,5.1-2.7,3.2-5.1c-3.3-4.1-5.5-9.3-6.4-12.7h4.3l0.9,7h8.2c0,0-0.7-11.5-0.7-16.7c0-5.2,9.1-7.4,9.1-7.4l1.5-5.1
		c0.1,1.3,1.1,2.6,3.9,2.8l2.5-2.2l2.5,2.2l-3.2,3c0,0-1.6,6.5,3.2,4.4c4.8-2.1,6.2-3.1,6.2-3.1l5.2-6.1L299,83.9z M215.1,47.7
		l3.2,6.8l-5.6-0.9l-2.4-5.9C210.3,47.7,215.1,47.7,215.1,47.7z M217.5,61.8l-1.8,2.6l-0.6-2.6C215.1,61.8,217.5,61.8,217.5,61.8z
		 M181.8,75.8h3.2l2,9.9l-10.3-1.4L181.8,75.8z M148.3,158.3l-5-5.2v-3.9c0,0,5.8-1.8,6.7-1.2s2.4,1.2,2.4,1.2l0.9,4.9L148.3,158.3z
		 M187.3,204.6l-0.3,5c-4.6-6.8-9-12.2-12-13.8l11.6-4.1C186.6,191.6,191.4,196.4,187.3,204.6z M194.3,190h-3.5h-2v-3.6l1.1-1.8
		c0.9,2.3,6.9,3.5,6.9,3.5C196.3,189.4,194.3,190,194.3,190z M194.3,179.9l1.5-3.2c1.4,1.1,0.9,3.8,0.9,3.8L194.3,179.9z
		 M206.1,175.8l-2.7,0.9c-2.9-7.4-5.8-8.2-5.8-8.2l1.2-0.8c2,4.9,7.9,4.9,7.9,4.9L206.1,175.8z M208.6,165.1
		c-0.8,0.5-5.2,1.1-5.2,1.1v-1.1l3.2-5.6C209.6,161.8,208.6,165.1,208.6,165.1z M232.7,141.9c-1.8,0-7.6,2.1-7.6,2.1l-1.8-4.3h9.4
		C233.9,141,232.7,141.9,232.7,141.9z M225.9,131.7c0.2-2.1,2-3.9,2-3.9l3.3,3.2L225.9,131.7z M264.2,102.2l-5.6,0.8v-6.2l5.6,1.7
		V102.2z M271.8,92.4c0,0-3.4-5.2-5.2-8.1c-1.8-3-0.7-2.4-5.2-3.6c0,0-4.6-4.1-8-4.9s-5.2,1.1-4.1,5.6l2.3,4.3l0.2,3
		c0,0-3.4-0.7-7.7,2.7l-4-0.2c0,0-6.5,1.7-2.4,7.9l3.7,2.6l2.4-0.2v0.2h0.9v1.4c0,0,0.5,0.8,0.5,2l7.1,5.8l2,0.7l-1.1,0.4l-1.2,1.9
		h-4.8l-0.5,0.2c0,0-2.7-7.5-7.9-8.8c-5.2-1.2-7.6,1.3-7.6,1.3l-2.7,0.5c0,0-6.7,0.7-2.7,7.1c0,0,1.1,3.6,3.1,5l0,0
		c0.7-0.7,1.4-1.4,1.4-1.4l1.5,1.4l0,0l0,0l3.7,3.3c0,0,3.5-0.2,5.8-0.1l0,0l0,0c0.8,0,1.4,0.1,1.7,0.1c1.1,0.3,2.4,3.5,2.4,3.5
		l-1.1,0.7c-0.1,0.3-0.2,0.6-0.4,1v0.3l-2.3,0.4l-5.5,1.6c0,0-0.1-0.3-0.4-0.7l-0.4,0.1c-1.8-3.8-5.3-6.6-6.9-7.7
		c-2.3-1-4.9-0.8-7.7,1.9h-4.6c0,0-5.8,1-3.3,6.4c0,0,0.2,1.7,4.3,2c0,0-0.9,1.8,0,3c0,0-5.6,0-7,2.7c0,0-3.7,0.5-5.5,1.4
		s-4.3,3.9-1.4,7.5c2.8,3.6,4.3,1.5,4.3,1.5s0.2,0.9,1.1,2l0.2-0.2c1.1,1.6,3.3,2.8,5.4,3.7c5.8,1.7,6.6,0.7,6.6,0.7s1.9,1.4,0,4.3
		v0.2c-0.1,0.1-0.2,0.2-0.3,0.2c-2,2.5-5.6,3.1-5.6,3.1l0,0c-0.7,0.2-1.1,0.3-1.1,0.3c0-1.3-0.7-2.8-1.6-4.3
		c-2.2-2.9-5.3-6.3-7.8-5.8c-4.4,0.9-6.9,2.7-6.9,2.7l-3.3,1.1c0,0-4.9,1.7-3.2,6.2c0,0,1.3,2,4.4,2.4v3.2c0,0-4.8-0.2-7.8,4h-5.5
		c0,0-5,1.7-1.8,6.8c0,0,0.9,3.3,5,1.9l1.1,2.5c0,0-11.6,0.5-15,4.3c0,0-5.5-8.4-13.2-5l-0.9,2.3c0,0-0.5-0.5-1.5-1.4
		c1.2-1.8,3.1-5.1,3.4-8.1c0.4-4.6-1-13.2-1-15.5s3.9,2.6,3.9,2.6l2.5,4.1c0,0,6.2-3,6.4-5.5s-0.9-7.6-0.9-7.6s5-2.2-0.2-9.1
		c-1.6-2.1-3.2-3.2-4.6-3.8l-0.1,0.2h-5.5c0,0,0-0.4-0.1-1.1c-0.1-3.1-2.1-11.1-3.9-13.5h0.5l0,0l7.6,0.8c0,0.4,0.1,0.8,0.2,1.2
		c0.2,0.7,0.5,1.7,0.9,2.8c1.3,3.1,3.1,5.7,3.1,5.7l-0.3,0.5c0.6,0.9,1.1,1.6,1.7,2c3,2.1,5.5,6.2,5.5,6.2l1.1,1.6
		c0,0,3,1.9,6.2-4.6s-0.5-6.5-0.5-6.5l2.1-3.6c0,0-0.9-6.7-5.2-8.4c-4.3-1.7-6.6-2.1-6.6-2.1s0,0,0-0.1h-0.2c0,0-0.4-1.2-0.9-2.8
		c-1-2.4-2.3-5.9-3.3-8c0,0,0.1-0.1,0.3-0.1c-0.1-0.2-0.2-0.4-0.3-0.6h9.1c0,0,0.3,7.7,2,9.4v1.2c0.3,0.6,0.6,1.2,0.9,1.8
		c0,0,1.6,2.4,5.5,2.4c0,0,1.9,4.7,3.8,5.3c1.9,0.6,5.2-2.3,5.2-2.3s0.9-6.8-1.2-10.3c0,0,3-4.6-0.6-9.5c-1-1.4-2.1-2.3-3.1-2.9
		c0,0.2,0.1,0.4,0.1,0.5l-5.2-1.4l-3.3-10.8c0,0,5.2-0.6,6.5,0c0,0,0.8,6.3,1.5,10.1l0,0c0,0,5.4,6.7,8,6.3l1.9,4.3
		c0,0,5,1.4,5.8-1.8c0.8-3.3,0.4-9,0.4-9s2.6-6.6-3.7-11.8c0,0-1.8-1.5-3.6-2.2c-0.9-0.3-1.7-0.5-2.1-0.4c0,0-3.9-11.9-6.1-14.8
		l2.4-0.6c0.1,0,0.2-0.1,0.4-0.1L194,73c0,0,2,7,3,8.8c0,0,0,0.1,0.1,0.1c3.2,2.8,1.9,2.2,7.5,4.9l7,10.9c0,0,4.3,2.5,4.9-3
		c0.6-5.5-2.1-12.9-2.1-12.9s1.4-4-1.5-7.8c-1-0.8-2.8-2.3-4.7-3.7l0,0c-1.9-1.3-3.8-2.5-4.9-2.6l-0.2-0.7l-1.9-6.3h1.1
		c0,0,0.5-0.1,1.2,0h1.4c0,0,0,0.1,0.1,0.4c0.5,0.5,0.8,3.3,1.9,5.7c0.3,0.8,0.5,1.5,0.7,1.9l0.5,1.2c0,0,1.2-0.7,3.4-0.4
		c1,0.2,2.1,0.8,2.9,2.2c0.4,0.4,0.7,0.8,1.1,1.3l2,1.7h2.3l3.5,6.5c0,0,4.6,3,5.2-4.3c0.7-7.2-1.6-9.2-1.6-9.2s1.1-3.9-3.6-8.1h5
		c0,0,2.8,1.3,7.9,8.1c0,0,4.1-3.2,5.2-7c1.1-3.8-8.1-10-8.1-10v-4.1c0,0-5.4-4.3-10-4.3c0,0-4.1-3.6-5-5.2c0,0,2.7-7.5,3.9-9.8
		c0,0,24.2,18.4,27.8,24.2s3.6,5.8,3.6,5.8l2.7,3.3h3.6l2.7,1.5c0,0-1.9,1.2,1.4,5.5s7,2,7,2S278.7,81,284,84
		C284.1,83.6,281.4,88.5,271.8,92.4z M251.7,101.6h-3.6l2.9-4.3L251.7,101.6z M241.4,115.2l-1.4,0.7h-3.8c1.1-2.1,3.8-3.9,3.8-3.9
		L241.4,115.2z M219.8,146.6L215,148v-1.1l2.3-5C220.1,143.3,219.8,146.6,219.8,146.6z M203.3,78.7v-4.4l3.2,0.8
		C206.4,75,205.1,77.6,203.3,78.7z"/>
	<path  d="M79.3,153.1l-2.8-0.9l-4.5,6.1c0,0,22.7,27,27.8,31.7s21.6,18.5,21.6,18.5L120,211c0,0,1.9,4.1,3.5,7.1
		c0,0,3.9,0.8,5.5-0.7c1.6-1.5,5.5,3.9,5.5,3.9s8.7,2.1,9.8,1.1c1.1-0.9,18.5,26.6,18.5,26.6l18.9,28.3l7.2-6.2
		c0,0-17.9-26.7-18.6-28.9c-0.7-2.3-15-23.7-16.9-26l1.7-3.4l-4.5-6.6c0,0-1.7-2.3-4.4,1.1c0,0-7.3-4.6-14.6-3
		c0,0-20.7-15.5-32.8-29.4S79.3,153.1,79.3,153.1z"/>
	<path  d="M256.2,226.9c0,0,1.4,0.8-0.6,2.7c-8.6,7.9-37.6,29.9-35,45.9l1.1,13.2L219,290l-3,5.5c0,0-9.3,1.8-12.8,3.2
		s-7.3,8.4-7.3,8.4s-14.1,17.3-23.9,24.6l-6.2,1.8l1.1-3.4c0,0,22.6-23.5,31.4-37.2s20.3-31.7,20.3-31.7
		C230.6,248.1,242.5,235.1,256.2,226.9z"/>
	<path  d="M239.3,234.3c0,0-2.1,6-2.6,6.8l-2.7-1.4l6.1-15.6c0,0,10.2-14.1,13.1-18.5c2.9-4.4,4.7-7.1,6-8.7
		c0.2-0.2,5.5-7.5,6-8.4s2.3-4.3,2.3-4.3l1.3-1.2l1.1,2.8c0,0,17.3-21,23.2-25.9c0,0,2.8,0.7,2.6,3.4c-0.2,2.7,0,0.5,0,0.5
		s-12.7,13.6-16.6,18.3s-6.7,9.9-6.7,9.9s0.8,1.7,0.1,3.9c-0.7,2.1-0.8,3.3-2.2,5.8c-1.4,2.6-4.1,2.2-4.1,2.2l-3.3,5.9
		c0,0-3-0.8-4.5,0.4c-1.4,1.1-3.6-0.5-3.6-0.5C248.4,216.5,243.4,224.8,239.3,234.3z"/>
	<path  d="M307.1,129c0,0-3.2,24.9-4.4,30.5c-1.2,5.5-4.2,21.3-4.3,23l0.6,1c0,0,3.8-0.7,5.7-0.7c0,0,4.2-20.1,4.8-23.1
		s3.4-13.9,4.1-22.3c0,0,2-16.5,3.4-17.5c1.4-1.1,1.7,0,1.8-1.7c0.1-1.7,0-4.7,0-4.7s-0.8-4.3-8.6-1.7l-0.8-0.5c0,0-1.5-6.1-3.4-7.3
		l-2,3.6l-2.6,2.7c0,0,2.6,0,4.1,3.6c0,0-1.5,5.2-0.5,7.7s3.6,1.3,3.6,1.3L307.1,129z"/>
	<path  d="M194.9,3c0,0-5.5-5.2-9.5-1.4c0,0-6.8-2.2-11.5,1.8s-5.8,4.7-5.8,4.7s-2,1.5-0.8,5.2c0,0,3.7-3.2,12.2-5.2h3
		c0,0,4.4,0,6.7,0.3S194.9,3,194.9,3z"/>
	<path  d="M139.5,35.7c0,0-4.9-1.4-6.8,1.2s-3.5,6.1-2,9.6l6.1-7.4L139.5,35.7z"/>
	<path  d="M146.7,22.6c0,0-3.9-2-7.3,0.6s-6.1,4.7-6.1,4.7s-1.8,5.3,0,7.4c0,0,4.1-4.2,6.3-5.3
		C141.9,29,146.7,22.6,146.7,22.6z"/>
	<path  d="M46.3,275.4c0,0-5.3,1.1-6.7,4.7s-1.5,6.6-1.5,6.6s2.1,5,2.6,6.9c0.5,2,3.6,2.9,3.6,2.9l-1.5,6.5l3.2-4.3
		c0,0,4.9,7.1,10,10.3l1.8,1.7l-3.8-12c0,0-8.5-7.6-9.5-8.7c-1.1-1.1,1.5-5.5,1.5-5.5s2.8,1.9,3.7,2s-2.3-6-2.3-6L46.3,275.4z"/>
	<path  d="M40,206.2l-8,5.8c0,0-0.2,2.7-0.8,4.3c-0.6,1.5-0.5,7.1,4.4,11.1c4.9,3.9-1.9-7.9,4.4-9.3
		C40,218.1,40,206.2,40,206.2z"/>
</g>
<g id="pitcher_x5F_open_x5F_side">
	
		<image id="glove-view-3" style="overflow:visible;enable-background:new;" width="635" height="768" xlink:href="9P_pitcher_side_view.png"  transform="matrix(0.4557 0 0 0.4557 30.306 0)">
	</image>
</g>
</svg>
