<?xml version="1.0" encoding="UTF-8" standalone="no"?>
<!-- Created with Inkscape (http://www.inkscape.org/) -->

<svg
   xmlns:dc="http://purl.org/dc/elements/1.1/"
   xmlns:cc="http://creativecommons.org/ns#"
   xmlns:rdf="http://www.w3.org/1999/02/22-rdf-syntax-ns#"
   xmlns:svg="http://www.w3.org/2000/svg"
   xmlns="http://www.w3.org/2000/svg"
   xmlns:sodipodi="http://sodipodi.sourceforge.net/DTD/sodipodi-0.dtd"
   xmlns:inkscape="http://www.inkscape.org/namespaces/inkscape"
   width="13.229167mm"
   height="14.488492mm"
   viewBox="0 0 13.229167 14.488492"
   version="1.1"
   id="svg8"
   inkscape:version="0.92.3 (2405546, 2018-03-11)"
   sodipodi:docname="swipe.svg">
  <defs
     id="defs2" />
  <sodipodi:namedview
     id="base"
     pagecolor="#ffffff"
     bordercolor="#666666"
     borderopacity="1.0"
     inkscape:pageopacity="0.0"
     inkscape:pageshadow="2"
     inkscape:zoom="0.35"
     inkscape:cx="385.81922"
     inkscape:cy="196.75455"
     inkscape:document-units="mm"
     inkscape:current-layer="layer1"
     showgrid="false"
     inkscape:window-width="1024"
     inkscape:window-height="705"
     inkscape:window-x="-8"
     inkscape:window-y="-8"
     inkscape:window-maximized="1" />
  <metadata
     id="metadata5">
    <rdf:RDF>
      <cc:Work
         rdf:about="">
        <dc:format>image/svg+xml</dc:format>
        <dc:type
           rdf:resource="http://purl.org/dc/dcmitype/StillImage" />
        <dc:title></dc:title>
      </cc:Work>
    </rdf:RDF>
  </metadata>
  <g
     inkscape:label="Layer 1"
     inkscape:groupmode="layer"
     id="layer1"
     transform="translate(-51.857668,-186.40282)">
    <g
       id="g107"
       transform="matrix(0.02952906,0,0,0.02952906,51.22802,186.40285)"
       style="fill:#cccccc">
      <g
         id="g14"
         style="fill:#cccccc">
	<g
   id="g12"
   style="fill:#cccccc">
		<path
   id="path10"
   d="m 437.328,42.651 h -128 c -5.888,0 -10.667,4.779 -10.667,10.667 0,5.888 4.779,10.667 10.667,10.667 h 128 c 5.888,0 10.667,-4.779 10.667,-10.667 0,-5.888 -4.779,-10.667 -10.667,-10.667 z"
   inkscape:connector-curvature="0"
   style="fill:#cccccc" />

	</g>

</g>
      <g
         id="g20"
         style="fill:#cccccc">
	<g
   id="g18"
   style="fill:#cccccc">
		<path
   id="path16"
   d="M 444.88,45.787 402.213,3.12 c -4.16,-4.16 -10.923,-4.16 -15.083,0 -4.16,4.16 -4.16,10.923 0,15.083 l 35.115,35.115 -35.136,35.136 c -4.16,4.16 -4.16,10.923 0,15.083 2.091,2.069 4.821,3.115 7.552,3.115 2.731,0 5.461,-1.045 7.552,-3.115 L 444.88,60.87 c 4.16,-4.161 4.16,-10.923 0,-15.083 z"
   inkscape:connector-curvature="0"
   style="fill:#cccccc" />

	</g>

</g>
      <g
         id="g26"
         style="fill:#cccccc">
	<g
   id="g24"
   style="fill:#cccccc">
		<path
   id="path22"
   d="m 159.995,42.651 h -128 c -5.888,0 -10.667,4.779 -10.667,10.667 0,5.888 4.779,10.667 10.667,10.667 h 128 c 5.888,0 10.667,-4.779 10.667,-10.667 0,-5.888 -4.779,-10.667 -10.667,-10.667 z"
   inkscape:connector-curvature="0"
   style="fill:#cccccc" />

	</g>

</g>
      <g
         id="g32"
         style="fill:#cccccc">
	<g
   id="g30"
   style="fill:#cccccc">
		<path
   id="path28"
   d="M 47.077,53.317 82.192,18.202 c 4.16,-4.16 4.16,-10.923 0,-15.083 -4.16,-4.16 -10.923,-4.16 -15.083,0 L 24.443,45.787 c -4.16,4.16 -4.16,10.923 0,15.083 l 42.667,42.667 c 2.091,2.069 4.821,3.115 7.552,3.115 2.731,0 5.461,-1.045 7.531,-3.136 4.16,-4.16 4.16,-10.923 0,-15.083 z"
   inkscape:connector-curvature="0"
   style="fill:#cccccc" />

	</g>

</g>
      <g
         id="g38"
         style="fill:#cccccc">
	<g
   id="g36"
   style="fill:#cccccc">
		<path
   id="path34"
   d="m 426.661,213.317 c -8.768,0 -16.939,2.667 -23.723,7.211 -5.845,-16.597 -21.696,-28.544 -40.277,-28.544 -8.768,0 -16.939,2.667 -23.723,7.211 -5.845,-16.597 -21.696,-28.544 -40.277,-28.544 -7.765,0 -15.061,2.091 -21.333,5.739 v -69.739 c 0,-23.531 -19.136,-42.667 -42.667,-42.667 -23.531,0 -42.667,19.136 -42.667,42.667 v 181.333 l -37.077,-27.797 c -21.973,-16.491 -53.248,-14.293 -72.725,5.163 -12.48,12.48 -12.48,32.768 0,45.248 l 151.915,151.936 c 18.133,18.133 42.261,28.117 67.904,28.117 h 49.984 c 64.683,0 117.333,-52.629 117.333,-117.333 V 255.984 c 0,-23.531 -19.136,-42.667 -42.667,-42.667 z m 21.334,160 c 0,52.928 -43.072,96 -96,96 h -49.984 c -19.968,0 -38.72,-7.765 -52.821,-21.867 L 97.275,295.515 c -4.16,-4.16 -4.16,-10.923 0,-15.083 6.613,-6.592 15.445,-9.984 24.32,-9.984 7.211,0 14.464,2.24 20.544,6.805 l 54.123,40.597 c 3.243,2.432 7.595,2.795 11.179,1.003 3.605,-1.813 5.888,-5.504 5.888,-9.536 V 106.651 c 0,-11.755 9.557,-21.333 21.333,-21.333 11.776,0 21.333,9.579 21.333,21.333 v 160 c 0,5.888 4.779,10.667 10.667,10.667 5.888,0 10.667,-4.779 10.667,-10.667 v -53.333 c 0,-11.755 9.557,-21.333 21.333,-21.333 11.776,0 21.333,9.579 21.333,21.333 v 53.333 c 0,5.888 4.779,10.667 10.667,10.667 5.888,0 10.667,-4.779 10.667,-10.667 v -32 c 0,-11.755 9.557,-21.333 21.333,-21.333 11.776,0 21.333,9.579 21.333,21.333 v 32 c 0,5.888 4.779,10.667 10.667,10.667 5.888,0 10.667,-4.779 10.667,-10.667 v -10.667 c 0,-11.755 9.557,-21.333 21.333,-21.333 11.776,0 21.333,9.579 21.333,21.333 z"
   inkscape:connector-curvature="0"
   style="fill:#cccccc" />

	</g>

</g>
      <g
         id="g40"
         style="fill:#cccccc">
</g>
      <g
         id="g42"
         style="fill:#cccccc">
</g>
      <g
         id="g44"
         style="fill:#cccccc">
</g>
      <g
         id="g46"
         style="fill:#cccccc">
</g>
      <g
         id="g48"
         style="fill:#cccccc">
</g>
      <g
         id="g50"
         style="fill:#cccccc">
</g>
      <g
         id="g52"
         style="fill:#cccccc">
</g>
      <g
         id="g54"
         style="fill:#cccccc">
</g>
      <g
         id="g56"
         style="fill:#cccccc">
</g>
      <g
         id="g58"
         style="fill:#cccccc">
</g>
      <g
         id="g60"
         style="fill:#cccccc">
</g>
      <g
         id="g62"
         style="fill:#cccccc">
</g>
      <g
         id="g64"
         style="fill:#cccccc">
</g>
      <g
         id="g66"
         style="fill:#cccccc">
</g>
      <g
         id="g68"
         style="fill:#cccccc">
</g>
    </g>
  </g>
</svg>
